%TF.GenerationSoftware,KiCad,Pcbnew,8.0.5*%
%TF.CreationDate,2025-06-06T09:51:39+09:00*%
%TF.ProjectId,e-con_hub,652d636f-6e5f-4687-9562-2e6b69636164,rev?*%
%TF.SameCoordinates,Original*%
%TF.FileFunction,Drillmap*%
%TF.FilePolarity,Positive*%
%FSLAX45Y45*%
G04 Gerber Fmt 4.5, Leading zero omitted, Abs format (unit mm)*
G04 Created by KiCad (PCBNEW 8.0.5) date 2025-06-06 09:51:39*
%MOMM*%
%LPD*%
G01*
G04 APERTURE LIST*
%ADD10C,0.050000*%
%ADD11C,0.200000*%
%ADD12C,0.100000*%
G04 APERTURE END LIST*
D10*
X17900000Y-10800000D02*
X13000000Y-10800000D01*
X18200000Y-8600000D02*
X18200000Y-10500000D01*
X12700000Y-8600000D02*
G75*
G02*
X13000000Y-8300000I300000J0D01*
G01*
X13160000Y-8600000D02*
G75*
G02*
X12840000Y-8600000I-160000J0D01*
G01*
X12840000Y-8600000D02*
G75*
G02*
X13160000Y-8600000I160000J0D01*
G01*
X12700000Y-10500000D02*
X12700000Y-8600000D01*
X17900000Y-8300000D02*
G75*
G02*
X18200000Y-8600000I0J-300000D01*
G01*
X13000000Y-10800000D02*
G75*
G02*
X12700000Y-10500000I0J300000D01*
G01*
X18200000Y-10500000D02*
G75*
G02*
X17900000Y-10800000I-300000J0D01*
G01*
X13000000Y-8300000D02*
X17900000Y-8300000D01*
X13160000Y-10500000D02*
G75*
G02*
X12840000Y-10500000I-160000J0D01*
G01*
X12840000Y-10500000D02*
G75*
G02*
X13160000Y-10500000I160000J0D01*
G01*
X18060000Y-8600000D02*
G75*
G02*
X17740000Y-8600000I-160000J0D01*
G01*
X17740000Y-8600000D02*
G75*
G02*
X18060000Y-8600000I160000J0D01*
G01*
X18060000Y-10500000D02*
G75*
G02*
X17740000Y-10500000I-160000J0D01*
G01*
X17740000Y-10500000D02*
G75*
G02*
X18060000Y-10500000I160000J0D01*
G01*
D11*
D12*
X12860000Y-8885000D02*
X12890000Y-8915000D01*
X12890000Y-8885000D02*
X12860000Y-8915000D01*
X12860000Y-9485000D02*
X12890000Y-9515000D01*
X12890000Y-9485000D02*
X12860000Y-9515000D01*
X12860000Y-10085000D02*
X12890000Y-10115000D01*
X12890000Y-10085000D02*
X12860000Y-10115000D01*
X13260000Y-8385000D02*
X13290000Y-8415000D01*
X13290000Y-8385000D02*
X13260000Y-8415000D01*
X13260000Y-10685000D02*
X13290000Y-10715000D01*
X13290000Y-10685000D02*
X13260000Y-10715000D01*
X13485000Y-9305000D02*
X13515000Y-9335000D01*
X13515000Y-9305000D02*
X13485000Y-9335000D01*
X14165000Y-8385000D02*
X14195000Y-8415000D01*
X14195000Y-8385000D02*
X14165000Y-8415000D01*
X14195000Y-10685000D02*
X14225000Y-10715000D01*
X14225000Y-10685000D02*
X14195000Y-10715000D01*
X14335000Y-8560000D02*
X14365000Y-8590000D01*
X14365000Y-8560000D02*
X14335000Y-8590000D01*
X14585000Y-8560000D02*
X14615000Y-8590000D01*
X14615000Y-8560000D02*
X14585000Y-8590000D01*
X14643000Y-8835000D02*
X14673000Y-8865000D01*
X14673000Y-8835000D02*
X14643000Y-8865000D01*
X14785000Y-9210000D02*
X14815000Y-9240000D01*
X14815000Y-9210000D02*
X14785000Y-9240000D01*
X15185000Y-9110000D02*
X15215000Y-9140000D01*
X15215000Y-9110000D02*
X15185000Y-9140000D01*
X15195000Y-10685000D02*
X15225000Y-10715000D01*
X15225000Y-10685000D02*
X15195000Y-10715000D01*
X15460000Y-8385000D02*
X15490000Y-8415000D01*
X15490000Y-8385000D02*
X15460000Y-8415000D01*
X15485000Y-9110000D02*
X15515000Y-9140000D01*
X15515000Y-9110000D02*
X15485000Y-9140000D01*
X16018000Y-8385000D02*
X16048000Y-8415000D01*
X16048000Y-8385000D02*
X16018000Y-8415000D01*
X16135000Y-8660000D02*
X16165000Y-8690000D01*
X16165000Y-8660000D02*
X16135000Y-8690000D01*
X16135000Y-9085000D02*
X16165000Y-9115000D01*
X16165000Y-9085000D02*
X16135000Y-9115000D01*
X16195000Y-10685000D02*
X16225000Y-10715000D01*
X16225000Y-10685000D02*
X16195000Y-10715000D01*
X17035000Y-9085000D02*
X17065000Y-9115000D01*
X17065000Y-9085000D02*
X17035000Y-9115000D01*
X17160000Y-8385000D02*
X17190000Y-8415000D01*
X17190000Y-8385000D02*
X17160000Y-8415000D01*
X17195000Y-10685000D02*
X17225000Y-10715000D01*
X17225000Y-10685000D02*
X17195000Y-10715000D01*
X17210000Y-8660000D02*
X17240000Y-8690000D01*
X17240000Y-8660000D02*
X17210000Y-8690000D01*
X17747132Y-9235000D02*
X17777132Y-9265000D01*
X17777132Y-9235000D02*
X17747132Y-9265000D01*
X17747132Y-9935000D02*
X17777132Y-9965000D01*
X17777132Y-9935000D02*
X17747132Y-9965000D01*
X18060000Y-8885000D02*
X18090000Y-8915000D01*
X18090000Y-8885000D02*
X18060000Y-8915000D01*
X18060000Y-9485000D02*
X18090000Y-9515000D01*
X18090000Y-9485000D02*
X18060000Y-9515000D01*
X18060000Y-10085000D02*
X18090000Y-10115000D01*
X18090000Y-10085000D02*
X18060000Y-10115000D01*
X13800000Y-9530000D02*
G75*
G02*
X13700000Y-9530000I-50000J0D01*
G01*
X13700000Y-9530000D02*
G75*
G02*
X13800000Y-9530000I50000J0D01*
G01*
X13800000Y-9730000D02*
G75*
G02*
X13700000Y-9730000I-50000J0D01*
G01*
X13700000Y-9730000D02*
G75*
G02*
X13800000Y-9730000I50000J0D01*
G01*
X13800000Y-9930000D02*
G75*
G02*
X13700000Y-9930000I-50000J0D01*
G01*
X13700000Y-9930000D02*
G75*
G02*
X13800000Y-9930000I50000J0D01*
G01*
X13800000Y-10130000D02*
G75*
G02*
X13700000Y-10130000I-50000J0D01*
G01*
X13700000Y-10130000D02*
G75*
G02*
X13800000Y-10130000I50000J0D01*
G01*
X13800000Y-10330000D02*
G75*
G02*
X13700000Y-10330000I-50000J0D01*
G01*
X13700000Y-10330000D02*
G75*
G02*
X13800000Y-10330000I50000J0D01*
G01*
X14480000Y-9530000D02*
G75*
G02*
X14380000Y-9530000I-50000J0D01*
G01*
X14380000Y-9530000D02*
G75*
G02*
X14480000Y-9530000I50000J0D01*
G01*
X14480000Y-9730000D02*
G75*
G02*
X14380000Y-9730000I-50000J0D01*
G01*
X14380000Y-9730000D02*
G75*
G02*
X14480000Y-9730000I50000J0D01*
G01*
X14480000Y-9930000D02*
G75*
G02*
X14380000Y-9930000I-50000J0D01*
G01*
X14380000Y-9930000D02*
G75*
G02*
X14480000Y-9930000I50000J0D01*
G01*
X14480000Y-10130000D02*
G75*
G02*
X14380000Y-10130000I-50000J0D01*
G01*
X14380000Y-10130000D02*
G75*
G02*
X14480000Y-10130000I50000J0D01*
G01*
X14480000Y-10330000D02*
G75*
G02*
X14380000Y-10330000I-50000J0D01*
G01*
X14380000Y-10330000D02*
G75*
G02*
X14480000Y-10330000I50000J0D01*
G01*
X14992000Y-8625000D02*
G75*
G02*
X14892000Y-8625000I-50000J0D01*
G01*
X14892000Y-8625000D02*
G75*
G02*
X14992000Y-8625000I50000J0D01*
G01*
X14992000Y-8879000D02*
G75*
G02*
X14892000Y-8879000I-50000J0D01*
G01*
X14892000Y-8879000D02*
G75*
G02*
X14992000Y-8879000I50000J0D01*
G01*
X15160000Y-9530000D02*
G75*
G02*
X15060000Y-9530000I-50000J0D01*
G01*
X15060000Y-9530000D02*
G75*
G02*
X15160000Y-9530000I50000J0D01*
G01*
X15160000Y-9730000D02*
G75*
G02*
X15060000Y-9730000I-50000J0D01*
G01*
X15060000Y-9730000D02*
G75*
G02*
X15160000Y-9730000I50000J0D01*
G01*
X15160000Y-9930000D02*
G75*
G02*
X15060000Y-9930000I-50000J0D01*
G01*
X15060000Y-9930000D02*
G75*
G02*
X15160000Y-9930000I50000J0D01*
G01*
X15160000Y-10130000D02*
G75*
G02*
X15060000Y-10130000I-50000J0D01*
G01*
X15060000Y-10130000D02*
G75*
G02*
X15160000Y-10130000I50000J0D01*
G01*
X15160000Y-10330000D02*
G75*
G02*
X15060000Y-10330000I-50000J0D01*
G01*
X15060000Y-10330000D02*
G75*
G02*
X15160000Y-10330000I50000J0D01*
G01*
X15246000Y-8625000D02*
G75*
G02*
X15146000Y-8625000I-50000J0D01*
G01*
X15146000Y-8625000D02*
G75*
G02*
X15246000Y-8625000I50000J0D01*
G01*
X15246000Y-8879000D02*
G75*
G02*
X15146000Y-8879000I-50000J0D01*
G01*
X15146000Y-8879000D02*
G75*
G02*
X15246000Y-8879000I50000J0D01*
G01*
X15500000Y-8625000D02*
G75*
G02*
X15400000Y-8625000I-50000J0D01*
G01*
X15400000Y-8625000D02*
G75*
G02*
X15500000Y-8625000I50000J0D01*
G01*
X15500000Y-8879000D02*
G75*
G02*
X15400000Y-8879000I-50000J0D01*
G01*
X15400000Y-8879000D02*
G75*
G02*
X15500000Y-8879000I50000J0D01*
G01*
X15754000Y-8625000D02*
G75*
G02*
X15654000Y-8625000I-50000J0D01*
G01*
X15654000Y-8625000D02*
G75*
G02*
X15754000Y-8625000I50000J0D01*
G01*
X15754000Y-8879000D02*
G75*
G02*
X15654000Y-8879000I-50000J0D01*
G01*
X15654000Y-8879000D02*
G75*
G02*
X15754000Y-8879000I50000J0D01*
G01*
X15840000Y-9530000D02*
G75*
G02*
X15740000Y-9530000I-50000J0D01*
G01*
X15740000Y-9530000D02*
G75*
G02*
X15840000Y-9530000I50000J0D01*
G01*
X15840000Y-9730000D02*
G75*
G02*
X15740000Y-9730000I-50000J0D01*
G01*
X15740000Y-9730000D02*
G75*
G02*
X15840000Y-9730000I50000J0D01*
G01*
X15840000Y-9930000D02*
G75*
G02*
X15740000Y-9930000I-50000J0D01*
G01*
X15740000Y-9930000D02*
G75*
G02*
X15840000Y-9930000I50000J0D01*
G01*
X15840000Y-10130000D02*
G75*
G02*
X15740000Y-10130000I-50000J0D01*
G01*
X15740000Y-10130000D02*
G75*
G02*
X15840000Y-10130000I50000J0D01*
G01*
X15840000Y-10330000D02*
G75*
G02*
X15740000Y-10330000I-50000J0D01*
G01*
X15740000Y-10330000D02*
G75*
G02*
X15840000Y-10330000I50000J0D01*
G01*
X16008000Y-8625000D02*
G75*
G02*
X15908000Y-8625000I-50000J0D01*
G01*
X15908000Y-8625000D02*
G75*
G02*
X16008000Y-8625000I50000J0D01*
G01*
X16008000Y-8879000D02*
G75*
G02*
X15908000Y-8879000I-50000J0D01*
G01*
X15908000Y-8879000D02*
G75*
G02*
X16008000Y-8879000I50000J0D01*
G01*
X16520000Y-9530000D02*
G75*
G02*
X16420000Y-9530000I-50000J0D01*
G01*
X16420000Y-9530000D02*
G75*
G02*
X16520000Y-9530000I50000J0D01*
G01*
X16520000Y-9730000D02*
G75*
G02*
X16420000Y-9730000I-50000J0D01*
G01*
X16420000Y-9730000D02*
G75*
G02*
X16520000Y-9730000I50000J0D01*
G01*
X16520000Y-9930000D02*
G75*
G02*
X16420000Y-9930000I-50000J0D01*
G01*
X16420000Y-9930000D02*
G75*
G02*
X16520000Y-9930000I50000J0D01*
G01*
X16520000Y-10130000D02*
G75*
G02*
X16420000Y-10130000I-50000J0D01*
G01*
X16420000Y-10130000D02*
G75*
G02*
X16520000Y-10130000I50000J0D01*
G01*
X16520000Y-10330000D02*
G75*
G02*
X16420000Y-10330000I-50000J0D01*
G01*
X16420000Y-10330000D02*
G75*
G02*
X16520000Y-10330000I50000J0D01*
G01*
X17200000Y-9530000D02*
G75*
G02*
X17100000Y-9530000I-50000J0D01*
G01*
X17100000Y-9530000D02*
G75*
G02*
X17200000Y-9530000I50000J0D01*
G01*
X17200000Y-9730000D02*
G75*
G02*
X17100000Y-9730000I-50000J0D01*
G01*
X17100000Y-9730000D02*
G75*
G02*
X17200000Y-9730000I50000J0D01*
G01*
X17200000Y-9930000D02*
G75*
G02*
X17100000Y-9930000I-50000J0D01*
G01*
X17100000Y-9930000D02*
G75*
G02*
X17200000Y-9930000I50000J0D01*
G01*
X17200000Y-10130000D02*
G75*
G02*
X17100000Y-10130000I-50000J0D01*
G01*
X17100000Y-10130000D02*
G75*
G02*
X17200000Y-10130000I50000J0D01*
G01*
X17200000Y-10330000D02*
G75*
G02*
X17100000Y-10330000I-50000J0D01*
G01*
X17100000Y-10330000D02*
G75*
G02*
X17200000Y-10330000I50000J0D01*
G01*
D11*
X12958277Y-11113984D02*
X12958277Y-10913984D01*
X12958277Y-10913984D02*
X13005896Y-10913984D01*
X13005896Y-10913984D02*
X13034467Y-10923508D01*
X13034467Y-10923508D02*
X13053515Y-10942555D01*
X13053515Y-10942555D02*
X13063039Y-10961603D01*
X13063039Y-10961603D02*
X13072562Y-10999698D01*
X13072562Y-10999698D02*
X13072562Y-11028270D01*
X13072562Y-11028270D02*
X13063039Y-11066365D01*
X13063039Y-11066365D02*
X13053515Y-11085412D01*
X13053515Y-11085412D02*
X13034467Y-11104460D01*
X13034467Y-11104460D02*
X13005896Y-11113984D01*
X13005896Y-11113984D02*
X12958277Y-11113984D01*
X13158277Y-11113984D02*
X13158277Y-10980650D01*
X13158277Y-11018746D02*
X13167801Y-10999698D01*
X13167801Y-10999698D02*
X13177324Y-10990174D01*
X13177324Y-10990174D02*
X13196372Y-10980650D01*
X13196372Y-10980650D02*
X13215420Y-10980650D01*
X13282086Y-11113984D02*
X13282086Y-10980650D01*
X13282086Y-10913984D02*
X13272562Y-10923508D01*
X13272562Y-10923508D02*
X13282086Y-10933031D01*
X13282086Y-10933031D02*
X13291610Y-10923508D01*
X13291610Y-10923508D02*
X13282086Y-10913984D01*
X13282086Y-10913984D02*
X13282086Y-10933031D01*
X13405896Y-11113984D02*
X13386848Y-11104460D01*
X13386848Y-11104460D02*
X13377324Y-11085412D01*
X13377324Y-11085412D02*
X13377324Y-10913984D01*
X13510658Y-11113984D02*
X13491610Y-11104460D01*
X13491610Y-11104460D02*
X13482086Y-11085412D01*
X13482086Y-11085412D02*
X13482086Y-10913984D01*
X13739229Y-11113984D02*
X13739229Y-10913984D01*
X13739229Y-10913984D02*
X13805896Y-11056841D01*
X13805896Y-11056841D02*
X13872562Y-10913984D01*
X13872562Y-10913984D02*
X13872562Y-11113984D01*
X14053515Y-11113984D02*
X14053515Y-11009222D01*
X14053515Y-11009222D02*
X14043991Y-10990174D01*
X14043991Y-10990174D02*
X14024943Y-10980650D01*
X14024943Y-10980650D02*
X13986848Y-10980650D01*
X13986848Y-10980650D02*
X13967801Y-10990174D01*
X14053515Y-11104460D02*
X14034467Y-11113984D01*
X14034467Y-11113984D02*
X13986848Y-11113984D01*
X13986848Y-11113984D02*
X13967801Y-11104460D01*
X13967801Y-11104460D02*
X13958277Y-11085412D01*
X13958277Y-11085412D02*
X13958277Y-11066365D01*
X13958277Y-11066365D02*
X13967801Y-11047317D01*
X13967801Y-11047317D02*
X13986848Y-11037793D01*
X13986848Y-11037793D02*
X14034467Y-11037793D01*
X14034467Y-11037793D02*
X14053515Y-11028270D01*
X14148753Y-10980650D02*
X14148753Y-11180650D01*
X14148753Y-10990174D02*
X14167801Y-10980650D01*
X14167801Y-10980650D02*
X14205896Y-10980650D01*
X14205896Y-10980650D02*
X14224943Y-10990174D01*
X14224943Y-10990174D02*
X14234467Y-10999698D01*
X14234467Y-10999698D02*
X14243991Y-11018746D01*
X14243991Y-11018746D02*
X14243991Y-11075889D01*
X14243991Y-11075889D02*
X14234467Y-11094936D01*
X14234467Y-11094936D02*
X14224943Y-11104460D01*
X14224943Y-11104460D02*
X14205896Y-11113984D01*
X14205896Y-11113984D02*
X14167801Y-11113984D01*
X14167801Y-11113984D02*
X14148753Y-11104460D01*
X14329705Y-11094936D02*
X14339229Y-11104460D01*
X14339229Y-11104460D02*
X14329705Y-11113984D01*
X14329705Y-11113984D02*
X14320182Y-11104460D01*
X14320182Y-11104460D02*
X14329705Y-11094936D01*
X14329705Y-11094936D02*
X14329705Y-11113984D01*
X14329705Y-10990174D02*
X14339229Y-10999698D01*
X14339229Y-10999698D02*
X14329705Y-11009222D01*
X14329705Y-11009222D02*
X14320182Y-10999698D01*
X14320182Y-10999698D02*
X14329705Y-10990174D01*
X14329705Y-10990174D02*
X14329705Y-11009222D01*
D12*
X12667500Y-11427500D02*
X12697500Y-11457500D01*
X12697500Y-11427500D02*
X12667500Y-11457500D01*
D11*
X12996372Y-11333984D02*
X13015420Y-11333984D01*
X13015420Y-11333984D02*
X13034467Y-11343508D01*
X13034467Y-11343508D02*
X13043991Y-11353031D01*
X13043991Y-11353031D02*
X13053515Y-11372079D01*
X13053515Y-11372079D02*
X13063039Y-11410174D01*
X13063039Y-11410174D02*
X13063039Y-11457793D01*
X13063039Y-11457793D02*
X13053515Y-11495888D01*
X13053515Y-11495888D02*
X13043991Y-11514936D01*
X13043991Y-11514936D02*
X13034467Y-11524460D01*
X13034467Y-11524460D02*
X13015420Y-11533984D01*
X13015420Y-11533984D02*
X12996372Y-11533984D01*
X12996372Y-11533984D02*
X12977324Y-11524460D01*
X12977324Y-11524460D02*
X12967801Y-11514936D01*
X12967801Y-11514936D02*
X12958277Y-11495888D01*
X12958277Y-11495888D02*
X12948753Y-11457793D01*
X12948753Y-11457793D02*
X12948753Y-11410174D01*
X12948753Y-11410174D02*
X12958277Y-11372079D01*
X12958277Y-11372079D02*
X12967801Y-11353031D01*
X12967801Y-11353031D02*
X12977324Y-11343508D01*
X12977324Y-11343508D02*
X12996372Y-11333984D01*
X13148753Y-11514936D02*
X13158277Y-11524460D01*
X13158277Y-11524460D02*
X13148753Y-11533984D01*
X13148753Y-11533984D02*
X13139229Y-11524460D01*
X13139229Y-11524460D02*
X13148753Y-11514936D01*
X13148753Y-11514936D02*
X13148753Y-11533984D01*
X13224943Y-11333984D02*
X13348753Y-11333984D01*
X13348753Y-11333984D02*
X13282086Y-11410174D01*
X13282086Y-11410174D02*
X13310658Y-11410174D01*
X13310658Y-11410174D02*
X13329705Y-11419698D01*
X13329705Y-11419698D02*
X13339229Y-11429222D01*
X13339229Y-11429222D02*
X13348753Y-11448269D01*
X13348753Y-11448269D02*
X13348753Y-11495888D01*
X13348753Y-11495888D02*
X13339229Y-11514936D01*
X13339229Y-11514936D02*
X13329705Y-11524460D01*
X13329705Y-11524460D02*
X13310658Y-11533984D01*
X13310658Y-11533984D02*
X13253515Y-11533984D01*
X13253515Y-11533984D02*
X13234467Y-11524460D01*
X13234467Y-11524460D02*
X13224943Y-11514936D01*
X13472562Y-11333984D02*
X13491610Y-11333984D01*
X13491610Y-11333984D02*
X13510658Y-11343508D01*
X13510658Y-11343508D02*
X13520182Y-11353031D01*
X13520182Y-11353031D02*
X13529705Y-11372079D01*
X13529705Y-11372079D02*
X13539229Y-11410174D01*
X13539229Y-11410174D02*
X13539229Y-11457793D01*
X13539229Y-11457793D02*
X13529705Y-11495888D01*
X13529705Y-11495888D02*
X13520182Y-11514936D01*
X13520182Y-11514936D02*
X13510658Y-11524460D01*
X13510658Y-11524460D02*
X13491610Y-11533984D01*
X13491610Y-11533984D02*
X13472562Y-11533984D01*
X13472562Y-11533984D02*
X13453515Y-11524460D01*
X13453515Y-11524460D02*
X13443991Y-11514936D01*
X13443991Y-11514936D02*
X13434467Y-11495888D01*
X13434467Y-11495888D02*
X13424943Y-11457793D01*
X13424943Y-11457793D02*
X13424943Y-11410174D01*
X13424943Y-11410174D02*
X13434467Y-11372079D01*
X13434467Y-11372079D02*
X13443991Y-11353031D01*
X13443991Y-11353031D02*
X13453515Y-11343508D01*
X13453515Y-11343508D02*
X13472562Y-11333984D01*
X13663039Y-11333984D02*
X13682086Y-11333984D01*
X13682086Y-11333984D02*
X13701134Y-11343508D01*
X13701134Y-11343508D02*
X13710658Y-11353031D01*
X13710658Y-11353031D02*
X13720182Y-11372079D01*
X13720182Y-11372079D02*
X13729705Y-11410174D01*
X13729705Y-11410174D02*
X13729705Y-11457793D01*
X13729705Y-11457793D02*
X13720182Y-11495888D01*
X13720182Y-11495888D02*
X13710658Y-11514936D01*
X13710658Y-11514936D02*
X13701134Y-11524460D01*
X13701134Y-11524460D02*
X13682086Y-11533984D01*
X13682086Y-11533984D02*
X13663039Y-11533984D01*
X13663039Y-11533984D02*
X13643991Y-11524460D01*
X13643991Y-11524460D02*
X13634467Y-11514936D01*
X13634467Y-11514936D02*
X13624943Y-11495888D01*
X13624943Y-11495888D02*
X13615420Y-11457793D01*
X13615420Y-11457793D02*
X13615420Y-11410174D01*
X13615420Y-11410174D02*
X13624943Y-11372079D01*
X13624943Y-11372079D02*
X13634467Y-11353031D01*
X13634467Y-11353031D02*
X13643991Y-11343508D01*
X13643991Y-11343508D02*
X13663039Y-11333984D01*
X13815420Y-11533984D02*
X13815420Y-11400650D01*
X13815420Y-11419698D02*
X13824943Y-11410174D01*
X13824943Y-11410174D02*
X13843991Y-11400650D01*
X13843991Y-11400650D02*
X13872563Y-11400650D01*
X13872563Y-11400650D02*
X13891610Y-11410174D01*
X13891610Y-11410174D02*
X13901134Y-11429222D01*
X13901134Y-11429222D02*
X13901134Y-11533984D01*
X13901134Y-11429222D02*
X13910658Y-11410174D01*
X13910658Y-11410174D02*
X13929705Y-11400650D01*
X13929705Y-11400650D02*
X13958277Y-11400650D01*
X13958277Y-11400650D02*
X13977324Y-11410174D01*
X13977324Y-11410174D02*
X13986848Y-11429222D01*
X13986848Y-11429222D02*
X13986848Y-11533984D01*
X14082086Y-11533984D02*
X14082086Y-11400650D01*
X14082086Y-11419698D02*
X14091610Y-11410174D01*
X14091610Y-11410174D02*
X14110658Y-11400650D01*
X14110658Y-11400650D02*
X14139229Y-11400650D01*
X14139229Y-11400650D02*
X14158277Y-11410174D01*
X14158277Y-11410174D02*
X14167801Y-11429222D01*
X14167801Y-11429222D02*
X14167801Y-11533984D01*
X14167801Y-11429222D02*
X14177324Y-11410174D01*
X14177324Y-11410174D02*
X14196372Y-11400650D01*
X14196372Y-11400650D02*
X14224943Y-11400650D01*
X14224943Y-11400650D02*
X14243991Y-11410174D01*
X14243991Y-11410174D02*
X14253515Y-11429222D01*
X14253515Y-11429222D02*
X14253515Y-11533984D01*
X14643991Y-11324460D02*
X14472563Y-11581603D01*
X14901134Y-11333984D02*
X14920182Y-11333984D01*
X14920182Y-11333984D02*
X14939229Y-11343508D01*
X14939229Y-11343508D02*
X14948753Y-11353031D01*
X14948753Y-11353031D02*
X14958277Y-11372079D01*
X14958277Y-11372079D02*
X14967801Y-11410174D01*
X14967801Y-11410174D02*
X14967801Y-11457793D01*
X14967801Y-11457793D02*
X14958277Y-11495888D01*
X14958277Y-11495888D02*
X14948753Y-11514936D01*
X14948753Y-11514936D02*
X14939229Y-11524460D01*
X14939229Y-11524460D02*
X14920182Y-11533984D01*
X14920182Y-11533984D02*
X14901134Y-11533984D01*
X14901134Y-11533984D02*
X14882086Y-11524460D01*
X14882086Y-11524460D02*
X14872563Y-11514936D01*
X14872563Y-11514936D02*
X14863039Y-11495888D01*
X14863039Y-11495888D02*
X14853515Y-11457793D01*
X14853515Y-11457793D02*
X14853515Y-11410174D01*
X14853515Y-11410174D02*
X14863039Y-11372079D01*
X14863039Y-11372079D02*
X14872563Y-11353031D01*
X14872563Y-11353031D02*
X14882086Y-11343508D01*
X14882086Y-11343508D02*
X14901134Y-11333984D01*
X15053515Y-11514936D02*
X15063039Y-11524460D01*
X15063039Y-11524460D02*
X15053515Y-11533984D01*
X15053515Y-11533984D02*
X15043991Y-11524460D01*
X15043991Y-11524460D02*
X15053515Y-11514936D01*
X15053515Y-11514936D02*
X15053515Y-11533984D01*
X15186848Y-11333984D02*
X15205896Y-11333984D01*
X15205896Y-11333984D02*
X15224944Y-11343508D01*
X15224944Y-11343508D02*
X15234467Y-11353031D01*
X15234467Y-11353031D02*
X15243991Y-11372079D01*
X15243991Y-11372079D02*
X15253515Y-11410174D01*
X15253515Y-11410174D02*
X15253515Y-11457793D01*
X15253515Y-11457793D02*
X15243991Y-11495888D01*
X15243991Y-11495888D02*
X15234467Y-11514936D01*
X15234467Y-11514936D02*
X15224944Y-11524460D01*
X15224944Y-11524460D02*
X15205896Y-11533984D01*
X15205896Y-11533984D02*
X15186848Y-11533984D01*
X15186848Y-11533984D02*
X15167801Y-11524460D01*
X15167801Y-11524460D02*
X15158277Y-11514936D01*
X15158277Y-11514936D02*
X15148753Y-11495888D01*
X15148753Y-11495888D02*
X15139229Y-11457793D01*
X15139229Y-11457793D02*
X15139229Y-11410174D01*
X15139229Y-11410174D02*
X15148753Y-11372079D01*
X15148753Y-11372079D02*
X15158277Y-11353031D01*
X15158277Y-11353031D02*
X15167801Y-11343508D01*
X15167801Y-11343508D02*
X15186848Y-11333984D01*
X15443991Y-11533984D02*
X15329706Y-11533984D01*
X15386848Y-11533984D02*
X15386848Y-11333984D01*
X15386848Y-11333984D02*
X15367801Y-11362555D01*
X15367801Y-11362555D02*
X15348753Y-11381603D01*
X15348753Y-11381603D02*
X15329706Y-11391127D01*
X15634467Y-11533984D02*
X15520182Y-11533984D01*
X15577325Y-11533984D02*
X15577325Y-11333984D01*
X15577325Y-11333984D02*
X15558277Y-11362555D01*
X15558277Y-11362555D02*
X15539229Y-11381603D01*
X15539229Y-11381603D02*
X15520182Y-11391127D01*
X15748753Y-11419698D02*
X15729706Y-11410174D01*
X15729706Y-11410174D02*
X15720182Y-11400650D01*
X15720182Y-11400650D02*
X15710658Y-11381603D01*
X15710658Y-11381603D02*
X15710658Y-11372079D01*
X15710658Y-11372079D02*
X15720182Y-11353031D01*
X15720182Y-11353031D02*
X15729706Y-11343508D01*
X15729706Y-11343508D02*
X15748753Y-11333984D01*
X15748753Y-11333984D02*
X15786848Y-11333984D01*
X15786848Y-11333984D02*
X15805896Y-11343508D01*
X15805896Y-11343508D02*
X15815420Y-11353031D01*
X15815420Y-11353031D02*
X15824944Y-11372079D01*
X15824944Y-11372079D02*
X15824944Y-11381603D01*
X15824944Y-11381603D02*
X15815420Y-11400650D01*
X15815420Y-11400650D02*
X15805896Y-11410174D01*
X15805896Y-11410174D02*
X15786848Y-11419698D01*
X15786848Y-11419698D02*
X15748753Y-11419698D01*
X15748753Y-11419698D02*
X15729706Y-11429222D01*
X15729706Y-11429222D02*
X15720182Y-11438746D01*
X15720182Y-11438746D02*
X15710658Y-11457793D01*
X15710658Y-11457793D02*
X15710658Y-11495888D01*
X15710658Y-11495888D02*
X15720182Y-11514936D01*
X15720182Y-11514936D02*
X15729706Y-11524460D01*
X15729706Y-11524460D02*
X15748753Y-11533984D01*
X15748753Y-11533984D02*
X15786848Y-11533984D01*
X15786848Y-11533984D02*
X15805896Y-11524460D01*
X15805896Y-11524460D02*
X15815420Y-11514936D01*
X15815420Y-11514936D02*
X15824944Y-11495888D01*
X15824944Y-11495888D02*
X15824944Y-11457793D01*
X15824944Y-11457793D02*
X15815420Y-11438746D01*
X15815420Y-11438746D02*
X15805896Y-11429222D01*
X15805896Y-11429222D02*
X15786848Y-11419698D01*
X15901134Y-11333984D02*
X15901134Y-11372079D01*
X15977325Y-11333984D02*
X15977325Y-11372079D01*
X16272563Y-11610174D02*
X16263039Y-11600650D01*
X16263039Y-11600650D02*
X16243991Y-11572079D01*
X16243991Y-11572079D02*
X16234468Y-11553031D01*
X16234468Y-11553031D02*
X16224944Y-11524460D01*
X16224944Y-11524460D02*
X16215420Y-11476841D01*
X16215420Y-11476841D02*
X16215420Y-11438746D01*
X16215420Y-11438746D02*
X16224944Y-11391127D01*
X16224944Y-11391127D02*
X16234468Y-11362555D01*
X16234468Y-11362555D02*
X16243991Y-11343508D01*
X16243991Y-11343508D02*
X16263039Y-11314936D01*
X16263039Y-11314936D02*
X16272563Y-11305412D01*
X16339229Y-11353031D02*
X16348753Y-11343508D01*
X16348753Y-11343508D02*
X16367801Y-11333984D01*
X16367801Y-11333984D02*
X16415420Y-11333984D01*
X16415420Y-11333984D02*
X16434468Y-11343508D01*
X16434468Y-11343508D02*
X16443991Y-11353031D01*
X16443991Y-11353031D02*
X16453515Y-11372079D01*
X16453515Y-11372079D02*
X16453515Y-11391127D01*
X16453515Y-11391127D02*
X16443991Y-11419698D01*
X16443991Y-11419698D02*
X16329706Y-11533984D01*
X16329706Y-11533984D02*
X16453515Y-11533984D01*
X16548753Y-11533984D02*
X16586848Y-11533984D01*
X16586848Y-11533984D02*
X16605896Y-11524460D01*
X16605896Y-11524460D02*
X16615420Y-11514936D01*
X16615420Y-11514936D02*
X16634468Y-11486365D01*
X16634468Y-11486365D02*
X16643991Y-11448269D01*
X16643991Y-11448269D02*
X16643991Y-11372079D01*
X16643991Y-11372079D02*
X16634468Y-11353031D01*
X16634468Y-11353031D02*
X16624944Y-11343508D01*
X16624944Y-11343508D02*
X16605896Y-11333984D01*
X16605896Y-11333984D02*
X16567801Y-11333984D01*
X16567801Y-11333984D02*
X16548753Y-11343508D01*
X16548753Y-11343508D02*
X16539229Y-11353031D01*
X16539229Y-11353031D02*
X16529706Y-11372079D01*
X16529706Y-11372079D02*
X16529706Y-11419698D01*
X16529706Y-11419698D02*
X16539229Y-11438746D01*
X16539229Y-11438746D02*
X16548753Y-11448269D01*
X16548753Y-11448269D02*
X16567801Y-11457793D01*
X16567801Y-11457793D02*
X16605896Y-11457793D01*
X16605896Y-11457793D02*
X16624944Y-11448269D01*
X16624944Y-11448269D02*
X16634468Y-11438746D01*
X16634468Y-11438746D02*
X16643991Y-11419698D01*
X16882087Y-11533984D02*
X16882087Y-11333984D01*
X16967801Y-11533984D02*
X16967801Y-11429222D01*
X16967801Y-11429222D02*
X16958277Y-11410174D01*
X16958277Y-11410174D02*
X16939230Y-11400650D01*
X16939230Y-11400650D02*
X16910658Y-11400650D01*
X16910658Y-11400650D02*
X16891611Y-11410174D01*
X16891611Y-11410174D02*
X16882087Y-11419698D01*
X17091611Y-11533984D02*
X17072563Y-11524460D01*
X17072563Y-11524460D02*
X17063039Y-11514936D01*
X17063039Y-11514936D02*
X17053515Y-11495888D01*
X17053515Y-11495888D02*
X17053515Y-11438746D01*
X17053515Y-11438746D02*
X17063039Y-11419698D01*
X17063039Y-11419698D02*
X17072563Y-11410174D01*
X17072563Y-11410174D02*
X17091611Y-11400650D01*
X17091611Y-11400650D02*
X17120182Y-11400650D01*
X17120182Y-11400650D02*
X17139230Y-11410174D01*
X17139230Y-11410174D02*
X17148753Y-11419698D01*
X17148753Y-11419698D02*
X17158277Y-11438746D01*
X17158277Y-11438746D02*
X17158277Y-11495888D01*
X17158277Y-11495888D02*
X17148753Y-11514936D01*
X17148753Y-11514936D02*
X17139230Y-11524460D01*
X17139230Y-11524460D02*
X17120182Y-11533984D01*
X17120182Y-11533984D02*
X17091611Y-11533984D01*
X17272563Y-11533984D02*
X17253515Y-11524460D01*
X17253515Y-11524460D02*
X17243992Y-11505412D01*
X17243992Y-11505412D02*
X17243992Y-11333984D01*
X17424944Y-11524460D02*
X17405896Y-11533984D01*
X17405896Y-11533984D02*
X17367801Y-11533984D01*
X17367801Y-11533984D02*
X17348753Y-11524460D01*
X17348753Y-11524460D02*
X17339230Y-11505412D01*
X17339230Y-11505412D02*
X17339230Y-11429222D01*
X17339230Y-11429222D02*
X17348753Y-11410174D01*
X17348753Y-11410174D02*
X17367801Y-11400650D01*
X17367801Y-11400650D02*
X17405896Y-11400650D01*
X17405896Y-11400650D02*
X17424944Y-11410174D01*
X17424944Y-11410174D02*
X17434468Y-11429222D01*
X17434468Y-11429222D02*
X17434468Y-11448269D01*
X17434468Y-11448269D02*
X17339230Y-11467317D01*
X17510658Y-11524460D02*
X17529706Y-11533984D01*
X17529706Y-11533984D02*
X17567801Y-11533984D01*
X17567801Y-11533984D02*
X17586849Y-11524460D01*
X17586849Y-11524460D02*
X17596373Y-11505412D01*
X17596373Y-11505412D02*
X17596373Y-11495888D01*
X17596373Y-11495888D02*
X17586849Y-11476841D01*
X17586849Y-11476841D02*
X17567801Y-11467317D01*
X17567801Y-11467317D02*
X17539230Y-11467317D01*
X17539230Y-11467317D02*
X17520182Y-11457793D01*
X17520182Y-11457793D02*
X17510658Y-11438746D01*
X17510658Y-11438746D02*
X17510658Y-11429222D01*
X17510658Y-11429222D02*
X17520182Y-11410174D01*
X17520182Y-11410174D02*
X17539230Y-11400650D01*
X17539230Y-11400650D02*
X17567801Y-11400650D01*
X17567801Y-11400650D02*
X17586849Y-11410174D01*
X17663039Y-11610174D02*
X17672563Y-11600650D01*
X17672563Y-11600650D02*
X17691611Y-11572079D01*
X17691611Y-11572079D02*
X17701134Y-11553031D01*
X17701134Y-11553031D02*
X17710658Y-11524460D01*
X17710658Y-11524460D02*
X17720182Y-11476841D01*
X17720182Y-11476841D02*
X17720182Y-11438746D01*
X17720182Y-11438746D02*
X17710658Y-11391127D01*
X17710658Y-11391127D02*
X17701134Y-11362555D01*
X17701134Y-11362555D02*
X17691611Y-11343508D01*
X17691611Y-11343508D02*
X17672563Y-11314936D01*
X17672563Y-11314936D02*
X17663039Y-11305412D01*
D12*
X12697500Y-11706500D02*
G75*
G02*
X12597500Y-11706500I-50000J0D01*
G01*
X12597500Y-11706500D02*
G75*
G02*
X12697500Y-11706500I50000J0D01*
G01*
D11*
X13063039Y-11797984D02*
X12948753Y-11797984D01*
X13005896Y-11797984D02*
X13005896Y-11597984D01*
X13005896Y-11597984D02*
X12986848Y-11626555D01*
X12986848Y-11626555D02*
X12967801Y-11645603D01*
X12967801Y-11645603D02*
X12948753Y-11655127D01*
X13148753Y-11778936D02*
X13158277Y-11788460D01*
X13158277Y-11788460D02*
X13148753Y-11797984D01*
X13148753Y-11797984D02*
X13139229Y-11788460D01*
X13139229Y-11788460D02*
X13148753Y-11778936D01*
X13148753Y-11778936D02*
X13148753Y-11797984D01*
X13282086Y-11597984D02*
X13301134Y-11597984D01*
X13301134Y-11597984D02*
X13320182Y-11607508D01*
X13320182Y-11607508D02*
X13329705Y-11617031D01*
X13329705Y-11617031D02*
X13339229Y-11636079D01*
X13339229Y-11636079D02*
X13348753Y-11674174D01*
X13348753Y-11674174D02*
X13348753Y-11721793D01*
X13348753Y-11721793D02*
X13339229Y-11759888D01*
X13339229Y-11759888D02*
X13329705Y-11778936D01*
X13329705Y-11778936D02*
X13320182Y-11788460D01*
X13320182Y-11788460D02*
X13301134Y-11797984D01*
X13301134Y-11797984D02*
X13282086Y-11797984D01*
X13282086Y-11797984D02*
X13263039Y-11788460D01*
X13263039Y-11788460D02*
X13253515Y-11778936D01*
X13253515Y-11778936D02*
X13243991Y-11759888D01*
X13243991Y-11759888D02*
X13234467Y-11721793D01*
X13234467Y-11721793D02*
X13234467Y-11674174D01*
X13234467Y-11674174D02*
X13243991Y-11636079D01*
X13243991Y-11636079D02*
X13253515Y-11617031D01*
X13253515Y-11617031D02*
X13263039Y-11607508D01*
X13263039Y-11607508D02*
X13282086Y-11597984D01*
X13472562Y-11597984D02*
X13491610Y-11597984D01*
X13491610Y-11597984D02*
X13510658Y-11607508D01*
X13510658Y-11607508D02*
X13520182Y-11617031D01*
X13520182Y-11617031D02*
X13529705Y-11636079D01*
X13529705Y-11636079D02*
X13539229Y-11674174D01*
X13539229Y-11674174D02*
X13539229Y-11721793D01*
X13539229Y-11721793D02*
X13529705Y-11759888D01*
X13529705Y-11759888D02*
X13520182Y-11778936D01*
X13520182Y-11778936D02*
X13510658Y-11788460D01*
X13510658Y-11788460D02*
X13491610Y-11797984D01*
X13491610Y-11797984D02*
X13472562Y-11797984D01*
X13472562Y-11797984D02*
X13453515Y-11788460D01*
X13453515Y-11788460D02*
X13443991Y-11778936D01*
X13443991Y-11778936D02*
X13434467Y-11759888D01*
X13434467Y-11759888D02*
X13424943Y-11721793D01*
X13424943Y-11721793D02*
X13424943Y-11674174D01*
X13424943Y-11674174D02*
X13434467Y-11636079D01*
X13434467Y-11636079D02*
X13443991Y-11617031D01*
X13443991Y-11617031D02*
X13453515Y-11607508D01*
X13453515Y-11607508D02*
X13472562Y-11597984D01*
X13663039Y-11597984D02*
X13682086Y-11597984D01*
X13682086Y-11597984D02*
X13701134Y-11607508D01*
X13701134Y-11607508D02*
X13710658Y-11617031D01*
X13710658Y-11617031D02*
X13720182Y-11636079D01*
X13720182Y-11636079D02*
X13729705Y-11674174D01*
X13729705Y-11674174D02*
X13729705Y-11721793D01*
X13729705Y-11721793D02*
X13720182Y-11759888D01*
X13720182Y-11759888D02*
X13710658Y-11778936D01*
X13710658Y-11778936D02*
X13701134Y-11788460D01*
X13701134Y-11788460D02*
X13682086Y-11797984D01*
X13682086Y-11797984D02*
X13663039Y-11797984D01*
X13663039Y-11797984D02*
X13643991Y-11788460D01*
X13643991Y-11788460D02*
X13634467Y-11778936D01*
X13634467Y-11778936D02*
X13624943Y-11759888D01*
X13624943Y-11759888D02*
X13615420Y-11721793D01*
X13615420Y-11721793D02*
X13615420Y-11674174D01*
X13615420Y-11674174D02*
X13624943Y-11636079D01*
X13624943Y-11636079D02*
X13634467Y-11617031D01*
X13634467Y-11617031D02*
X13643991Y-11607508D01*
X13643991Y-11607508D02*
X13663039Y-11597984D01*
X13815420Y-11797984D02*
X13815420Y-11664650D01*
X13815420Y-11683698D02*
X13824943Y-11674174D01*
X13824943Y-11674174D02*
X13843991Y-11664650D01*
X13843991Y-11664650D02*
X13872563Y-11664650D01*
X13872563Y-11664650D02*
X13891610Y-11674174D01*
X13891610Y-11674174D02*
X13901134Y-11693222D01*
X13901134Y-11693222D02*
X13901134Y-11797984D01*
X13901134Y-11693222D02*
X13910658Y-11674174D01*
X13910658Y-11674174D02*
X13929705Y-11664650D01*
X13929705Y-11664650D02*
X13958277Y-11664650D01*
X13958277Y-11664650D02*
X13977324Y-11674174D01*
X13977324Y-11674174D02*
X13986848Y-11693222D01*
X13986848Y-11693222D02*
X13986848Y-11797984D01*
X14082086Y-11797984D02*
X14082086Y-11664650D01*
X14082086Y-11683698D02*
X14091610Y-11674174D01*
X14091610Y-11674174D02*
X14110658Y-11664650D01*
X14110658Y-11664650D02*
X14139229Y-11664650D01*
X14139229Y-11664650D02*
X14158277Y-11674174D01*
X14158277Y-11674174D02*
X14167801Y-11693222D01*
X14167801Y-11693222D02*
X14167801Y-11797984D01*
X14167801Y-11693222D02*
X14177324Y-11674174D01*
X14177324Y-11674174D02*
X14196372Y-11664650D01*
X14196372Y-11664650D02*
X14224943Y-11664650D01*
X14224943Y-11664650D02*
X14243991Y-11674174D01*
X14243991Y-11674174D02*
X14253515Y-11693222D01*
X14253515Y-11693222D02*
X14253515Y-11797984D01*
X14643991Y-11588460D02*
X14472563Y-11845603D01*
X14901134Y-11597984D02*
X14920182Y-11597984D01*
X14920182Y-11597984D02*
X14939229Y-11607508D01*
X14939229Y-11607508D02*
X14948753Y-11617031D01*
X14948753Y-11617031D02*
X14958277Y-11636079D01*
X14958277Y-11636079D02*
X14967801Y-11674174D01*
X14967801Y-11674174D02*
X14967801Y-11721793D01*
X14967801Y-11721793D02*
X14958277Y-11759888D01*
X14958277Y-11759888D02*
X14948753Y-11778936D01*
X14948753Y-11778936D02*
X14939229Y-11788460D01*
X14939229Y-11788460D02*
X14920182Y-11797984D01*
X14920182Y-11797984D02*
X14901134Y-11797984D01*
X14901134Y-11797984D02*
X14882086Y-11788460D01*
X14882086Y-11788460D02*
X14872563Y-11778936D01*
X14872563Y-11778936D02*
X14863039Y-11759888D01*
X14863039Y-11759888D02*
X14853515Y-11721793D01*
X14853515Y-11721793D02*
X14853515Y-11674174D01*
X14853515Y-11674174D02*
X14863039Y-11636079D01*
X14863039Y-11636079D02*
X14872563Y-11617031D01*
X14872563Y-11617031D02*
X14882086Y-11607508D01*
X14882086Y-11607508D02*
X14901134Y-11597984D01*
X15053515Y-11778936D02*
X15063039Y-11788460D01*
X15063039Y-11788460D02*
X15053515Y-11797984D01*
X15053515Y-11797984D02*
X15043991Y-11788460D01*
X15043991Y-11788460D02*
X15053515Y-11778936D01*
X15053515Y-11778936D02*
X15053515Y-11797984D01*
X15186848Y-11597984D02*
X15205896Y-11597984D01*
X15205896Y-11597984D02*
X15224944Y-11607508D01*
X15224944Y-11607508D02*
X15234467Y-11617031D01*
X15234467Y-11617031D02*
X15243991Y-11636079D01*
X15243991Y-11636079D02*
X15253515Y-11674174D01*
X15253515Y-11674174D02*
X15253515Y-11721793D01*
X15253515Y-11721793D02*
X15243991Y-11759888D01*
X15243991Y-11759888D02*
X15234467Y-11778936D01*
X15234467Y-11778936D02*
X15224944Y-11788460D01*
X15224944Y-11788460D02*
X15205896Y-11797984D01*
X15205896Y-11797984D02*
X15186848Y-11797984D01*
X15186848Y-11797984D02*
X15167801Y-11788460D01*
X15167801Y-11788460D02*
X15158277Y-11778936D01*
X15158277Y-11778936D02*
X15148753Y-11759888D01*
X15148753Y-11759888D02*
X15139229Y-11721793D01*
X15139229Y-11721793D02*
X15139229Y-11674174D01*
X15139229Y-11674174D02*
X15148753Y-11636079D01*
X15148753Y-11636079D02*
X15158277Y-11617031D01*
X15158277Y-11617031D02*
X15167801Y-11607508D01*
X15167801Y-11607508D02*
X15186848Y-11597984D01*
X15320182Y-11597984D02*
X15443991Y-11597984D01*
X15443991Y-11597984D02*
X15377325Y-11674174D01*
X15377325Y-11674174D02*
X15405896Y-11674174D01*
X15405896Y-11674174D02*
X15424944Y-11683698D01*
X15424944Y-11683698D02*
X15434467Y-11693222D01*
X15434467Y-11693222D02*
X15443991Y-11712269D01*
X15443991Y-11712269D02*
X15443991Y-11759888D01*
X15443991Y-11759888D02*
X15434467Y-11778936D01*
X15434467Y-11778936D02*
X15424944Y-11788460D01*
X15424944Y-11788460D02*
X15405896Y-11797984D01*
X15405896Y-11797984D02*
X15348753Y-11797984D01*
X15348753Y-11797984D02*
X15329706Y-11788460D01*
X15329706Y-11788460D02*
X15320182Y-11778936D01*
X15539229Y-11797984D02*
X15577325Y-11797984D01*
X15577325Y-11797984D02*
X15596372Y-11788460D01*
X15596372Y-11788460D02*
X15605896Y-11778936D01*
X15605896Y-11778936D02*
X15624944Y-11750365D01*
X15624944Y-11750365D02*
X15634467Y-11712269D01*
X15634467Y-11712269D02*
X15634467Y-11636079D01*
X15634467Y-11636079D02*
X15624944Y-11617031D01*
X15624944Y-11617031D02*
X15615420Y-11607508D01*
X15615420Y-11607508D02*
X15596372Y-11597984D01*
X15596372Y-11597984D02*
X15558277Y-11597984D01*
X15558277Y-11597984D02*
X15539229Y-11607508D01*
X15539229Y-11607508D02*
X15529706Y-11617031D01*
X15529706Y-11617031D02*
X15520182Y-11636079D01*
X15520182Y-11636079D02*
X15520182Y-11683698D01*
X15520182Y-11683698D02*
X15529706Y-11702746D01*
X15529706Y-11702746D02*
X15539229Y-11712269D01*
X15539229Y-11712269D02*
X15558277Y-11721793D01*
X15558277Y-11721793D02*
X15596372Y-11721793D01*
X15596372Y-11721793D02*
X15615420Y-11712269D01*
X15615420Y-11712269D02*
X15624944Y-11702746D01*
X15624944Y-11702746D02*
X15634467Y-11683698D01*
X15805896Y-11664650D02*
X15805896Y-11797984D01*
X15758277Y-11588460D02*
X15710658Y-11731317D01*
X15710658Y-11731317D02*
X15834467Y-11731317D01*
X15901134Y-11597984D02*
X15901134Y-11636079D01*
X15977325Y-11597984D02*
X15977325Y-11636079D01*
X16272563Y-11874174D02*
X16263039Y-11864650D01*
X16263039Y-11864650D02*
X16243991Y-11836079D01*
X16243991Y-11836079D02*
X16234468Y-11817031D01*
X16234468Y-11817031D02*
X16224944Y-11788460D01*
X16224944Y-11788460D02*
X16215420Y-11740841D01*
X16215420Y-11740841D02*
X16215420Y-11702746D01*
X16215420Y-11702746D02*
X16224944Y-11655127D01*
X16224944Y-11655127D02*
X16234468Y-11626555D01*
X16234468Y-11626555D02*
X16243991Y-11607508D01*
X16243991Y-11607508D02*
X16263039Y-11578936D01*
X16263039Y-11578936D02*
X16272563Y-11569412D01*
X16434468Y-11664650D02*
X16434468Y-11797984D01*
X16386848Y-11588460D02*
X16339229Y-11731317D01*
X16339229Y-11731317D02*
X16463039Y-11731317D01*
X16577325Y-11597984D02*
X16596372Y-11597984D01*
X16596372Y-11597984D02*
X16615420Y-11607508D01*
X16615420Y-11607508D02*
X16624944Y-11617031D01*
X16624944Y-11617031D02*
X16634468Y-11636079D01*
X16634468Y-11636079D02*
X16643991Y-11674174D01*
X16643991Y-11674174D02*
X16643991Y-11721793D01*
X16643991Y-11721793D02*
X16634468Y-11759888D01*
X16634468Y-11759888D02*
X16624944Y-11778936D01*
X16624944Y-11778936D02*
X16615420Y-11788460D01*
X16615420Y-11788460D02*
X16596372Y-11797984D01*
X16596372Y-11797984D02*
X16577325Y-11797984D01*
X16577325Y-11797984D02*
X16558277Y-11788460D01*
X16558277Y-11788460D02*
X16548753Y-11778936D01*
X16548753Y-11778936D02*
X16539229Y-11759888D01*
X16539229Y-11759888D02*
X16529706Y-11721793D01*
X16529706Y-11721793D02*
X16529706Y-11674174D01*
X16529706Y-11674174D02*
X16539229Y-11636079D01*
X16539229Y-11636079D02*
X16548753Y-11617031D01*
X16548753Y-11617031D02*
X16558277Y-11607508D01*
X16558277Y-11607508D02*
X16577325Y-11597984D01*
X16882087Y-11797984D02*
X16882087Y-11597984D01*
X16967801Y-11797984D02*
X16967801Y-11693222D01*
X16967801Y-11693222D02*
X16958277Y-11674174D01*
X16958277Y-11674174D02*
X16939230Y-11664650D01*
X16939230Y-11664650D02*
X16910658Y-11664650D01*
X16910658Y-11664650D02*
X16891611Y-11674174D01*
X16891611Y-11674174D02*
X16882087Y-11683698D01*
X17091611Y-11797984D02*
X17072563Y-11788460D01*
X17072563Y-11788460D02*
X17063039Y-11778936D01*
X17063039Y-11778936D02*
X17053515Y-11759888D01*
X17053515Y-11759888D02*
X17053515Y-11702746D01*
X17053515Y-11702746D02*
X17063039Y-11683698D01*
X17063039Y-11683698D02*
X17072563Y-11674174D01*
X17072563Y-11674174D02*
X17091611Y-11664650D01*
X17091611Y-11664650D02*
X17120182Y-11664650D01*
X17120182Y-11664650D02*
X17139230Y-11674174D01*
X17139230Y-11674174D02*
X17148753Y-11683698D01*
X17148753Y-11683698D02*
X17158277Y-11702746D01*
X17158277Y-11702746D02*
X17158277Y-11759888D01*
X17158277Y-11759888D02*
X17148753Y-11778936D01*
X17148753Y-11778936D02*
X17139230Y-11788460D01*
X17139230Y-11788460D02*
X17120182Y-11797984D01*
X17120182Y-11797984D02*
X17091611Y-11797984D01*
X17272563Y-11797984D02*
X17253515Y-11788460D01*
X17253515Y-11788460D02*
X17243992Y-11769412D01*
X17243992Y-11769412D02*
X17243992Y-11597984D01*
X17424944Y-11788460D02*
X17405896Y-11797984D01*
X17405896Y-11797984D02*
X17367801Y-11797984D01*
X17367801Y-11797984D02*
X17348753Y-11788460D01*
X17348753Y-11788460D02*
X17339230Y-11769412D01*
X17339230Y-11769412D02*
X17339230Y-11693222D01*
X17339230Y-11693222D02*
X17348753Y-11674174D01*
X17348753Y-11674174D02*
X17367801Y-11664650D01*
X17367801Y-11664650D02*
X17405896Y-11664650D01*
X17405896Y-11664650D02*
X17424944Y-11674174D01*
X17424944Y-11674174D02*
X17434468Y-11693222D01*
X17434468Y-11693222D02*
X17434468Y-11712269D01*
X17434468Y-11712269D02*
X17339230Y-11731317D01*
X17510658Y-11788460D02*
X17529706Y-11797984D01*
X17529706Y-11797984D02*
X17567801Y-11797984D01*
X17567801Y-11797984D02*
X17586849Y-11788460D01*
X17586849Y-11788460D02*
X17596373Y-11769412D01*
X17596373Y-11769412D02*
X17596373Y-11759888D01*
X17596373Y-11759888D02*
X17586849Y-11740841D01*
X17586849Y-11740841D02*
X17567801Y-11731317D01*
X17567801Y-11731317D02*
X17539230Y-11731317D01*
X17539230Y-11731317D02*
X17520182Y-11721793D01*
X17520182Y-11721793D02*
X17510658Y-11702746D01*
X17510658Y-11702746D02*
X17510658Y-11693222D01*
X17510658Y-11693222D02*
X17520182Y-11674174D01*
X17520182Y-11674174D02*
X17539230Y-11664650D01*
X17539230Y-11664650D02*
X17567801Y-11664650D01*
X17567801Y-11664650D02*
X17586849Y-11674174D01*
X17663039Y-11874174D02*
X17672563Y-11864650D01*
X17672563Y-11864650D02*
X17691611Y-11836079D01*
X17691611Y-11836079D02*
X17701134Y-11817031D01*
X17701134Y-11817031D02*
X17710658Y-11788460D01*
X17710658Y-11788460D02*
X17720182Y-11740841D01*
X17720182Y-11740841D02*
X17720182Y-11702746D01*
X17720182Y-11702746D02*
X17710658Y-11655127D01*
X17710658Y-11655127D02*
X17701134Y-11626555D01*
X17701134Y-11626555D02*
X17691611Y-11607508D01*
X17691611Y-11607508D02*
X17672563Y-11578936D01*
X17672563Y-11578936D02*
X17663039Y-11569412D01*
M02*
