%TF.GenerationSoftware,KiCad,Pcbnew,8.0.5*%
%TF.CreationDate,2025-06-06T09:51:39+09:00*%
%TF.ProjectId,e-con_hub,652d636f-6e5f-4687-9562-2e6b69636164,rev?*%
%TF.SameCoordinates,Original*%
%TF.FileFunction,Drillmap*%
%TF.FilePolarity,Positive*%
%FSLAX45Y45*%
G04 Gerber Fmt 4.5, Leading zero omitted, Abs format (unit mm)*
G04 Created by KiCad (PCBNEW 8.0.5) date 2025-06-06 09:51:39*
%MOMM*%
%LPD*%
G01*
G04 APERTURE LIST*
%ADD10C,0.050000*%
%ADD11C,0.200000*%
G04 APERTURE END LIST*
D10*
X17900000Y-10800000D02*
X13000000Y-10800000D01*
X18200000Y-8600000D02*
X18200000Y-10500000D01*
X12700000Y-8600000D02*
G75*
G02*
X13000000Y-8300000I300000J0D01*
G01*
X13160000Y-8600000D02*
G75*
G02*
X12840000Y-8600000I-160000J0D01*
G01*
X12840000Y-8600000D02*
G75*
G02*
X13160000Y-8600000I160000J0D01*
G01*
X12700000Y-10500000D02*
X12700000Y-8600000D01*
X17900000Y-8300000D02*
G75*
G02*
X18200000Y-8600000I0J-300000D01*
G01*
X13000000Y-10800000D02*
G75*
G02*
X12700000Y-10500000I0J300000D01*
G01*
X18200000Y-10500000D02*
G75*
G02*
X17900000Y-10800000I-300000J0D01*
G01*
X13000000Y-8300000D02*
X17900000Y-8300000D01*
X13160000Y-10500000D02*
G75*
G02*
X12840000Y-10500000I-160000J0D01*
G01*
X12840000Y-10500000D02*
G75*
G02*
X13160000Y-10500000I160000J0D01*
G01*
X18060000Y-8600000D02*
G75*
G02*
X17740000Y-8600000I-160000J0D01*
G01*
X17740000Y-8600000D02*
G75*
G02*
X18060000Y-8600000I160000J0D01*
G01*
X18060000Y-10500000D02*
G75*
G02*
X17740000Y-10500000I-160000J0D01*
G01*
X17740000Y-10500000D02*
G75*
G02*
X18060000Y-10500000I160000J0D01*
G01*
D11*
X12958277Y-11113984D02*
X12958277Y-10913984D01*
X12958277Y-10913984D02*
X13005896Y-10913984D01*
X13005896Y-10913984D02*
X13034467Y-10923508D01*
X13034467Y-10923508D02*
X13053515Y-10942555D01*
X13053515Y-10942555D02*
X13063039Y-10961603D01*
X13063039Y-10961603D02*
X13072562Y-10999698D01*
X13072562Y-10999698D02*
X13072562Y-11028270D01*
X13072562Y-11028270D02*
X13063039Y-11066365D01*
X13063039Y-11066365D02*
X13053515Y-11085412D01*
X13053515Y-11085412D02*
X13034467Y-11104460D01*
X13034467Y-11104460D02*
X13005896Y-11113984D01*
X13005896Y-11113984D02*
X12958277Y-11113984D01*
X13158277Y-11113984D02*
X13158277Y-10980650D01*
X13158277Y-11018746D02*
X13167801Y-10999698D01*
X13167801Y-10999698D02*
X13177324Y-10990174D01*
X13177324Y-10990174D02*
X13196372Y-10980650D01*
X13196372Y-10980650D02*
X13215420Y-10980650D01*
X13282086Y-11113984D02*
X13282086Y-10980650D01*
X13282086Y-10913984D02*
X13272562Y-10923508D01*
X13272562Y-10923508D02*
X13282086Y-10933031D01*
X13282086Y-10933031D02*
X13291610Y-10923508D01*
X13291610Y-10923508D02*
X13282086Y-10913984D01*
X13282086Y-10913984D02*
X13282086Y-10933031D01*
X13405896Y-11113984D02*
X13386848Y-11104460D01*
X13386848Y-11104460D02*
X13377324Y-11085412D01*
X13377324Y-11085412D02*
X13377324Y-10913984D01*
X13510658Y-11113984D02*
X13491610Y-11104460D01*
X13491610Y-11104460D02*
X13482086Y-11085412D01*
X13482086Y-11085412D02*
X13482086Y-10913984D01*
X13739229Y-11113984D02*
X13739229Y-10913984D01*
X13739229Y-10913984D02*
X13805896Y-11056841D01*
X13805896Y-11056841D02*
X13872562Y-10913984D01*
X13872562Y-10913984D02*
X13872562Y-11113984D01*
X14053515Y-11113984D02*
X14053515Y-11009222D01*
X14053515Y-11009222D02*
X14043991Y-10990174D01*
X14043991Y-10990174D02*
X14024943Y-10980650D01*
X14024943Y-10980650D02*
X13986848Y-10980650D01*
X13986848Y-10980650D02*
X13967801Y-10990174D01*
X14053515Y-11104460D02*
X14034467Y-11113984D01*
X14034467Y-11113984D02*
X13986848Y-11113984D01*
X13986848Y-11113984D02*
X13967801Y-11104460D01*
X13967801Y-11104460D02*
X13958277Y-11085412D01*
X13958277Y-11085412D02*
X13958277Y-11066365D01*
X13958277Y-11066365D02*
X13967801Y-11047317D01*
X13967801Y-11047317D02*
X13986848Y-11037793D01*
X13986848Y-11037793D02*
X14034467Y-11037793D01*
X14034467Y-11037793D02*
X14053515Y-11028270D01*
X14148753Y-10980650D02*
X14148753Y-11180650D01*
X14148753Y-10990174D02*
X14167801Y-10980650D01*
X14167801Y-10980650D02*
X14205896Y-10980650D01*
X14205896Y-10980650D02*
X14224943Y-10990174D01*
X14224943Y-10990174D02*
X14234467Y-10999698D01*
X14234467Y-10999698D02*
X14243991Y-11018746D01*
X14243991Y-11018746D02*
X14243991Y-11075889D01*
X14243991Y-11075889D02*
X14234467Y-11094936D01*
X14234467Y-11094936D02*
X14224943Y-11104460D01*
X14224943Y-11104460D02*
X14205896Y-11113984D01*
X14205896Y-11113984D02*
X14167801Y-11113984D01*
X14167801Y-11113984D02*
X14148753Y-11104460D01*
X14329705Y-11094936D02*
X14339229Y-11104460D01*
X14339229Y-11104460D02*
X14329705Y-11113984D01*
X14329705Y-11113984D02*
X14320182Y-11104460D01*
X14320182Y-11104460D02*
X14329705Y-11094936D01*
X14329705Y-11094936D02*
X14329705Y-11113984D01*
X14329705Y-10990174D02*
X14339229Y-10999698D01*
X14339229Y-10999698D02*
X14329705Y-11009222D01*
X14329705Y-11009222D02*
X14320182Y-10999698D01*
X14320182Y-10999698D02*
X14329705Y-10990174D01*
X14329705Y-10990174D02*
X14329705Y-11009222D01*
M02*
