M48
; DRILL file {KiCad 8.0.5} date 2025-06-04T17:28:24+0900
; FORMAT={-:-/ absolute / metric / decimal}
; #@! TF.CreationDate,2025-06-04T17:28:24+09:00
; #@! TF.GenerationSoftware,Kicad,Pcbnew,8.0.5
; #@! TF.FileFunction,Plated,1,2,PTH
FMAT,2
METRIC
; #@! TA.AperFunction,Plated,PTH,ViaDrill
T1C0.300
; #@! TA.AperFunction,Plated,PTH,ComponentDrill
T2C1.000
%
G90
G05
T1
X128.75Y-89.0
X128.75Y-95.0
X128.75Y-101.0
X132.75Y-84.0
X132.75Y-107.0
X135.0Y-93.2
X141.8Y-84.0
X142.1Y-107.0
X143.5Y-85.75
X146.0Y-85.75
X146.58Y-88.5
X148.75Y-91.5
X152.1Y-107.0
X153.3Y-90.4
X154.08Y-84.0
X160.33Y-84.0
X161.83Y-86.75
X162.1Y-107.0
X164.4Y-91.1
X171.75Y-84.0
X172.1Y-107.0
X172.25Y-86.75
X177.621Y-92.5
X177.621Y-99.5
X180.75Y-89.0
X180.75Y-95.0
X180.75Y-101.0
T2
X137.5Y-95.3
X137.5Y-97.3
X137.5Y-99.3
X137.5Y-101.3
X137.5Y-103.3
X144.3Y-95.3
X144.3Y-97.3
X144.3Y-99.3
X144.3Y-101.3
X144.3Y-103.3
X149.42Y-86.25
X149.42Y-88.79
X151.1Y-95.3
X151.1Y-97.3
X151.1Y-99.3
X151.1Y-101.3
X151.1Y-103.3
X151.96Y-86.25
X151.96Y-88.79
X154.5Y-86.25
X154.5Y-88.79
X157.04Y-86.25
X157.04Y-88.79
X157.9Y-95.3
X157.9Y-97.3
X157.9Y-99.3
X157.9Y-101.3
X157.9Y-103.3
X159.58Y-86.25
X159.58Y-88.79
X164.7Y-95.3
X164.7Y-97.3
X164.7Y-99.3
X164.7Y-101.3
X164.7Y-103.3
X171.5Y-95.3
X171.5Y-97.3
X171.5Y-99.3
X171.5Y-101.3
X171.5Y-103.3
M30
