%TF.GenerationSoftware,KiCad,Pcbnew,8.0.5*%
%TF.CreationDate,2025-06-06T16:31:12+09:00*%
%TF.ProjectId,e-con_hub,652d636f-6e5f-4687-9562-2e6b69636164,rev?*%
%TF.SameCoordinates,Original*%
%TF.FileFunction,Copper,L2,Bot*%
%TF.FilePolarity,Positive*%
%FSLAX46Y46*%
G04 Gerber Fmt 4.6, Leading zero omitted, Abs format (unit mm)*
G04 Created by KiCad (PCBNEW 8.0.5) date 2025-06-06 16:31:12*
%MOMM*%
%LPD*%
G01*
G04 APERTURE LIST*
%TA.AperFunction,ComponentPad*%
%ADD10C,1.500000*%
%TD*%
%TA.AperFunction,ComponentPad*%
%ADD11R,1.700000X1.700000*%
%TD*%
%TA.AperFunction,ComponentPad*%
%ADD12O,1.700000X1.700000*%
%TD*%
%TA.AperFunction,ViaPad*%
%ADD13C,0.600000*%
%TD*%
%TA.AperFunction,Conductor*%
%ADD14C,0.300000*%
%TD*%
%TA.AperFunction,Conductor*%
%ADD15C,2.000000*%
%TD*%
%TA.AperFunction,Conductor*%
%ADD16C,0.500000*%
%TD*%
G04 APERTURE END LIST*
D10*
%TO.P,J3,24V,24V*%
%TO.N,+24V*%
X151100000Y-101300000D03*
%TO.P,J3,GND,GND*%
%TO.N,GND*%
X151100000Y-99300000D03*
%TO.P,J3,NC,NC*%
X151100000Y-95300000D03*
X151100000Y-103300000D03*
%TO.P,J3,Sign,Sign*%
%TO.N,Net-(J7-Pin_7)*%
X151100000Y-97300000D03*
%TD*%
%TO.P,J5,24V,24V*%
%TO.N,+24V*%
X164700000Y-101300000D03*
%TO.P,J5,GND,GND*%
%TO.N,GND*%
X164700000Y-99300000D03*
%TO.P,J5,NC,NC*%
X164700000Y-95300000D03*
X164700000Y-103300000D03*
%TO.P,J5,Sign,Sign*%
%TO.N,Net-(J7-Pin_9)*%
X164700000Y-97300000D03*
%TD*%
%TO.P,J4,24V,24V*%
%TO.N,+24V*%
X157900000Y-101300000D03*
%TO.P,J4,GND,GND*%
%TO.N,GND*%
X157900000Y-99300000D03*
%TO.P,J4,NC,NC*%
X157900000Y-95300000D03*
X157900000Y-103300000D03*
%TO.P,J4,Sign,Sign*%
%TO.N,Net-(J7-Pin_8)*%
X157900000Y-97300000D03*
%TD*%
%TO.P,J6,24V,24V*%
%TO.N,+24V*%
X171500000Y-101300000D03*
%TO.P,J6,GND,GND*%
%TO.N,GND*%
X171500000Y-99300000D03*
%TO.P,J6,NC,NC*%
X171500000Y-95300000D03*
X171500000Y-103300000D03*
%TO.P,J6,Sign,Sign*%
%TO.N,Net-(J7-Pin_10)*%
X171500000Y-97300000D03*
%TD*%
D11*
%TO.P,J7,1,Pin_1*%
%TO.N,+24V*%
X149420000Y-88790000D03*
D12*
%TO.P,J7,2,Pin_2*%
X149420000Y-86250000D03*
%TO.P,J7,3,Pin_3*%
%TO.N,GND*%
X151960000Y-88790000D03*
%TO.P,J7,4,Pin_4*%
X151960000Y-86250000D03*
%TO.P,J7,5,Pin_5*%
%TO.N,Net-(J7-Pin_5)*%
X154500000Y-88790000D03*
%TO.P,J7,6,Pin_6*%
%TO.N,Net-(J7-Pin_6)*%
X154500000Y-86250000D03*
%TO.P,J7,7,Pin_7*%
%TO.N,Net-(J7-Pin_7)*%
X157040000Y-88790000D03*
%TO.P,J7,8,Pin_8*%
%TO.N,Net-(J7-Pin_8)*%
X157040000Y-86250000D03*
%TO.P,J7,9,Pin_9*%
%TO.N,Net-(J7-Pin_9)*%
X159580000Y-88790000D03*
%TO.P,J7,10,Pin_10*%
%TO.N,Net-(J7-Pin_10)*%
X159580000Y-86250000D03*
%TD*%
D10*
%TO.P,J2,24V,24V*%
%TO.N,+24V*%
X144300000Y-101300000D03*
%TO.P,J2,GND,GND*%
%TO.N,GND*%
X144300000Y-99300000D03*
%TO.P,J2,NC,NC*%
X144300000Y-95300000D03*
X144300000Y-103300000D03*
%TO.P,J2,Sign,Sign*%
%TO.N,Net-(J7-Pin_6)*%
X144300000Y-97300000D03*
%TD*%
%TO.P,J1,24V,24V*%
%TO.N,+24V*%
X137500000Y-101300000D03*
%TO.P,J1,GND,GND*%
%TO.N,GND*%
X137500000Y-99300000D03*
%TO.P,J1,NC,NC*%
X137500000Y-95300000D03*
X137500000Y-103300000D03*
%TO.P,J1,Sign,Sign*%
%TO.N,Net-(J7-Pin_5)*%
X137500000Y-97300000D03*
%TD*%
D13*
%TO.N,GND*%
X155000000Y-95000000D03*
X157000000Y-93000000D03*
X159500000Y-94000000D03*
X163300000Y-92800000D03*
X163750000Y-84000000D03*
X131250000Y-98750000D03*
X155750000Y-91000000D03*
X149250000Y-91500000D03*
X154500000Y-107000000D03*
X163250000Y-88000000D03*
X180900000Y-99000000D03*
X154500000Y-84000000D03*
X180900000Y-95500000D03*
X128200000Y-92000000D03*
X128200000Y-95500000D03*
X173000000Y-84000000D03*
X142750000Y-91500000D03*
X131250000Y-91750000D03*
X128200000Y-99000000D03*
X145250000Y-84000000D03*
X136000000Y-107000000D03*
X180900000Y-92000000D03*
X163750000Y-107000000D03*
X135500000Y-97500000D03*
X154000000Y-92750000D03*
X137250000Y-91000000D03*
X136000000Y-84000000D03*
X145250000Y-107000000D03*
X161250000Y-90750000D03*
X173000000Y-107000000D03*
%TD*%
D14*
%TO.N,GND*%
X164700000Y-95300000D02*
X171500000Y-95300000D01*
X137500000Y-95300000D02*
X164700000Y-95300000D01*
X137500000Y-93750000D02*
X137500000Y-95300000D01*
X140250000Y-91000000D02*
X137500000Y-93750000D01*
X149750000Y-91000000D02*
X140250000Y-91000000D01*
X151960000Y-88790000D02*
X149750000Y-91000000D01*
X151960000Y-88790000D02*
X151960000Y-86250000D01*
D15*
%TO.N,+24V*%
X133500000Y-91750000D02*
X133500000Y-98750000D01*
X136460000Y-88790000D02*
X133500000Y-91750000D01*
X133500000Y-98750000D02*
X136050000Y-101300000D01*
X136050000Y-101300000D02*
X137500000Y-101300000D01*
X149420000Y-88790000D02*
X136460000Y-88790000D01*
X149420000Y-86250000D02*
X149420000Y-88790000D01*
D16*
%TO.N,GND*%
X137500000Y-99300000D02*
X171500000Y-99300000D01*
D14*
X172700000Y-99300000D02*
X173400000Y-98600000D01*
X173400000Y-98600000D02*
X173400000Y-96100000D01*
X171500000Y-99300000D02*
X172700000Y-99300000D01*
X173400000Y-96100000D02*
X172600000Y-95300000D01*
X172600000Y-95300000D02*
X171500000Y-95300000D01*
D15*
%TO.N,+24V*%
X171500000Y-101300000D02*
X137500000Y-101300000D01*
%TD*%
%TA.AperFunction,Conductor*%
%TO.N,GND*%
G36*
X171740043Y-99767062D02*
G01*
X171678720Y-99800547D01*
X171632968Y-99801855D01*
X171618096Y-99799500D01*
X171618092Y-99799500D01*
X171567692Y-99799500D01*
X171692993Y-99765925D01*
X171807005Y-99700100D01*
X171740043Y-99767062D01*
G37*
%TD.AperFunction*%
%TA.AperFunction,Conductor*%
G36*
X152460000Y-87173326D02*
G01*
X152546173Y-87127266D01*
X152706055Y-86996055D01*
X152837267Y-86836173D01*
X152837271Y-86836166D01*
X152934766Y-86653765D01*
X152954885Y-86587442D01*
X152993182Y-86529003D01*
X153056994Y-86500546D01*
X153126061Y-86511105D01*
X153178455Y-86557329D01*
X153193321Y-86591342D01*
X153226095Y-86713658D01*
X153226096Y-86713660D01*
X153226097Y-86713663D01*
X153306004Y-86885023D01*
X153325965Y-86927830D01*
X153325967Y-86927834D01*
X153434281Y-87082521D01*
X153461501Y-87121396D01*
X153461506Y-87121402D01*
X153628597Y-87288493D01*
X153628603Y-87288498D01*
X153814158Y-87418425D01*
X153857783Y-87473002D01*
X153864977Y-87542500D01*
X153833454Y-87604855D01*
X153814158Y-87621575D01*
X153628597Y-87751505D01*
X153461505Y-87918597D01*
X153325965Y-88112169D01*
X153325964Y-88112171D01*
X153226098Y-88326335D01*
X153226095Y-88326342D01*
X153193321Y-88448657D01*
X153156956Y-88508317D01*
X153094109Y-88538846D01*
X153024733Y-88530551D01*
X152970855Y-88486066D01*
X152954885Y-88452558D01*
X152934765Y-88386233D01*
X152837271Y-88203833D01*
X152837267Y-88203826D01*
X152706055Y-88043944D01*
X152546173Y-87912732D01*
X152546166Y-87912727D01*
X152460000Y-87866671D01*
X152460000Y-88724174D01*
X152425925Y-88597007D01*
X152360099Y-88482993D01*
X152267007Y-88389901D01*
X152152993Y-88324075D01*
X152025826Y-88290000D01*
X151894174Y-88290000D01*
X151767007Y-88324075D01*
X151652993Y-88389901D01*
X151559901Y-88482993D01*
X151494075Y-88597007D01*
X151460000Y-88724174D01*
X151460000Y-87866671D01*
X151459999Y-87866671D01*
X151373833Y-87912727D01*
X151373826Y-87912732D01*
X151213944Y-88043944D01*
X151140353Y-88133616D01*
X151082607Y-88172950D01*
X151012763Y-88174821D01*
X150952994Y-88138633D01*
X150922279Y-88075877D01*
X150920500Y-88054951D01*
X150920500Y-86985048D01*
X150940185Y-86918009D01*
X150992989Y-86872254D01*
X151062147Y-86862310D01*
X151125703Y-86891335D01*
X151140354Y-86906384D01*
X151213945Y-86996055D01*
X151373826Y-87127266D01*
X151460000Y-87173326D01*
X151460000Y-86315826D01*
X151494075Y-86442993D01*
X151559901Y-86557007D01*
X151652993Y-86650099D01*
X151767007Y-86715925D01*
X151894174Y-86750000D01*
X152025826Y-86750000D01*
X152152993Y-86715925D01*
X152267007Y-86650099D01*
X152360099Y-86557007D01*
X152425925Y-86442993D01*
X152460000Y-86315826D01*
X152460000Y-87173326D01*
G37*
%TD.AperFunction*%
%TA.AperFunction,Conductor*%
G36*
X173516177Y-83520185D02*
G01*
X173536819Y-83536819D01*
X181463181Y-91463181D01*
X181496666Y-91524504D01*
X181499500Y-91550862D01*
X181499500Y-99449138D01*
X181479815Y-99516177D01*
X181463181Y-99536819D01*
X173536819Y-107463181D01*
X173475496Y-107496666D01*
X173449138Y-107499500D01*
X135550862Y-107499500D01*
X135483823Y-107479815D01*
X135463181Y-107463181D01*
X132226265Y-104226265D01*
X137280839Y-104226265D01*
X137313767Y-104236255D01*
X137500000Y-104254596D01*
X137686233Y-104236255D01*
X137686234Y-104236254D01*
X137719160Y-104226266D01*
X137719160Y-104226265D01*
X144080839Y-104226265D01*
X144113767Y-104236255D01*
X144300000Y-104254596D01*
X144486233Y-104236255D01*
X144486234Y-104236254D01*
X144519160Y-104226266D01*
X144519160Y-104226265D01*
X150880839Y-104226265D01*
X150913767Y-104236255D01*
X151100000Y-104254596D01*
X151286233Y-104236255D01*
X151286234Y-104236254D01*
X151319160Y-104226266D01*
X151319160Y-104226265D01*
X157680839Y-104226265D01*
X157713767Y-104236255D01*
X157900000Y-104254596D01*
X158086233Y-104236255D01*
X158086234Y-104236254D01*
X158119160Y-104226266D01*
X158119160Y-104226265D01*
X164480839Y-104226265D01*
X164513767Y-104236255D01*
X164700000Y-104254596D01*
X164886233Y-104236255D01*
X164886234Y-104236254D01*
X164919160Y-104226266D01*
X164919160Y-104226265D01*
X171280839Y-104226265D01*
X171313767Y-104236255D01*
X171500000Y-104254596D01*
X171686233Y-104236255D01*
X171686234Y-104236254D01*
X171719160Y-104226266D01*
X171719160Y-104226265D01*
X171500001Y-104007106D01*
X171280839Y-104226265D01*
X164919160Y-104226265D01*
X164700001Y-104007106D01*
X164480839Y-104226265D01*
X158119160Y-104226265D01*
X157900001Y-104007106D01*
X157680839Y-104226265D01*
X151319160Y-104226265D01*
X151100001Y-104007106D01*
X150880839Y-104226265D01*
X144519160Y-104226265D01*
X144300001Y-104007106D01*
X144080839Y-104226265D01*
X137719160Y-104226265D01*
X137500001Y-104007106D01*
X137280839Y-104226265D01*
X132226265Y-104226265D01*
X127536819Y-99536819D01*
X127503334Y-99475496D01*
X127500500Y-99449138D01*
X127500500Y-91631902D01*
X131999500Y-91631902D01*
X131999500Y-98868097D01*
X132036446Y-99101368D01*
X132109433Y-99325996D01*
X132216657Y-99536434D01*
X132355120Y-99727011D01*
X132355484Y-99727511D01*
X132355485Y-99727512D01*
X135072491Y-102444519D01*
X135072496Y-102444523D01*
X135239155Y-102565606D01*
X135263567Y-102583343D01*
X135397659Y-102651666D01*
X135474003Y-102690566D01*
X135474005Y-102690566D01*
X135474008Y-102690568D01*
X135594412Y-102729689D01*
X135698631Y-102763553D01*
X135931903Y-102800500D01*
X136491579Y-102800500D01*
X136558618Y-102820185D01*
X136604373Y-102872989D01*
X136614317Y-102942147D01*
X136610240Y-102960495D01*
X136563744Y-103113768D01*
X136545403Y-103300000D01*
X136563744Y-103486230D01*
X136573733Y-103519159D01*
X137256074Y-102836819D01*
X137317397Y-102803334D01*
X137343755Y-102800500D01*
X137432308Y-102800500D01*
X137307007Y-102834075D01*
X137192993Y-102899901D01*
X137099901Y-102992993D01*
X137034075Y-103107007D01*
X137000000Y-103234174D01*
X137000000Y-103365826D01*
X137034075Y-103492993D01*
X137099901Y-103607007D01*
X137192993Y-103700099D01*
X137307007Y-103765925D01*
X137434174Y-103800000D01*
X137565826Y-103800000D01*
X137692993Y-103765925D01*
X137807007Y-103700099D01*
X137900099Y-103607007D01*
X137965925Y-103492993D01*
X138000000Y-103365826D01*
X138000000Y-103234174D01*
X137965925Y-103107007D01*
X137900099Y-102992993D01*
X137807007Y-102899901D01*
X137692993Y-102834075D01*
X137567692Y-102800500D01*
X137656245Y-102800500D01*
X137723284Y-102820185D01*
X137743926Y-102836819D01*
X138148519Y-103241412D01*
X138148521Y-103241416D01*
X138426265Y-103519160D01*
X138426266Y-103519160D01*
X138436254Y-103486234D01*
X138436255Y-103486233D01*
X138454596Y-103300000D01*
X138436255Y-103113768D01*
X138389760Y-102960495D01*
X138389137Y-102890629D01*
X138426385Y-102831516D01*
X138489679Y-102801925D01*
X138508421Y-102800500D01*
X143291579Y-102800500D01*
X143358618Y-102820185D01*
X143404373Y-102872989D01*
X143414317Y-102942147D01*
X143410240Y-102960495D01*
X143363744Y-103113768D01*
X143345403Y-103300000D01*
X143363744Y-103486230D01*
X143373733Y-103519159D01*
X144056074Y-102836819D01*
X144117397Y-102803334D01*
X144143755Y-102800500D01*
X144232308Y-102800500D01*
X144107007Y-102834075D01*
X143992993Y-102899901D01*
X143899901Y-102992993D01*
X143834075Y-103107007D01*
X143800000Y-103234174D01*
X143800000Y-103365826D01*
X143834075Y-103492993D01*
X143899901Y-103607007D01*
X143992993Y-103700099D01*
X144107007Y-103765925D01*
X144234174Y-103800000D01*
X144365826Y-103800000D01*
X144492993Y-103765925D01*
X144607007Y-103700099D01*
X144700099Y-103607007D01*
X144765925Y-103492993D01*
X144800000Y-103365826D01*
X144800000Y-103234174D01*
X144765925Y-103107007D01*
X144700099Y-102992993D01*
X144607007Y-102899901D01*
X144492993Y-102834075D01*
X144367692Y-102800500D01*
X144456245Y-102800500D01*
X144523284Y-102820185D01*
X144543926Y-102836819D01*
X144948519Y-103241412D01*
X144948521Y-103241416D01*
X145226265Y-103519160D01*
X145226266Y-103519160D01*
X145236254Y-103486234D01*
X145236255Y-103486233D01*
X145254596Y-103300000D01*
X145236255Y-103113768D01*
X145189760Y-102960495D01*
X145189137Y-102890629D01*
X145226385Y-102831516D01*
X145289679Y-102801925D01*
X145308421Y-102800500D01*
X150091579Y-102800500D01*
X150158618Y-102820185D01*
X150204373Y-102872989D01*
X150214317Y-102942147D01*
X150210240Y-102960495D01*
X150163744Y-103113768D01*
X150145403Y-103300000D01*
X150163744Y-103486230D01*
X150173733Y-103519159D01*
X150856074Y-102836819D01*
X150917397Y-102803334D01*
X150943755Y-102800500D01*
X151032308Y-102800500D01*
X150907007Y-102834075D01*
X150792993Y-102899901D01*
X150699901Y-102992993D01*
X150634075Y-103107007D01*
X150600000Y-103234174D01*
X150600000Y-103365826D01*
X150634075Y-103492993D01*
X150699901Y-103607007D01*
X150792993Y-103700099D01*
X150907007Y-103765925D01*
X151034174Y-103800000D01*
X151165826Y-103800000D01*
X151292993Y-103765925D01*
X151407007Y-103700099D01*
X151500099Y-103607007D01*
X151565925Y-103492993D01*
X151600000Y-103365826D01*
X151600000Y-103234174D01*
X151565925Y-103107007D01*
X151500099Y-102992993D01*
X151407007Y-102899901D01*
X151292993Y-102834075D01*
X151167692Y-102800500D01*
X151256245Y-102800500D01*
X151323284Y-102820185D01*
X151343926Y-102836819D01*
X151748519Y-103241412D01*
X151748521Y-103241416D01*
X152026265Y-103519160D01*
X152026266Y-103519160D01*
X152036254Y-103486234D01*
X152036255Y-103486233D01*
X152054596Y-103300000D01*
X152036255Y-103113768D01*
X151989760Y-102960495D01*
X151989137Y-102890629D01*
X152026385Y-102831516D01*
X152089679Y-102801925D01*
X152108421Y-102800500D01*
X156891579Y-102800500D01*
X156958618Y-102820185D01*
X157004373Y-102872989D01*
X157014317Y-102942147D01*
X157010240Y-102960495D01*
X156963744Y-103113768D01*
X156945403Y-103300000D01*
X156963744Y-103486230D01*
X156973733Y-103519159D01*
X157656074Y-102836819D01*
X157717397Y-102803334D01*
X157743755Y-102800500D01*
X157832308Y-102800500D01*
X157707007Y-102834075D01*
X157592993Y-102899901D01*
X157499901Y-102992993D01*
X157434075Y-103107007D01*
X157400000Y-103234174D01*
X157400000Y-103365826D01*
X157434075Y-103492993D01*
X157499901Y-103607007D01*
X157592993Y-103700099D01*
X157707007Y-103765925D01*
X157834174Y-103800000D01*
X157965826Y-103800000D01*
X158092993Y-103765925D01*
X158207007Y-103700099D01*
X158300099Y-103607007D01*
X158365925Y-103492993D01*
X158400000Y-103365826D01*
X158400000Y-103234174D01*
X158365925Y-103107007D01*
X158300099Y-102992993D01*
X158207007Y-102899901D01*
X158092993Y-102834075D01*
X157967692Y-102800500D01*
X158056245Y-102800500D01*
X158123284Y-102820185D01*
X158143926Y-102836819D01*
X158548519Y-103241412D01*
X158548521Y-103241416D01*
X158826265Y-103519160D01*
X158826266Y-103519160D01*
X158836254Y-103486234D01*
X158836255Y-103486233D01*
X158854596Y-103300000D01*
X158836255Y-103113768D01*
X158789760Y-102960495D01*
X158789137Y-102890629D01*
X158826385Y-102831516D01*
X158889679Y-102801925D01*
X158908421Y-102800500D01*
X163691579Y-102800500D01*
X163758618Y-102820185D01*
X163804373Y-102872989D01*
X163814317Y-102942147D01*
X163810240Y-102960495D01*
X163763744Y-103113768D01*
X163745403Y-103300000D01*
X163763744Y-103486230D01*
X163773733Y-103519159D01*
X164456074Y-102836819D01*
X164517397Y-102803334D01*
X164543755Y-102800500D01*
X164632308Y-102800500D01*
X164507007Y-102834075D01*
X164392993Y-102899901D01*
X164299901Y-102992993D01*
X164234075Y-103107007D01*
X164200000Y-103234174D01*
X164200000Y-103365826D01*
X164234075Y-103492993D01*
X164299901Y-103607007D01*
X164392993Y-103700099D01*
X164507007Y-103765925D01*
X164634174Y-103800000D01*
X164765826Y-103800000D01*
X164892993Y-103765925D01*
X165007007Y-103700099D01*
X165100099Y-103607007D01*
X165165925Y-103492993D01*
X165200000Y-103365826D01*
X165200000Y-103234174D01*
X165165925Y-103107007D01*
X165100099Y-102992993D01*
X165007007Y-102899901D01*
X164892993Y-102834075D01*
X164767692Y-102800500D01*
X164856245Y-102800500D01*
X164923284Y-102820185D01*
X164943926Y-102836819D01*
X165348519Y-103241412D01*
X165348521Y-103241416D01*
X165626266Y-103519160D01*
X165636254Y-103486234D01*
X165636255Y-103486233D01*
X165654596Y-103300000D01*
X165636255Y-103113768D01*
X165589760Y-102960495D01*
X165589137Y-102890629D01*
X165626385Y-102831516D01*
X165689679Y-102801925D01*
X165708421Y-102800500D01*
X170491579Y-102800500D01*
X170558618Y-102820185D01*
X170604373Y-102872989D01*
X170614317Y-102942147D01*
X170610240Y-102960495D01*
X170563744Y-103113768D01*
X170545403Y-103300000D01*
X170563744Y-103486230D01*
X170573733Y-103519159D01*
X171256074Y-102836819D01*
X171317397Y-102803334D01*
X171343755Y-102800500D01*
X171432308Y-102800500D01*
X171307007Y-102834075D01*
X171192993Y-102899901D01*
X171099901Y-102992993D01*
X171034075Y-103107007D01*
X171000000Y-103234174D01*
X171000000Y-103365826D01*
X171034075Y-103492993D01*
X171099901Y-103607007D01*
X171192993Y-103700099D01*
X171307007Y-103765925D01*
X171434174Y-103800000D01*
X171565826Y-103800000D01*
X171692993Y-103765925D01*
X171807007Y-103700099D01*
X171900099Y-103607007D01*
X171965925Y-103492993D01*
X172000000Y-103365826D01*
X172000000Y-103234174D01*
X171965925Y-103107007D01*
X171900099Y-102992993D01*
X171807007Y-102899901D01*
X171692993Y-102834075D01*
X171567692Y-102800500D01*
X171618088Y-102800500D01*
X171618092Y-102800500D01*
X171632964Y-102798144D01*
X171702255Y-102807097D01*
X171740043Y-102832936D01*
X172148519Y-103241412D01*
X172148521Y-103241416D01*
X172426266Y-103519160D01*
X172436254Y-103486234D01*
X172436255Y-103486233D01*
X172454596Y-103300000D01*
X172436255Y-103113769D01*
X172381931Y-102934688D01*
X172293715Y-102769650D01*
X172278650Y-102751293D01*
X172251337Y-102686983D01*
X172263128Y-102618115D01*
X172301617Y-102572311D01*
X172477510Y-102444517D01*
X172644517Y-102277510D01*
X172783343Y-102086433D01*
X172890568Y-101875992D01*
X172963553Y-101651368D01*
X173000500Y-101418097D01*
X173000500Y-101181902D01*
X172963553Y-100948631D01*
X172890566Y-100724003D01*
X172783342Y-100513566D01*
X172644517Y-100322490D01*
X172477510Y-100155483D01*
X172301616Y-100027688D01*
X172258951Y-99972358D01*
X172252972Y-99902744D01*
X172278652Y-99848701D01*
X172293718Y-99830343D01*
X172381931Y-99665311D01*
X172436255Y-99486230D01*
X172454596Y-99299999D01*
X172436255Y-99113767D01*
X172426265Y-99080839D01*
X172426265Y-99080838D01*
X172170791Y-99336313D01*
X172170787Y-99336319D01*
X171900099Y-99607005D01*
X171965925Y-99492993D01*
X172000000Y-99365826D01*
X172000000Y-99234174D01*
X171965925Y-99107007D01*
X171900099Y-98992993D01*
X171807007Y-98899901D01*
X171692993Y-98834075D01*
X171565826Y-98800000D01*
X171434174Y-98800000D01*
X171307007Y-98834075D01*
X171192993Y-98899901D01*
X171099901Y-98992993D01*
X171034075Y-99107007D01*
X171000000Y-99234174D01*
X171000000Y-99365826D01*
X171034075Y-99492993D01*
X171099901Y-99607007D01*
X171192993Y-99700099D01*
X171307007Y-99765925D01*
X171432308Y-99799500D01*
X171343755Y-99799500D01*
X171276716Y-99779815D01*
X171256074Y-99763181D01*
X170810334Y-99317441D01*
X170810332Y-99317438D01*
X170573733Y-99080838D01*
X170573732Y-99080839D01*
X170563746Y-99113762D01*
X170563744Y-99113772D01*
X170545403Y-99300000D01*
X170563744Y-99486231D01*
X170610240Y-99639505D01*
X170610863Y-99709371D01*
X170573615Y-99768484D01*
X170510321Y-99798075D01*
X170491579Y-99799500D01*
X165708421Y-99799500D01*
X165641382Y-99779815D01*
X165595627Y-99727011D01*
X165585683Y-99657853D01*
X165589760Y-99639505D01*
X165636255Y-99486231D01*
X165654596Y-99299999D01*
X165636255Y-99113767D01*
X165626265Y-99080839D01*
X165626265Y-99080838D01*
X165370795Y-99336309D01*
X165370787Y-99336320D01*
X164943926Y-99763181D01*
X164882603Y-99796666D01*
X164856245Y-99799500D01*
X164767692Y-99799500D01*
X164892993Y-99765925D01*
X165007007Y-99700099D01*
X165100099Y-99607007D01*
X165165925Y-99492993D01*
X165200000Y-99365826D01*
X165200000Y-99234174D01*
X165165925Y-99107007D01*
X165100099Y-98992993D01*
X165007007Y-98899901D01*
X164892993Y-98834075D01*
X164765826Y-98800000D01*
X164634174Y-98800000D01*
X164507007Y-98834075D01*
X164392993Y-98899901D01*
X164299901Y-98992993D01*
X164234075Y-99107007D01*
X164200000Y-99234174D01*
X164200000Y-99365826D01*
X164234075Y-99492993D01*
X164299901Y-99607007D01*
X164392993Y-99700099D01*
X164507007Y-99765925D01*
X164632308Y-99799500D01*
X164543755Y-99799500D01*
X164476716Y-99779815D01*
X164456074Y-99763181D01*
X164010334Y-99317441D01*
X164010332Y-99317438D01*
X163773733Y-99080838D01*
X163773732Y-99080839D01*
X163763746Y-99113762D01*
X163763744Y-99113772D01*
X163745403Y-99300000D01*
X163763744Y-99486231D01*
X163810240Y-99639505D01*
X163810863Y-99709371D01*
X163773615Y-99768484D01*
X163710321Y-99798075D01*
X163691579Y-99799500D01*
X158908421Y-99799500D01*
X158841382Y-99779815D01*
X158795627Y-99727011D01*
X158785683Y-99657853D01*
X158789760Y-99639505D01*
X158836255Y-99486231D01*
X158854596Y-99299999D01*
X158836255Y-99113767D01*
X158826265Y-99080839D01*
X158826265Y-99080838D01*
X158570795Y-99336309D01*
X158570787Y-99336320D01*
X158143926Y-99763181D01*
X158082603Y-99796666D01*
X158056245Y-99799500D01*
X157967692Y-99799500D01*
X158092993Y-99765925D01*
X158207007Y-99700099D01*
X158300099Y-99607007D01*
X158365925Y-99492993D01*
X158400000Y-99365826D01*
X158400000Y-99234174D01*
X158365925Y-99107007D01*
X158300099Y-98992993D01*
X158207007Y-98899901D01*
X158092993Y-98834075D01*
X157965826Y-98800000D01*
X157834174Y-98800000D01*
X157707007Y-98834075D01*
X157592993Y-98899901D01*
X157499901Y-98992993D01*
X157434075Y-99107007D01*
X157400000Y-99234174D01*
X157400000Y-99365826D01*
X157434075Y-99492993D01*
X157499901Y-99607007D01*
X157592993Y-99700099D01*
X157707007Y-99765925D01*
X157832308Y-99799500D01*
X157743755Y-99799500D01*
X157676716Y-99779815D01*
X157656074Y-99763181D01*
X157210334Y-99317441D01*
X157210332Y-99317438D01*
X156973733Y-99080838D01*
X156973732Y-99080839D01*
X156963746Y-99113762D01*
X156963744Y-99113772D01*
X156945403Y-99300000D01*
X156963744Y-99486231D01*
X157010240Y-99639505D01*
X157010863Y-99709371D01*
X156973615Y-99768484D01*
X156910321Y-99798075D01*
X156891579Y-99799500D01*
X152108421Y-99799500D01*
X152041382Y-99779815D01*
X151995627Y-99727011D01*
X151985683Y-99657853D01*
X151989760Y-99639505D01*
X152036255Y-99486231D01*
X152054596Y-99299999D01*
X152036255Y-99113767D01*
X152026265Y-99080839D01*
X152026265Y-99080838D01*
X151770795Y-99336309D01*
X151770787Y-99336320D01*
X151343926Y-99763181D01*
X151282603Y-99796666D01*
X151256245Y-99799500D01*
X151167692Y-99799500D01*
X151292993Y-99765925D01*
X151407007Y-99700099D01*
X151500099Y-99607007D01*
X151565925Y-99492993D01*
X151600000Y-99365826D01*
X151600000Y-99234174D01*
X151565925Y-99107007D01*
X151500099Y-98992993D01*
X151407007Y-98899901D01*
X151292993Y-98834075D01*
X151165826Y-98800000D01*
X151034174Y-98800000D01*
X150907007Y-98834075D01*
X150792993Y-98899901D01*
X150699901Y-98992993D01*
X150634075Y-99107007D01*
X150600000Y-99234174D01*
X150600000Y-99365826D01*
X150634075Y-99492993D01*
X150699901Y-99607007D01*
X150792993Y-99700099D01*
X150907007Y-99765925D01*
X151032308Y-99799500D01*
X150943755Y-99799500D01*
X150876716Y-99779815D01*
X150856074Y-99763181D01*
X150410334Y-99317441D01*
X150410332Y-99317438D01*
X150173733Y-99080838D01*
X150173732Y-99080839D01*
X150163746Y-99113762D01*
X150163744Y-99113772D01*
X150145403Y-99300000D01*
X150163744Y-99486231D01*
X150210240Y-99639505D01*
X150210863Y-99709371D01*
X150173615Y-99768484D01*
X150110321Y-99798075D01*
X150091579Y-99799500D01*
X145308421Y-99799500D01*
X145241382Y-99779815D01*
X145195627Y-99727011D01*
X145185683Y-99657853D01*
X145189760Y-99639505D01*
X145236255Y-99486231D01*
X145254596Y-99299999D01*
X145236255Y-99113767D01*
X145226265Y-99080839D01*
X145226265Y-99080838D01*
X144970795Y-99336309D01*
X144970787Y-99336320D01*
X144543926Y-99763181D01*
X144482603Y-99796666D01*
X144456245Y-99799500D01*
X144367692Y-99799500D01*
X144492993Y-99765925D01*
X144607007Y-99700099D01*
X144700099Y-99607007D01*
X144765925Y-99492993D01*
X144800000Y-99365826D01*
X144800000Y-99234174D01*
X144765925Y-99107007D01*
X144700099Y-98992993D01*
X144607007Y-98899901D01*
X144492993Y-98834075D01*
X144365826Y-98800000D01*
X144234174Y-98800000D01*
X144107007Y-98834075D01*
X143992993Y-98899901D01*
X143899901Y-98992993D01*
X143834075Y-99107007D01*
X143800000Y-99234174D01*
X143800000Y-99365826D01*
X143834075Y-99492993D01*
X143899901Y-99607007D01*
X143992993Y-99700099D01*
X144107007Y-99765925D01*
X144232308Y-99799500D01*
X144143755Y-99799500D01*
X144076716Y-99779815D01*
X144056074Y-99763181D01*
X143610334Y-99317441D01*
X143610332Y-99317438D01*
X143373733Y-99080838D01*
X143373732Y-99080839D01*
X143363746Y-99113762D01*
X143363744Y-99113772D01*
X143345403Y-99300000D01*
X143363744Y-99486231D01*
X143410240Y-99639505D01*
X143410863Y-99709371D01*
X143373615Y-99768484D01*
X143310321Y-99798075D01*
X143291579Y-99799500D01*
X138508421Y-99799500D01*
X138441382Y-99779815D01*
X138395627Y-99727011D01*
X138385683Y-99657853D01*
X138389760Y-99639505D01*
X138436255Y-99486231D01*
X138454596Y-99299999D01*
X138436255Y-99113767D01*
X138426265Y-99080839D01*
X138426265Y-99080838D01*
X138170795Y-99336309D01*
X138170787Y-99336320D01*
X137743926Y-99763181D01*
X137682603Y-99796666D01*
X137656245Y-99799500D01*
X137567692Y-99799500D01*
X137692993Y-99765925D01*
X137807007Y-99700099D01*
X137900099Y-99607007D01*
X137965925Y-99492993D01*
X138000000Y-99365826D01*
X138000000Y-99234174D01*
X137965925Y-99107007D01*
X137900099Y-98992993D01*
X137807007Y-98899901D01*
X137692993Y-98834075D01*
X137565826Y-98800000D01*
X137434174Y-98800000D01*
X137307007Y-98834075D01*
X137192993Y-98899901D01*
X137099901Y-98992993D01*
X137034075Y-99107007D01*
X137000000Y-99234174D01*
X137000000Y-99365826D01*
X137034075Y-99492993D01*
X137099901Y-99607007D01*
X137192993Y-99700099D01*
X137307007Y-99765925D01*
X137432308Y-99799500D01*
X137343755Y-99799500D01*
X137276716Y-99779815D01*
X137256074Y-99763181D01*
X136810334Y-99317441D01*
X136810332Y-99317438D01*
X136573733Y-99080838D01*
X136573732Y-99080839D01*
X136563746Y-99113762D01*
X136563744Y-99113772D01*
X136545402Y-99300000D01*
X136552226Y-99369280D01*
X136539207Y-99437926D01*
X136491142Y-99488636D01*
X136423291Y-99505310D01*
X136357196Y-99482654D01*
X136341142Y-99469114D01*
X135036819Y-98164791D01*
X135003334Y-98103468D01*
X135000500Y-98077110D01*
X135000500Y-97299997D01*
X136244723Y-97299997D01*
X136244723Y-97300002D01*
X136263793Y-97517975D01*
X136263793Y-97517979D01*
X136320422Y-97729322D01*
X136320424Y-97729326D01*
X136320425Y-97729330D01*
X136366661Y-97828484D01*
X136412897Y-97927638D01*
X136412898Y-97927639D01*
X136538402Y-98106877D01*
X136693123Y-98261598D01*
X136872361Y-98387102D01*
X137070670Y-98479575D01*
X137282023Y-98536207D01*
X137413818Y-98547737D01*
X137478884Y-98573188D01*
X137490689Y-98583582D01*
X137499999Y-98592892D01*
X137509307Y-98583585D01*
X137570629Y-98550098D01*
X137586167Y-98547738D01*
X137717977Y-98536207D01*
X137929330Y-98479575D01*
X138127639Y-98387102D01*
X138306877Y-98261598D01*
X138461598Y-98106877D01*
X138587102Y-97927639D01*
X138679575Y-97729330D01*
X138736207Y-97517977D01*
X138755277Y-97300000D01*
X138755277Y-97299997D01*
X143044723Y-97299997D01*
X143044723Y-97300002D01*
X143063793Y-97517975D01*
X143063793Y-97517979D01*
X143120422Y-97729322D01*
X143120424Y-97729326D01*
X143120425Y-97729330D01*
X143166661Y-97828484D01*
X143212897Y-97927638D01*
X143212898Y-97927639D01*
X143338402Y-98106877D01*
X143493123Y-98261598D01*
X143672361Y-98387102D01*
X143870670Y-98479575D01*
X144082023Y-98536207D01*
X144213818Y-98547737D01*
X144278884Y-98573188D01*
X144290689Y-98583582D01*
X144299999Y-98592892D01*
X144309307Y-98583585D01*
X144370629Y-98550098D01*
X144386167Y-98547738D01*
X144517977Y-98536207D01*
X144729330Y-98479575D01*
X144927639Y-98387102D01*
X145106877Y-98261598D01*
X145261598Y-98106877D01*
X145387102Y-97927639D01*
X145479575Y-97729330D01*
X145536207Y-97517977D01*
X145555277Y-97300000D01*
X145555277Y-97299997D01*
X149844723Y-97299997D01*
X149844723Y-97300002D01*
X149863793Y-97517975D01*
X149863793Y-97517979D01*
X149920422Y-97729322D01*
X149920424Y-97729326D01*
X149920425Y-97729330D01*
X149966661Y-97828484D01*
X150012897Y-97927638D01*
X150012898Y-97927639D01*
X150138402Y-98106877D01*
X150293123Y-98261598D01*
X150472361Y-98387102D01*
X150670670Y-98479575D01*
X150882023Y-98536207D01*
X151013818Y-98547737D01*
X151078884Y-98573188D01*
X151090689Y-98583582D01*
X151099999Y-98592892D01*
X151109307Y-98583585D01*
X151170629Y-98550098D01*
X151186167Y-98547738D01*
X151317977Y-98536207D01*
X151529330Y-98479575D01*
X151727639Y-98387102D01*
X151906877Y-98261598D01*
X152061598Y-98106877D01*
X152187102Y-97927639D01*
X152279575Y-97729330D01*
X152336207Y-97517977D01*
X152355277Y-97300000D01*
X152355277Y-97299997D01*
X156644723Y-97299997D01*
X156644723Y-97300002D01*
X156663793Y-97517975D01*
X156663793Y-97517979D01*
X156720422Y-97729322D01*
X156720424Y-97729326D01*
X156720425Y-97729330D01*
X156766661Y-97828484D01*
X156812897Y-97927638D01*
X156812898Y-97927639D01*
X156938402Y-98106877D01*
X157093123Y-98261598D01*
X157272361Y-98387102D01*
X157470670Y-98479575D01*
X157682023Y-98536207D01*
X157813818Y-98547737D01*
X157878884Y-98573188D01*
X157890689Y-98583582D01*
X157899999Y-98592892D01*
X157909307Y-98583585D01*
X157970629Y-98550098D01*
X157986167Y-98547738D01*
X158117977Y-98536207D01*
X158329330Y-98479575D01*
X158527639Y-98387102D01*
X158706877Y-98261598D01*
X158861598Y-98106877D01*
X158987102Y-97927639D01*
X159079575Y-97729330D01*
X159136207Y-97517977D01*
X159155277Y-97300000D01*
X159155277Y-97299997D01*
X163444723Y-97299997D01*
X163444723Y-97300002D01*
X163463793Y-97517975D01*
X163463793Y-97517979D01*
X163520422Y-97729322D01*
X163520424Y-97729326D01*
X163520425Y-97729330D01*
X163566661Y-97828484D01*
X163612897Y-97927638D01*
X163612898Y-97927639D01*
X163738402Y-98106877D01*
X163893123Y-98261598D01*
X164072361Y-98387102D01*
X164270670Y-98479575D01*
X164482023Y-98536207D01*
X164613818Y-98547737D01*
X164678884Y-98573188D01*
X164690689Y-98583582D01*
X164699999Y-98592892D01*
X164709307Y-98583585D01*
X164770629Y-98550098D01*
X164786167Y-98547738D01*
X164917977Y-98536207D01*
X165129330Y-98479575D01*
X165327639Y-98387102D01*
X165506877Y-98261598D01*
X165661598Y-98106877D01*
X165787102Y-97927639D01*
X165879575Y-97729330D01*
X165936207Y-97517977D01*
X165955277Y-97300000D01*
X165955277Y-97299997D01*
X170244723Y-97299997D01*
X170244723Y-97300002D01*
X170263793Y-97517975D01*
X170263793Y-97517979D01*
X170320422Y-97729322D01*
X170320424Y-97729326D01*
X170320425Y-97729330D01*
X170366661Y-97828484D01*
X170412897Y-97927638D01*
X170412898Y-97927639D01*
X170538402Y-98106877D01*
X170693123Y-98261598D01*
X170872361Y-98387102D01*
X171070670Y-98479575D01*
X171282023Y-98536207D01*
X171413818Y-98547737D01*
X171478884Y-98573188D01*
X171490689Y-98583582D01*
X171499999Y-98592892D01*
X171509307Y-98583585D01*
X171570629Y-98550098D01*
X171586167Y-98547738D01*
X171717977Y-98536207D01*
X171929330Y-98479575D01*
X172127639Y-98387102D01*
X172306877Y-98261598D01*
X172461598Y-98106877D01*
X172587102Y-97927639D01*
X172679575Y-97729330D01*
X172736207Y-97517977D01*
X172755277Y-97300000D01*
X172736207Y-97082023D01*
X172679575Y-96870670D01*
X172587102Y-96672362D01*
X172587100Y-96672359D01*
X172587099Y-96672357D01*
X172461599Y-96493124D01*
X172461596Y-96493121D01*
X172306877Y-96338402D01*
X172127639Y-96212898D01*
X172127640Y-96212898D01*
X172127638Y-96212897D01*
X172028484Y-96166661D01*
X171929330Y-96120425D01*
X171929326Y-96120424D01*
X171929322Y-96120422D01*
X171717982Y-96063794D01*
X171717972Y-96063792D01*
X171586182Y-96052262D01*
X171521114Y-96026809D01*
X171509308Y-96016415D01*
X171496530Y-96003637D01*
X171477212Y-96016545D01*
X171442454Y-96030942D01*
X171427511Y-96043891D01*
X171386808Y-96054625D01*
X171282027Y-96063792D01*
X171282017Y-96063794D01*
X171070677Y-96120422D01*
X171070668Y-96120426D01*
X170872361Y-96212898D01*
X170872357Y-96212900D01*
X170693121Y-96338402D01*
X170538402Y-96493121D01*
X170412900Y-96672357D01*
X170412898Y-96672361D01*
X170320426Y-96870668D01*
X170320422Y-96870677D01*
X170263793Y-97082020D01*
X170263793Y-97082024D01*
X170244723Y-97299997D01*
X165955277Y-97299997D01*
X165936207Y-97082023D01*
X165879575Y-96870670D01*
X165787102Y-96672362D01*
X165787100Y-96672359D01*
X165787099Y-96672357D01*
X165661599Y-96493124D01*
X165661596Y-96493121D01*
X165506877Y-96338402D01*
X165327639Y-96212898D01*
X165327640Y-96212898D01*
X165327638Y-96212897D01*
X165228484Y-96166661D01*
X165129330Y-96120425D01*
X165129326Y-96120424D01*
X165129322Y-96120422D01*
X164917982Y-96063794D01*
X164917972Y-96063792D01*
X164786182Y-96052262D01*
X164721114Y-96026809D01*
X164709308Y-96016415D01*
X164696530Y-96003637D01*
X164677212Y-96016545D01*
X164642454Y-96030942D01*
X164627511Y-96043891D01*
X164586808Y-96054625D01*
X164482027Y-96063792D01*
X164482017Y-96063794D01*
X164270677Y-96120422D01*
X164270668Y-96120426D01*
X164072361Y-96212898D01*
X164072357Y-96212900D01*
X163893121Y-96338402D01*
X163738402Y-96493121D01*
X163612900Y-96672357D01*
X163612898Y-96672361D01*
X163520426Y-96870668D01*
X163520422Y-96870677D01*
X163463793Y-97082020D01*
X163463793Y-97082024D01*
X163444723Y-97299997D01*
X159155277Y-97299997D01*
X159136207Y-97082023D01*
X159079575Y-96870670D01*
X158987102Y-96672362D01*
X158987100Y-96672359D01*
X158987099Y-96672357D01*
X158861599Y-96493124D01*
X158861596Y-96493121D01*
X158706877Y-96338402D01*
X158527639Y-96212898D01*
X158527640Y-96212898D01*
X158527638Y-96212897D01*
X158428484Y-96166661D01*
X158329330Y-96120425D01*
X158329326Y-96120424D01*
X158329322Y-96120422D01*
X158117982Y-96063794D01*
X158117972Y-96063792D01*
X157986182Y-96052262D01*
X157921114Y-96026809D01*
X157909308Y-96016415D01*
X157896530Y-96003637D01*
X157877212Y-96016545D01*
X157842454Y-96030942D01*
X157827511Y-96043891D01*
X157786808Y-96054625D01*
X157682027Y-96063792D01*
X157682017Y-96063794D01*
X157470677Y-96120422D01*
X157470668Y-96120426D01*
X157272361Y-96212898D01*
X157272357Y-96212900D01*
X157093121Y-96338402D01*
X156938402Y-96493121D01*
X156812900Y-96672357D01*
X156812898Y-96672361D01*
X156720426Y-96870668D01*
X156720422Y-96870677D01*
X156663793Y-97082020D01*
X156663793Y-97082024D01*
X156644723Y-97299997D01*
X152355277Y-97299997D01*
X152336207Y-97082023D01*
X152279575Y-96870670D01*
X152187102Y-96672362D01*
X152187100Y-96672359D01*
X152187099Y-96672357D01*
X152061599Y-96493124D01*
X152061596Y-96493121D01*
X151906877Y-96338402D01*
X151727639Y-96212898D01*
X151727640Y-96212898D01*
X151727638Y-96212897D01*
X151628484Y-96166661D01*
X151529330Y-96120425D01*
X151529326Y-96120424D01*
X151529322Y-96120422D01*
X151317982Y-96063794D01*
X151317972Y-96063792D01*
X151186182Y-96052262D01*
X151121114Y-96026809D01*
X151109308Y-96016415D01*
X151096530Y-96003637D01*
X151077212Y-96016545D01*
X151042454Y-96030942D01*
X151027511Y-96043891D01*
X150986808Y-96054625D01*
X150882027Y-96063792D01*
X150882017Y-96063794D01*
X150670677Y-96120422D01*
X150670668Y-96120426D01*
X150472361Y-96212898D01*
X150472357Y-96212900D01*
X150293121Y-96338402D01*
X150138402Y-96493121D01*
X150012900Y-96672357D01*
X150012898Y-96672361D01*
X149920426Y-96870668D01*
X149920422Y-96870677D01*
X149863793Y-97082020D01*
X149863793Y-97082024D01*
X149844723Y-97299997D01*
X145555277Y-97299997D01*
X145536207Y-97082023D01*
X145479575Y-96870670D01*
X145387102Y-96672362D01*
X145387100Y-96672359D01*
X145387099Y-96672357D01*
X145261599Y-96493124D01*
X145261596Y-96493121D01*
X145106877Y-96338402D01*
X144927639Y-96212898D01*
X144927640Y-96212898D01*
X144927638Y-96212897D01*
X144828484Y-96166661D01*
X144729330Y-96120425D01*
X144729326Y-96120424D01*
X144729322Y-96120422D01*
X144517982Y-96063794D01*
X144517972Y-96063792D01*
X144386182Y-96052262D01*
X144321114Y-96026809D01*
X144309308Y-96016415D01*
X144296530Y-96003637D01*
X144277212Y-96016545D01*
X144242454Y-96030942D01*
X144227511Y-96043891D01*
X144186808Y-96054625D01*
X144082027Y-96063792D01*
X144082017Y-96063794D01*
X143870677Y-96120422D01*
X143870668Y-96120426D01*
X143672361Y-96212898D01*
X143672357Y-96212900D01*
X143493121Y-96338402D01*
X143338402Y-96493121D01*
X143212900Y-96672357D01*
X143212898Y-96672361D01*
X143120426Y-96870668D01*
X143120422Y-96870677D01*
X143063793Y-97082020D01*
X143063793Y-97082024D01*
X143044723Y-97299997D01*
X138755277Y-97299997D01*
X138736207Y-97082023D01*
X138679575Y-96870670D01*
X138587102Y-96672362D01*
X138587100Y-96672359D01*
X138587099Y-96672357D01*
X138461599Y-96493124D01*
X138461596Y-96493121D01*
X138306877Y-96338402D01*
X138127639Y-96212898D01*
X138127640Y-96212898D01*
X138127638Y-96212897D01*
X138028484Y-96166661D01*
X137929330Y-96120425D01*
X137929326Y-96120424D01*
X137929322Y-96120422D01*
X137717982Y-96063794D01*
X137717972Y-96063792D01*
X137586182Y-96052262D01*
X137521114Y-96026809D01*
X137509308Y-96016415D01*
X137496530Y-96003637D01*
X137477212Y-96016545D01*
X137442454Y-96030942D01*
X137427511Y-96043891D01*
X137386808Y-96054625D01*
X137282027Y-96063792D01*
X137282017Y-96063794D01*
X137070677Y-96120422D01*
X137070668Y-96120426D01*
X136872361Y-96212898D01*
X136872357Y-96212900D01*
X136693121Y-96338402D01*
X136538402Y-96493121D01*
X136412900Y-96672357D01*
X136412898Y-96672361D01*
X136320426Y-96870668D01*
X136320422Y-96870677D01*
X136263793Y-97082020D01*
X136263793Y-97082024D01*
X136244723Y-97299997D01*
X135000500Y-97299997D01*
X135000500Y-95300000D01*
X136545403Y-95300000D01*
X136563744Y-95486230D01*
X136573733Y-95519159D01*
X136792893Y-95299999D01*
X136792892Y-95299998D01*
X136727068Y-95234174D01*
X137000000Y-95234174D01*
X137000000Y-95365826D01*
X137034075Y-95492993D01*
X137099901Y-95607007D01*
X137192993Y-95700099D01*
X137307007Y-95765925D01*
X137434174Y-95800000D01*
X137565826Y-95800000D01*
X137692993Y-95765925D01*
X137807007Y-95700099D01*
X137900099Y-95607007D01*
X137965925Y-95492993D01*
X138000000Y-95365826D01*
X138000000Y-95296531D01*
X138203636Y-95296531D01*
X138426265Y-95519160D01*
X138426266Y-95519160D01*
X138436254Y-95486234D01*
X138436255Y-95486233D01*
X138454596Y-95300000D01*
X143345403Y-95300000D01*
X143363744Y-95486230D01*
X143373733Y-95519159D01*
X143592893Y-95299999D01*
X143592892Y-95299998D01*
X143527068Y-95234174D01*
X143800000Y-95234174D01*
X143800000Y-95365826D01*
X143834075Y-95492993D01*
X143899901Y-95607007D01*
X143992993Y-95700099D01*
X144107007Y-95765925D01*
X144234174Y-95800000D01*
X144365826Y-95800000D01*
X144492993Y-95765925D01*
X144607007Y-95700099D01*
X144700099Y-95607007D01*
X144765925Y-95492993D01*
X144800000Y-95365826D01*
X144800000Y-95296531D01*
X145003636Y-95296531D01*
X145226265Y-95519160D01*
X145226266Y-95519160D01*
X145236254Y-95486234D01*
X145236255Y-95486233D01*
X145254596Y-95300000D01*
X150145403Y-95300000D01*
X150163744Y-95486230D01*
X150173733Y-95519159D01*
X150392893Y-95299999D01*
X150392892Y-95299998D01*
X150327068Y-95234174D01*
X150600000Y-95234174D01*
X150600000Y-95365826D01*
X150634075Y-95492993D01*
X150699901Y-95607007D01*
X150792993Y-95700099D01*
X150907007Y-95765925D01*
X151034174Y-95800000D01*
X151165826Y-95800000D01*
X151292993Y-95765925D01*
X151407007Y-95700099D01*
X151500099Y-95607007D01*
X151565925Y-95492993D01*
X151600000Y-95365826D01*
X151600000Y-95296531D01*
X151803636Y-95296531D01*
X152026265Y-95519160D01*
X152026266Y-95519160D01*
X152036254Y-95486234D01*
X152036255Y-95486233D01*
X152054596Y-95300000D01*
X156945403Y-95300000D01*
X156963744Y-95486230D01*
X156973733Y-95519159D01*
X157192893Y-95299999D01*
X157192892Y-95299998D01*
X157127068Y-95234174D01*
X157400000Y-95234174D01*
X157400000Y-95365826D01*
X157434075Y-95492993D01*
X157499901Y-95607007D01*
X157592993Y-95700099D01*
X157707007Y-95765925D01*
X157834174Y-95800000D01*
X157965826Y-95800000D01*
X158092993Y-95765925D01*
X158207007Y-95700099D01*
X158300099Y-95607007D01*
X158365925Y-95492993D01*
X158400000Y-95365826D01*
X158400000Y-95296531D01*
X158603636Y-95296531D01*
X158826266Y-95519160D01*
X158836254Y-95486234D01*
X158836255Y-95486233D01*
X158854596Y-95300000D01*
X163745403Y-95300000D01*
X163763744Y-95486230D01*
X163773733Y-95519159D01*
X163992893Y-95299999D01*
X163992892Y-95299998D01*
X163927068Y-95234174D01*
X164200000Y-95234174D01*
X164200000Y-95365826D01*
X164234075Y-95492993D01*
X164299901Y-95607007D01*
X164392993Y-95700099D01*
X164507007Y-95765925D01*
X164634174Y-95800000D01*
X164765826Y-95800000D01*
X164892993Y-95765925D01*
X165007007Y-95700099D01*
X165100099Y-95607007D01*
X165165925Y-95492993D01*
X165200000Y-95365826D01*
X165200000Y-95296531D01*
X165403636Y-95296531D01*
X165626266Y-95519160D01*
X165636254Y-95486234D01*
X165636255Y-95486233D01*
X165654596Y-95300000D01*
X170545403Y-95300000D01*
X170563744Y-95486230D01*
X170573733Y-95519159D01*
X170792893Y-95299999D01*
X170792892Y-95299998D01*
X170727068Y-95234174D01*
X171000000Y-95234174D01*
X171000000Y-95365826D01*
X171034075Y-95492993D01*
X171099901Y-95607007D01*
X171192993Y-95700099D01*
X171307007Y-95765925D01*
X171434174Y-95800000D01*
X171565826Y-95800000D01*
X171692993Y-95765925D01*
X171807007Y-95700099D01*
X171900099Y-95607007D01*
X171965925Y-95492993D01*
X172000000Y-95365826D01*
X172000000Y-95296531D01*
X172203636Y-95296531D01*
X172426265Y-95519160D01*
X172426266Y-95519160D01*
X172436254Y-95486234D01*
X172436255Y-95486233D01*
X172454596Y-95300000D01*
X172436255Y-95113767D01*
X172426265Y-95080839D01*
X172426265Y-95080838D01*
X172243424Y-95263681D01*
X172215339Y-95279016D01*
X172203636Y-95296531D01*
X172000000Y-95296531D01*
X172000000Y-95234174D01*
X171965925Y-95107007D01*
X171900099Y-94992993D01*
X171807007Y-94899901D01*
X171692993Y-94834075D01*
X171565826Y-94800000D01*
X171434174Y-94800000D01*
X171307007Y-94834075D01*
X171192993Y-94899901D01*
X171099901Y-94992993D01*
X171034075Y-95107007D01*
X171000000Y-95234174D01*
X170727068Y-95234174D01*
X170573733Y-95080838D01*
X170573732Y-95080839D01*
X170563746Y-95113762D01*
X170563744Y-95113772D01*
X170545403Y-95300000D01*
X165654596Y-95300000D01*
X165636255Y-95113767D01*
X165626265Y-95080839D01*
X165626265Y-95080838D01*
X165443424Y-95263681D01*
X165415339Y-95279016D01*
X165403636Y-95296531D01*
X165200000Y-95296531D01*
X165200000Y-95234174D01*
X165165925Y-95107007D01*
X165100099Y-94992993D01*
X165007007Y-94899901D01*
X164892993Y-94834075D01*
X164765826Y-94800000D01*
X164634174Y-94800000D01*
X164507007Y-94834075D01*
X164392993Y-94899901D01*
X164299901Y-94992993D01*
X164234075Y-95107007D01*
X164200000Y-95234174D01*
X163927068Y-95234174D01*
X163773733Y-95080838D01*
X163773732Y-95080839D01*
X163763746Y-95113762D01*
X163763744Y-95113772D01*
X163745403Y-95300000D01*
X158854596Y-95300000D01*
X158836255Y-95113767D01*
X158826265Y-95080839D01*
X158826265Y-95080838D01*
X158643424Y-95263681D01*
X158615339Y-95279016D01*
X158603636Y-95296531D01*
X158400000Y-95296531D01*
X158400000Y-95234174D01*
X158365925Y-95107007D01*
X158300099Y-94992993D01*
X158207007Y-94899901D01*
X158092993Y-94834075D01*
X157965826Y-94800000D01*
X157834174Y-94800000D01*
X157707007Y-94834075D01*
X157592993Y-94899901D01*
X157499901Y-94992993D01*
X157434075Y-95107007D01*
X157400000Y-95234174D01*
X157127068Y-95234174D01*
X156973733Y-95080838D01*
X156973732Y-95080839D01*
X156963746Y-95113762D01*
X156963744Y-95113772D01*
X156945403Y-95300000D01*
X152054596Y-95300000D01*
X152036255Y-95113767D01*
X152026265Y-95080839D01*
X152026265Y-95080838D01*
X151843424Y-95263681D01*
X151815339Y-95279016D01*
X151803636Y-95296531D01*
X151600000Y-95296531D01*
X151600000Y-95234174D01*
X151565925Y-95107007D01*
X151500099Y-94992993D01*
X151407007Y-94899901D01*
X151292993Y-94834075D01*
X151165826Y-94800000D01*
X151034174Y-94800000D01*
X150907007Y-94834075D01*
X150792993Y-94899901D01*
X150699901Y-94992993D01*
X150634075Y-95107007D01*
X150600000Y-95234174D01*
X150327068Y-95234174D01*
X150173733Y-95080838D01*
X150173732Y-95080839D01*
X150163746Y-95113762D01*
X150163744Y-95113772D01*
X150145403Y-95300000D01*
X145254596Y-95300000D01*
X145236255Y-95113767D01*
X145226265Y-95080839D01*
X145226265Y-95080838D01*
X145043424Y-95263681D01*
X145015339Y-95279016D01*
X145003636Y-95296531D01*
X144800000Y-95296531D01*
X144800000Y-95234174D01*
X144765925Y-95107007D01*
X144700099Y-94992993D01*
X144607007Y-94899901D01*
X144492993Y-94834075D01*
X144365826Y-94800000D01*
X144234174Y-94800000D01*
X144107007Y-94834075D01*
X143992993Y-94899901D01*
X143899901Y-94992993D01*
X143834075Y-95107007D01*
X143800000Y-95234174D01*
X143527068Y-95234174D01*
X143373733Y-95080838D01*
X143373732Y-95080839D01*
X143363746Y-95113762D01*
X143363744Y-95113772D01*
X143345403Y-95300000D01*
X138454596Y-95300000D01*
X138436255Y-95113767D01*
X138426265Y-95080839D01*
X138426265Y-95080838D01*
X138243424Y-95263681D01*
X138215339Y-95279016D01*
X138203636Y-95296531D01*
X138000000Y-95296531D01*
X138000000Y-95234174D01*
X137965925Y-95107007D01*
X137900099Y-94992993D01*
X137807007Y-94899901D01*
X137692993Y-94834075D01*
X137565826Y-94800000D01*
X137434174Y-94800000D01*
X137307007Y-94834075D01*
X137192993Y-94899901D01*
X137099901Y-94992993D01*
X137034075Y-95107007D01*
X137000000Y-95234174D01*
X136727068Y-95234174D01*
X136573733Y-95080838D01*
X136573732Y-95080839D01*
X136563746Y-95113762D01*
X136563744Y-95113772D01*
X136545403Y-95300000D01*
X135000500Y-95300000D01*
X135000500Y-94373733D01*
X137280838Y-94373733D01*
X137499998Y-94592892D01*
X137499999Y-94592893D01*
X137500000Y-94592893D01*
X137500000Y-94592892D01*
X137719159Y-94373733D01*
X144080838Y-94373733D01*
X144299998Y-94592892D01*
X144299999Y-94592893D01*
X144300000Y-94592893D01*
X144300000Y-94592892D01*
X144519159Y-94373733D01*
X150880838Y-94373733D01*
X151099998Y-94592892D01*
X151099999Y-94592893D01*
X151100000Y-94592893D01*
X151100000Y-94592892D01*
X151319159Y-94373733D01*
X157680838Y-94373733D01*
X157899998Y-94592892D01*
X157899999Y-94592893D01*
X157900000Y-94592893D01*
X157900000Y-94592892D01*
X158119159Y-94373733D01*
X164480838Y-94373733D01*
X164699998Y-94592892D01*
X164699999Y-94592893D01*
X164700000Y-94592893D01*
X164700000Y-94592892D01*
X164919159Y-94373733D01*
X171280838Y-94373733D01*
X171499998Y-94592892D01*
X171499999Y-94592893D01*
X171500000Y-94592893D01*
X171500000Y-94592892D01*
X171719159Y-94373733D01*
X171686228Y-94363744D01*
X171686232Y-94363744D01*
X171500000Y-94345403D01*
X171313772Y-94363744D01*
X171313762Y-94363746D01*
X171280839Y-94373732D01*
X171280838Y-94373733D01*
X164919159Y-94373733D01*
X164886228Y-94363744D01*
X164886232Y-94363744D01*
X164700000Y-94345403D01*
X164513772Y-94363744D01*
X164513762Y-94363746D01*
X164480839Y-94373732D01*
X164480838Y-94373733D01*
X158119159Y-94373733D01*
X158086228Y-94363744D01*
X158086232Y-94363744D01*
X157900000Y-94345403D01*
X157713772Y-94363744D01*
X157713762Y-94363746D01*
X157680839Y-94373732D01*
X157680838Y-94373733D01*
X151319159Y-94373733D01*
X151286228Y-94363744D01*
X151286232Y-94363744D01*
X151100000Y-94345403D01*
X150913772Y-94363744D01*
X150913762Y-94363746D01*
X150880839Y-94373732D01*
X150880838Y-94373733D01*
X144519159Y-94373733D01*
X144486228Y-94363744D01*
X144486232Y-94363744D01*
X144300000Y-94345403D01*
X144113772Y-94363744D01*
X144113762Y-94363746D01*
X144080839Y-94373732D01*
X144080838Y-94373733D01*
X137719159Y-94373733D01*
X137686228Y-94363744D01*
X137686232Y-94363744D01*
X137500000Y-94345403D01*
X137313772Y-94363744D01*
X137313762Y-94363746D01*
X137280839Y-94373732D01*
X137280838Y-94373733D01*
X135000500Y-94373733D01*
X135000500Y-92422889D01*
X135020185Y-92355850D01*
X135036819Y-92335208D01*
X137045208Y-90326819D01*
X137106531Y-90293334D01*
X137132889Y-90290500D01*
X149538097Y-90290500D01*
X149771368Y-90253553D01*
X149995992Y-90180568D01*
X150048107Y-90154014D01*
X150104401Y-90140499D01*
X150317871Y-90140499D01*
X150317872Y-90140499D01*
X150377483Y-90134091D01*
X150512331Y-90083796D01*
X150627546Y-89997546D01*
X150713796Y-89882331D01*
X150764091Y-89747483D01*
X150770500Y-89687873D01*
X150770499Y-89474399D01*
X150784014Y-89418105D01*
X150810568Y-89365992D01*
X150821407Y-89332631D01*
X150860844Y-89274956D01*
X150925202Y-89247757D01*
X150994049Y-89259671D01*
X151045525Y-89306915D01*
X151048697Y-89312496D01*
X151082733Y-89376173D01*
X151213944Y-89536055D01*
X151373826Y-89667266D01*
X151460000Y-89713326D01*
X151460000Y-88855826D01*
X151494075Y-88982993D01*
X151559901Y-89097007D01*
X151652993Y-89190099D01*
X151767007Y-89255925D01*
X151894174Y-89290000D01*
X152025826Y-89290000D01*
X152152993Y-89255925D01*
X152267007Y-89190099D01*
X152360099Y-89097007D01*
X152425925Y-88982993D01*
X152460000Y-88855826D01*
X152460000Y-89713326D01*
X152546173Y-89667266D01*
X152706055Y-89536055D01*
X152837267Y-89376173D01*
X152837271Y-89376166D01*
X152934766Y-89193765D01*
X152954885Y-89127442D01*
X152993182Y-89069003D01*
X153056994Y-89040546D01*
X153126061Y-89051105D01*
X153178455Y-89097329D01*
X153193321Y-89131342D01*
X153226095Y-89253658D01*
X153226096Y-89253660D01*
X153226097Y-89253663D01*
X153306004Y-89425023D01*
X153325965Y-89467830D01*
X153325967Y-89467834D01*
X153434281Y-89622521D01*
X153461505Y-89661401D01*
X153628599Y-89828495D01*
X153725384Y-89896265D01*
X153822165Y-89964032D01*
X153822167Y-89964033D01*
X153822170Y-89964035D01*
X154036337Y-90063903D01*
X154264592Y-90125063D01*
X154452918Y-90141539D01*
X154499999Y-90145659D01*
X154500000Y-90145659D01*
X154500001Y-90145659D01*
X154539234Y-90142226D01*
X154735408Y-90125063D01*
X154963663Y-90063903D01*
X155177830Y-89964035D01*
X155371401Y-89828495D01*
X155538495Y-89661401D01*
X155668425Y-89475842D01*
X155723002Y-89432217D01*
X155792500Y-89425023D01*
X155854855Y-89456546D01*
X155871575Y-89475842D01*
X156001500Y-89661395D01*
X156001505Y-89661401D01*
X156168599Y-89828495D01*
X156265384Y-89896265D01*
X156362165Y-89964032D01*
X156362167Y-89964033D01*
X156362170Y-89964035D01*
X156576337Y-90063903D01*
X156804592Y-90125063D01*
X156992918Y-90141539D01*
X157039999Y-90145659D01*
X157040000Y-90145659D01*
X157040001Y-90145659D01*
X157079234Y-90142226D01*
X157275408Y-90125063D01*
X157503663Y-90063903D01*
X157717830Y-89964035D01*
X157911401Y-89828495D01*
X158078495Y-89661401D01*
X158208425Y-89475842D01*
X158263002Y-89432217D01*
X158332500Y-89425023D01*
X158394855Y-89456546D01*
X158411575Y-89475842D01*
X158541500Y-89661395D01*
X158541505Y-89661401D01*
X158708599Y-89828495D01*
X158805384Y-89896265D01*
X158902165Y-89964032D01*
X158902167Y-89964033D01*
X158902170Y-89964035D01*
X159116337Y-90063903D01*
X159344592Y-90125063D01*
X159532918Y-90141539D01*
X159579999Y-90145659D01*
X159580000Y-90145659D01*
X159580001Y-90145659D01*
X159619234Y-90142226D01*
X159815408Y-90125063D01*
X160043663Y-90063903D01*
X160257830Y-89964035D01*
X160451401Y-89828495D01*
X160618495Y-89661401D01*
X160754035Y-89467830D01*
X160853903Y-89253663D01*
X160915063Y-89025408D01*
X160935659Y-88790000D01*
X160915063Y-88554592D01*
X160853903Y-88326337D01*
X160754035Y-88112171D01*
X160748425Y-88104158D01*
X160618494Y-87918597D01*
X160451402Y-87751506D01*
X160451396Y-87751501D01*
X160265842Y-87621575D01*
X160222217Y-87566998D01*
X160215023Y-87497500D01*
X160246546Y-87435145D01*
X160265842Y-87418425D01*
X160292967Y-87399432D01*
X160451401Y-87288495D01*
X160618495Y-87121401D01*
X160754035Y-86927830D01*
X160853903Y-86713663D01*
X160915063Y-86485408D01*
X160935659Y-86250000D01*
X160915063Y-86014592D01*
X160853903Y-85786337D01*
X160754035Y-85572171D01*
X160748425Y-85564158D01*
X160618494Y-85378597D01*
X160451402Y-85211506D01*
X160451395Y-85211501D01*
X160257834Y-85075967D01*
X160257830Y-85075965D01*
X160257828Y-85075964D01*
X160043663Y-84976097D01*
X160043659Y-84976096D01*
X160043655Y-84976094D01*
X159815413Y-84914938D01*
X159815403Y-84914936D01*
X159580001Y-84894341D01*
X159579999Y-84894341D01*
X159344596Y-84914936D01*
X159344586Y-84914938D01*
X159116344Y-84976094D01*
X159116335Y-84976098D01*
X158902171Y-85075964D01*
X158902169Y-85075965D01*
X158708597Y-85211505D01*
X158541505Y-85378597D01*
X158411575Y-85564158D01*
X158356998Y-85607783D01*
X158287500Y-85614977D01*
X158225145Y-85583454D01*
X158208425Y-85564158D01*
X158078494Y-85378597D01*
X157911402Y-85211506D01*
X157911395Y-85211501D01*
X157717834Y-85075967D01*
X157717830Y-85075965D01*
X157717828Y-85075964D01*
X157503663Y-84976097D01*
X157503659Y-84976096D01*
X157503655Y-84976094D01*
X157275413Y-84914938D01*
X157275403Y-84914936D01*
X157040001Y-84894341D01*
X157039999Y-84894341D01*
X156804596Y-84914936D01*
X156804586Y-84914938D01*
X156576344Y-84976094D01*
X156576335Y-84976098D01*
X156362171Y-85075964D01*
X156362169Y-85075965D01*
X156168597Y-85211505D01*
X156001505Y-85378597D01*
X155871575Y-85564158D01*
X155816998Y-85607783D01*
X155747500Y-85614977D01*
X155685145Y-85583454D01*
X155668425Y-85564158D01*
X155538494Y-85378597D01*
X155371402Y-85211506D01*
X155371395Y-85211501D01*
X155177834Y-85075967D01*
X155177830Y-85075965D01*
X155177828Y-85075964D01*
X154963663Y-84976097D01*
X154963659Y-84976096D01*
X154963655Y-84976094D01*
X154735413Y-84914938D01*
X154735403Y-84914936D01*
X154500001Y-84894341D01*
X154499999Y-84894341D01*
X154264596Y-84914936D01*
X154264586Y-84914938D01*
X154036344Y-84976094D01*
X154036335Y-84976098D01*
X153822171Y-85075964D01*
X153822169Y-85075965D01*
X153628597Y-85211505D01*
X153461505Y-85378597D01*
X153325965Y-85572169D01*
X153325964Y-85572171D01*
X153226098Y-85786335D01*
X153226095Y-85786342D01*
X153193321Y-85908657D01*
X153156956Y-85968317D01*
X153094109Y-85998846D01*
X153024733Y-85990551D01*
X152970855Y-85946066D01*
X152954885Y-85912558D01*
X152934765Y-85846233D01*
X152837271Y-85663833D01*
X152837267Y-85663826D01*
X152706055Y-85503944D01*
X152546173Y-85372732D01*
X152546166Y-85372727D01*
X152460000Y-85326671D01*
X152460000Y-86184174D01*
X152425925Y-86057007D01*
X152360099Y-85942993D01*
X152267007Y-85849901D01*
X152152993Y-85784075D01*
X152025826Y-85750000D01*
X151894174Y-85750000D01*
X151767007Y-85784075D01*
X151652993Y-85849901D01*
X151559901Y-85942993D01*
X151494075Y-86057007D01*
X151460000Y-86184174D01*
X151460000Y-85326671D01*
X151459999Y-85326671D01*
X151373833Y-85372727D01*
X151373826Y-85372732D01*
X151213944Y-85503944D01*
X151082732Y-85663826D01*
X151082727Y-85663833D01*
X151048696Y-85727503D01*
X150999734Y-85777348D01*
X150931596Y-85792808D01*
X150865916Y-85768976D01*
X150823548Y-85713419D01*
X150821407Y-85707368D01*
X150810568Y-85674008D01*
X150703343Y-85463567D01*
X150564517Y-85272490D01*
X150397510Y-85105483D01*
X150206433Y-84966657D01*
X149995996Y-84859433D01*
X149771368Y-84786446D01*
X149538097Y-84749500D01*
X149538092Y-84749500D01*
X149301908Y-84749500D01*
X149301903Y-84749500D01*
X149068631Y-84786446D01*
X148844003Y-84859433D01*
X148633566Y-84966657D01*
X148524550Y-85045862D01*
X148442490Y-85105483D01*
X148442488Y-85105485D01*
X148442487Y-85105485D01*
X148275485Y-85272487D01*
X148275485Y-85272488D01*
X148275483Y-85272490D01*
X148236118Y-85326671D01*
X148136657Y-85463566D01*
X148029433Y-85674003D01*
X147956446Y-85898631D01*
X147919500Y-86131902D01*
X147919500Y-87165500D01*
X147899815Y-87232539D01*
X147847011Y-87278294D01*
X147795500Y-87289500D01*
X136341903Y-87289500D01*
X136108634Y-87326446D01*
X135884005Y-87399433D01*
X135673565Y-87506657D01*
X135482488Y-87645484D01*
X132355484Y-90772488D01*
X132216657Y-90963565D01*
X132109433Y-91174003D01*
X132036446Y-91398631D01*
X131999500Y-91631902D01*
X127500500Y-91631902D01*
X127500500Y-91550862D01*
X127520185Y-91483823D01*
X127536819Y-91463181D01*
X135463181Y-83536819D01*
X135524504Y-83503334D01*
X135550862Y-83500500D01*
X173449138Y-83500500D01*
X173516177Y-83520185D01*
G37*
%TD.AperFunction*%
%TD*%
%TA.AperFunction,Conductor*%
%TO.N,GND*%
G36*
X155114805Y-95277164D02*
G01*
X154700000Y-95450000D01*
X154700000Y-95150000D01*
X154700000Y-95000000D01*
X155001000Y-95000000D01*
X155114805Y-95277164D01*
G37*
%TD.AperFunction*%
%TD*%
M02*
