%TF.GenerationSoftware,KiCad,Pcbnew,8.0.5*%
%TF.CreationDate,2025-06-06T16:31:12+09:00*%
%TF.ProjectId,e-con_hub,652d636f-6e5f-4687-9562-2e6b69636164,rev?*%
%TF.SameCoordinates,Original*%
%TF.FileFunction,Copper,L1,Top*%
%TF.FilePolarity,Positive*%
%FSLAX46Y46*%
G04 Gerber Fmt 4.6, Leading zero omitted, Abs format (unit mm)*
G04 Created by KiCad (PCBNEW 8.0.5) date 2025-06-06 16:31:12*
%MOMM*%
%LPD*%
G01*
G04 APERTURE LIST*
%TA.AperFunction,ComponentPad*%
%ADD10C,1.500000*%
%TD*%
%TA.AperFunction,ComponentPad*%
%ADD11R,1.700000X1.700000*%
%TD*%
%TA.AperFunction,ComponentPad*%
%ADD12O,1.700000X1.700000*%
%TD*%
%TA.AperFunction,ViaPad*%
%ADD13C,0.600000*%
%TD*%
%TA.AperFunction,Conductor*%
%ADD14C,0.300000*%
%TD*%
%TA.AperFunction,Conductor*%
%ADD15C,0.500000*%
%TD*%
G04 APERTURE END LIST*
D10*
%TO.P,J3,24V,24V*%
%TO.N,+24V*%
X151100000Y-101300000D03*
%TO.P,J3,GND,GND*%
%TO.N,GND*%
X151100000Y-99300000D03*
%TO.P,J3,NC,NC*%
X151100000Y-95300000D03*
X151100000Y-103300000D03*
%TO.P,J3,Sign,Sign*%
%TO.N,Net-(J7-Pin_7)*%
X151100000Y-97300000D03*
%TD*%
%TO.P,J5,24V,24V*%
%TO.N,+24V*%
X164700000Y-101300000D03*
%TO.P,J5,GND,GND*%
%TO.N,GND*%
X164700000Y-99300000D03*
%TO.P,J5,NC,NC*%
X164700000Y-95300000D03*
X164700000Y-103300000D03*
%TO.P,J5,Sign,Sign*%
%TO.N,Net-(J7-Pin_9)*%
X164700000Y-97300000D03*
%TD*%
%TO.P,J4,24V,24V*%
%TO.N,+24V*%
X157900000Y-101300000D03*
%TO.P,J4,GND,GND*%
%TO.N,GND*%
X157900000Y-99300000D03*
%TO.P,J4,NC,NC*%
X157900000Y-95300000D03*
X157900000Y-103300000D03*
%TO.P,J4,Sign,Sign*%
%TO.N,Net-(J7-Pin_8)*%
X157900000Y-97300000D03*
%TD*%
%TO.P,J6,24V,24V*%
%TO.N,+24V*%
X171500000Y-101300000D03*
%TO.P,J6,GND,GND*%
%TO.N,GND*%
X171500000Y-99300000D03*
%TO.P,J6,NC,NC*%
X171500000Y-95300000D03*
X171500000Y-103300000D03*
%TO.P,J6,Sign,Sign*%
%TO.N,Net-(J7-Pin_10)*%
X171500000Y-97300000D03*
%TD*%
D11*
%TO.P,J7,1,Pin_1*%
%TO.N,+24V*%
X149420000Y-88790000D03*
D12*
%TO.P,J7,2,Pin_2*%
X149420000Y-86250000D03*
%TO.P,J7,3,Pin_3*%
%TO.N,GND*%
X151960000Y-88790000D03*
%TO.P,J7,4,Pin_4*%
X151960000Y-86250000D03*
%TO.P,J7,5,Pin_5*%
%TO.N,Net-(J7-Pin_5)*%
X154500000Y-88790000D03*
%TO.P,J7,6,Pin_6*%
%TO.N,Net-(J7-Pin_6)*%
X154500000Y-86250000D03*
%TO.P,J7,7,Pin_7*%
%TO.N,Net-(J7-Pin_7)*%
X157040000Y-88790000D03*
%TO.P,J7,8,Pin_8*%
%TO.N,Net-(J7-Pin_8)*%
X157040000Y-86250000D03*
%TO.P,J7,9,Pin_9*%
%TO.N,Net-(J7-Pin_9)*%
X159580000Y-88790000D03*
%TO.P,J7,10,Pin_10*%
%TO.N,Net-(J7-Pin_10)*%
X159580000Y-86250000D03*
%TD*%
D10*
%TO.P,J2,24V,24V*%
%TO.N,+24V*%
X144300000Y-101300000D03*
%TO.P,J2,GND,GND*%
%TO.N,GND*%
X144300000Y-99300000D03*
%TO.P,J2,NC,NC*%
X144300000Y-95300000D03*
X144300000Y-103300000D03*
%TO.P,J2,Sign,Sign*%
%TO.N,Net-(J7-Pin_6)*%
X144300000Y-97300000D03*
%TD*%
%TO.P,J1,24V,24V*%
%TO.N,+24V*%
X137500000Y-101300000D03*
%TO.P,J1,GND,GND*%
%TO.N,GND*%
X137500000Y-99300000D03*
%TO.P,J1,NC,NC*%
X137500000Y-95300000D03*
X137500000Y-103300000D03*
%TO.P,J1,Sign,Sign*%
%TO.N,Net-(J7-Pin_5)*%
X137500000Y-97300000D03*
%TD*%
D13*
%TO.N,GND*%
X155000000Y-95000000D03*
X157000000Y-93000000D03*
X159500000Y-94000000D03*
X163300000Y-92800000D03*
X163750000Y-84000000D03*
X131250000Y-98750000D03*
X155750000Y-91000000D03*
X149250000Y-91500000D03*
X154500000Y-107000000D03*
X163250000Y-88000000D03*
X180900000Y-99000000D03*
X154500000Y-84000000D03*
X180900000Y-95500000D03*
X128200000Y-92000000D03*
X128200000Y-95500000D03*
X173000000Y-84000000D03*
X142750000Y-91500000D03*
X131250000Y-91750000D03*
X128200000Y-99000000D03*
X145250000Y-84000000D03*
X136000000Y-107000000D03*
X180900000Y-92000000D03*
X163750000Y-107000000D03*
X135500000Y-97500000D03*
X154000000Y-92750000D03*
X137250000Y-91000000D03*
X136000000Y-84000000D03*
X145250000Y-107000000D03*
X161250000Y-90750000D03*
X173000000Y-107000000D03*
%TD*%
D14*
%TO.N,Net-(J7-Pin_8)*%
X158380000Y-93264365D02*
X157900000Y-93744365D01*
X158380000Y-87590000D02*
X158380000Y-93264365D01*
X157040000Y-86250000D02*
X158380000Y-87590000D01*
X156602183Y-96002183D02*
X157900000Y-97300000D01*
X156602183Y-95042182D02*
X156602183Y-96002183D01*
X157900000Y-93744365D02*
X156602183Y-95042182D01*
D15*
%TO.N,GND*%
X137500000Y-103300000D02*
X171500000Y-103300000D01*
X134500000Y-100500000D02*
X134500000Y-102500000D01*
X135300000Y-103300000D02*
X137500000Y-103300000D01*
X135700000Y-99300000D02*
X134500000Y-100500000D01*
X134500000Y-102500000D02*
X135300000Y-103300000D01*
X137500000Y-99300000D02*
X135700000Y-99300000D01*
D14*
%TO.N,Net-(J7-Pin_10)*%
X170630000Y-97300000D02*
X171500000Y-97300000D01*
X159580000Y-86250000D02*
X170630000Y-97300000D01*
%TO.N,Net-(J7-Pin_9)*%
X159580000Y-88790000D02*
X159580000Y-92180000D01*
X159580000Y-92180000D02*
X164700000Y-97300000D01*
%TO.N,Net-(J7-Pin_7)*%
X157040000Y-91360000D02*
X151100000Y-97300000D01*
X157040000Y-88790000D02*
X157040000Y-91360000D01*
%TO.N,Net-(J7-Pin_6)*%
X155700000Y-89300000D02*
X150800000Y-94200000D01*
X150800000Y-94200000D02*
X147400000Y-94200000D01*
X155700000Y-87450000D02*
X155700000Y-89300000D01*
X147400000Y-94200000D02*
X144300000Y-97300000D01*
X154500000Y-86250000D02*
X155700000Y-87450000D01*
%TO.N,Net-(J7-Pin_5)*%
X140500000Y-94300000D02*
X137500000Y-97300000D01*
X140500000Y-94250000D02*
X140500000Y-94300000D01*
X141850000Y-92900000D02*
X140500000Y-94250000D01*
X154500000Y-89750000D02*
X151350000Y-92900000D01*
X154500000Y-88790000D02*
X154500000Y-89750000D01*
X151350000Y-92900000D02*
X141850000Y-92900000D01*
%TD*%
%TA.AperFunction,Conductor*%
%TO.N,GND*%
G36*
X152460000Y-87173326D02*
G01*
X152546173Y-87127266D01*
X152706055Y-86996055D01*
X152837267Y-86836173D01*
X152837271Y-86836166D01*
X152934766Y-86653765D01*
X152954885Y-86587442D01*
X152993182Y-86529003D01*
X153056994Y-86500546D01*
X153126061Y-86511105D01*
X153178455Y-86557329D01*
X153193321Y-86591342D01*
X153226095Y-86713658D01*
X153226096Y-86713660D01*
X153226097Y-86713663D01*
X153283221Y-86836166D01*
X153325965Y-86927830D01*
X153325967Y-86927834D01*
X153413446Y-87052766D01*
X153461501Y-87121396D01*
X153461506Y-87121402D01*
X153628597Y-87288493D01*
X153628603Y-87288498D01*
X153814158Y-87418425D01*
X153857783Y-87473002D01*
X153864977Y-87542500D01*
X153833454Y-87604855D01*
X153814158Y-87621575D01*
X153628597Y-87751505D01*
X153461505Y-87918597D01*
X153325965Y-88112169D01*
X153325964Y-88112171D01*
X153226098Y-88326335D01*
X153226095Y-88326342D01*
X153193321Y-88448657D01*
X153156956Y-88508317D01*
X153094109Y-88538846D01*
X153024733Y-88530551D01*
X152970855Y-88486066D01*
X152954885Y-88452558D01*
X152934765Y-88386233D01*
X152837271Y-88203833D01*
X152837267Y-88203826D01*
X152706055Y-88043944D01*
X152546173Y-87912732D01*
X152546166Y-87912727D01*
X152460000Y-87866671D01*
X152460000Y-88724174D01*
X152425925Y-88597007D01*
X152360099Y-88482993D01*
X152267007Y-88389901D01*
X152152993Y-88324075D01*
X152025826Y-88290000D01*
X151894174Y-88290000D01*
X151767007Y-88324075D01*
X151652993Y-88389901D01*
X151559901Y-88482993D01*
X151494075Y-88597007D01*
X151460000Y-88724174D01*
X151460000Y-87866671D01*
X151459999Y-87866671D01*
X151373833Y-87912727D01*
X151373826Y-87912732D01*
X151213944Y-88043944D01*
X151082732Y-88203826D01*
X151082728Y-88203833D01*
X151003857Y-88351391D01*
X150954895Y-88401235D01*
X150886757Y-88416696D01*
X150821077Y-88392864D01*
X150778709Y-88337307D01*
X150770499Y-88292938D01*
X150770499Y-87892129D01*
X150770498Y-87892123D01*
X150770497Y-87892116D01*
X150764091Y-87832517D01*
X150713796Y-87697669D01*
X150713795Y-87697668D01*
X150713793Y-87697664D01*
X150627547Y-87582455D01*
X150627544Y-87582452D01*
X150512335Y-87496206D01*
X150512328Y-87496202D01*
X150380917Y-87447189D01*
X150324983Y-87405318D01*
X150300566Y-87339853D01*
X150315418Y-87271580D01*
X150336563Y-87243332D01*
X150458495Y-87121401D01*
X150594035Y-86927830D01*
X150693903Y-86713663D01*
X150726678Y-86591342D01*
X150763042Y-86531683D01*
X150825889Y-86501153D01*
X150895265Y-86509447D01*
X150949143Y-86553932D01*
X150965113Y-86587440D01*
X150985232Y-86653763D01*
X151082728Y-86836166D01*
X151082732Y-86836173D01*
X151213944Y-86996055D01*
X151373826Y-87127266D01*
X151460000Y-87173326D01*
X151460000Y-86315826D01*
X151494075Y-86442993D01*
X151559901Y-86557007D01*
X151652993Y-86650099D01*
X151767007Y-86715925D01*
X151894174Y-86750000D01*
X152025826Y-86750000D01*
X152152993Y-86715925D01*
X152267007Y-86650099D01*
X152360099Y-86557007D01*
X152425925Y-86442993D01*
X152460000Y-86315826D01*
X152460000Y-87173326D01*
G37*
%TD.AperFunction*%
%TA.AperFunction,Conductor*%
G36*
X173516177Y-83520185D02*
G01*
X173536819Y-83536819D01*
X181463181Y-91463181D01*
X181496666Y-91524504D01*
X181499500Y-91550862D01*
X181499500Y-99449138D01*
X181479815Y-99516177D01*
X181463181Y-99536819D01*
X173536819Y-107463181D01*
X173475496Y-107496666D01*
X173449138Y-107499500D01*
X135550862Y-107499500D01*
X135483823Y-107479815D01*
X135463181Y-107463181D01*
X132226265Y-104226265D01*
X137280838Y-104226265D01*
X137313767Y-104236255D01*
X137500000Y-104254596D01*
X137686233Y-104236255D01*
X137686234Y-104236254D01*
X137719160Y-104226266D01*
X137719160Y-104226265D01*
X144080838Y-104226265D01*
X144113767Y-104236255D01*
X144300000Y-104254596D01*
X144486233Y-104236255D01*
X144486234Y-104236254D01*
X144519160Y-104226266D01*
X144519160Y-104226265D01*
X150880838Y-104226265D01*
X150913767Y-104236255D01*
X151100000Y-104254596D01*
X151286233Y-104236255D01*
X151286234Y-104236254D01*
X151319160Y-104226266D01*
X151319160Y-104226265D01*
X157680838Y-104226265D01*
X157713767Y-104236255D01*
X157900000Y-104254596D01*
X158086233Y-104236255D01*
X158086234Y-104236254D01*
X158119160Y-104226266D01*
X158119160Y-104226265D01*
X164480838Y-104226265D01*
X164513767Y-104236255D01*
X164700000Y-104254596D01*
X164886233Y-104236255D01*
X164886234Y-104236254D01*
X164919160Y-104226266D01*
X164919160Y-104226265D01*
X171280838Y-104226265D01*
X171313767Y-104236255D01*
X171500000Y-104254596D01*
X171686233Y-104236255D01*
X171686234Y-104236254D01*
X171719160Y-104226266D01*
X171719160Y-104226265D01*
X171496531Y-104003636D01*
X171483350Y-104012443D01*
X171480315Y-104022781D01*
X171463681Y-104043423D01*
X171280838Y-104226265D01*
X164919160Y-104226265D01*
X164696531Y-104003636D01*
X164683350Y-104012443D01*
X164680315Y-104022781D01*
X164663681Y-104043423D01*
X164480838Y-104226265D01*
X158119160Y-104226265D01*
X157896531Y-104003636D01*
X157883350Y-104012443D01*
X157880315Y-104022781D01*
X157863681Y-104043423D01*
X157680838Y-104226265D01*
X151319160Y-104226265D01*
X151096531Y-104003636D01*
X151083350Y-104012443D01*
X151080315Y-104022781D01*
X151063681Y-104043423D01*
X150880838Y-104226265D01*
X144519160Y-104226265D01*
X144296531Y-104003636D01*
X144283350Y-104012443D01*
X144280315Y-104022781D01*
X144263681Y-104043423D01*
X144080838Y-104226265D01*
X137719160Y-104226265D01*
X137496531Y-104003636D01*
X137483350Y-104012443D01*
X137480315Y-104022781D01*
X137463681Y-104043423D01*
X137280838Y-104226265D01*
X132226265Y-104226265D01*
X131300000Y-103300000D01*
X136545403Y-103300000D01*
X136563744Y-103486230D01*
X136573733Y-103519159D01*
X136792893Y-103299999D01*
X136792892Y-103299998D01*
X136727068Y-103234174D01*
X137000000Y-103234174D01*
X137000000Y-103365826D01*
X137034075Y-103492993D01*
X137099901Y-103607007D01*
X137192993Y-103700099D01*
X137307007Y-103765925D01*
X137434174Y-103800000D01*
X137565826Y-103800000D01*
X137692993Y-103765925D01*
X137807007Y-103700099D01*
X137900099Y-103607007D01*
X137965925Y-103492993D01*
X138000000Y-103365826D01*
X138000000Y-103296531D01*
X138203636Y-103296531D01*
X138426265Y-103519160D01*
X138426266Y-103519160D01*
X138436254Y-103486234D01*
X138436255Y-103486233D01*
X138454596Y-103300000D01*
X143345403Y-103300000D01*
X143363744Y-103486230D01*
X143373733Y-103519159D01*
X143592893Y-103299999D01*
X143592892Y-103299998D01*
X143527068Y-103234174D01*
X143800000Y-103234174D01*
X143800000Y-103365826D01*
X143834075Y-103492993D01*
X143899901Y-103607007D01*
X143992993Y-103700099D01*
X144107007Y-103765925D01*
X144234174Y-103800000D01*
X144365826Y-103800000D01*
X144492993Y-103765925D01*
X144607007Y-103700099D01*
X144700099Y-103607007D01*
X144765925Y-103492993D01*
X144800000Y-103365826D01*
X144800000Y-103296531D01*
X145003636Y-103296531D01*
X145226265Y-103519160D01*
X145226266Y-103519160D01*
X145236254Y-103486234D01*
X145236255Y-103486233D01*
X145254596Y-103300000D01*
X150145403Y-103300000D01*
X150163744Y-103486230D01*
X150173733Y-103519159D01*
X150392893Y-103299999D01*
X150392892Y-103299998D01*
X150327068Y-103234174D01*
X150600000Y-103234174D01*
X150600000Y-103365826D01*
X150634075Y-103492993D01*
X150699901Y-103607007D01*
X150792993Y-103700099D01*
X150907007Y-103765925D01*
X151034174Y-103800000D01*
X151165826Y-103800000D01*
X151292993Y-103765925D01*
X151407007Y-103700099D01*
X151500099Y-103607007D01*
X151565925Y-103492993D01*
X151600000Y-103365826D01*
X151600000Y-103296531D01*
X151803636Y-103296531D01*
X152026265Y-103519160D01*
X152026266Y-103519160D01*
X152036254Y-103486234D01*
X152036255Y-103486233D01*
X152054596Y-103300000D01*
X156945403Y-103300000D01*
X156963744Y-103486230D01*
X156973733Y-103519159D01*
X157192893Y-103299999D01*
X157192892Y-103299998D01*
X157127068Y-103234174D01*
X157400000Y-103234174D01*
X157400000Y-103365826D01*
X157434075Y-103492993D01*
X157499901Y-103607007D01*
X157592993Y-103700099D01*
X157707007Y-103765925D01*
X157834174Y-103800000D01*
X157965826Y-103800000D01*
X158092993Y-103765925D01*
X158207007Y-103700099D01*
X158300099Y-103607007D01*
X158365925Y-103492993D01*
X158400000Y-103365826D01*
X158400000Y-103296531D01*
X158603636Y-103296531D01*
X158826265Y-103519160D01*
X158826266Y-103519160D01*
X158836254Y-103486234D01*
X158836255Y-103486233D01*
X158854596Y-103300000D01*
X163745403Y-103300000D01*
X163763744Y-103486230D01*
X163773733Y-103519159D01*
X163992893Y-103299999D01*
X163992892Y-103299998D01*
X163927068Y-103234174D01*
X164200000Y-103234174D01*
X164200000Y-103365826D01*
X164234075Y-103492993D01*
X164299901Y-103607007D01*
X164392993Y-103700099D01*
X164507007Y-103765925D01*
X164634174Y-103800000D01*
X164765826Y-103800000D01*
X164892993Y-103765925D01*
X165007007Y-103700099D01*
X165100099Y-103607007D01*
X165165925Y-103492993D01*
X165200000Y-103365826D01*
X165200000Y-103296531D01*
X165403636Y-103296531D01*
X165626266Y-103519160D01*
X165636254Y-103486234D01*
X165636255Y-103486233D01*
X165654596Y-103300000D01*
X170545403Y-103300000D01*
X170563744Y-103486230D01*
X170573733Y-103519159D01*
X170792893Y-103299999D01*
X170792892Y-103299998D01*
X170727068Y-103234174D01*
X171000000Y-103234174D01*
X171000000Y-103365826D01*
X171034075Y-103492993D01*
X171099901Y-103607007D01*
X171192993Y-103700099D01*
X171307007Y-103765925D01*
X171434174Y-103800000D01*
X171565826Y-103800000D01*
X171692993Y-103765925D01*
X171807007Y-103700099D01*
X171900099Y-103607007D01*
X171965925Y-103492993D01*
X172000000Y-103365826D01*
X172000000Y-103296531D01*
X172203636Y-103296531D01*
X172426266Y-103519160D01*
X172436254Y-103486234D01*
X172436255Y-103486233D01*
X172454596Y-103300000D01*
X172436255Y-103113767D01*
X172426265Y-103080839D01*
X172426265Y-103080838D01*
X172243424Y-103263681D01*
X172215339Y-103279016D01*
X172203636Y-103296531D01*
X172000000Y-103296531D01*
X172000000Y-103234174D01*
X171965925Y-103107007D01*
X171900099Y-102992993D01*
X171807007Y-102899901D01*
X171692993Y-102834075D01*
X171565826Y-102800000D01*
X171434174Y-102800000D01*
X171307007Y-102834075D01*
X171192993Y-102899901D01*
X171099901Y-102992993D01*
X171034075Y-103107007D01*
X171000000Y-103234174D01*
X170727068Y-103234174D01*
X170573733Y-103080838D01*
X170573732Y-103080839D01*
X170563746Y-103113762D01*
X170563744Y-103113772D01*
X170545403Y-103300000D01*
X165654596Y-103300000D01*
X165636255Y-103113767D01*
X165626265Y-103080839D01*
X165626265Y-103080838D01*
X165443424Y-103263681D01*
X165415339Y-103279016D01*
X165403636Y-103296531D01*
X165200000Y-103296531D01*
X165200000Y-103234174D01*
X165165925Y-103107007D01*
X165100099Y-102992993D01*
X165007007Y-102899901D01*
X164892993Y-102834075D01*
X164765826Y-102800000D01*
X164634174Y-102800000D01*
X164507007Y-102834075D01*
X164392993Y-102899901D01*
X164299901Y-102992993D01*
X164234075Y-103107007D01*
X164200000Y-103234174D01*
X163927068Y-103234174D01*
X163773733Y-103080838D01*
X163773732Y-103080839D01*
X163763746Y-103113762D01*
X163763744Y-103113772D01*
X163745403Y-103300000D01*
X158854596Y-103300000D01*
X158836255Y-103113767D01*
X158826265Y-103080839D01*
X158826265Y-103080838D01*
X158643424Y-103263681D01*
X158615339Y-103279016D01*
X158603636Y-103296531D01*
X158400000Y-103296531D01*
X158400000Y-103234174D01*
X158365925Y-103107007D01*
X158300099Y-102992993D01*
X158207007Y-102899901D01*
X158092993Y-102834075D01*
X157965826Y-102800000D01*
X157834174Y-102800000D01*
X157707007Y-102834075D01*
X157592993Y-102899901D01*
X157499901Y-102992993D01*
X157434075Y-103107007D01*
X157400000Y-103234174D01*
X157127068Y-103234174D01*
X156973733Y-103080838D01*
X156973732Y-103080839D01*
X156963746Y-103113762D01*
X156963744Y-103113772D01*
X156945403Y-103300000D01*
X152054596Y-103300000D01*
X152036255Y-103113767D01*
X152026265Y-103080839D01*
X152026265Y-103080838D01*
X151843424Y-103263681D01*
X151815339Y-103279016D01*
X151803636Y-103296531D01*
X151600000Y-103296531D01*
X151600000Y-103234174D01*
X151565925Y-103107007D01*
X151500099Y-102992993D01*
X151407007Y-102899901D01*
X151292993Y-102834075D01*
X151165826Y-102800000D01*
X151034174Y-102800000D01*
X150907007Y-102834075D01*
X150792993Y-102899901D01*
X150699901Y-102992993D01*
X150634075Y-103107007D01*
X150600000Y-103234174D01*
X150327068Y-103234174D01*
X150173733Y-103080838D01*
X150173732Y-103080839D01*
X150163746Y-103113762D01*
X150163744Y-103113772D01*
X150145403Y-103300000D01*
X145254596Y-103300000D01*
X145236255Y-103113767D01*
X145226265Y-103080839D01*
X145226265Y-103080838D01*
X145043424Y-103263681D01*
X145015339Y-103279016D01*
X145003636Y-103296531D01*
X144800000Y-103296531D01*
X144800000Y-103234174D01*
X144765925Y-103107007D01*
X144700099Y-102992993D01*
X144607007Y-102899901D01*
X144492993Y-102834075D01*
X144365826Y-102800000D01*
X144234174Y-102800000D01*
X144107007Y-102834075D01*
X143992993Y-102899901D01*
X143899901Y-102992993D01*
X143834075Y-103107007D01*
X143800000Y-103234174D01*
X143527068Y-103234174D01*
X143373733Y-103080838D01*
X143373732Y-103080839D01*
X143363746Y-103113762D01*
X143363744Y-103113772D01*
X143345403Y-103300000D01*
X138454596Y-103300000D01*
X138436255Y-103113767D01*
X138426265Y-103080839D01*
X138426265Y-103080838D01*
X138243424Y-103263681D01*
X138215339Y-103279016D01*
X138203636Y-103296531D01*
X138000000Y-103296531D01*
X138000000Y-103234174D01*
X137965925Y-103107007D01*
X137900099Y-102992993D01*
X137807007Y-102899901D01*
X137692993Y-102834075D01*
X137565826Y-102800000D01*
X137434174Y-102800000D01*
X137307007Y-102834075D01*
X137192993Y-102899901D01*
X137099901Y-102992993D01*
X137034075Y-103107007D01*
X137000000Y-103234174D01*
X136727068Y-103234174D01*
X136573733Y-103080838D01*
X136573732Y-103080839D01*
X136563746Y-103113762D01*
X136563744Y-103113772D01*
X136545403Y-103300000D01*
X131300000Y-103300000D01*
X129299997Y-101299997D01*
X136244723Y-101299997D01*
X136244723Y-101300002D01*
X136263793Y-101517975D01*
X136263793Y-101517979D01*
X136320422Y-101729322D01*
X136320424Y-101729326D01*
X136320425Y-101729330D01*
X136366661Y-101828484D01*
X136412897Y-101927638D01*
X136412898Y-101927639D01*
X136538402Y-102106877D01*
X136693123Y-102261598D01*
X136872361Y-102387102D01*
X137070670Y-102479575D01*
X137282023Y-102536207D01*
X137413816Y-102547737D01*
X137478883Y-102573188D01*
X137490689Y-102583583D01*
X137499998Y-102592892D01*
X137509307Y-102583584D01*
X137570630Y-102550098D01*
X137586167Y-102547738D01*
X137717977Y-102536207D01*
X137929330Y-102479575D01*
X138127639Y-102387102D01*
X138306877Y-102261598D01*
X138461598Y-102106877D01*
X138587102Y-101927639D01*
X138679575Y-101729330D01*
X138736207Y-101517977D01*
X138755277Y-101300000D01*
X138755277Y-101299997D01*
X143044723Y-101299997D01*
X143044723Y-101300002D01*
X143063793Y-101517975D01*
X143063793Y-101517979D01*
X143120422Y-101729322D01*
X143120424Y-101729326D01*
X143120425Y-101729330D01*
X143166661Y-101828484D01*
X143212897Y-101927638D01*
X143212898Y-101927639D01*
X143338402Y-102106877D01*
X143493123Y-102261598D01*
X143672361Y-102387102D01*
X143870670Y-102479575D01*
X144082023Y-102536207D01*
X144213816Y-102547737D01*
X144278883Y-102573188D01*
X144290689Y-102583583D01*
X144299998Y-102592892D01*
X144309307Y-102583584D01*
X144370630Y-102550098D01*
X144386167Y-102547738D01*
X144517977Y-102536207D01*
X144729330Y-102479575D01*
X144927639Y-102387102D01*
X145106877Y-102261598D01*
X145261598Y-102106877D01*
X145387102Y-101927639D01*
X145479575Y-101729330D01*
X145536207Y-101517977D01*
X145555277Y-101300000D01*
X145555277Y-101299997D01*
X149844723Y-101299997D01*
X149844723Y-101300002D01*
X149863793Y-101517975D01*
X149863793Y-101517979D01*
X149920422Y-101729322D01*
X149920424Y-101729326D01*
X149920425Y-101729330D01*
X149966661Y-101828484D01*
X150012897Y-101927638D01*
X150012898Y-101927639D01*
X150138402Y-102106877D01*
X150293123Y-102261598D01*
X150472361Y-102387102D01*
X150670670Y-102479575D01*
X150882023Y-102536207D01*
X151013816Y-102547737D01*
X151078883Y-102573188D01*
X151090689Y-102583583D01*
X151099998Y-102592892D01*
X151109307Y-102583584D01*
X151170630Y-102550098D01*
X151186167Y-102547738D01*
X151317977Y-102536207D01*
X151529330Y-102479575D01*
X151727639Y-102387102D01*
X151906877Y-102261598D01*
X152061598Y-102106877D01*
X152187102Y-101927639D01*
X152279575Y-101729330D01*
X152336207Y-101517977D01*
X152355277Y-101300000D01*
X152355277Y-101299997D01*
X156644723Y-101299997D01*
X156644723Y-101300002D01*
X156663793Y-101517975D01*
X156663793Y-101517979D01*
X156720422Y-101729322D01*
X156720424Y-101729326D01*
X156720425Y-101729330D01*
X156766661Y-101828484D01*
X156812897Y-101927638D01*
X156812898Y-101927639D01*
X156938402Y-102106877D01*
X157093123Y-102261598D01*
X157272361Y-102387102D01*
X157470670Y-102479575D01*
X157682023Y-102536207D01*
X157813816Y-102547737D01*
X157878883Y-102573188D01*
X157890689Y-102583583D01*
X157899998Y-102592892D01*
X157909307Y-102583584D01*
X157970630Y-102550098D01*
X157986167Y-102547738D01*
X158117977Y-102536207D01*
X158329330Y-102479575D01*
X158527639Y-102387102D01*
X158706877Y-102261598D01*
X158861598Y-102106877D01*
X158987102Y-101927639D01*
X159079575Y-101729330D01*
X159136207Y-101517977D01*
X159155277Y-101300000D01*
X159155277Y-101299997D01*
X163444723Y-101299997D01*
X163444723Y-101300002D01*
X163463793Y-101517975D01*
X163463793Y-101517979D01*
X163520422Y-101729322D01*
X163520424Y-101729326D01*
X163520425Y-101729330D01*
X163566661Y-101828484D01*
X163612897Y-101927638D01*
X163612898Y-101927639D01*
X163738402Y-102106877D01*
X163893123Y-102261598D01*
X164072361Y-102387102D01*
X164270670Y-102479575D01*
X164482023Y-102536207D01*
X164613816Y-102547737D01*
X164678883Y-102573188D01*
X164690689Y-102583583D01*
X164699998Y-102592892D01*
X164709307Y-102583584D01*
X164770630Y-102550098D01*
X164786167Y-102547738D01*
X164917977Y-102536207D01*
X165129330Y-102479575D01*
X165327639Y-102387102D01*
X165506877Y-102261598D01*
X165661598Y-102106877D01*
X165787102Y-101927639D01*
X165879575Y-101729330D01*
X165936207Y-101517977D01*
X165955277Y-101300000D01*
X165955277Y-101299997D01*
X170244723Y-101299997D01*
X170244723Y-101300002D01*
X170263793Y-101517975D01*
X170263793Y-101517979D01*
X170320422Y-101729322D01*
X170320424Y-101729326D01*
X170320425Y-101729330D01*
X170366661Y-101828484D01*
X170412897Y-101927638D01*
X170412898Y-101927639D01*
X170538402Y-102106877D01*
X170693123Y-102261598D01*
X170872361Y-102387102D01*
X171070670Y-102479575D01*
X171282023Y-102536207D01*
X171413816Y-102547737D01*
X171478883Y-102573188D01*
X171490689Y-102583583D01*
X171499998Y-102592892D01*
X171509307Y-102583584D01*
X171570630Y-102550098D01*
X171586167Y-102547738D01*
X171717977Y-102536207D01*
X171929330Y-102479575D01*
X172127639Y-102387102D01*
X172306877Y-102261598D01*
X172461598Y-102106877D01*
X172587102Y-101927639D01*
X172679575Y-101729330D01*
X172736207Y-101517977D01*
X172755277Y-101300000D01*
X172736207Y-101082023D01*
X172679575Y-100870670D01*
X172587102Y-100672362D01*
X172587100Y-100672359D01*
X172587099Y-100672357D01*
X172461599Y-100493124D01*
X172461596Y-100493121D01*
X172306877Y-100338402D01*
X172127639Y-100212898D01*
X172127640Y-100212898D01*
X172127638Y-100212897D01*
X172028484Y-100166661D01*
X171929330Y-100120425D01*
X171929326Y-100120424D01*
X171929322Y-100120422D01*
X171717982Y-100063794D01*
X171717972Y-100063792D01*
X171586182Y-100052262D01*
X171521114Y-100026809D01*
X171509308Y-100016415D01*
X171496530Y-100003637D01*
X171477212Y-100016545D01*
X171442454Y-100030942D01*
X171427511Y-100043891D01*
X171386808Y-100054625D01*
X171282027Y-100063792D01*
X171282017Y-100063794D01*
X171070677Y-100120422D01*
X171070668Y-100120426D01*
X170872361Y-100212898D01*
X170872357Y-100212900D01*
X170693121Y-100338402D01*
X170538402Y-100493121D01*
X170412900Y-100672357D01*
X170412898Y-100672361D01*
X170320426Y-100870668D01*
X170320422Y-100870677D01*
X170263793Y-101082020D01*
X170263793Y-101082024D01*
X170244723Y-101299997D01*
X165955277Y-101299997D01*
X165936207Y-101082023D01*
X165879575Y-100870670D01*
X165787102Y-100672362D01*
X165787100Y-100672359D01*
X165787099Y-100672357D01*
X165661599Y-100493124D01*
X165661596Y-100493121D01*
X165506877Y-100338402D01*
X165327639Y-100212898D01*
X165327640Y-100212898D01*
X165327638Y-100212897D01*
X165228484Y-100166661D01*
X165129330Y-100120425D01*
X165129326Y-100120424D01*
X165129322Y-100120422D01*
X164917982Y-100063794D01*
X164917972Y-100063792D01*
X164786182Y-100052262D01*
X164721114Y-100026809D01*
X164709308Y-100016415D01*
X164696530Y-100003637D01*
X164677212Y-100016545D01*
X164642454Y-100030942D01*
X164627511Y-100043891D01*
X164586808Y-100054625D01*
X164482027Y-100063792D01*
X164482017Y-100063794D01*
X164270677Y-100120422D01*
X164270668Y-100120426D01*
X164072361Y-100212898D01*
X164072357Y-100212900D01*
X163893121Y-100338402D01*
X163738402Y-100493121D01*
X163612900Y-100672357D01*
X163612898Y-100672361D01*
X163520426Y-100870668D01*
X163520422Y-100870677D01*
X163463793Y-101082020D01*
X163463793Y-101082024D01*
X163444723Y-101299997D01*
X159155277Y-101299997D01*
X159136207Y-101082023D01*
X159079575Y-100870670D01*
X158987102Y-100672362D01*
X158987100Y-100672359D01*
X158987099Y-100672357D01*
X158861599Y-100493124D01*
X158861596Y-100493121D01*
X158706877Y-100338402D01*
X158527639Y-100212898D01*
X158527640Y-100212898D01*
X158527638Y-100212897D01*
X158428484Y-100166661D01*
X158329330Y-100120425D01*
X158329326Y-100120424D01*
X158329322Y-100120422D01*
X158117982Y-100063794D01*
X158117972Y-100063792D01*
X157986182Y-100052262D01*
X157921114Y-100026809D01*
X157909308Y-100016415D01*
X157896530Y-100003637D01*
X157877212Y-100016545D01*
X157842454Y-100030942D01*
X157827511Y-100043891D01*
X157786808Y-100054625D01*
X157682027Y-100063792D01*
X157682017Y-100063794D01*
X157470677Y-100120422D01*
X157470668Y-100120426D01*
X157272361Y-100212898D01*
X157272357Y-100212900D01*
X157093121Y-100338402D01*
X156938402Y-100493121D01*
X156812900Y-100672357D01*
X156812898Y-100672361D01*
X156720426Y-100870668D01*
X156720422Y-100870677D01*
X156663793Y-101082020D01*
X156663793Y-101082024D01*
X156644723Y-101299997D01*
X152355277Y-101299997D01*
X152336207Y-101082023D01*
X152279575Y-100870670D01*
X152187102Y-100672362D01*
X152187100Y-100672359D01*
X152187099Y-100672357D01*
X152061599Y-100493124D01*
X152061596Y-100493121D01*
X151906877Y-100338402D01*
X151727639Y-100212898D01*
X151727640Y-100212898D01*
X151727638Y-100212897D01*
X151628484Y-100166661D01*
X151529330Y-100120425D01*
X151529326Y-100120424D01*
X151529322Y-100120422D01*
X151317982Y-100063794D01*
X151317972Y-100063792D01*
X151186182Y-100052262D01*
X151121114Y-100026809D01*
X151109308Y-100016415D01*
X151096530Y-100003637D01*
X151077212Y-100016545D01*
X151042454Y-100030942D01*
X151027511Y-100043891D01*
X150986808Y-100054625D01*
X150882027Y-100063792D01*
X150882017Y-100063794D01*
X150670677Y-100120422D01*
X150670668Y-100120426D01*
X150472361Y-100212898D01*
X150472357Y-100212900D01*
X150293121Y-100338402D01*
X150138402Y-100493121D01*
X150012900Y-100672357D01*
X150012898Y-100672361D01*
X149920426Y-100870668D01*
X149920422Y-100870677D01*
X149863793Y-101082020D01*
X149863793Y-101082024D01*
X149844723Y-101299997D01*
X145555277Y-101299997D01*
X145536207Y-101082023D01*
X145479575Y-100870670D01*
X145387102Y-100672362D01*
X145387100Y-100672359D01*
X145387099Y-100672357D01*
X145261599Y-100493124D01*
X145261596Y-100493121D01*
X145106877Y-100338402D01*
X144927639Y-100212898D01*
X144927640Y-100212898D01*
X144927638Y-100212897D01*
X144828484Y-100166661D01*
X144729330Y-100120425D01*
X144729326Y-100120424D01*
X144729322Y-100120422D01*
X144517982Y-100063794D01*
X144517972Y-100063792D01*
X144386182Y-100052262D01*
X144321114Y-100026809D01*
X144309308Y-100016415D01*
X144296530Y-100003637D01*
X144277212Y-100016545D01*
X144242454Y-100030942D01*
X144227511Y-100043891D01*
X144186808Y-100054625D01*
X144082027Y-100063792D01*
X144082017Y-100063794D01*
X143870677Y-100120422D01*
X143870668Y-100120426D01*
X143672361Y-100212898D01*
X143672357Y-100212900D01*
X143493121Y-100338402D01*
X143338402Y-100493121D01*
X143212900Y-100672357D01*
X143212898Y-100672361D01*
X143120426Y-100870668D01*
X143120422Y-100870677D01*
X143063793Y-101082020D01*
X143063793Y-101082024D01*
X143044723Y-101299997D01*
X138755277Y-101299997D01*
X138736207Y-101082023D01*
X138679575Y-100870670D01*
X138587102Y-100672362D01*
X138587100Y-100672359D01*
X138587099Y-100672357D01*
X138461599Y-100493124D01*
X138461596Y-100493121D01*
X138306877Y-100338402D01*
X138127639Y-100212898D01*
X138127640Y-100212898D01*
X138127638Y-100212897D01*
X138028484Y-100166661D01*
X137929330Y-100120425D01*
X137929326Y-100120424D01*
X137929322Y-100120422D01*
X137717982Y-100063794D01*
X137717972Y-100063792D01*
X137586182Y-100052262D01*
X137521114Y-100026809D01*
X137509308Y-100016415D01*
X137496530Y-100003637D01*
X137477212Y-100016545D01*
X137442454Y-100030942D01*
X137427511Y-100043891D01*
X137386808Y-100054625D01*
X137282027Y-100063792D01*
X137282017Y-100063794D01*
X137070677Y-100120422D01*
X137070668Y-100120426D01*
X136872361Y-100212898D01*
X136872357Y-100212900D01*
X136693121Y-100338402D01*
X136538402Y-100493121D01*
X136412900Y-100672357D01*
X136412898Y-100672361D01*
X136320426Y-100870668D01*
X136320422Y-100870677D01*
X136263793Y-101082020D01*
X136263793Y-101082024D01*
X136244723Y-101299997D01*
X129299997Y-101299997D01*
X127536819Y-99536819D01*
X127503334Y-99475496D01*
X127500500Y-99449138D01*
X127500500Y-99300000D01*
X136545403Y-99300000D01*
X136563744Y-99486230D01*
X136573733Y-99519159D01*
X136792893Y-99299999D01*
X136792892Y-99299998D01*
X136727068Y-99234174D01*
X137000000Y-99234174D01*
X137000000Y-99365826D01*
X137034075Y-99492993D01*
X137099901Y-99607007D01*
X137192993Y-99700099D01*
X137307007Y-99765925D01*
X137434174Y-99800000D01*
X137565826Y-99800000D01*
X137692993Y-99765925D01*
X137807007Y-99700099D01*
X137900099Y-99607007D01*
X137965925Y-99492993D01*
X138000000Y-99365826D01*
X138000000Y-99296531D01*
X138203636Y-99296531D01*
X138426265Y-99519160D01*
X138426266Y-99519160D01*
X138436254Y-99486234D01*
X138436255Y-99486233D01*
X138454596Y-99300000D01*
X143345403Y-99300000D01*
X143363744Y-99486230D01*
X143373733Y-99519159D01*
X143592893Y-99299999D01*
X143592892Y-99299998D01*
X143527068Y-99234174D01*
X143800000Y-99234174D01*
X143800000Y-99365826D01*
X143834075Y-99492993D01*
X143899901Y-99607007D01*
X143992993Y-99700099D01*
X144107007Y-99765925D01*
X144234174Y-99800000D01*
X144365826Y-99800000D01*
X144492993Y-99765925D01*
X144607007Y-99700099D01*
X144700099Y-99607007D01*
X144765925Y-99492993D01*
X144800000Y-99365826D01*
X144800000Y-99296531D01*
X145003636Y-99296531D01*
X145226265Y-99519160D01*
X145226266Y-99519160D01*
X145236254Y-99486234D01*
X145236255Y-99486233D01*
X145254596Y-99300000D01*
X150145403Y-99300000D01*
X150163744Y-99486230D01*
X150173733Y-99519159D01*
X150392893Y-99299999D01*
X150392892Y-99299998D01*
X150327068Y-99234174D01*
X150600000Y-99234174D01*
X150600000Y-99365826D01*
X150634075Y-99492993D01*
X150699901Y-99607007D01*
X150792993Y-99700099D01*
X150907007Y-99765925D01*
X151034174Y-99800000D01*
X151165826Y-99800000D01*
X151292993Y-99765925D01*
X151407007Y-99700099D01*
X151500099Y-99607007D01*
X151565925Y-99492993D01*
X151600000Y-99365826D01*
X151600000Y-99296531D01*
X151803636Y-99296531D01*
X152026265Y-99519160D01*
X152026266Y-99519160D01*
X152036254Y-99486234D01*
X152036255Y-99486233D01*
X152054596Y-99300000D01*
X156945403Y-99300000D01*
X156963744Y-99486230D01*
X156973733Y-99519159D01*
X157192893Y-99299999D01*
X157192892Y-99299998D01*
X157127068Y-99234174D01*
X157400000Y-99234174D01*
X157400000Y-99365826D01*
X157434075Y-99492993D01*
X157499901Y-99607007D01*
X157592993Y-99700099D01*
X157707007Y-99765925D01*
X157834174Y-99800000D01*
X157965826Y-99800000D01*
X158092993Y-99765925D01*
X158207007Y-99700099D01*
X158300099Y-99607007D01*
X158365925Y-99492993D01*
X158400000Y-99365826D01*
X158400000Y-99296531D01*
X158603636Y-99296531D01*
X158826265Y-99519160D01*
X158826266Y-99519160D01*
X158836254Y-99486234D01*
X158836255Y-99486233D01*
X158854596Y-99300000D01*
X163745403Y-99300000D01*
X163763744Y-99486230D01*
X163773733Y-99519159D01*
X163992893Y-99299999D01*
X163992892Y-99299998D01*
X163927068Y-99234174D01*
X164200000Y-99234174D01*
X164200000Y-99365826D01*
X164234075Y-99492993D01*
X164299901Y-99607007D01*
X164392993Y-99700099D01*
X164507007Y-99765925D01*
X164634174Y-99800000D01*
X164765826Y-99800000D01*
X164892993Y-99765925D01*
X165007007Y-99700099D01*
X165100099Y-99607007D01*
X165165925Y-99492993D01*
X165200000Y-99365826D01*
X165200000Y-99296531D01*
X165403636Y-99296531D01*
X165626266Y-99519160D01*
X165636254Y-99486234D01*
X165636255Y-99486233D01*
X165654596Y-99300000D01*
X170545403Y-99300000D01*
X170563744Y-99486230D01*
X170573733Y-99519159D01*
X170792893Y-99299999D01*
X170792892Y-99299998D01*
X170727068Y-99234174D01*
X171000000Y-99234174D01*
X171000000Y-99365826D01*
X171034075Y-99492993D01*
X171099901Y-99607007D01*
X171192993Y-99700099D01*
X171307007Y-99765925D01*
X171434174Y-99800000D01*
X171565826Y-99800000D01*
X171692993Y-99765925D01*
X171807007Y-99700099D01*
X171900099Y-99607007D01*
X171965925Y-99492993D01*
X172000000Y-99365826D01*
X172000000Y-99296531D01*
X172203636Y-99296531D01*
X172426266Y-99519160D01*
X172436254Y-99486234D01*
X172436255Y-99486233D01*
X172454596Y-99300000D01*
X172436255Y-99113767D01*
X172426265Y-99080839D01*
X172426265Y-99080838D01*
X172243424Y-99263681D01*
X172215339Y-99279016D01*
X172203636Y-99296531D01*
X172000000Y-99296531D01*
X172000000Y-99234174D01*
X171965925Y-99107007D01*
X171900099Y-98992993D01*
X171807007Y-98899901D01*
X171692993Y-98834075D01*
X171565826Y-98800000D01*
X171434174Y-98800000D01*
X171307007Y-98834075D01*
X171192993Y-98899901D01*
X171099901Y-98992993D01*
X171034075Y-99107007D01*
X171000000Y-99234174D01*
X170727068Y-99234174D01*
X170573733Y-99080838D01*
X170573732Y-99080839D01*
X170563746Y-99113762D01*
X170563744Y-99113772D01*
X170545403Y-99300000D01*
X165654596Y-99300000D01*
X165636255Y-99113767D01*
X165626265Y-99080839D01*
X165626265Y-99080838D01*
X165443424Y-99263681D01*
X165415339Y-99279016D01*
X165403636Y-99296531D01*
X165200000Y-99296531D01*
X165200000Y-99234174D01*
X165165925Y-99107007D01*
X165100099Y-98992993D01*
X165007007Y-98899901D01*
X164892993Y-98834075D01*
X164765826Y-98800000D01*
X164634174Y-98800000D01*
X164507007Y-98834075D01*
X164392993Y-98899901D01*
X164299901Y-98992993D01*
X164234075Y-99107007D01*
X164200000Y-99234174D01*
X163927068Y-99234174D01*
X163773733Y-99080838D01*
X163773732Y-99080839D01*
X163763746Y-99113762D01*
X163763744Y-99113772D01*
X163745403Y-99300000D01*
X158854596Y-99300000D01*
X158836255Y-99113767D01*
X158826265Y-99080839D01*
X158826265Y-99080838D01*
X158643424Y-99263681D01*
X158615339Y-99279016D01*
X158603636Y-99296531D01*
X158400000Y-99296531D01*
X158400000Y-99234174D01*
X158365925Y-99107007D01*
X158300099Y-98992993D01*
X158207007Y-98899901D01*
X158092993Y-98834075D01*
X157965826Y-98800000D01*
X157834174Y-98800000D01*
X157707007Y-98834075D01*
X157592993Y-98899901D01*
X157499901Y-98992993D01*
X157434075Y-99107007D01*
X157400000Y-99234174D01*
X157127068Y-99234174D01*
X156973733Y-99080838D01*
X156973732Y-99080839D01*
X156963746Y-99113762D01*
X156963744Y-99113772D01*
X156945403Y-99300000D01*
X152054596Y-99300000D01*
X152036255Y-99113767D01*
X152026265Y-99080839D01*
X152026265Y-99080838D01*
X151843424Y-99263681D01*
X151815339Y-99279016D01*
X151803636Y-99296531D01*
X151600000Y-99296531D01*
X151600000Y-99234174D01*
X151565925Y-99107007D01*
X151500099Y-98992993D01*
X151407007Y-98899901D01*
X151292993Y-98834075D01*
X151165826Y-98800000D01*
X151034174Y-98800000D01*
X150907007Y-98834075D01*
X150792993Y-98899901D01*
X150699901Y-98992993D01*
X150634075Y-99107007D01*
X150600000Y-99234174D01*
X150327068Y-99234174D01*
X150173733Y-99080838D01*
X150173732Y-99080839D01*
X150163746Y-99113762D01*
X150163744Y-99113772D01*
X150145403Y-99300000D01*
X145254596Y-99300000D01*
X145236255Y-99113767D01*
X145226265Y-99080839D01*
X145226265Y-99080838D01*
X145043424Y-99263681D01*
X145015339Y-99279016D01*
X145003636Y-99296531D01*
X144800000Y-99296531D01*
X144800000Y-99234174D01*
X144765925Y-99107007D01*
X144700099Y-98992993D01*
X144607007Y-98899901D01*
X144492993Y-98834075D01*
X144365826Y-98800000D01*
X144234174Y-98800000D01*
X144107007Y-98834075D01*
X143992993Y-98899901D01*
X143899901Y-98992993D01*
X143834075Y-99107007D01*
X143800000Y-99234174D01*
X143527068Y-99234174D01*
X143373733Y-99080838D01*
X143373732Y-99080839D01*
X143363746Y-99113762D01*
X143363744Y-99113772D01*
X143345403Y-99300000D01*
X138454596Y-99300000D01*
X138436255Y-99113767D01*
X138426265Y-99080839D01*
X138426265Y-99080838D01*
X138243424Y-99263681D01*
X138215339Y-99279016D01*
X138203636Y-99296531D01*
X138000000Y-99296531D01*
X138000000Y-99234174D01*
X137965925Y-99107007D01*
X137900099Y-98992993D01*
X137807007Y-98899901D01*
X137692993Y-98834075D01*
X137565826Y-98800000D01*
X137434174Y-98800000D01*
X137307007Y-98834075D01*
X137192993Y-98899901D01*
X137099901Y-98992993D01*
X137034075Y-99107007D01*
X137000000Y-99234174D01*
X136727068Y-99234174D01*
X136573733Y-99080838D01*
X136573732Y-99080839D01*
X136563746Y-99113762D01*
X136563744Y-99113772D01*
X136545403Y-99300000D01*
X127500500Y-99300000D01*
X127500500Y-97299997D01*
X136244723Y-97299997D01*
X136244723Y-97300002D01*
X136263793Y-97517975D01*
X136263793Y-97517979D01*
X136320422Y-97729322D01*
X136320424Y-97729326D01*
X136320425Y-97729330D01*
X136360686Y-97815669D01*
X136412897Y-97927638D01*
X136437998Y-97963486D01*
X136538402Y-98106877D01*
X136693123Y-98261598D01*
X136872361Y-98387102D01*
X137070670Y-98479575D01*
X137282023Y-98536207D01*
X137413816Y-98547737D01*
X137478883Y-98573188D01*
X137490689Y-98583583D01*
X137499998Y-98592892D01*
X137509307Y-98583584D01*
X137570630Y-98550098D01*
X137586167Y-98547738D01*
X137717977Y-98536207D01*
X137929330Y-98479575D01*
X138127639Y-98387102D01*
X138306877Y-98261598D01*
X138461598Y-98106877D01*
X138587102Y-97927639D01*
X138653095Y-97786113D01*
X138657087Y-97778293D01*
X138669473Y-97756014D01*
X138669476Y-97756006D01*
X138679659Y-97729322D01*
X139095432Y-96639811D01*
X139123599Y-96596345D01*
X140419945Y-95300000D01*
X143345403Y-95300000D01*
X143363744Y-95486230D01*
X143373733Y-95519159D01*
X143592893Y-95299999D01*
X143592892Y-95299998D01*
X143373733Y-95080838D01*
X143373732Y-95080839D01*
X143363746Y-95113762D01*
X143363744Y-95113772D01*
X143345403Y-95300000D01*
X140419945Y-95300000D01*
X141005277Y-94714669D01*
X141076465Y-94608127D01*
X141077379Y-94605919D01*
X141078707Y-94603931D01*
X141079338Y-94602752D01*
X141079454Y-94602814D01*
X141104260Y-94565684D01*
X141296211Y-94373733D01*
X144080838Y-94373733D01*
X144299998Y-94592892D01*
X144299999Y-94592893D01*
X144300000Y-94592893D01*
X144300000Y-94592892D01*
X144519159Y-94373733D01*
X144486228Y-94363744D01*
X144486232Y-94363744D01*
X144300000Y-94345403D01*
X144113772Y-94363744D01*
X144113762Y-94363746D01*
X144080839Y-94373732D01*
X144080838Y-94373733D01*
X141296211Y-94373733D01*
X142083127Y-93586819D01*
X142144450Y-93553334D01*
X142170808Y-93550500D01*
X146830191Y-93550500D01*
X146897230Y-93570185D01*
X146942985Y-93622989D01*
X146952929Y-93692147D01*
X146923904Y-93755703D01*
X146917872Y-93762181D01*
X145451231Y-95228820D01*
X145389908Y-95262305D01*
X145320216Y-95257321D01*
X145264283Y-95215449D01*
X145240147Y-95153290D01*
X145236255Y-95113768D01*
X145226265Y-95080839D01*
X145226265Y-95080838D01*
X144970791Y-95336313D01*
X144970787Y-95336319D01*
X144700099Y-95607005D01*
X144765925Y-95492993D01*
X144800000Y-95365826D01*
X144800000Y-95234174D01*
X144765925Y-95107007D01*
X144700099Y-94992993D01*
X144607007Y-94899901D01*
X144492993Y-94834075D01*
X144365826Y-94800000D01*
X144234174Y-94800000D01*
X144107007Y-94834075D01*
X143992993Y-94899901D01*
X143899901Y-94992993D01*
X143834075Y-95107007D01*
X143800000Y-95234174D01*
X143800000Y-95365826D01*
X143834075Y-95492993D01*
X143899901Y-95607007D01*
X143992993Y-95700099D01*
X144107007Y-95765925D01*
X144234174Y-95800000D01*
X144365826Y-95800000D01*
X144492993Y-95765925D01*
X144607005Y-95700099D01*
X144400559Y-95906546D01*
X144357089Y-95934716D01*
X143843851Y-96130576D01*
X143836823Y-96133319D01*
X143836538Y-96133433D01*
X143782220Y-96158949D01*
X143776845Y-96162173D01*
X143776806Y-96162109D01*
X143760964Y-96171580D01*
X143672363Y-96212896D01*
X143672360Y-96212898D01*
X143493121Y-96338402D01*
X143338402Y-96493121D01*
X143212900Y-96672357D01*
X143212898Y-96672361D01*
X143120426Y-96870668D01*
X143120422Y-96870677D01*
X143063793Y-97082020D01*
X143063793Y-97082024D01*
X143044723Y-97299997D01*
X143044723Y-97300002D01*
X143063793Y-97517975D01*
X143063793Y-97517979D01*
X143120422Y-97729322D01*
X143120424Y-97729326D01*
X143120425Y-97729330D01*
X143160686Y-97815669D01*
X143212897Y-97927638D01*
X143237998Y-97963486D01*
X143338402Y-98106877D01*
X143493123Y-98261598D01*
X143672361Y-98387102D01*
X143870670Y-98479575D01*
X144082023Y-98536207D01*
X144213816Y-98547737D01*
X144278883Y-98573188D01*
X144290689Y-98583583D01*
X144299998Y-98592892D01*
X144309307Y-98583584D01*
X144370630Y-98550098D01*
X144386167Y-98547738D01*
X144517977Y-98536207D01*
X144729330Y-98479575D01*
X144927639Y-98387102D01*
X145106877Y-98261598D01*
X145261598Y-98106877D01*
X145387102Y-97927639D01*
X145453095Y-97786113D01*
X145457087Y-97778293D01*
X145469473Y-97756014D01*
X145469476Y-97756006D01*
X145479659Y-97729322D01*
X145895432Y-96639811D01*
X145923599Y-96596345D01*
X147633127Y-94886819D01*
X147694450Y-94853334D01*
X147720808Y-94850500D01*
X150076412Y-94850500D01*
X150143451Y-94870185D01*
X150189206Y-94922989D01*
X150199150Y-94992147D01*
X150195072Y-95010496D01*
X150163745Y-95113764D01*
X150145403Y-95300000D01*
X150163744Y-95486230D01*
X150173733Y-95519159D01*
X150392893Y-95300000D01*
X150810412Y-94882480D01*
X150871735Y-94848995D01*
X150873902Y-94848544D01*
X150886174Y-94846102D01*
X150792993Y-94899901D01*
X150699901Y-94992993D01*
X150634075Y-95107007D01*
X150600000Y-95234174D01*
X150600000Y-95365826D01*
X150634075Y-95492993D01*
X150699901Y-95607007D01*
X150792993Y-95700099D01*
X150907007Y-95765925D01*
X151034174Y-95800000D01*
X151165826Y-95800000D01*
X151292993Y-95765925D01*
X151407007Y-95700099D01*
X151500099Y-95607007D01*
X151565925Y-95492993D01*
X151600000Y-95365826D01*
X151600000Y-95234174D01*
X151565925Y-95107007D01*
X151500099Y-94992993D01*
X151407007Y-94899901D01*
X151292993Y-94834075D01*
X151165826Y-94800000D01*
X151051309Y-94800000D01*
X151108127Y-94776465D01*
X151214669Y-94705277D01*
X155921985Y-89997959D01*
X155983306Y-89964476D01*
X156052998Y-89969460D01*
X156108931Y-90011332D01*
X156122226Y-90033624D01*
X156378062Y-90587223D01*
X156389500Y-90639241D01*
X156389500Y-91039191D01*
X156369815Y-91106230D01*
X156353181Y-91126872D01*
X152251231Y-95228820D01*
X152189908Y-95262305D01*
X152120216Y-95257321D01*
X152064283Y-95215449D01*
X152040147Y-95153290D01*
X152036255Y-95113768D01*
X152026265Y-95080839D01*
X152026265Y-95080838D01*
X151770795Y-95336309D01*
X151770787Y-95336320D01*
X151620874Y-95486233D01*
X151200559Y-95906546D01*
X151157089Y-95934716D01*
X150643851Y-96130576D01*
X150636823Y-96133319D01*
X150636538Y-96133433D01*
X150582220Y-96158949D01*
X150576845Y-96162173D01*
X150576806Y-96162109D01*
X150560964Y-96171580D01*
X150472363Y-96212896D01*
X150472360Y-96212898D01*
X150293121Y-96338402D01*
X150138402Y-96493121D01*
X150012900Y-96672357D01*
X150012898Y-96672361D01*
X149920426Y-96870668D01*
X149920422Y-96870677D01*
X149863793Y-97082020D01*
X149863793Y-97082024D01*
X149844723Y-97299997D01*
X149844723Y-97300002D01*
X149863793Y-97517975D01*
X149863793Y-97517979D01*
X149920422Y-97729322D01*
X149920424Y-97729326D01*
X149920425Y-97729330D01*
X149960686Y-97815669D01*
X150012897Y-97927638D01*
X150037998Y-97963486D01*
X150138402Y-98106877D01*
X150293123Y-98261598D01*
X150472361Y-98387102D01*
X150670670Y-98479575D01*
X150882023Y-98536207D01*
X151013816Y-98547737D01*
X151078883Y-98573188D01*
X151090689Y-98583583D01*
X151099998Y-98592892D01*
X151109307Y-98583584D01*
X151170630Y-98550098D01*
X151186167Y-98547738D01*
X151317977Y-98536207D01*
X151529330Y-98479575D01*
X151727639Y-98387102D01*
X151906877Y-98261598D01*
X152061598Y-98106877D01*
X152187102Y-97927639D01*
X152253095Y-97786113D01*
X152257087Y-97778293D01*
X152269473Y-97756014D01*
X152269476Y-97756006D01*
X152279659Y-97729322D01*
X152695432Y-96639811D01*
X152723599Y-96596345D01*
X157517819Y-91802127D01*
X157579142Y-91768642D01*
X157648834Y-91773626D01*
X157704767Y-91815498D01*
X157729184Y-91880962D01*
X157729500Y-91889808D01*
X157729500Y-92943557D01*
X157709815Y-93010596D01*
X157693181Y-93031238D01*
X156096905Y-94627513D01*
X156084466Y-94646131D01*
X156072080Y-94664669D01*
X156053509Y-94692461D01*
X156025717Y-94734055D01*
X155976682Y-94852437D01*
X155976680Y-94852443D01*
X155951683Y-94978110D01*
X155951683Y-96066253D01*
X155969309Y-96154860D01*
X155969309Y-96154862D01*
X155976680Y-96191919D01*
X155976682Y-96191927D01*
X155985368Y-96212898D01*
X156025718Y-96310310D01*
X156044489Y-96338403D01*
X156096909Y-96416856D01*
X156096910Y-96416857D01*
X156276397Y-96596343D01*
X156304567Y-96639814D01*
X156626260Y-97482791D01*
X156730515Y-97755986D01*
X156732825Y-97761929D01*
X156732908Y-97762140D01*
X156732916Y-97762157D01*
X156758946Y-97817772D01*
X156762191Y-97823191D01*
X156762130Y-97823227D01*
X156771580Y-97839034D01*
X156812897Y-97927638D01*
X156837998Y-97963486D01*
X156938402Y-98106877D01*
X157093123Y-98261598D01*
X157272361Y-98387102D01*
X157470670Y-98479575D01*
X157682023Y-98536207D01*
X157813816Y-98547737D01*
X157878883Y-98573188D01*
X157890689Y-98583583D01*
X157899998Y-98592892D01*
X157909307Y-98583584D01*
X157970630Y-98550098D01*
X157986167Y-98547738D01*
X158117977Y-98536207D01*
X158329330Y-98479575D01*
X158527639Y-98387102D01*
X158706877Y-98261598D01*
X158861598Y-98106877D01*
X158987102Y-97927639D01*
X159079575Y-97729330D01*
X159136207Y-97517977D01*
X159155277Y-97300000D01*
X159136207Y-97082023D01*
X159079575Y-96870670D01*
X158987102Y-96672362D01*
X158987100Y-96672359D01*
X158987099Y-96672357D01*
X158861599Y-96493124D01*
X158785327Y-96416852D01*
X158706877Y-96338402D01*
X158527639Y-96212898D01*
X158527638Y-96212897D01*
X158527636Y-96212896D01*
X158386143Y-96146917D01*
X158378299Y-96142914D01*
X158356021Y-96130529D01*
X158356010Y-96130524D01*
X157842909Y-95934716D01*
X157799439Y-95906546D01*
X157316283Y-95423390D01*
X157282798Y-95362067D01*
X157287782Y-95292375D01*
X157316283Y-95248028D01*
X157425572Y-95138738D01*
X157400000Y-95234174D01*
X157400000Y-95365826D01*
X157434075Y-95492993D01*
X157499901Y-95607007D01*
X157592993Y-95700099D01*
X157707007Y-95765925D01*
X157834174Y-95800000D01*
X157965826Y-95800000D01*
X158092993Y-95765925D01*
X158207007Y-95700099D01*
X158300099Y-95607007D01*
X158365925Y-95492993D01*
X158400000Y-95365826D01*
X158400000Y-95300000D01*
X158607106Y-95300000D01*
X158826265Y-95519160D01*
X158826266Y-95519160D01*
X158836255Y-95486233D01*
X158854596Y-95300000D01*
X158836255Y-95113767D01*
X158826265Y-95080839D01*
X158607106Y-95300000D01*
X158400000Y-95300000D01*
X158400000Y-95234174D01*
X158365925Y-95107007D01*
X158300099Y-94992993D01*
X158207007Y-94899901D01*
X158092993Y-94834075D01*
X157965826Y-94800000D01*
X157834174Y-94800000D01*
X157738738Y-94825572D01*
X158885272Y-93679039D01*
X158885277Y-93679034D01*
X158956466Y-93572491D01*
X159005501Y-93454108D01*
X159009056Y-93436239D01*
X159030500Y-93328434D01*
X159030500Y-92849808D01*
X159050185Y-92782769D01*
X159102989Y-92737014D01*
X159172147Y-92727070D01*
X159235703Y-92756095D01*
X159242181Y-92762127D01*
X163076397Y-96596343D01*
X163104567Y-96639814D01*
X163426260Y-97482791D01*
X163530515Y-97755986D01*
X163532825Y-97761929D01*
X163532908Y-97762140D01*
X163532916Y-97762157D01*
X163558946Y-97817772D01*
X163562191Y-97823191D01*
X163562130Y-97823227D01*
X163571580Y-97839034D01*
X163612897Y-97927638D01*
X163637998Y-97963486D01*
X163738402Y-98106877D01*
X163893123Y-98261598D01*
X164072361Y-98387102D01*
X164270670Y-98479575D01*
X164482023Y-98536207D01*
X164613816Y-98547737D01*
X164678883Y-98573188D01*
X164690689Y-98583583D01*
X164699998Y-98592892D01*
X164709307Y-98583584D01*
X164770630Y-98550098D01*
X164786167Y-98547738D01*
X164917977Y-98536207D01*
X165129330Y-98479575D01*
X165327639Y-98387102D01*
X165506877Y-98261598D01*
X165661598Y-98106877D01*
X165787102Y-97927639D01*
X165879575Y-97729330D01*
X165936207Y-97517977D01*
X165955277Y-97300000D01*
X165936207Y-97082023D01*
X165879575Y-96870670D01*
X165787102Y-96672362D01*
X165787100Y-96672359D01*
X165787099Y-96672357D01*
X165661599Y-96493124D01*
X165585327Y-96416852D01*
X165506877Y-96338402D01*
X165327639Y-96212898D01*
X165327638Y-96212897D01*
X165327636Y-96212896D01*
X165186143Y-96146917D01*
X165178299Y-96142914D01*
X165156021Y-96130529D01*
X165156006Y-96130522D01*
X164642912Y-95934718D01*
X164599441Y-95906548D01*
X164010334Y-95317441D01*
X164010332Y-95317438D01*
X163927068Y-95234174D01*
X164200000Y-95234174D01*
X164200000Y-95365826D01*
X164234075Y-95492993D01*
X164299901Y-95607007D01*
X164392993Y-95700099D01*
X164507007Y-95765925D01*
X164634174Y-95800000D01*
X164765826Y-95800000D01*
X164892993Y-95765925D01*
X165007007Y-95700099D01*
X165100099Y-95607007D01*
X165165925Y-95492993D01*
X165200000Y-95365826D01*
X165200000Y-95296531D01*
X165403636Y-95296531D01*
X165626265Y-95519160D01*
X165626266Y-95519160D01*
X165636255Y-95486233D01*
X165654596Y-95300000D01*
X165636255Y-95113767D01*
X165626265Y-95080839D01*
X165626265Y-95080838D01*
X165443424Y-95263681D01*
X165415339Y-95279016D01*
X165403636Y-95296531D01*
X165200000Y-95296531D01*
X165200000Y-95234174D01*
X165165925Y-95107007D01*
X165100099Y-94992993D01*
X165007007Y-94899901D01*
X164892993Y-94834075D01*
X164765826Y-94800000D01*
X164634174Y-94800000D01*
X164507007Y-94834075D01*
X164392993Y-94899901D01*
X164299901Y-94992993D01*
X164234075Y-95107007D01*
X164200000Y-95234174D01*
X163927068Y-95234174D01*
X163773733Y-95080838D01*
X163773732Y-95080839D01*
X163763746Y-95113762D01*
X163763744Y-95113771D01*
X163759851Y-95153296D01*
X163733689Y-95218083D01*
X163676653Y-95258441D01*
X163606853Y-95261557D01*
X163548767Y-95228821D01*
X162693679Y-94373733D01*
X164480838Y-94373733D01*
X164699998Y-94592892D01*
X164699999Y-94592893D01*
X164700000Y-94592893D01*
X164700000Y-94592892D01*
X164919159Y-94373733D01*
X164886228Y-94363744D01*
X164886232Y-94363744D01*
X164700000Y-94345403D01*
X164513772Y-94363744D01*
X164513762Y-94363746D01*
X164480839Y-94373732D01*
X164480838Y-94373733D01*
X162693679Y-94373733D01*
X160266819Y-91946873D01*
X160233334Y-91885550D01*
X160230500Y-91859192D01*
X160230500Y-90639241D01*
X160241938Y-90587223D01*
X160269500Y-90527582D01*
X160819063Y-89338382D01*
X160823031Y-89329576D01*
X160823215Y-89329157D01*
X160837702Y-89289488D01*
X160841794Y-89279629D01*
X160852848Y-89255925D01*
X160853903Y-89253663D01*
X160915063Y-89025408D01*
X160933753Y-88811781D01*
X160959205Y-88746713D01*
X161015796Y-88705734D01*
X161085558Y-88701856D01*
X161144962Y-88734908D01*
X169705607Y-97295553D01*
X169716272Y-97307709D01*
X169733873Y-97330633D01*
X169733875Y-97330635D01*
X169733876Y-97330636D01*
X170016182Y-97606140D01*
X170017257Y-97607203D01*
X170215325Y-97805272D01*
X170215327Y-97805274D01*
X170215330Y-97805276D01*
X170215331Y-97805277D01*
X170221363Y-97809308D01*
X170239073Y-97823661D01*
X170406694Y-97987243D01*
X170608348Y-98184039D01*
X170608374Y-98184063D01*
X170646340Y-98217567D01*
X170646346Y-98217572D01*
X170646350Y-98217574D01*
X170648314Y-98218996D01*
X170663286Y-98231761D01*
X170693123Y-98261598D01*
X170872361Y-98387102D01*
X171070670Y-98479575D01*
X171282023Y-98536207D01*
X171413816Y-98547737D01*
X171478883Y-98573188D01*
X171490689Y-98583583D01*
X171499998Y-98592892D01*
X171509307Y-98583584D01*
X171570630Y-98550098D01*
X171586167Y-98547738D01*
X171717977Y-98536207D01*
X171929330Y-98479575D01*
X172127639Y-98387102D01*
X172306877Y-98261598D01*
X172461598Y-98106877D01*
X172587102Y-97927639D01*
X172679575Y-97729330D01*
X172736207Y-97517977D01*
X172755277Y-97300000D01*
X172736207Y-97082023D01*
X172679575Y-96870670D01*
X172587102Y-96672362D01*
X172587100Y-96672359D01*
X172587099Y-96672357D01*
X172461599Y-96493124D01*
X172385327Y-96416852D01*
X172306877Y-96338402D01*
X172127639Y-96212898D01*
X172127640Y-96212898D01*
X172127638Y-96212897D01*
X171982153Y-96145057D01*
X171929330Y-96120425D01*
X171929326Y-96120424D01*
X171929322Y-96120422D01*
X171717982Y-96063794D01*
X171717972Y-96063792D01*
X171586182Y-96052262D01*
X171521114Y-96026809D01*
X171509308Y-96016415D01*
X171496530Y-96003637D01*
X171477212Y-96016545D01*
X171442454Y-96030942D01*
X171427511Y-96043891D01*
X171386808Y-96054625D01*
X171282028Y-96063792D01*
X171282024Y-96063792D01*
X171282023Y-96063793D01*
X171282018Y-96063794D01*
X171282015Y-96063795D01*
X171194435Y-96087261D01*
X171182422Y-96089850D01*
X170521350Y-96198327D01*
X170452008Y-96189757D01*
X170413590Y-96163644D01*
X169549946Y-95300000D01*
X170545403Y-95300000D01*
X170563744Y-95486230D01*
X170573733Y-95519159D01*
X170792893Y-95299999D01*
X170792892Y-95299998D01*
X170727068Y-95234174D01*
X171000000Y-95234174D01*
X171000000Y-95365826D01*
X171034075Y-95492993D01*
X171099901Y-95607007D01*
X171192993Y-95700099D01*
X171307007Y-95765925D01*
X171434174Y-95800000D01*
X171565826Y-95800000D01*
X171692993Y-95765925D01*
X171807007Y-95700099D01*
X171900099Y-95607007D01*
X171965925Y-95492993D01*
X172000000Y-95365826D01*
X172000000Y-95296531D01*
X172203636Y-95296531D01*
X172426265Y-95519160D01*
X172426266Y-95519160D01*
X172436255Y-95486233D01*
X172454596Y-95300000D01*
X172436255Y-95113767D01*
X172426265Y-95080839D01*
X172426265Y-95080838D01*
X172243424Y-95263681D01*
X172215339Y-95279016D01*
X172203636Y-95296531D01*
X172000000Y-95296531D01*
X172000000Y-95234174D01*
X171965925Y-95107007D01*
X171900099Y-94992993D01*
X171807007Y-94899901D01*
X171692993Y-94834075D01*
X171565826Y-94800000D01*
X171434174Y-94800000D01*
X171307007Y-94834075D01*
X171192993Y-94899901D01*
X171099901Y-94992993D01*
X171034075Y-95107007D01*
X171000000Y-95234174D01*
X170727068Y-95234174D01*
X170573733Y-95080838D01*
X170573732Y-95080839D01*
X170563746Y-95113762D01*
X170563744Y-95113772D01*
X170545403Y-95300000D01*
X169549946Y-95300000D01*
X168623679Y-94373733D01*
X171280838Y-94373733D01*
X171499998Y-94592892D01*
X171499999Y-94592893D01*
X171500000Y-94592893D01*
X171500000Y-94592892D01*
X171719159Y-94373733D01*
X171686228Y-94363744D01*
X171686232Y-94363744D01*
X171500000Y-94345403D01*
X171313772Y-94363744D01*
X171313762Y-94363746D01*
X171280839Y-94373732D01*
X171280838Y-94373733D01*
X168623679Y-94373733D01*
X161347582Y-87097636D01*
X161318888Y-87052766D01*
X161239210Y-86836173D01*
X160858241Y-85800560D01*
X160854844Y-85789848D01*
X160853904Y-85786342D01*
X160853903Y-85786337D01*
X160851865Y-85781967D01*
X160847870Y-85772368D01*
X160843928Y-85761650D01*
X160843915Y-85761615D01*
X160840274Y-85752017D01*
X160840107Y-85751590D01*
X160835544Y-85741791D01*
X160813268Y-85693946D01*
X160809989Y-85688459D01*
X160810153Y-85688360D01*
X160801354Y-85673646D01*
X160754037Y-85572175D01*
X160754034Y-85572169D01*
X160618494Y-85378597D01*
X160451402Y-85211506D01*
X160451395Y-85211501D01*
X160257834Y-85075967D01*
X160257830Y-85075965D01*
X160257828Y-85075964D01*
X160043663Y-84976097D01*
X160043659Y-84976096D01*
X160043655Y-84976094D01*
X159815413Y-84914938D01*
X159815403Y-84914936D01*
X159580001Y-84894341D01*
X159579999Y-84894341D01*
X159344596Y-84914936D01*
X159344586Y-84914938D01*
X159116344Y-84976094D01*
X159116335Y-84976098D01*
X158902171Y-85075964D01*
X158902169Y-85075965D01*
X158708597Y-85211505D01*
X158541505Y-85378597D01*
X158411575Y-85564158D01*
X158356998Y-85607783D01*
X158287500Y-85614977D01*
X158225145Y-85583454D01*
X158208425Y-85564158D01*
X158078494Y-85378597D01*
X157911402Y-85211506D01*
X157911395Y-85211501D01*
X157717834Y-85075967D01*
X157717830Y-85075965D01*
X157717828Y-85075964D01*
X157503663Y-84976097D01*
X157503659Y-84976096D01*
X157503655Y-84976094D01*
X157275413Y-84914938D01*
X157275403Y-84914936D01*
X157040001Y-84894341D01*
X157039999Y-84894341D01*
X156804596Y-84914936D01*
X156804586Y-84914938D01*
X156576344Y-84976094D01*
X156576335Y-84976098D01*
X156362171Y-85075964D01*
X156362169Y-85075965D01*
X156168597Y-85211505D01*
X156001505Y-85378597D01*
X155871575Y-85564158D01*
X155816998Y-85607783D01*
X155747500Y-85614977D01*
X155685145Y-85583454D01*
X155668425Y-85564158D01*
X155538494Y-85378597D01*
X155371402Y-85211506D01*
X155371395Y-85211501D01*
X155177834Y-85075967D01*
X155177830Y-85075965D01*
X155177828Y-85075964D01*
X154963663Y-84976097D01*
X154963659Y-84976096D01*
X154963655Y-84976094D01*
X154735413Y-84914938D01*
X154735403Y-84914936D01*
X154500001Y-84894341D01*
X154499999Y-84894341D01*
X154264596Y-84914936D01*
X154264586Y-84914938D01*
X154036344Y-84976094D01*
X154036335Y-84976098D01*
X153822171Y-85075964D01*
X153822169Y-85075965D01*
X153628597Y-85211505D01*
X153461505Y-85378597D01*
X153325965Y-85572169D01*
X153325964Y-85572171D01*
X153242302Y-85751586D01*
X153226098Y-85786336D01*
X153226095Y-85786342D01*
X153193321Y-85908657D01*
X153156956Y-85968317D01*
X153094109Y-85998846D01*
X153024733Y-85990551D01*
X152970855Y-85946066D01*
X152954885Y-85912558D01*
X152934765Y-85846233D01*
X152837271Y-85663833D01*
X152837267Y-85663826D01*
X152706055Y-85503944D01*
X152546173Y-85372732D01*
X152546166Y-85372727D01*
X152460000Y-85326671D01*
X152460000Y-86184174D01*
X152425925Y-86057007D01*
X152360099Y-85942993D01*
X152267007Y-85849901D01*
X152152993Y-85784075D01*
X152025826Y-85750000D01*
X151894174Y-85750000D01*
X151767007Y-85784075D01*
X151652993Y-85849901D01*
X151559901Y-85942993D01*
X151494075Y-86057007D01*
X151460000Y-86184174D01*
X151460000Y-85326671D01*
X151459999Y-85326671D01*
X151373833Y-85372727D01*
X151373826Y-85372732D01*
X151213944Y-85503944D01*
X151082732Y-85663826D01*
X151082728Y-85663833D01*
X150985232Y-85846236D01*
X150965113Y-85912559D01*
X150926815Y-85970997D01*
X150863003Y-85999454D01*
X150793936Y-85988893D01*
X150741543Y-85942668D01*
X150726678Y-85908656D01*
X150693905Y-85786344D01*
X150693904Y-85786342D01*
X150693903Y-85786337D01*
X150594035Y-85572171D01*
X150588425Y-85564158D01*
X150458494Y-85378597D01*
X150291402Y-85211506D01*
X150291395Y-85211501D01*
X150097834Y-85075967D01*
X150097830Y-85075965D01*
X150097828Y-85075964D01*
X149883663Y-84976097D01*
X149883659Y-84976096D01*
X149883655Y-84976094D01*
X149655413Y-84914938D01*
X149655403Y-84914936D01*
X149420001Y-84894341D01*
X149419999Y-84894341D01*
X149184596Y-84914936D01*
X149184586Y-84914938D01*
X148956344Y-84976094D01*
X148956335Y-84976098D01*
X148742171Y-85075964D01*
X148742169Y-85075965D01*
X148548597Y-85211505D01*
X148381505Y-85378597D01*
X148245965Y-85572169D01*
X148245964Y-85572171D01*
X148162302Y-85751586D01*
X148146098Y-85786336D01*
X148146094Y-85786344D01*
X148084938Y-86014586D01*
X148084936Y-86014596D01*
X148064341Y-86249999D01*
X148064341Y-86250000D01*
X148084936Y-86485403D01*
X148084938Y-86485413D01*
X148146094Y-86713655D01*
X148146096Y-86713659D01*
X148146097Y-86713663D01*
X148203221Y-86836166D01*
X148245965Y-86927830D01*
X148245967Y-86927834D01*
X148333446Y-87052766D01*
X148381501Y-87121396D01*
X148381506Y-87121402D01*
X148503430Y-87243326D01*
X148536915Y-87304649D01*
X148531931Y-87374341D01*
X148490059Y-87430274D01*
X148459083Y-87447189D01*
X148327669Y-87496203D01*
X148327664Y-87496206D01*
X148212455Y-87582452D01*
X148212452Y-87582455D01*
X148126206Y-87697664D01*
X148126202Y-87697671D01*
X148075908Y-87832517D01*
X148069501Y-87892116D01*
X148069501Y-87892123D01*
X148069500Y-87892135D01*
X148069500Y-89687870D01*
X148069501Y-89687876D01*
X148075908Y-89747483D01*
X148126202Y-89882328D01*
X148126206Y-89882335D01*
X148212452Y-89997544D01*
X148212455Y-89997547D01*
X148327664Y-90083793D01*
X148327671Y-90083797D01*
X148462517Y-90134091D01*
X148462516Y-90134091D01*
X148469444Y-90134835D01*
X148522127Y-90140500D01*
X150317872Y-90140499D01*
X150377483Y-90134091D01*
X150512331Y-90083796D01*
X150627546Y-89997546D01*
X150713796Y-89882331D01*
X150764091Y-89747483D01*
X150770500Y-89687873D01*
X150770499Y-89287059D01*
X150790183Y-89220023D01*
X150842987Y-89174268D01*
X150912146Y-89164324D01*
X150975701Y-89193349D01*
X151003857Y-89228609D01*
X151082728Y-89376166D01*
X151082732Y-89376173D01*
X151213944Y-89536055D01*
X151373826Y-89667266D01*
X151460000Y-89713326D01*
X151460000Y-88855826D01*
X151494075Y-88982993D01*
X151559901Y-89097007D01*
X151652993Y-89190099D01*
X151767007Y-89255925D01*
X151894174Y-89290000D01*
X152025826Y-89290000D01*
X152152993Y-89255925D01*
X152267007Y-89190099D01*
X152360099Y-89097007D01*
X152425925Y-88982993D01*
X152460000Y-88855826D01*
X152460000Y-89713326D01*
X152546173Y-89667266D01*
X152706055Y-89536055D01*
X152837267Y-89376173D01*
X152837271Y-89376166D01*
X152934765Y-89193766D01*
X152954074Y-89130116D01*
X152992371Y-89071677D01*
X153056184Y-89043221D01*
X153125251Y-89053781D01*
X153177644Y-89100005D01*
X153195173Y-89146492D01*
X153321657Y-89935852D01*
X153312827Y-90005161D01*
X153286900Y-90043152D01*
X151116873Y-92213181D01*
X151055550Y-92246666D01*
X151029192Y-92249500D01*
X141785929Y-92249500D01*
X141660261Y-92274497D01*
X141660255Y-92274499D01*
X141541870Y-92323535D01*
X141435331Y-92394722D01*
X141435324Y-92394728D01*
X139994724Y-93835328D01*
X139941580Y-93914866D01*
X139923535Y-93941872D01*
X139923530Y-93941881D01*
X139922612Y-93944098D01*
X139921279Y-93946092D01*
X139920661Y-93947249D01*
X139920547Y-93947188D01*
X139895737Y-93984315D01*
X138651232Y-95228820D01*
X138589909Y-95262305D01*
X138520217Y-95257321D01*
X138464284Y-95215449D01*
X138440148Y-95153293D01*
X138436255Y-95113767D01*
X138426265Y-95080839D01*
X138426265Y-95080838D01*
X138170791Y-95336313D01*
X138170787Y-95336319D01*
X137900099Y-95607005D01*
X137965925Y-95492993D01*
X138000000Y-95365826D01*
X138000000Y-95234174D01*
X137965925Y-95107007D01*
X137900099Y-94992993D01*
X137807007Y-94899901D01*
X137692993Y-94834075D01*
X137565826Y-94800000D01*
X137434174Y-94800000D01*
X137307007Y-94834075D01*
X137192993Y-94899901D01*
X137099901Y-94992993D01*
X137034075Y-95107007D01*
X137000000Y-95234174D01*
X137000000Y-95365826D01*
X137034075Y-95492993D01*
X137099901Y-95607007D01*
X137192993Y-95700099D01*
X137307007Y-95765925D01*
X137434174Y-95800000D01*
X137565826Y-95800000D01*
X137692993Y-95765925D01*
X137807005Y-95700099D01*
X137600559Y-95906546D01*
X137557089Y-95934716D01*
X137043851Y-96130576D01*
X137036823Y-96133319D01*
X137036538Y-96133433D01*
X136982220Y-96158949D01*
X136976845Y-96162173D01*
X136976806Y-96162109D01*
X136960964Y-96171580D01*
X136872363Y-96212896D01*
X136872360Y-96212898D01*
X136693121Y-96338402D01*
X136538402Y-96493121D01*
X136412900Y-96672357D01*
X136412898Y-96672361D01*
X136320426Y-96870668D01*
X136320422Y-96870677D01*
X136263793Y-97082020D01*
X136263793Y-97082024D01*
X136244723Y-97299997D01*
X127500500Y-97299997D01*
X127500500Y-95300000D01*
X136545403Y-95300000D01*
X136563744Y-95486230D01*
X136573733Y-95519159D01*
X136792893Y-95299999D01*
X136792892Y-95299998D01*
X136573733Y-95080838D01*
X136573732Y-95080839D01*
X136563746Y-95113762D01*
X136563744Y-95113772D01*
X136545403Y-95300000D01*
X127500500Y-95300000D01*
X127500500Y-94373733D01*
X137280838Y-94373733D01*
X137499998Y-94592892D01*
X137499999Y-94592893D01*
X137500000Y-94592893D01*
X137500000Y-94592892D01*
X137719159Y-94373733D01*
X137686228Y-94363744D01*
X137686232Y-94363744D01*
X137500000Y-94345403D01*
X137313772Y-94363744D01*
X137313762Y-94363746D01*
X137280839Y-94373732D01*
X137280838Y-94373733D01*
X127500500Y-94373733D01*
X127500500Y-91550862D01*
X127520185Y-91483823D01*
X127536819Y-91463181D01*
X135463181Y-83536819D01*
X135524504Y-83503334D01*
X135550862Y-83500500D01*
X173449138Y-83500500D01*
X173516177Y-83520185D01*
G37*
%TD.AperFunction*%
%TD*%
%TA.AperFunction,Conductor*%
%TO.N,Net-(J7-Pin_8)*%
G36*
X157823006Y-85929372D02*
G01*
X157829331Y-85935711D01*
X157829498Y-85936138D01*
X158345564Y-87338993D01*
X158345204Y-87347940D01*
X158342856Y-87351305D01*
X158141305Y-87552856D01*
X158133032Y-87556283D01*
X158128993Y-87555564D01*
X156726138Y-87039498D01*
X156719556Y-87033425D01*
X156719196Y-87024478D01*
X156719363Y-87024051D01*
X157037438Y-86253783D01*
X157043759Y-86247448D01*
X157814051Y-85929363D01*
X157823006Y-85929372D01*
G37*
%TD.AperFunction*%
%TD*%
%TA.AperFunction,Conductor*%
%TO.N,Net-(J7-Pin_8)*%
G36*
X156952484Y-96135975D02*
G01*
X158175783Y-96602804D01*
X158182291Y-96608955D01*
X158182543Y-96617906D01*
X158182427Y-96618199D01*
X157902562Y-97296211D01*
X157896238Y-97302551D01*
X157896211Y-97302562D01*
X157218199Y-97582427D01*
X157209244Y-97582416D01*
X157202920Y-97576076D01*
X157202804Y-97575783D01*
X157098539Y-97302562D01*
X156735976Y-96352486D01*
X156736228Y-96343538D01*
X156738631Y-96340048D01*
X156940046Y-96138633D01*
X156948318Y-96135207D01*
X156952484Y-96135975D01*
G37*
%TD.AperFunction*%
%TD*%
%TA.AperFunction,Conductor*%
%TO.N,Net-(J7-Pin_10)*%
G36*
X171495136Y-96554270D02*
G01*
X171499858Y-96561879D01*
X171500012Y-96563763D01*
X171500702Y-97295845D01*
X171497283Y-97304121D01*
X171497264Y-97304140D01*
X170977842Y-97822178D01*
X170969564Y-97825594D01*
X170961408Y-97822267D01*
X170759752Y-97625469D01*
X170086931Y-96968859D01*
X170083405Y-96960630D01*
X170086731Y-96952315D01*
X170287927Y-96751118D01*
X170294301Y-96747847D01*
X171486419Y-96552228D01*
X171495136Y-96554270D01*
G37*
%TD.AperFunction*%
%TD*%
%TA.AperFunction,Conductor*%
%TO.N,Net-(J7-Pin_10)*%
G36*
X160363006Y-85929372D02*
G01*
X160369331Y-85935711D01*
X160369498Y-85936138D01*
X160885564Y-87338993D01*
X160885204Y-87347940D01*
X160882856Y-87351305D01*
X160681305Y-87552856D01*
X160673032Y-87556283D01*
X160668993Y-87555564D01*
X159266138Y-87039498D01*
X159259556Y-87033425D01*
X159259196Y-87024478D01*
X159259363Y-87024051D01*
X159577438Y-86253783D01*
X159583759Y-86247448D01*
X160354051Y-85929363D01*
X160363006Y-85929372D01*
G37*
%TD.AperFunction*%
%TD*%
%TA.AperFunction,Conductor*%
%TO.N,Net-(J7-Pin_9)*%
G36*
X159584489Y-88790865D02*
G01*
X160354061Y-89110612D01*
X160360386Y-89116951D01*
X160360377Y-89125906D01*
X160360193Y-89126325D01*
X159733139Y-90483208D01*
X159726557Y-90489281D01*
X159722518Y-90490000D01*
X159437482Y-90490000D01*
X159429209Y-90486573D01*
X159426861Y-90483208D01*
X158799806Y-89126325D01*
X158799446Y-89117378D01*
X158805519Y-89110796D01*
X158805913Y-89110622D01*
X159575511Y-88790864D01*
X159584466Y-88790856D01*
X159584489Y-88790865D01*
G37*
%TD.AperFunction*%
%TD*%
%TA.AperFunction,Conductor*%
%TO.N,Net-(J7-Pin_9)*%
G36*
X163752484Y-96135975D02*
G01*
X164975783Y-96602804D01*
X164982291Y-96608955D01*
X164982543Y-96617906D01*
X164982427Y-96618199D01*
X164702562Y-97296211D01*
X164696238Y-97302551D01*
X164696211Y-97302562D01*
X164018199Y-97582427D01*
X164009244Y-97582416D01*
X164002920Y-97576076D01*
X164002804Y-97575783D01*
X163898539Y-97302562D01*
X163535976Y-96352486D01*
X163536228Y-96343538D01*
X163538631Y-96340048D01*
X163740046Y-96138633D01*
X163748318Y-96135207D01*
X163752484Y-96135975D01*
G37*
%TD.AperFunction*%
%TD*%
%TA.AperFunction,Conductor*%
%TO.N,Net-(J7-Pin_7)*%
G36*
X152056461Y-96136228D02*
G01*
X152059954Y-96138634D01*
X152261365Y-96340045D01*
X152264792Y-96348318D01*
X152264023Y-96352489D01*
X151797195Y-97575783D01*
X151791044Y-97582291D01*
X151782093Y-97582543D01*
X151781800Y-97582427D01*
X151103788Y-97302562D01*
X151097448Y-97296238D01*
X151097437Y-97296211D01*
X150817572Y-96618199D01*
X150817583Y-96609244D01*
X150823923Y-96602920D01*
X150824156Y-96602827D01*
X152047513Y-96135976D01*
X152056461Y-96136228D01*
G37*
%TD.AperFunction*%
%TD*%
%TA.AperFunction,Conductor*%
%TO.N,Net-(J7-Pin_7)*%
G36*
X157044489Y-88790865D02*
G01*
X157814061Y-89110612D01*
X157820386Y-89116951D01*
X157820377Y-89125906D01*
X157820193Y-89126325D01*
X157193139Y-90483208D01*
X157186557Y-90489281D01*
X157182518Y-90490000D01*
X156897482Y-90490000D01*
X156889209Y-90486573D01*
X156886861Y-90483208D01*
X156259806Y-89126325D01*
X156259446Y-89117378D01*
X156265519Y-89110796D01*
X156265913Y-89110622D01*
X157035511Y-88790864D01*
X157044466Y-88790856D01*
X157044489Y-88790865D01*
G37*
%TD.AperFunction*%
%TD*%
%TA.AperFunction,Conductor*%
%TO.N,Net-(J7-Pin_6)*%
G36*
X145256461Y-96136228D02*
G01*
X145259954Y-96138634D01*
X145461365Y-96340045D01*
X145464792Y-96348318D01*
X145464023Y-96352489D01*
X144997195Y-97575783D01*
X144991044Y-97582291D01*
X144982093Y-97582543D01*
X144981800Y-97582427D01*
X144303788Y-97302562D01*
X144297448Y-97296238D01*
X144297437Y-97296211D01*
X144017572Y-96618199D01*
X144017583Y-96609244D01*
X144023923Y-96602920D01*
X144024156Y-96602827D01*
X145247513Y-96135976D01*
X145256461Y-96136228D01*
G37*
%TD.AperFunction*%
%TD*%
%TA.AperFunction,Conductor*%
%TO.N,Net-(J7-Pin_6)*%
G36*
X155283023Y-85929365D02*
G01*
X155289348Y-85935704D01*
X155289509Y-85936115D01*
X155844178Y-87437190D01*
X155843831Y-87446138D01*
X155837258Y-87452220D01*
X155833203Y-87452945D01*
X155551737Y-87452945D01*
X155548337Y-87452440D01*
X154187061Y-87039046D01*
X154180141Y-87033363D01*
X154179266Y-87024451D01*
X154179650Y-87023378D01*
X154498144Y-86253485D01*
X154504471Y-86247153D01*
X155274068Y-85929356D01*
X155283023Y-85929365D01*
G37*
%TD.AperFunction*%
%TD*%
%TA.AperFunction,Conductor*%
%TO.N,Net-(J7-Pin_5)*%
G36*
X138456461Y-96136228D02*
G01*
X138459954Y-96138634D01*
X138661365Y-96340045D01*
X138664792Y-96348318D01*
X138664023Y-96352489D01*
X138197195Y-97575783D01*
X138191044Y-97582291D01*
X138182093Y-97582543D01*
X138181800Y-97582427D01*
X137503788Y-97302562D01*
X137497448Y-97296238D01*
X137497437Y-97296211D01*
X137217572Y-96618199D01*
X137217583Y-96609244D01*
X137223923Y-96602920D01*
X137224156Y-96602827D01*
X138447513Y-96135976D01*
X138456461Y-96136228D01*
G37*
%TD.AperFunction*%
%TD*%
%TA.AperFunction,Conductor*%
%TO.N,Net-(J7-Pin_5)*%
G36*
X154504122Y-88792717D02*
G01*
X154504139Y-88792734D01*
X155092663Y-89382643D01*
X155096080Y-89390920D01*
X155092643Y-89399189D01*
X155092529Y-89399302D01*
X154091078Y-90371297D01*
X154082754Y-90374600D01*
X154074656Y-90371174D01*
X153873355Y-90169873D01*
X153870075Y-90163451D01*
X153652169Y-88803537D01*
X153654244Y-88794828D01*
X153661871Y-88790135D01*
X153663704Y-88789988D01*
X154495846Y-88789297D01*
X154504122Y-88792717D01*
G37*
%TD.AperFunction*%
%TD*%
M02*
