%TF.GenerationSoftware,KiCad,Pcbnew,8.0.5*%
%TF.CreationDate,2025-06-06T16:31:12+09:00*%
%TF.ProjectId,e-con_hub,652d636f-6e5f-4687-9562-2e6b69636164,rev?*%
%TF.SameCoordinates,Original*%
%TF.FileFunction,Legend,Bot*%
%TF.FilePolarity,Positive*%
%FSLAX46Y46*%
G04 Gerber Fmt 4.6, Leading zero omitted, Abs format (unit mm)*
G04 Created by KiCad (PCBNEW 8.0.5) date 2025-06-06 16:31:12*
%MOMM*%
%LPD*%
G01*
G04 APERTURE LIST*
%ADD10C,0.100000*%
%ADD11C,0.150000*%
G04 APERTURE END LIST*
D10*
X174000000Y-86000000D02*
X173750000Y-85500000D01*
X176250000Y-88750000D02*
X172500000Y-88750000D01*
X182000000Y-89000000D02*
X181500000Y-89250000D01*
X150480000Y-89000000D02*
G75*
G02*
X148280000Y-89000000I-1100000J0D01*
G01*
X179000000Y-89000000D02*
X179500000Y-88750000D01*
X174000000Y-86000000D02*
X174000000Y-83000000D01*
X179000000Y-89000000D02*
X182000000Y-89000000D01*
X177750000Y-87250000D02*
X177250000Y-87500000D01*
X174000000Y-86000000D02*
X174250000Y-85500000D01*
X179000000Y-88000000D02*
X179000000Y-90000000D01*
X177750000Y-87250000D02*
X176250000Y-88750000D01*
X174000000Y-83000000D02*
X174250000Y-83500000D01*
X153020000Y-89000000D02*
X153020000Y-86000000D01*
X177750000Y-87250000D02*
X177500000Y-87750000D01*
X177000000Y-86000000D02*
X173250000Y-86000000D01*
X153020000Y-89000000D02*
G75*
G02*
X150820000Y-89000000I-1100000J0D01*
G01*
X148280000Y-86000000D02*
X148280000Y-89000000D01*
X150820000Y-86000000D02*
G75*
G02*
X153020000Y-86000000I1100000J0D01*
G01*
X150480000Y-89000000D02*
X150480000Y-86000000D01*
X179000000Y-89000000D02*
X179500000Y-89250000D01*
X148280000Y-86000000D02*
G75*
G02*
X150480000Y-86000000I1100000J0D01*
G01*
X174000000Y-83000000D02*
X173750000Y-83500000D01*
X150820000Y-86000000D02*
X150820000Y-89000000D01*
X182000000Y-89000000D02*
X181500000Y-88750000D01*
D11*
X181508458Y-91869819D02*
X181270363Y-92869819D01*
X181270363Y-92869819D02*
X181079887Y-92155533D01*
X181079887Y-92155533D02*
X180889411Y-92869819D01*
X180889411Y-92869819D02*
X180651316Y-91869819D01*
X179794173Y-91869819D02*
X180270363Y-91869819D01*
X180270363Y-91869819D02*
X180317982Y-92346009D01*
X180317982Y-92346009D02*
X180270363Y-92298390D01*
X180270363Y-92298390D02*
X180175125Y-92250771D01*
X180175125Y-92250771D02*
X179937030Y-92250771D01*
X179937030Y-92250771D02*
X179841792Y-92298390D01*
X179841792Y-92298390D02*
X179794173Y-92346009D01*
X179794173Y-92346009D02*
X179746554Y-92441247D01*
X179746554Y-92441247D02*
X179746554Y-92679342D01*
X179746554Y-92679342D02*
X179794173Y-92774580D01*
X179794173Y-92774580D02*
X179841792Y-92822200D01*
X179841792Y-92822200D02*
X179937030Y-92869819D01*
X179937030Y-92869819D02*
X180175125Y-92869819D01*
X180175125Y-92869819D02*
X180270363Y-92822200D01*
X180270363Y-92822200D02*
X180317982Y-92774580D01*
X178841792Y-91869819D02*
X179317982Y-91869819D01*
X179317982Y-91869819D02*
X179365601Y-92346009D01*
X179365601Y-92346009D02*
X179317982Y-92298390D01*
X179317982Y-92298390D02*
X179222744Y-92250771D01*
X179222744Y-92250771D02*
X178984649Y-92250771D01*
X178984649Y-92250771D02*
X178889411Y-92298390D01*
X178889411Y-92298390D02*
X178841792Y-92346009D01*
X178841792Y-92346009D02*
X178794173Y-92441247D01*
X178794173Y-92441247D02*
X178794173Y-92679342D01*
X178794173Y-92679342D02*
X178841792Y-92774580D01*
X178841792Y-92774580D02*
X178889411Y-92822200D01*
X178889411Y-92822200D02*
X178984649Y-92869819D01*
X178984649Y-92869819D02*
X179222744Y-92869819D01*
X179222744Y-92869819D02*
X179317982Y-92822200D01*
X179317982Y-92822200D02*
X179365601Y-92774580D01*
X177603696Y-92869819D02*
X177603696Y-91869819D01*
X177603696Y-92346009D02*
X177032268Y-92346009D01*
X177032268Y-92869819D02*
X177032268Y-91869819D01*
X176603696Y-91965057D02*
X176556077Y-91917438D01*
X176556077Y-91917438D02*
X176460839Y-91869819D01*
X176460839Y-91869819D02*
X176222744Y-91869819D01*
X176222744Y-91869819D02*
X176127506Y-91917438D01*
X176127506Y-91917438D02*
X176079887Y-91965057D01*
X176079887Y-91965057D02*
X176032268Y-92060295D01*
X176032268Y-92060295D02*
X176032268Y-92155533D01*
X176032268Y-92155533D02*
X176079887Y-92298390D01*
X176079887Y-92298390D02*
X176651315Y-92869819D01*
X176651315Y-92869819D02*
X176032268Y-92869819D01*
X175127506Y-91869819D02*
X175603696Y-91869819D01*
X175603696Y-91869819D02*
X175651315Y-92346009D01*
X175651315Y-92346009D02*
X175603696Y-92298390D01*
X175603696Y-92298390D02*
X175508458Y-92250771D01*
X175508458Y-92250771D02*
X175270363Y-92250771D01*
X175270363Y-92250771D02*
X175175125Y-92298390D01*
X175175125Y-92298390D02*
X175127506Y-92346009D01*
X175127506Y-92346009D02*
X175079887Y-92441247D01*
X175079887Y-92441247D02*
X175079887Y-92679342D01*
X175079887Y-92679342D02*
X175127506Y-92774580D01*
X175127506Y-92774580D02*
X175175125Y-92822200D01*
X175175125Y-92822200D02*
X175270363Y-92869819D01*
X175270363Y-92869819D02*
X175508458Y-92869819D01*
X175508458Y-92869819D02*
X175603696Y-92822200D01*
X175603696Y-92822200D02*
X175651315Y-92774580D01*
X174032267Y-92203152D02*
X173651315Y-92203152D01*
X173889410Y-91869819D02*
X173889410Y-92726961D01*
X173889410Y-92726961D02*
X173841791Y-92822200D01*
X173841791Y-92822200D02*
X173746553Y-92869819D01*
X173746553Y-92869819D02*
X173651315Y-92869819D01*
X172794172Y-92869819D02*
X173365600Y-92869819D01*
X173079886Y-92869819D02*
X173079886Y-91869819D01*
X173079886Y-91869819D02*
X173175124Y-92012676D01*
X173175124Y-92012676D02*
X173270362Y-92107914D01*
X173270362Y-92107914D02*
X173365600Y-92155533D01*
X172365600Y-92774580D02*
X172317981Y-92822200D01*
X172317981Y-92822200D02*
X172365600Y-92869819D01*
X172365600Y-92869819D02*
X172413219Y-92822200D01*
X172413219Y-92822200D02*
X172365600Y-92774580D01*
X172365600Y-92774580D02*
X172365600Y-92869819D01*
X171460839Y-91869819D02*
X171651315Y-91869819D01*
X171651315Y-91869819D02*
X171746553Y-91917438D01*
X171746553Y-91917438D02*
X171794172Y-91965057D01*
X171794172Y-91965057D02*
X171889410Y-92107914D01*
X171889410Y-92107914D02*
X171937029Y-92298390D01*
X171937029Y-92298390D02*
X171937029Y-92679342D01*
X171937029Y-92679342D02*
X171889410Y-92774580D01*
X171889410Y-92774580D02*
X171841791Y-92822200D01*
X171841791Y-92822200D02*
X171746553Y-92869819D01*
X171746553Y-92869819D02*
X171556077Y-92869819D01*
X171556077Y-92869819D02*
X171460839Y-92822200D01*
X171460839Y-92822200D02*
X171413220Y-92774580D01*
X171413220Y-92774580D02*
X171365601Y-92679342D01*
X171365601Y-92679342D02*
X171365601Y-92441247D01*
X171365601Y-92441247D02*
X171413220Y-92346009D01*
X171413220Y-92346009D02*
X171460839Y-92298390D01*
X171460839Y-92298390D02*
X171556077Y-92250771D01*
X171556077Y-92250771D02*
X171746553Y-92250771D01*
X171746553Y-92250771D02*
X171841791Y-92298390D01*
X171841791Y-92298390D02*
X171889410Y-92346009D01*
X171889410Y-92346009D02*
X171937029Y-92441247D01*
X154710839Y-83465057D02*
X154663220Y-83417438D01*
X154663220Y-83417438D02*
X154567982Y-83369819D01*
X154567982Y-83369819D02*
X154329887Y-83369819D01*
X154329887Y-83369819D02*
X154234649Y-83417438D01*
X154234649Y-83417438D02*
X154187030Y-83465057D01*
X154187030Y-83465057D02*
X154139411Y-83560295D01*
X154139411Y-83560295D02*
X154139411Y-83655533D01*
X154139411Y-83655533D02*
X154187030Y-83798390D01*
X154187030Y-83798390D02*
X154758458Y-84369819D01*
X154758458Y-84369819D02*
X154139411Y-84369819D01*
X174282268Y-105492200D02*
X174383458Y-105539819D01*
X174383458Y-105539819D02*
X174573935Y-105539819D01*
X174573935Y-105539819D02*
X174663220Y-105492200D01*
X174663220Y-105492200D02*
X174698935Y-105396961D01*
X174698935Y-105396961D02*
X174651316Y-105016009D01*
X174651316Y-105016009D02*
X174591792Y-104920771D01*
X174591792Y-104920771D02*
X174490601Y-104873152D01*
X174490601Y-104873152D02*
X174300125Y-104873152D01*
X174300125Y-104873152D02*
X174210839Y-104920771D01*
X174210839Y-104920771D02*
X174175125Y-105016009D01*
X174175125Y-105016009D02*
X174187030Y-105111247D01*
X174187030Y-105111247D02*
X174675125Y-105206485D01*
X173764411Y-105158866D02*
X173002506Y-105158866D01*
X171990601Y-105444580D02*
X172044173Y-105492200D01*
X172044173Y-105492200D02*
X172192982Y-105539819D01*
X172192982Y-105539819D02*
X172288220Y-105539819D01*
X172288220Y-105539819D02*
X172425125Y-105492200D01*
X172425125Y-105492200D02*
X172508458Y-105396961D01*
X172508458Y-105396961D02*
X172544173Y-105301723D01*
X172544173Y-105301723D02*
X172567982Y-105111247D01*
X172567982Y-105111247D02*
X172550125Y-104968390D01*
X172550125Y-104968390D02*
X172478697Y-104777914D01*
X172478697Y-104777914D02*
X172419173Y-104682676D01*
X172419173Y-104682676D02*
X172312030Y-104587438D01*
X172312030Y-104587438D02*
X172163220Y-104539819D01*
X172163220Y-104539819D02*
X172067982Y-104539819D01*
X172067982Y-104539819D02*
X171931078Y-104587438D01*
X171931078Y-104587438D02*
X171889411Y-104635057D01*
X171258458Y-104539819D02*
X171067982Y-104539819D01*
X171067982Y-104539819D02*
X170978697Y-104587438D01*
X170978697Y-104587438D02*
X170895363Y-104682676D01*
X170895363Y-104682676D02*
X170871554Y-104873152D01*
X170871554Y-104873152D02*
X170913220Y-105206485D01*
X170913220Y-105206485D02*
X170984649Y-105396961D01*
X170984649Y-105396961D02*
X171091792Y-105492200D01*
X171091792Y-105492200D02*
X171192982Y-105539819D01*
X171192982Y-105539819D02*
X171383458Y-105539819D01*
X171383458Y-105539819D02*
X171472744Y-105492200D01*
X171472744Y-105492200D02*
X171556078Y-105396961D01*
X171556078Y-105396961D02*
X171579887Y-105206485D01*
X171579887Y-105206485D02*
X171538220Y-104873152D01*
X171538220Y-104873152D02*
X171466792Y-104682676D01*
X171466792Y-104682676D02*
X171359649Y-104587438D01*
X171359649Y-104587438D02*
X171258458Y-104539819D01*
X170526316Y-105539819D02*
X170401316Y-104539819D01*
X170401316Y-104539819D02*
X169954887Y-105539819D01*
X169954887Y-105539819D02*
X169829887Y-104539819D01*
X168716792Y-105539819D02*
X168591792Y-104539819D01*
X168651315Y-105016009D02*
X168079887Y-105016009D01*
X168145363Y-105539819D02*
X168020363Y-104539819D01*
X167157268Y-104873152D02*
X167240601Y-105539819D01*
X167585839Y-104873152D02*
X167651316Y-105396961D01*
X167651316Y-105396961D02*
X167615601Y-105492200D01*
X167615601Y-105492200D02*
X167526316Y-105539819D01*
X167526316Y-105539819D02*
X167383458Y-105539819D01*
X167383458Y-105539819D02*
X167282268Y-105492200D01*
X167282268Y-105492200D02*
X167228696Y-105444580D01*
X166764411Y-105539819D02*
X166639411Y-104539819D01*
X166687030Y-104920771D02*
X166585839Y-104873152D01*
X166585839Y-104873152D02*
X166395363Y-104873152D01*
X166395363Y-104873152D02*
X166306077Y-104920771D01*
X166306077Y-104920771D02*
X166264411Y-104968390D01*
X166264411Y-104968390D02*
X166228696Y-105063628D01*
X166228696Y-105063628D02*
X166264411Y-105349342D01*
X166264411Y-105349342D02*
X166323934Y-105444580D01*
X166323934Y-105444580D02*
X166377506Y-105492200D01*
X166377506Y-105492200D02*
X166478696Y-105539819D01*
X166478696Y-105539819D02*
X166669173Y-105539819D01*
X166669173Y-105539819D02*
X166758458Y-105492200D01*
X164698934Y-105016009D02*
X164562029Y-105063628D01*
X164562029Y-105063628D02*
X164520363Y-105111247D01*
X164520363Y-105111247D02*
X164484648Y-105206485D01*
X164484648Y-105206485D02*
X164502506Y-105349342D01*
X164502506Y-105349342D02*
X164562029Y-105444580D01*
X164562029Y-105444580D02*
X164615601Y-105492200D01*
X164615601Y-105492200D02*
X164716791Y-105539819D01*
X164716791Y-105539819D02*
X165097744Y-105539819D01*
X165097744Y-105539819D02*
X164972744Y-104539819D01*
X164972744Y-104539819D02*
X164639410Y-104539819D01*
X164639410Y-104539819D02*
X164550125Y-104587438D01*
X164550125Y-104587438D02*
X164508458Y-104635057D01*
X164508458Y-104635057D02*
X164472744Y-104730295D01*
X164472744Y-104730295D02*
X164484648Y-104825533D01*
X164484648Y-104825533D02*
X164544172Y-104920771D01*
X164544172Y-104920771D02*
X164597744Y-104968390D01*
X164597744Y-104968390D02*
X164698934Y-105016009D01*
X164698934Y-105016009D02*
X165032267Y-105016009D01*
X163954887Y-105539819D02*
X164044172Y-105492200D01*
X164044172Y-105492200D02*
X164085839Y-105444580D01*
X164085839Y-105444580D02*
X164121553Y-105349342D01*
X164121553Y-105349342D02*
X164085839Y-105063628D01*
X164085839Y-105063628D02*
X164026315Y-104968390D01*
X164026315Y-104968390D02*
X163972744Y-104920771D01*
X163972744Y-104920771D02*
X163871553Y-104873152D01*
X163871553Y-104873152D02*
X163728696Y-104873152D01*
X163728696Y-104873152D02*
X163639410Y-104920771D01*
X163639410Y-104920771D02*
X163597744Y-104968390D01*
X163597744Y-104968390D02*
X163562029Y-105063628D01*
X163562029Y-105063628D02*
X163597744Y-105349342D01*
X163597744Y-105349342D02*
X163657267Y-105444580D01*
X163657267Y-105444580D02*
X163710839Y-105492200D01*
X163710839Y-105492200D02*
X163812029Y-105539819D01*
X163812029Y-105539819D02*
X163954887Y-105539819D01*
X162764410Y-105539819D02*
X162698934Y-105016009D01*
X162698934Y-105016009D02*
X162734648Y-104920771D01*
X162734648Y-104920771D02*
X162823934Y-104873152D01*
X162823934Y-104873152D02*
X163014410Y-104873152D01*
X163014410Y-104873152D02*
X163115601Y-104920771D01*
X162758458Y-105492200D02*
X162859648Y-105539819D01*
X162859648Y-105539819D02*
X163097744Y-105539819D01*
X163097744Y-105539819D02*
X163187029Y-105492200D01*
X163187029Y-105492200D02*
X163222744Y-105396961D01*
X163222744Y-105396961D02*
X163210839Y-105301723D01*
X163210839Y-105301723D02*
X163151315Y-105206485D01*
X163151315Y-105206485D02*
X163050125Y-105158866D01*
X163050125Y-105158866D02*
X162812029Y-105158866D01*
X162812029Y-105158866D02*
X162710839Y-105111247D01*
X162288220Y-105539819D02*
X162204886Y-104873152D01*
X162228696Y-105063628D02*
X162169172Y-104968390D01*
X162169172Y-104968390D02*
X162115601Y-104920771D01*
X162115601Y-104920771D02*
X162014410Y-104873152D01*
X162014410Y-104873152D02*
X161919172Y-104873152D01*
X161240600Y-105539819D02*
X161115600Y-104539819D01*
X161234648Y-105492200D02*
X161335838Y-105539819D01*
X161335838Y-105539819D02*
X161526315Y-105539819D01*
X161526315Y-105539819D02*
X161615600Y-105492200D01*
X161615600Y-105492200D02*
X161657267Y-105444580D01*
X161657267Y-105444580D02*
X161692981Y-105349342D01*
X161692981Y-105349342D02*
X161657267Y-105063628D01*
X161657267Y-105063628D02*
X161597743Y-104968390D01*
X161597743Y-104968390D02*
X161544172Y-104920771D01*
X161544172Y-104920771D02*
X161442981Y-104873152D01*
X161442981Y-104873152D02*
X161252505Y-104873152D01*
X161252505Y-104873152D02*
X161163219Y-104920771D01*
X160020362Y-104539819D02*
X159812028Y-105539819D01*
X159812028Y-105539819D02*
X159353695Y-104539819D01*
X158758457Y-105492200D02*
X158859647Y-105539819D01*
X158859647Y-105539819D02*
X159050124Y-105539819D01*
X159050124Y-105539819D02*
X159139409Y-105492200D01*
X159139409Y-105492200D02*
X159175124Y-105396961D01*
X159175124Y-105396961D02*
X159127505Y-105016009D01*
X159127505Y-105016009D02*
X159067981Y-104920771D01*
X159067981Y-104920771D02*
X158966790Y-104873152D01*
X158966790Y-104873152D02*
X158776314Y-104873152D01*
X158776314Y-104873152D02*
X158687028Y-104920771D01*
X158687028Y-104920771D02*
X158651314Y-105016009D01*
X158651314Y-105016009D02*
X158663219Y-105111247D01*
X158663219Y-105111247D02*
X159151314Y-105206485D01*
X158288219Y-105539819D02*
X158204885Y-104873152D01*
X158228695Y-105063628D02*
X158169171Y-104968390D01*
X158169171Y-104968390D02*
X158115600Y-104920771D01*
X158115600Y-104920771D02*
X158014409Y-104873152D01*
X158014409Y-104873152D02*
X157919171Y-104873152D01*
X157145361Y-105539819D02*
X157716790Y-105539819D01*
X157431075Y-105539819D02*
X157306075Y-104539819D01*
X157306075Y-104539819D02*
X157419171Y-104682676D01*
X157419171Y-104682676D02*
X157526314Y-104777914D01*
X157526314Y-104777914D02*
X157627504Y-104825533D01*
X156704885Y-105444580D02*
X156663218Y-105492200D01*
X156663218Y-105492200D02*
X156716790Y-105539819D01*
X156716790Y-105539819D02*
X156758456Y-105492200D01*
X156758456Y-105492200D02*
X156704885Y-105444580D01*
X156704885Y-105444580D02*
X156716790Y-105539819D01*
X155716790Y-105539819D02*
X156288219Y-105539819D01*
X156002504Y-105539819D02*
X155877504Y-104539819D01*
X155877504Y-104539819D02*
X155990600Y-104682676D01*
X155990600Y-104682676D02*
X156097743Y-104777914D01*
X156097743Y-104777914D02*
X156198933Y-104825533D01*
X154460837Y-104635057D02*
X154407266Y-104587438D01*
X154407266Y-104587438D02*
X154306076Y-104539819D01*
X154306076Y-104539819D02*
X154067980Y-104539819D01*
X154067980Y-104539819D02*
X153978695Y-104587438D01*
X153978695Y-104587438D02*
X153937028Y-104635057D01*
X153937028Y-104635057D02*
X153901314Y-104730295D01*
X153901314Y-104730295D02*
X153913218Y-104825533D01*
X153913218Y-104825533D02*
X153978695Y-104968390D01*
X153978695Y-104968390D02*
X154621552Y-105539819D01*
X154621552Y-105539819D02*
X154002504Y-105539819D01*
X153258456Y-104539819D02*
X153163218Y-104539819D01*
X153163218Y-104539819D02*
X153073933Y-104587438D01*
X153073933Y-104587438D02*
X153032266Y-104635057D01*
X153032266Y-104635057D02*
X152996552Y-104730295D01*
X152996552Y-104730295D02*
X152972742Y-104920771D01*
X152972742Y-104920771D02*
X153002504Y-105158866D01*
X153002504Y-105158866D02*
X153073933Y-105349342D01*
X153073933Y-105349342D02*
X153133456Y-105444580D01*
X153133456Y-105444580D02*
X153187028Y-105492200D01*
X153187028Y-105492200D02*
X153288218Y-105539819D01*
X153288218Y-105539819D02*
X153383456Y-105539819D01*
X153383456Y-105539819D02*
X153472742Y-105492200D01*
X153472742Y-105492200D02*
X153514409Y-105444580D01*
X153514409Y-105444580D02*
X153550123Y-105349342D01*
X153550123Y-105349342D02*
X153573933Y-105158866D01*
X153573933Y-105158866D02*
X153544171Y-104920771D01*
X153544171Y-104920771D02*
X153472742Y-104730295D01*
X153472742Y-104730295D02*
X153413218Y-104635057D01*
X153413218Y-104635057D02*
X153359647Y-104587438D01*
X153359647Y-104587438D02*
X153258456Y-104539819D01*
X152556075Y-104635057D02*
X152502504Y-104587438D01*
X152502504Y-104587438D02*
X152401314Y-104539819D01*
X152401314Y-104539819D02*
X152163218Y-104539819D01*
X152163218Y-104539819D02*
X152073933Y-104587438D01*
X152073933Y-104587438D02*
X152032266Y-104635057D01*
X152032266Y-104635057D02*
X151996552Y-104730295D01*
X151996552Y-104730295D02*
X152008456Y-104825533D01*
X152008456Y-104825533D02*
X152073933Y-104968390D01*
X152073933Y-104968390D02*
X152716790Y-105539819D01*
X152716790Y-105539819D02*
X152097742Y-105539819D01*
X151067980Y-104539819D02*
X151544171Y-104539819D01*
X151544171Y-104539819D02*
X151651314Y-105016009D01*
X151651314Y-105016009D02*
X151597742Y-104968390D01*
X151597742Y-104968390D02*
X151496552Y-104920771D01*
X151496552Y-104920771D02*
X151258456Y-104920771D01*
X151258456Y-104920771D02*
X151169171Y-104968390D01*
X151169171Y-104968390D02*
X151127504Y-105016009D01*
X151127504Y-105016009D02*
X151091790Y-105111247D01*
X151091790Y-105111247D02*
X151121552Y-105349342D01*
X151121552Y-105349342D02*
X151181075Y-105444580D01*
X151181075Y-105444580D02*
X151234647Y-105492200D01*
X151234647Y-105492200D02*
X151335837Y-105539819D01*
X151335837Y-105539819D02*
X151573933Y-105539819D01*
X151573933Y-105539819D02*
X151663218Y-105492200D01*
X151663218Y-105492200D02*
X151704885Y-105444580D01*
X149871552Y-104492200D02*
X150889409Y-105777914D01*
X149353694Y-104539819D02*
X149258456Y-104539819D01*
X149258456Y-104539819D02*
X149169171Y-104587438D01*
X149169171Y-104587438D02*
X149127504Y-104635057D01*
X149127504Y-104635057D02*
X149091790Y-104730295D01*
X149091790Y-104730295D02*
X149067980Y-104920771D01*
X149067980Y-104920771D02*
X149097742Y-105158866D01*
X149097742Y-105158866D02*
X149169171Y-105349342D01*
X149169171Y-105349342D02*
X149228694Y-105444580D01*
X149228694Y-105444580D02*
X149282266Y-105492200D01*
X149282266Y-105492200D02*
X149383456Y-105539819D01*
X149383456Y-105539819D02*
X149478694Y-105539819D01*
X149478694Y-105539819D02*
X149567980Y-105492200D01*
X149567980Y-105492200D02*
X149609647Y-105444580D01*
X149609647Y-105444580D02*
X149645361Y-105349342D01*
X149645361Y-105349342D02*
X149669171Y-105158866D01*
X149669171Y-105158866D02*
X149639409Y-104920771D01*
X149639409Y-104920771D02*
X149567980Y-104730295D01*
X149567980Y-104730295D02*
X149508456Y-104635057D01*
X149508456Y-104635057D02*
X149454885Y-104587438D01*
X149454885Y-104587438D02*
X149353694Y-104539819D01*
X148163218Y-104539819D02*
X148353694Y-104539819D01*
X148353694Y-104539819D02*
X148454885Y-104587438D01*
X148454885Y-104587438D02*
X148508456Y-104635057D01*
X148508456Y-104635057D02*
X148621552Y-104777914D01*
X148621552Y-104777914D02*
X148692980Y-104968390D01*
X148692980Y-104968390D02*
X148740599Y-105349342D01*
X148740599Y-105349342D02*
X148704885Y-105444580D01*
X148704885Y-105444580D02*
X148663218Y-105492200D01*
X148663218Y-105492200D02*
X148573933Y-105539819D01*
X148573933Y-105539819D02*
X148383456Y-105539819D01*
X148383456Y-105539819D02*
X148282266Y-105492200D01*
X148282266Y-105492200D02*
X148228694Y-105444580D01*
X148228694Y-105444580D02*
X148169171Y-105349342D01*
X148169171Y-105349342D02*
X148139409Y-105111247D01*
X148139409Y-105111247D02*
X148175123Y-105016009D01*
X148175123Y-105016009D02*
X148216790Y-104968390D01*
X148216790Y-104968390D02*
X148306075Y-104920771D01*
X148306075Y-104920771D02*
X148496552Y-104920771D01*
X148496552Y-104920771D02*
X148597742Y-104968390D01*
X148597742Y-104968390D02*
X148651313Y-105016009D01*
X148651313Y-105016009D02*
X148710837Y-105111247D01*
X146919171Y-104492200D02*
X147937028Y-105777914D01*
X146401313Y-104539819D02*
X146306075Y-104539819D01*
X146306075Y-104539819D02*
X146216790Y-104587438D01*
X146216790Y-104587438D02*
X146175123Y-104635057D01*
X146175123Y-104635057D02*
X146139409Y-104730295D01*
X146139409Y-104730295D02*
X146115599Y-104920771D01*
X146115599Y-104920771D02*
X146145361Y-105158866D01*
X146145361Y-105158866D02*
X146216790Y-105349342D01*
X146216790Y-105349342D02*
X146276313Y-105444580D01*
X146276313Y-105444580D02*
X146329885Y-105492200D01*
X146329885Y-105492200D02*
X146431075Y-105539819D01*
X146431075Y-105539819D02*
X146526313Y-105539819D01*
X146526313Y-105539819D02*
X146615599Y-105492200D01*
X146615599Y-105492200D02*
X146657266Y-105444580D01*
X146657266Y-105444580D02*
X146692980Y-105349342D01*
X146692980Y-105349342D02*
X146716790Y-105158866D01*
X146716790Y-105158866D02*
X146687028Y-104920771D01*
X146687028Y-104920771D02*
X146615599Y-104730295D01*
X146615599Y-104730295D02*
X146556075Y-104635057D01*
X146556075Y-104635057D02*
X146502504Y-104587438D01*
X146502504Y-104587438D02*
X146401313Y-104539819D01*
X145210837Y-104539819D02*
X145401313Y-104539819D01*
X145401313Y-104539819D02*
X145502504Y-104587438D01*
X145502504Y-104587438D02*
X145556075Y-104635057D01*
X145556075Y-104635057D02*
X145669171Y-104777914D01*
X145669171Y-104777914D02*
X145740599Y-104968390D01*
X145740599Y-104968390D02*
X145788218Y-105349342D01*
X145788218Y-105349342D02*
X145752504Y-105444580D01*
X145752504Y-105444580D02*
X145710837Y-105492200D01*
X145710837Y-105492200D02*
X145621552Y-105539819D01*
X145621552Y-105539819D02*
X145431075Y-105539819D01*
X145431075Y-105539819D02*
X145329885Y-105492200D01*
X145329885Y-105492200D02*
X145276313Y-105444580D01*
X145276313Y-105444580D02*
X145216790Y-105349342D01*
X145216790Y-105349342D02*
X145187028Y-105111247D01*
X145187028Y-105111247D02*
X145222742Y-105016009D01*
X145222742Y-105016009D02*
X145264409Y-104968390D01*
X145264409Y-104968390D02*
X145353694Y-104920771D01*
X145353694Y-104920771D02*
X145544171Y-104920771D01*
X145544171Y-104920771D02*
X145645361Y-104968390D01*
X145645361Y-104968390D02*
X145698932Y-105016009D01*
X145698932Y-105016009D02*
X145758456Y-105111247D01*
X174669173Y-107149763D02*
X174544173Y-106149763D01*
X174240601Y-107149763D02*
X174175125Y-106625953D01*
X174175125Y-106625953D02*
X174210839Y-106530715D01*
X174210839Y-106530715D02*
X174300125Y-106483096D01*
X174300125Y-106483096D02*
X174442982Y-106483096D01*
X174442982Y-106483096D02*
X174544173Y-106530715D01*
X174544173Y-106530715D02*
X174597744Y-106578334D01*
X173823934Y-106483096D02*
X173442982Y-106483096D01*
X173639411Y-106149763D02*
X173746554Y-107006905D01*
X173746554Y-107006905D02*
X173710839Y-107102144D01*
X173710839Y-107102144D02*
X173621554Y-107149763D01*
X173621554Y-107149763D02*
X173526315Y-107149763D01*
X173252505Y-106483096D02*
X172871553Y-106483096D01*
X173067982Y-106149763D02*
X173175125Y-107006905D01*
X173175125Y-107006905D02*
X173139410Y-107102144D01*
X173139410Y-107102144D02*
X173050125Y-107149763D01*
X173050125Y-107149763D02*
X172954886Y-107149763D01*
X172538219Y-106483096D02*
X172663219Y-107483096D01*
X172544172Y-106530715D02*
X172442981Y-106483096D01*
X172442981Y-106483096D02*
X172252505Y-106483096D01*
X172252505Y-106483096D02*
X172163219Y-106530715D01*
X172163219Y-106530715D02*
X172121553Y-106578334D01*
X172121553Y-106578334D02*
X172085838Y-106673572D01*
X172085838Y-106673572D02*
X172121553Y-106959286D01*
X172121553Y-106959286D02*
X172181076Y-107054524D01*
X172181076Y-107054524D02*
X172234648Y-107102144D01*
X172234648Y-107102144D02*
X172335838Y-107149763D01*
X172335838Y-107149763D02*
X172526315Y-107149763D01*
X172526315Y-107149763D02*
X172615600Y-107102144D01*
X171758457Y-107102144D02*
X171669172Y-107149763D01*
X171669172Y-107149763D02*
X171478695Y-107149763D01*
X171478695Y-107149763D02*
X171377505Y-107102144D01*
X171377505Y-107102144D02*
X171317981Y-107006905D01*
X171317981Y-107006905D02*
X171312029Y-106959286D01*
X171312029Y-106959286D02*
X171347743Y-106864048D01*
X171347743Y-106864048D02*
X171437029Y-106816429D01*
X171437029Y-106816429D02*
X171579886Y-106816429D01*
X171579886Y-106816429D02*
X171669172Y-106768810D01*
X171669172Y-106768810D02*
X171704886Y-106673572D01*
X171704886Y-106673572D02*
X171698934Y-106625953D01*
X171698934Y-106625953D02*
X171639410Y-106530715D01*
X171639410Y-106530715D02*
X171538219Y-106483096D01*
X171538219Y-106483096D02*
X171395362Y-106483096D01*
X171395362Y-106483096D02*
X171306076Y-106530715D01*
X170895362Y-107054524D02*
X170853695Y-107102144D01*
X170853695Y-107102144D02*
X170907267Y-107149763D01*
X170907267Y-107149763D02*
X170948933Y-107102144D01*
X170948933Y-107102144D02*
X170895362Y-107054524D01*
X170895362Y-107054524D02*
X170907267Y-107149763D01*
X170829886Y-106530715D02*
X170788219Y-106578334D01*
X170788219Y-106578334D02*
X170841790Y-106625953D01*
X170841790Y-106625953D02*
X170883457Y-106578334D01*
X170883457Y-106578334D02*
X170829886Y-106530715D01*
X170829886Y-106530715D02*
X170841790Y-106625953D01*
X169585839Y-106102144D02*
X170603696Y-107387858D01*
X168538220Y-106102144D02*
X169556077Y-107387858D01*
X167823934Y-106483096D02*
X167925124Y-107292620D01*
X167925124Y-107292620D02*
X167984648Y-107387858D01*
X167984648Y-107387858D02*
X168038220Y-107435477D01*
X168038220Y-107435477D02*
X168139410Y-107483096D01*
X168139410Y-107483096D02*
X168282267Y-107483096D01*
X168282267Y-107483096D02*
X168371553Y-107435477D01*
X167901315Y-107102144D02*
X168002505Y-107149763D01*
X168002505Y-107149763D02*
X168192982Y-107149763D01*
X168192982Y-107149763D02*
X168282267Y-107102144D01*
X168282267Y-107102144D02*
X168323934Y-107054524D01*
X168323934Y-107054524D02*
X168359648Y-106959286D01*
X168359648Y-106959286D02*
X168323934Y-106673572D01*
X168323934Y-106673572D02*
X168264410Y-106578334D01*
X168264410Y-106578334D02*
X168210839Y-106530715D01*
X168210839Y-106530715D02*
X168109648Y-106483096D01*
X168109648Y-106483096D02*
X167919172Y-106483096D01*
X167919172Y-106483096D02*
X167829886Y-106530715D01*
X167431077Y-107149763D02*
X167347743Y-106483096D01*
X167306077Y-106149763D02*
X167359648Y-106197382D01*
X167359648Y-106197382D02*
X167317981Y-106245001D01*
X167317981Y-106245001D02*
X167264410Y-106197382D01*
X167264410Y-106197382D02*
X167306077Y-106149763D01*
X167306077Y-106149763D02*
X167317981Y-106245001D01*
X167014410Y-106483096D02*
X166633458Y-106483096D01*
X166829887Y-106149763D02*
X166937030Y-107006905D01*
X166937030Y-107006905D02*
X166901315Y-107102144D01*
X166901315Y-107102144D02*
X166812030Y-107149763D01*
X166812030Y-107149763D02*
X166716791Y-107149763D01*
X166383458Y-107149763D02*
X166258458Y-106149763D01*
X165954886Y-107149763D02*
X165889410Y-106625953D01*
X165889410Y-106625953D02*
X165925124Y-106530715D01*
X165925124Y-106530715D02*
X166014410Y-106483096D01*
X166014410Y-106483096D02*
X166157267Y-106483096D01*
X166157267Y-106483096D02*
X166258458Y-106530715D01*
X166258458Y-106530715D02*
X166312029Y-106578334D01*
X164966791Y-106483096D02*
X165050124Y-107149763D01*
X165395362Y-106483096D02*
X165460839Y-107006905D01*
X165460839Y-107006905D02*
X165425124Y-107102144D01*
X165425124Y-107102144D02*
X165335839Y-107149763D01*
X165335839Y-107149763D02*
X165192981Y-107149763D01*
X165192981Y-107149763D02*
X165091791Y-107102144D01*
X165091791Y-107102144D02*
X165038219Y-107054524D01*
X164573934Y-107149763D02*
X164448934Y-106149763D01*
X164496553Y-106530715D02*
X164395362Y-106483096D01*
X164395362Y-106483096D02*
X164204886Y-106483096D01*
X164204886Y-106483096D02*
X164115600Y-106530715D01*
X164115600Y-106530715D02*
X164073934Y-106578334D01*
X164073934Y-106578334D02*
X164038219Y-106673572D01*
X164038219Y-106673572D02*
X164073934Y-106959286D01*
X164073934Y-106959286D02*
X164133457Y-107054524D01*
X164133457Y-107054524D02*
X164187029Y-107102144D01*
X164187029Y-107102144D02*
X164288219Y-107149763D01*
X164288219Y-107149763D02*
X164478696Y-107149763D01*
X164478696Y-107149763D02*
X164567981Y-107102144D01*
X163657267Y-107054524D02*
X163615600Y-107102144D01*
X163615600Y-107102144D02*
X163669172Y-107149763D01*
X163669172Y-107149763D02*
X163710838Y-107102144D01*
X163710838Y-107102144D02*
X163657267Y-107054524D01*
X163657267Y-107054524D02*
X163669172Y-107149763D01*
X162758458Y-107102144D02*
X162859648Y-107149763D01*
X162859648Y-107149763D02*
X163050125Y-107149763D01*
X163050125Y-107149763D02*
X163139410Y-107102144D01*
X163139410Y-107102144D02*
X163181077Y-107054524D01*
X163181077Y-107054524D02*
X163216791Y-106959286D01*
X163216791Y-106959286D02*
X163181077Y-106673572D01*
X163181077Y-106673572D02*
X163121553Y-106578334D01*
X163121553Y-106578334D02*
X163067982Y-106530715D01*
X163067982Y-106530715D02*
X162966791Y-106483096D01*
X162966791Y-106483096D02*
X162776315Y-106483096D01*
X162776315Y-106483096D02*
X162687029Y-106530715D01*
X162192982Y-107149763D02*
X162282267Y-107102144D01*
X162282267Y-107102144D02*
X162323934Y-107054524D01*
X162323934Y-107054524D02*
X162359648Y-106959286D01*
X162359648Y-106959286D02*
X162323934Y-106673572D01*
X162323934Y-106673572D02*
X162264410Y-106578334D01*
X162264410Y-106578334D02*
X162210839Y-106530715D01*
X162210839Y-106530715D02*
X162109648Y-106483096D01*
X162109648Y-106483096D02*
X161966791Y-106483096D01*
X161966791Y-106483096D02*
X161877505Y-106530715D01*
X161877505Y-106530715D02*
X161835839Y-106578334D01*
X161835839Y-106578334D02*
X161800124Y-106673572D01*
X161800124Y-106673572D02*
X161835839Y-106959286D01*
X161835839Y-106959286D02*
X161895362Y-107054524D01*
X161895362Y-107054524D02*
X161948934Y-107102144D01*
X161948934Y-107102144D02*
X162050124Y-107149763D01*
X162050124Y-107149763D02*
X162192982Y-107149763D01*
X161431077Y-107149763D02*
X161347743Y-106483096D01*
X161359648Y-106578334D02*
X161306077Y-106530715D01*
X161306077Y-106530715D02*
X161204886Y-106483096D01*
X161204886Y-106483096D02*
X161062029Y-106483096D01*
X161062029Y-106483096D02*
X160972743Y-106530715D01*
X160972743Y-106530715D02*
X160937029Y-106625953D01*
X160937029Y-106625953D02*
X161002505Y-107149763D01*
X160937029Y-106625953D02*
X160877505Y-106530715D01*
X160877505Y-106530715D02*
X160776315Y-106483096D01*
X160776315Y-106483096D02*
X160633458Y-106483096D01*
X160633458Y-106483096D02*
X160544172Y-106530715D01*
X160544172Y-106530715D02*
X160508458Y-106625953D01*
X160508458Y-106625953D02*
X160573934Y-107149763D01*
X159252506Y-106102144D02*
X160270363Y-107387858D01*
X159062029Y-106864048D02*
X158585839Y-106864048D01*
X159192982Y-107149763D02*
X158734648Y-106149763D01*
X158734648Y-106149763D02*
X158526315Y-107149763D01*
X158192982Y-107149763D02*
X158067982Y-106149763D01*
X158050125Y-106768810D02*
X157812029Y-107149763D01*
X157728696Y-106483096D02*
X158157267Y-106864048D01*
X156871553Y-106483096D02*
X156954886Y-107149763D01*
X157300124Y-106483096D02*
X157365601Y-107006905D01*
X157365601Y-107006905D02*
X157329886Y-107102144D01*
X157329886Y-107102144D02*
X157240601Y-107149763D01*
X157240601Y-107149763D02*
X157097743Y-107149763D01*
X157097743Y-107149763D02*
X156996553Y-107102144D01*
X156996553Y-107102144D02*
X156942981Y-107054524D01*
X156538219Y-106483096D02*
X156157267Y-106483096D01*
X156353696Y-106149763D02*
X156460839Y-107006905D01*
X156460839Y-107006905D02*
X156425124Y-107102144D01*
X156425124Y-107102144D02*
X156335839Y-107149763D01*
X156335839Y-107149763D02*
X156240600Y-107149763D01*
X155478695Y-107149763D02*
X155413219Y-106625953D01*
X155413219Y-106625953D02*
X155448933Y-106530715D01*
X155448933Y-106530715D02*
X155538219Y-106483096D01*
X155538219Y-106483096D02*
X155728695Y-106483096D01*
X155728695Y-106483096D02*
X155829886Y-106530715D01*
X155472743Y-107102144D02*
X155573933Y-107149763D01*
X155573933Y-107149763D02*
X155812029Y-107149763D01*
X155812029Y-107149763D02*
X155901314Y-107102144D01*
X155901314Y-107102144D02*
X155937029Y-107006905D01*
X155937029Y-107006905D02*
X155925124Y-106911667D01*
X155925124Y-106911667D02*
X155865600Y-106816429D01*
X155865600Y-106816429D02*
X155764410Y-106768810D01*
X155764410Y-106768810D02*
X155526314Y-106768810D01*
X155526314Y-106768810D02*
X155425124Y-106721191D01*
X154490600Y-106483096D02*
X154591790Y-107292620D01*
X154591790Y-107292620D02*
X154651314Y-107387858D01*
X154651314Y-107387858D02*
X154704886Y-107435477D01*
X154704886Y-107435477D02*
X154806076Y-107483096D01*
X154806076Y-107483096D02*
X154948933Y-107483096D01*
X154948933Y-107483096D02*
X155038219Y-107435477D01*
X154567981Y-107102144D02*
X154669171Y-107149763D01*
X154669171Y-107149763D02*
X154859648Y-107149763D01*
X154859648Y-107149763D02*
X154948933Y-107102144D01*
X154948933Y-107102144D02*
X154990600Y-107054524D01*
X154990600Y-107054524D02*
X155026314Y-106959286D01*
X155026314Y-106959286D02*
X154990600Y-106673572D01*
X154990600Y-106673572D02*
X154931076Y-106578334D01*
X154931076Y-106578334D02*
X154877505Y-106530715D01*
X154877505Y-106530715D02*
X154776314Y-106483096D01*
X154776314Y-106483096D02*
X154585838Y-106483096D01*
X154585838Y-106483096D02*
X154496552Y-106530715D01*
X153669171Y-107149763D02*
X153603695Y-106625953D01*
X153603695Y-106625953D02*
X153639409Y-106530715D01*
X153639409Y-106530715D02*
X153728695Y-106483096D01*
X153728695Y-106483096D02*
X153919171Y-106483096D01*
X153919171Y-106483096D02*
X154020362Y-106530715D01*
X153663219Y-107102144D02*
X153764409Y-107149763D01*
X153764409Y-107149763D02*
X154002505Y-107149763D01*
X154002505Y-107149763D02*
X154091790Y-107102144D01*
X154091790Y-107102144D02*
X154127505Y-107006905D01*
X154127505Y-107006905D02*
X154115600Y-106911667D01*
X154115600Y-106911667D02*
X154056076Y-106816429D01*
X154056076Y-106816429D02*
X153954886Y-106768810D01*
X153954886Y-106768810D02*
X153716790Y-106768810D01*
X153716790Y-106768810D02*
X153615600Y-106721191D01*
X153204885Y-106483096D02*
X153097743Y-107149763D01*
X153097743Y-107149763D02*
X152847743Y-106673572D01*
X152847743Y-106673572D02*
X152716790Y-107149763D01*
X152716790Y-107149763D02*
X152442981Y-106483096D01*
X151716790Y-107149763D02*
X151651314Y-106625953D01*
X151651314Y-106625953D02*
X151687028Y-106530715D01*
X151687028Y-106530715D02*
X151776314Y-106483096D01*
X151776314Y-106483096D02*
X151966790Y-106483096D01*
X151966790Y-106483096D02*
X152067981Y-106530715D01*
X151710838Y-107102144D02*
X151812028Y-107149763D01*
X151812028Y-107149763D02*
X152050124Y-107149763D01*
X152050124Y-107149763D02*
X152139409Y-107102144D01*
X152139409Y-107102144D02*
X152175124Y-107006905D01*
X152175124Y-107006905D02*
X152163219Y-106911667D01*
X152163219Y-106911667D02*
X152103695Y-106816429D01*
X152103695Y-106816429D02*
X152002505Y-106768810D01*
X152002505Y-106768810D02*
X151764409Y-106768810D01*
X151764409Y-106768810D02*
X151663219Y-106721191D01*
X150639409Y-106149763D02*
X151115600Y-106149763D01*
X151115600Y-106149763D02*
X151222743Y-106625953D01*
X151222743Y-106625953D02*
X151169171Y-106578334D01*
X151169171Y-106578334D02*
X151067981Y-106530715D01*
X151067981Y-106530715D02*
X150829885Y-106530715D01*
X150829885Y-106530715D02*
X150740600Y-106578334D01*
X150740600Y-106578334D02*
X150698933Y-106625953D01*
X150698933Y-106625953D02*
X150663219Y-106721191D01*
X150663219Y-106721191D02*
X150692981Y-106959286D01*
X150692981Y-106959286D02*
X150752504Y-107054524D01*
X150752504Y-107054524D02*
X150806076Y-107102144D01*
X150806076Y-107102144D02*
X150907266Y-107149763D01*
X150907266Y-107149763D02*
X151145362Y-107149763D01*
X151145362Y-107149763D02*
X151234647Y-107102144D01*
X151234647Y-107102144D02*
X151276314Y-107054524D01*
X149972742Y-106149763D02*
X149877504Y-106149763D01*
X149877504Y-106149763D02*
X149788219Y-106197382D01*
X149788219Y-106197382D02*
X149746552Y-106245001D01*
X149746552Y-106245001D02*
X149710838Y-106340239D01*
X149710838Y-106340239D02*
X149687028Y-106530715D01*
X149687028Y-106530715D02*
X149716790Y-106768810D01*
X149716790Y-106768810D02*
X149788219Y-106959286D01*
X149788219Y-106959286D02*
X149847742Y-107054524D01*
X149847742Y-107054524D02*
X149901314Y-107102144D01*
X149901314Y-107102144D02*
X150002504Y-107149763D01*
X150002504Y-107149763D02*
X150097742Y-107149763D01*
X150097742Y-107149763D02*
X150187028Y-107102144D01*
X150187028Y-107102144D02*
X150228695Y-107054524D01*
X150228695Y-107054524D02*
X150264409Y-106959286D01*
X150264409Y-106959286D02*
X150288219Y-106768810D01*
X150288219Y-106768810D02*
X150258457Y-106530715D01*
X150258457Y-106530715D02*
X150187028Y-106340239D01*
X150187028Y-106340239D02*
X150127504Y-106245001D01*
X150127504Y-106245001D02*
X150073933Y-106197382D01*
X150073933Y-106197382D02*
X149972742Y-106149763D01*
X148490600Y-106102144D02*
X149508457Y-107387858D01*
X147901314Y-107102144D02*
X148002504Y-107149763D01*
X148002504Y-107149763D02*
X148192981Y-107149763D01*
X148192981Y-107149763D02*
X148282266Y-107102144D01*
X148282266Y-107102144D02*
X148317981Y-107006905D01*
X148317981Y-107006905D02*
X148270362Y-106625953D01*
X148270362Y-106625953D02*
X148210838Y-106530715D01*
X148210838Y-106530715D02*
X148109647Y-106483096D01*
X148109647Y-106483096D02*
X147919171Y-106483096D01*
X147919171Y-106483096D02*
X147829885Y-106530715D01*
X147829885Y-106530715D02*
X147794171Y-106625953D01*
X147794171Y-106625953D02*
X147806076Y-106721191D01*
X147806076Y-106721191D02*
X148294171Y-106816429D01*
X147383457Y-106768810D02*
X146621552Y-106768810D01*
X145758457Y-107102144D02*
X145859647Y-107149763D01*
X145859647Y-107149763D02*
X146050124Y-107149763D01*
X146050124Y-107149763D02*
X146139409Y-107102144D01*
X146139409Y-107102144D02*
X146181076Y-107054524D01*
X146181076Y-107054524D02*
X146216790Y-106959286D01*
X146216790Y-106959286D02*
X146181076Y-106673572D01*
X146181076Y-106673572D02*
X146121552Y-106578334D01*
X146121552Y-106578334D02*
X146067981Y-106530715D01*
X146067981Y-106530715D02*
X145966790Y-106483096D01*
X145966790Y-106483096D02*
X145776314Y-106483096D01*
X145776314Y-106483096D02*
X145687028Y-106530715D01*
X145192981Y-107149763D02*
X145282266Y-107102144D01*
X145282266Y-107102144D02*
X145323933Y-107054524D01*
X145323933Y-107054524D02*
X145359647Y-106959286D01*
X145359647Y-106959286D02*
X145323933Y-106673572D01*
X145323933Y-106673572D02*
X145264409Y-106578334D01*
X145264409Y-106578334D02*
X145210838Y-106530715D01*
X145210838Y-106530715D02*
X145109647Y-106483096D01*
X145109647Y-106483096D02*
X144966790Y-106483096D01*
X144966790Y-106483096D02*
X144877504Y-106530715D01*
X144877504Y-106530715D02*
X144835838Y-106578334D01*
X144835838Y-106578334D02*
X144800123Y-106673572D01*
X144800123Y-106673572D02*
X144835838Y-106959286D01*
X144835838Y-106959286D02*
X144895361Y-107054524D01*
X144895361Y-107054524D02*
X144948933Y-107102144D01*
X144948933Y-107102144D02*
X145050123Y-107149763D01*
X145050123Y-107149763D02*
X145192981Y-107149763D01*
X144347742Y-106483096D02*
X144431076Y-107149763D01*
X144359647Y-106578334D02*
X144306076Y-106530715D01*
X144306076Y-106530715D02*
X144204885Y-106483096D01*
X144204885Y-106483096D02*
X144062028Y-106483096D01*
X144062028Y-106483096D02*
X143972742Y-106530715D01*
X143972742Y-106530715D02*
X143937028Y-106625953D01*
X143937028Y-106625953D02*
X144002504Y-107149763D01*
X143776314Y-107245001D02*
X143014409Y-107245001D01*
X142764409Y-107149763D02*
X142639409Y-106149763D01*
X142335837Y-107149763D02*
X142270361Y-106625953D01*
X142270361Y-106625953D02*
X142306075Y-106530715D01*
X142306075Y-106530715D02*
X142395361Y-106483096D01*
X142395361Y-106483096D02*
X142538218Y-106483096D01*
X142538218Y-106483096D02*
X142639409Y-106530715D01*
X142639409Y-106530715D02*
X142692980Y-106578334D01*
X141347742Y-106483096D02*
X141431075Y-107149763D01*
X141776313Y-106483096D02*
X141841790Y-107006905D01*
X141841790Y-107006905D02*
X141806075Y-107102144D01*
X141806075Y-107102144D02*
X141716790Y-107149763D01*
X141716790Y-107149763D02*
X141573932Y-107149763D01*
X141573932Y-107149763D02*
X141472742Y-107102144D01*
X141472742Y-107102144D02*
X141419170Y-107054524D01*
X140954885Y-107149763D02*
X140829885Y-106149763D01*
X140877504Y-106530715D02*
X140776313Y-106483096D01*
X140776313Y-106483096D02*
X140585837Y-106483096D01*
X140585837Y-106483096D02*
X140496551Y-106530715D01*
X140496551Y-106530715D02*
X140454885Y-106578334D01*
X140454885Y-106578334D02*
X140419170Y-106673572D01*
X140419170Y-106673572D02*
X140454885Y-106959286D01*
X140454885Y-106959286D02*
X140514408Y-107054524D01*
X140514408Y-107054524D02*
X140567980Y-107102144D01*
X140567980Y-107102144D02*
X140669170Y-107149763D01*
X140669170Y-107149763D02*
X140859647Y-107149763D01*
X140859647Y-107149763D02*
X140948932Y-107102144D01*
X135170112Y-100885057D02*
X135122493Y-100837438D01*
X135122493Y-100837438D02*
X135027255Y-100789819D01*
X135027255Y-100789819D02*
X134789160Y-100789819D01*
X134789160Y-100789819D02*
X134693922Y-100837438D01*
X134693922Y-100837438D02*
X134646303Y-100885057D01*
X134646303Y-100885057D02*
X134598684Y-100980295D01*
X134598684Y-100980295D02*
X134598684Y-101075533D01*
X134598684Y-101075533D02*
X134646303Y-101218390D01*
X134646303Y-101218390D02*
X135217731Y-101789819D01*
X135217731Y-101789819D02*
X134598684Y-101789819D01*
X133741541Y-101123152D02*
X133741541Y-101789819D01*
X133979636Y-100742200D02*
X134217731Y-101456485D01*
X134217731Y-101456485D02*
X133598684Y-101456485D01*
X133360588Y-100789819D02*
X133027255Y-101789819D01*
X133027255Y-101789819D02*
X132693922Y-100789819D01*
X175380180Y-84758458D02*
X175380180Y-84139411D01*
X175380180Y-84139411D02*
X174999228Y-84472744D01*
X174999228Y-84472744D02*
X174999228Y-84329887D01*
X174999228Y-84329887D02*
X174951609Y-84234649D01*
X174951609Y-84234649D02*
X174903990Y-84187030D01*
X174903990Y-84187030D02*
X174808752Y-84139411D01*
X174808752Y-84139411D02*
X174570657Y-84139411D01*
X174570657Y-84139411D02*
X174475419Y-84187030D01*
X174475419Y-84187030D02*
X174427800Y-84234649D01*
X174427800Y-84234649D02*
X174380180Y-84329887D01*
X174380180Y-84329887D02*
X174380180Y-84615601D01*
X174380180Y-84615601D02*
X174427800Y-84710839D01*
X174427800Y-84710839D02*
X174475419Y-84758458D01*
X152333220Y-91158866D02*
X151571316Y-91158866D01*
X135634397Y-97742200D02*
X135491540Y-97789819D01*
X135491540Y-97789819D02*
X135253445Y-97789819D01*
X135253445Y-97789819D02*
X135158207Y-97742200D01*
X135158207Y-97742200D02*
X135110588Y-97694580D01*
X135110588Y-97694580D02*
X135062969Y-97599342D01*
X135062969Y-97599342D02*
X135062969Y-97504104D01*
X135062969Y-97504104D02*
X135110588Y-97408866D01*
X135110588Y-97408866D02*
X135158207Y-97361247D01*
X135158207Y-97361247D02*
X135253445Y-97313628D01*
X135253445Y-97313628D02*
X135443921Y-97266009D01*
X135443921Y-97266009D02*
X135539159Y-97218390D01*
X135539159Y-97218390D02*
X135586778Y-97170771D01*
X135586778Y-97170771D02*
X135634397Y-97075533D01*
X135634397Y-97075533D02*
X135634397Y-96980295D01*
X135634397Y-96980295D02*
X135586778Y-96885057D01*
X135586778Y-96885057D02*
X135539159Y-96837438D01*
X135539159Y-96837438D02*
X135443921Y-96789819D01*
X135443921Y-96789819D02*
X135205826Y-96789819D01*
X135205826Y-96789819D02*
X135062969Y-96837438D01*
X134634397Y-97789819D02*
X134634397Y-96789819D01*
X133634398Y-96837438D02*
X133729636Y-96789819D01*
X133729636Y-96789819D02*
X133872493Y-96789819D01*
X133872493Y-96789819D02*
X134015350Y-96837438D01*
X134015350Y-96837438D02*
X134110588Y-96932676D01*
X134110588Y-96932676D02*
X134158207Y-97027914D01*
X134158207Y-97027914D02*
X134205826Y-97218390D01*
X134205826Y-97218390D02*
X134205826Y-97361247D01*
X134205826Y-97361247D02*
X134158207Y-97551723D01*
X134158207Y-97551723D02*
X134110588Y-97646961D01*
X134110588Y-97646961D02*
X134015350Y-97742200D01*
X134015350Y-97742200D02*
X133872493Y-97789819D01*
X133872493Y-97789819D02*
X133777255Y-97789819D01*
X133777255Y-97789819D02*
X133634398Y-97742200D01*
X133634398Y-97742200D02*
X133586779Y-97694580D01*
X133586779Y-97694580D02*
X133586779Y-97361247D01*
X133586779Y-97361247D02*
X133777255Y-97361247D01*
X133158207Y-97789819D02*
X133158207Y-96789819D01*
X133158207Y-96789819D02*
X132586779Y-97789819D01*
X132586779Y-97789819D02*
X132586779Y-96789819D01*
X156814649Y-83703152D02*
X156814649Y-84369819D01*
X157052744Y-83322200D02*
X157290839Y-84036485D01*
X157290839Y-84036485D02*
X156671792Y-84036485D01*
X144877506Y-88259875D02*
X144877506Y-88974160D01*
X144877506Y-88974160D02*
X144925125Y-89117017D01*
X144925125Y-89117017D02*
X145020363Y-89212256D01*
X145020363Y-89212256D02*
X145163220Y-89259875D01*
X145163220Y-89259875D02*
X145258458Y-89259875D01*
X143877506Y-89259875D02*
X144448934Y-89259875D01*
X144163220Y-89259875D02*
X144163220Y-88259875D01*
X144163220Y-88259875D02*
X144258458Y-88402732D01*
X144258458Y-88402732D02*
X144353696Y-88497970D01*
X144353696Y-88497970D02*
X144448934Y-88545589D01*
X143448934Y-88878922D02*
X142687030Y-88878922D01*
X141782268Y-88259875D02*
X141972744Y-88259875D01*
X141972744Y-88259875D02*
X142067982Y-88307494D01*
X142067982Y-88307494D02*
X142115601Y-88355113D01*
X142115601Y-88355113D02*
X142210839Y-88497970D01*
X142210839Y-88497970D02*
X142258458Y-88688446D01*
X142258458Y-88688446D02*
X142258458Y-89069398D01*
X142258458Y-89069398D02*
X142210839Y-89164636D01*
X142210839Y-89164636D02*
X142163220Y-89212256D01*
X142163220Y-89212256D02*
X142067982Y-89259875D01*
X142067982Y-89259875D02*
X141877506Y-89259875D01*
X141877506Y-89259875D02*
X141782268Y-89212256D01*
X141782268Y-89212256D02*
X141734649Y-89164636D01*
X141734649Y-89164636D02*
X141687030Y-89069398D01*
X141687030Y-89069398D02*
X141687030Y-88831303D01*
X141687030Y-88831303D02*
X141734649Y-88736065D01*
X141734649Y-88736065D02*
X141782268Y-88688446D01*
X141782268Y-88688446D02*
X141877506Y-88640827D01*
X141877506Y-88640827D02*
X142067982Y-88640827D01*
X142067982Y-88640827D02*
X142163220Y-88688446D01*
X142163220Y-88688446D02*
X142210839Y-88736065D01*
X142210839Y-88736065D02*
X142258458Y-88831303D01*
X141258458Y-89164636D02*
X141210839Y-89212256D01*
X141210839Y-89212256D02*
X141258458Y-89259875D01*
X141258458Y-89259875D02*
X141306077Y-89212256D01*
X141306077Y-89212256D02*
X141258458Y-89164636D01*
X141258458Y-89164636D02*
X141258458Y-89259875D01*
X141258458Y-88640827D02*
X141210839Y-88688446D01*
X141210839Y-88688446D02*
X141258458Y-88736065D01*
X141258458Y-88736065D02*
X141306077Y-88688446D01*
X141306077Y-88688446D02*
X141258458Y-88640827D01*
X141258458Y-88640827D02*
X141258458Y-88736065D01*
X140115601Y-88259875D02*
X139448935Y-89259875D01*
X139448935Y-88259875D02*
X140115601Y-89259875D01*
X139067982Y-89259875D02*
X139067982Y-88259875D01*
X139067982Y-88259875D02*
X138496554Y-89259875D01*
X138496554Y-89259875D02*
X138496554Y-88259875D01*
X138067982Y-88355113D02*
X138020363Y-88307494D01*
X138020363Y-88307494D02*
X137925125Y-88259875D01*
X137925125Y-88259875D02*
X137687030Y-88259875D01*
X137687030Y-88259875D02*
X137591792Y-88307494D01*
X137591792Y-88307494D02*
X137544173Y-88355113D01*
X137544173Y-88355113D02*
X137496554Y-88450351D01*
X137496554Y-88450351D02*
X137496554Y-88545589D01*
X137496554Y-88545589D02*
X137544173Y-88688446D01*
X137544173Y-88688446D02*
X138115601Y-89259875D01*
X138115601Y-89259875D02*
X137496554Y-89259875D01*
X137067982Y-89259875D02*
X137067982Y-88259875D01*
X137067982Y-88259875D02*
X136829887Y-88259875D01*
X136829887Y-88259875D02*
X136687030Y-88307494D01*
X136687030Y-88307494D02*
X136591792Y-88402732D01*
X136591792Y-88402732D02*
X136544173Y-88497970D01*
X136544173Y-88497970D02*
X136496554Y-88688446D01*
X136496554Y-88688446D02*
X136496554Y-88831303D01*
X136496554Y-88831303D02*
X136544173Y-89021779D01*
X136544173Y-89021779D02*
X136591792Y-89117017D01*
X136591792Y-89117017D02*
X136687030Y-89212256D01*
X136687030Y-89212256D02*
X136829887Y-89259875D01*
X136829887Y-89259875D02*
X137067982Y-89259875D01*
X136067982Y-88878922D02*
X135306078Y-88878922D01*
X134306078Y-89259875D02*
X134877506Y-89259875D01*
X134591792Y-89259875D02*
X134591792Y-88259875D01*
X134591792Y-88259875D02*
X134687030Y-88402732D01*
X134687030Y-88402732D02*
X134782268Y-88497970D01*
X134782268Y-88497970D02*
X134877506Y-88545589D01*
X133972744Y-88259875D02*
X133353697Y-88259875D01*
X133353697Y-88259875D02*
X133687030Y-88640827D01*
X133687030Y-88640827D02*
X133544173Y-88640827D01*
X133544173Y-88640827D02*
X133448935Y-88688446D01*
X133448935Y-88688446D02*
X133401316Y-88736065D01*
X133401316Y-88736065D02*
X133353697Y-88831303D01*
X133353697Y-88831303D02*
X133353697Y-89069398D01*
X133353697Y-89069398D02*
X133401316Y-89164636D01*
X133401316Y-89164636D02*
X133448935Y-89212256D01*
X133448935Y-89212256D02*
X133544173Y-89259875D01*
X133544173Y-89259875D02*
X133829887Y-89259875D01*
X133829887Y-89259875D02*
X133925125Y-89212256D01*
X133925125Y-89212256D02*
X133972744Y-89164636D01*
X133020363Y-88259875D02*
X132353697Y-88259875D01*
X132353697Y-88259875D02*
X132782268Y-89259875D01*
X131448935Y-89259875D02*
X132020363Y-89259875D01*
X131734649Y-89259875D02*
X131734649Y-88259875D01*
X131734649Y-88259875D02*
X131829887Y-88402732D01*
X131829887Y-88402732D02*
X131925125Y-88497970D01*
X131925125Y-88497970D02*
X132020363Y-88545589D01*
X144877506Y-89869819D02*
X144877506Y-90584104D01*
X144877506Y-90584104D02*
X144925125Y-90726961D01*
X144925125Y-90726961D02*
X145020363Y-90822200D01*
X145020363Y-90822200D02*
X145163220Y-90869819D01*
X145163220Y-90869819D02*
X145258458Y-90869819D01*
X144496553Y-89869819D02*
X143829887Y-89869819D01*
X143829887Y-89869819D02*
X144258458Y-90869819D01*
X141925124Y-90774580D02*
X141877505Y-90822200D01*
X141877505Y-90822200D02*
X141925124Y-90869819D01*
X141925124Y-90869819D02*
X141972743Y-90822200D01*
X141972743Y-90822200D02*
X141925124Y-90774580D01*
X141925124Y-90774580D02*
X141925124Y-90869819D01*
X141925124Y-90250771D02*
X141877505Y-90298390D01*
X141877505Y-90298390D02*
X141925124Y-90346009D01*
X141925124Y-90346009D02*
X141972743Y-90298390D01*
X141972743Y-90298390D02*
X141925124Y-90250771D01*
X141925124Y-90250771D02*
X141925124Y-90346009D01*
X140258458Y-90869819D02*
X140258458Y-90346009D01*
X140258458Y-90346009D02*
X140306077Y-90250771D01*
X140306077Y-90250771D02*
X140401315Y-90203152D01*
X140401315Y-90203152D02*
X140591791Y-90203152D01*
X140591791Y-90203152D02*
X140687029Y-90250771D01*
X140258458Y-90822200D02*
X140353696Y-90869819D01*
X140353696Y-90869819D02*
X140591791Y-90869819D01*
X140591791Y-90869819D02*
X140687029Y-90822200D01*
X140687029Y-90822200D02*
X140734648Y-90726961D01*
X140734648Y-90726961D02*
X140734648Y-90631723D01*
X140734648Y-90631723D02*
X140687029Y-90536485D01*
X140687029Y-90536485D02*
X140591791Y-90488866D01*
X140591791Y-90488866D02*
X140353696Y-90488866D01*
X140353696Y-90488866D02*
X140258458Y-90441247D01*
X139782267Y-90203152D02*
X139782267Y-90869819D01*
X139782267Y-90298390D02*
X139734648Y-90250771D01*
X139734648Y-90250771D02*
X139639410Y-90203152D01*
X139639410Y-90203152D02*
X139496553Y-90203152D01*
X139496553Y-90203152D02*
X139401315Y-90250771D01*
X139401315Y-90250771D02*
X139353696Y-90346009D01*
X139353696Y-90346009D02*
X139353696Y-90869819D01*
X138972743Y-90203152D02*
X138734648Y-90869819D01*
X138496553Y-90203152D02*
X138734648Y-90869819D01*
X138734648Y-90869819D02*
X138829886Y-91107914D01*
X138829886Y-91107914D02*
X138877505Y-91155533D01*
X138877505Y-91155533D02*
X138972743Y-91203152D01*
X152333220Y-83988866D02*
X151571316Y-83988866D01*
X180758458Y-89369819D02*
X180139411Y-89369819D01*
X180139411Y-89369819D02*
X180472744Y-89750771D01*
X180472744Y-89750771D02*
X180329887Y-89750771D01*
X180329887Y-89750771D02*
X180234649Y-89798390D01*
X180234649Y-89798390D02*
X180187030Y-89846009D01*
X180187030Y-89846009D02*
X180139411Y-89941247D01*
X180139411Y-89941247D02*
X180139411Y-90179342D01*
X180139411Y-90179342D02*
X180187030Y-90274580D01*
X180187030Y-90274580D02*
X180234649Y-90322200D01*
X180234649Y-90322200D02*
X180329887Y-90369819D01*
X180329887Y-90369819D02*
X180615601Y-90369819D01*
X180615601Y-90369819D02*
X180710839Y-90322200D01*
X180710839Y-90322200D02*
X180758458Y-90274580D01*
X159144649Y-83369819D02*
X159335125Y-83369819D01*
X159335125Y-83369819D02*
X159430363Y-83417438D01*
X159430363Y-83417438D02*
X159477982Y-83465057D01*
X159477982Y-83465057D02*
X159573220Y-83607914D01*
X159573220Y-83607914D02*
X159620839Y-83798390D01*
X159620839Y-83798390D02*
X159620839Y-84179342D01*
X159620839Y-84179342D02*
X159573220Y-84274580D01*
X159573220Y-84274580D02*
X159525601Y-84322200D01*
X159525601Y-84322200D02*
X159430363Y-84369819D01*
X159430363Y-84369819D02*
X159239887Y-84369819D01*
X159239887Y-84369819D02*
X159144649Y-84322200D01*
X159144649Y-84322200D02*
X159097030Y-84274580D01*
X159097030Y-84274580D02*
X159049411Y-84179342D01*
X159049411Y-84179342D02*
X159049411Y-83941247D01*
X159049411Y-83941247D02*
X159097030Y-83846009D01*
X159097030Y-83846009D02*
X159144649Y-83798390D01*
X159144649Y-83798390D02*
X159239887Y-83750771D01*
X159239887Y-83750771D02*
X159430363Y-83750771D01*
X159430363Y-83750771D02*
X159525601Y-83798390D01*
X159525601Y-83798390D02*
X159573220Y-83846009D01*
X159573220Y-83846009D02*
X159620839Y-83941247D01*
X149753220Y-91158866D02*
X148991316Y-91158866D01*
X149372268Y-91539819D02*
X149372268Y-90777914D01*
X159097030Y-90539819D02*
X159573220Y-90539819D01*
X159573220Y-90539819D02*
X159620839Y-91016009D01*
X159620839Y-91016009D02*
X159573220Y-90968390D01*
X159573220Y-90968390D02*
X159477982Y-90920771D01*
X159477982Y-90920771D02*
X159239887Y-90920771D01*
X159239887Y-90920771D02*
X159144649Y-90968390D01*
X159144649Y-90968390D02*
X159097030Y-91016009D01*
X159097030Y-91016009D02*
X159049411Y-91111247D01*
X159049411Y-91111247D02*
X159049411Y-91349342D01*
X159049411Y-91349342D02*
X159097030Y-91444580D01*
X159097030Y-91444580D02*
X159144649Y-91492200D01*
X159144649Y-91492200D02*
X159239887Y-91539819D01*
X159239887Y-91539819D02*
X159477982Y-91539819D01*
X159477982Y-91539819D02*
X159573220Y-91492200D01*
X159573220Y-91492200D02*
X159620839Y-91444580D01*
X134884398Y-98837438D02*
X134979636Y-98789819D01*
X134979636Y-98789819D02*
X135122493Y-98789819D01*
X135122493Y-98789819D02*
X135265350Y-98837438D01*
X135265350Y-98837438D02*
X135360588Y-98932676D01*
X135360588Y-98932676D02*
X135408207Y-99027914D01*
X135408207Y-99027914D02*
X135455826Y-99218390D01*
X135455826Y-99218390D02*
X135455826Y-99361247D01*
X135455826Y-99361247D02*
X135408207Y-99551723D01*
X135408207Y-99551723D02*
X135360588Y-99646961D01*
X135360588Y-99646961D02*
X135265350Y-99742200D01*
X135265350Y-99742200D02*
X135122493Y-99789819D01*
X135122493Y-99789819D02*
X135027255Y-99789819D01*
X135027255Y-99789819D02*
X134884398Y-99742200D01*
X134884398Y-99742200D02*
X134836779Y-99694580D01*
X134836779Y-99694580D02*
X134836779Y-99361247D01*
X134836779Y-99361247D02*
X135027255Y-99361247D01*
X134408207Y-99789819D02*
X134408207Y-98789819D01*
X134408207Y-98789819D02*
X133836779Y-99789819D01*
X133836779Y-99789819D02*
X133836779Y-98789819D01*
X133360588Y-99789819D02*
X133360588Y-98789819D01*
X133360588Y-98789819D02*
X133122493Y-98789819D01*
X133122493Y-98789819D02*
X132979636Y-98837438D01*
X132979636Y-98837438D02*
X132884398Y-98932676D01*
X132884398Y-98932676D02*
X132836779Y-99027914D01*
X132836779Y-99027914D02*
X132789160Y-99218390D01*
X132789160Y-99218390D02*
X132789160Y-99361247D01*
X132789160Y-99361247D02*
X132836779Y-99551723D01*
X132836779Y-99551723D02*
X132884398Y-99646961D01*
X132884398Y-99646961D02*
X132979636Y-99742200D01*
X132979636Y-99742200D02*
X133122493Y-99789819D01*
X133122493Y-99789819D02*
X133360588Y-99789819D01*
X154139411Y-91539819D02*
X154710839Y-91539819D01*
X154425125Y-91539819D02*
X154425125Y-90539819D01*
X154425125Y-90539819D02*
X154520363Y-90682676D01*
X154520363Y-90682676D02*
X154615601Y-90777914D01*
X154615601Y-90777914D02*
X154710839Y-90825533D01*
X175865601Y-87453152D02*
X175913220Y-87500771D01*
X175913220Y-87500771D02*
X175960839Y-87596009D01*
X175960839Y-87596009D02*
X175960839Y-87881723D01*
X175960839Y-87881723D02*
X175913220Y-87976961D01*
X175913220Y-87976961D02*
X175817982Y-88072200D01*
X175817982Y-88072200D02*
X175722744Y-88119819D01*
X175722744Y-88119819D02*
X175532268Y-88119819D01*
X175532268Y-88119819D02*
X175437030Y-88072200D01*
X175437030Y-88072200D02*
X175341792Y-87976961D01*
X175341792Y-87976961D02*
X175294173Y-87881723D01*
X175294173Y-87881723D02*
X175294173Y-87596009D01*
X175294173Y-87596009D02*
X175341792Y-87500771D01*
X175341792Y-87500771D02*
X175437030Y-87453152D01*
X175437030Y-87453152D02*
X175484649Y-87453152D01*
X175484649Y-87453152D02*
X175579887Y-87500771D01*
X175579887Y-87500771D02*
X175627506Y-87596009D01*
X175627506Y-87596009D02*
X175627506Y-88453152D01*
X174960839Y-87119819D02*
X174341792Y-87119819D01*
X174341792Y-87119819D02*
X174675125Y-87500771D01*
X174675125Y-87500771D02*
X174532268Y-87500771D01*
X174532268Y-87500771D02*
X174437030Y-87548390D01*
X174437030Y-87548390D02*
X174389411Y-87596009D01*
X174389411Y-87596009D02*
X174341792Y-87691247D01*
X174341792Y-87691247D02*
X174341792Y-87929342D01*
X174341792Y-87929342D02*
X174389411Y-88024580D01*
X174389411Y-88024580D02*
X174437030Y-88072200D01*
X174437030Y-88072200D02*
X174532268Y-88119819D01*
X174532268Y-88119819D02*
X174817982Y-88119819D01*
X174817982Y-88119819D02*
X174913220Y-88072200D01*
X174913220Y-88072200D02*
X174960839Y-88024580D01*
X173913220Y-88024580D02*
X173865601Y-88072200D01*
X173865601Y-88072200D02*
X173913220Y-88119819D01*
X173913220Y-88119819D02*
X173960839Y-88072200D01*
X173960839Y-88072200D02*
X173913220Y-88024580D01*
X173913220Y-88024580D02*
X173913220Y-88119819D01*
X173484649Y-87215057D02*
X173437030Y-87167438D01*
X173437030Y-87167438D02*
X173341792Y-87119819D01*
X173341792Y-87119819D02*
X173103697Y-87119819D01*
X173103697Y-87119819D02*
X173008459Y-87167438D01*
X173008459Y-87167438D02*
X172960840Y-87215057D01*
X172960840Y-87215057D02*
X172913221Y-87310295D01*
X172913221Y-87310295D02*
X172913221Y-87405533D01*
X172913221Y-87405533D02*
X172960840Y-87548390D01*
X172960840Y-87548390D02*
X173532268Y-88119819D01*
X173532268Y-88119819D02*
X172913221Y-88119819D01*
X149753220Y-83988866D02*
X148991316Y-83988866D01*
X149372268Y-84369819D02*
X149372268Y-83607914D01*
X157338458Y-90539819D02*
X156719411Y-90539819D01*
X156719411Y-90539819D02*
X157052744Y-90920771D01*
X157052744Y-90920771D02*
X156909887Y-90920771D01*
X156909887Y-90920771D02*
X156814649Y-90968390D01*
X156814649Y-90968390D02*
X156767030Y-91016009D01*
X156767030Y-91016009D02*
X156719411Y-91111247D01*
X156719411Y-91111247D02*
X156719411Y-91349342D01*
X156719411Y-91349342D02*
X156767030Y-91444580D01*
X156767030Y-91444580D02*
X156814649Y-91492200D01*
X156814649Y-91492200D02*
X156909887Y-91539819D01*
X156909887Y-91539819D02*
X157195601Y-91539819D01*
X157195601Y-91539819D02*
X157290839Y-91492200D01*
X157290839Y-91492200D02*
X157338458Y-91444580D01*
M02*
