%TF.GenerationSoftware,KiCad,Pcbnew,8.0.5*%
%TF.CreationDate,2025-06-06T09:51:35+09:00*%
%TF.ProjectId,e-con_hub,652d636f-6e5f-4687-9562-2e6b69636164,rev?*%
%TF.SameCoordinates,Original*%
%TF.FileFunction,Legend,Bot*%
%TF.FilePolarity,Positive*%
%FSLAX46Y46*%
G04 Gerber Fmt 4.6, Leading zero omitted, Abs format (unit mm)*
G04 Created by KiCad (PCBNEW 8.0.5) date 2025-06-06 09:51:35*
%MOMM*%
%LPD*%
G01*
G04 APERTURE LIST*
%ADD10C,0.100000*%
%ADD11C,0.150000*%
G04 APERTURE END LIST*
D10*
X174000000Y-86000000D02*
X173750000Y-85500000D01*
X176250000Y-88750000D02*
X172500000Y-88750000D01*
X182000000Y-89000000D02*
X181500000Y-89250000D01*
X160640000Y-89000000D02*
G75*
G02*
X158440000Y-89000000I-1100000J0D01*
G01*
X179000000Y-89000000D02*
X179500000Y-88750000D01*
X174000000Y-86000000D02*
X174000000Y-83000000D01*
X179000000Y-89000000D02*
X182000000Y-89000000D01*
X177750000Y-87250000D02*
X177250000Y-87500000D01*
X174000000Y-86000000D02*
X174250000Y-85500000D01*
X179000000Y-88000000D02*
X179000000Y-90000000D01*
X177750000Y-87250000D02*
X176250000Y-88750000D01*
X174000000Y-83000000D02*
X174250000Y-83500000D01*
X158100000Y-89000000D02*
X158100000Y-86000000D01*
X177750000Y-87250000D02*
X177500000Y-87750000D01*
X177000000Y-86000000D02*
X173250000Y-86000000D01*
X158100000Y-89000000D02*
G75*
G02*
X155900000Y-89000000I-1100000J0D01*
G01*
X158440000Y-86000000D02*
X158440000Y-89000000D01*
X155900000Y-86000000D02*
G75*
G02*
X158100000Y-86000000I1100000J0D01*
G01*
X160640000Y-89000000D02*
X160640000Y-86000000D01*
X179000000Y-89000000D02*
X179500000Y-89250000D01*
X158440000Y-86000000D02*
G75*
G02*
X160640000Y-86000000I1100000J0D01*
G01*
X174000000Y-83000000D02*
X173750000Y-83500000D01*
X155900000Y-86000000D02*
X155900000Y-89000000D01*
X182000000Y-89000000D02*
X181500000Y-88750000D01*
D11*
X181508458Y-91869819D02*
X181270363Y-92869819D01*
X181270363Y-92869819D02*
X181079887Y-92155533D01*
X181079887Y-92155533D02*
X180889411Y-92869819D01*
X180889411Y-92869819D02*
X180651316Y-91869819D01*
X179794173Y-91869819D02*
X180270363Y-91869819D01*
X180270363Y-91869819D02*
X180317982Y-92346009D01*
X180317982Y-92346009D02*
X180270363Y-92298390D01*
X180270363Y-92298390D02*
X180175125Y-92250771D01*
X180175125Y-92250771D02*
X179937030Y-92250771D01*
X179937030Y-92250771D02*
X179841792Y-92298390D01*
X179841792Y-92298390D02*
X179794173Y-92346009D01*
X179794173Y-92346009D02*
X179746554Y-92441247D01*
X179746554Y-92441247D02*
X179746554Y-92679342D01*
X179746554Y-92679342D02*
X179794173Y-92774580D01*
X179794173Y-92774580D02*
X179841792Y-92822200D01*
X179841792Y-92822200D02*
X179937030Y-92869819D01*
X179937030Y-92869819D02*
X180175125Y-92869819D01*
X180175125Y-92869819D02*
X180270363Y-92822200D01*
X180270363Y-92822200D02*
X180317982Y-92774580D01*
X178841792Y-91869819D02*
X179317982Y-91869819D01*
X179317982Y-91869819D02*
X179365601Y-92346009D01*
X179365601Y-92346009D02*
X179317982Y-92298390D01*
X179317982Y-92298390D02*
X179222744Y-92250771D01*
X179222744Y-92250771D02*
X178984649Y-92250771D01*
X178984649Y-92250771D02*
X178889411Y-92298390D01*
X178889411Y-92298390D02*
X178841792Y-92346009D01*
X178841792Y-92346009D02*
X178794173Y-92441247D01*
X178794173Y-92441247D02*
X178794173Y-92679342D01*
X178794173Y-92679342D02*
X178841792Y-92774580D01*
X178841792Y-92774580D02*
X178889411Y-92822200D01*
X178889411Y-92822200D02*
X178984649Y-92869819D01*
X178984649Y-92869819D02*
X179222744Y-92869819D01*
X179222744Y-92869819D02*
X179317982Y-92822200D01*
X179317982Y-92822200D02*
X179365601Y-92774580D01*
X177603696Y-92869819D02*
X177603696Y-91869819D01*
X177603696Y-92346009D02*
X177032268Y-92346009D01*
X177032268Y-92869819D02*
X177032268Y-91869819D01*
X176603696Y-91965057D02*
X176556077Y-91917438D01*
X176556077Y-91917438D02*
X176460839Y-91869819D01*
X176460839Y-91869819D02*
X176222744Y-91869819D01*
X176222744Y-91869819D02*
X176127506Y-91917438D01*
X176127506Y-91917438D02*
X176079887Y-91965057D01*
X176079887Y-91965057D02*
X176032268Y-92060295D01*
X176032268Y-92060295D02*
X176032268Y-92155533D01*
X176032268Y-92155533D02*
X176079887Y-92298390D01*
X176079887Y-92298390D02*
X176651315Y-92869819D01*
X176651315Y-92869819D02*
X176032268Y-92869819D01*
X175127506Y-91869819D02*
X175603696Y-91869819D01*
X175603696Y-91869819D02*
X175651315Y-92346009D01*
X175651315Y-92346009D02*
X175603696Y-92298390D01*
X175603696Y-92298390D02*
X175508458Y-92250771D01*
X175508458Y-92250771D02*
X175270363Y-92250771D01*
X175270363Y-92250771D02*
X175175125Y-92298390D01*
X175175125Y-92298390D02*
X175127506Y-92346009D01*
X175127506Y-92346009D02*
X175079887Y-92441247D01*
X175079887Y-92441247D02*
X175079887Y-92679342D01*
X175079887Y-92679342D02*
X175127506Y-92774580D01*
X175127506Y-92774580D02*
X175175125Y-92822200D01*
X175175125Y-92822200D02*
X175270363Y-92869819D01*
X175270363Y-92869819D02*
X175508458Y-92869819D01*
X175508458Y-92869819D02*
X175603696Y-92822200D01*
X175603696Y-92822200D02*
X175651315Y-92774580D01*
X174032267Y-92203152D02*
X173651315Y-92203152D01*
X173889410Y-91869819D02*
X173889410Y-92726961D01*
X173889410Y-92726961D02*
X173841791Y-92822200D01*
X173841791Y-92822200D02*
X173746553Y-92869819D01*
X173746553Y-92869819D02*
X173651315Y-92869819D01*
X172794172Y-92869819D02*
X173365600Y-92869819D01*
X173079886Y-92869819D02*
X173079886Y-91869819D01*
X173079886Y-91869819D02*
X173175124Y-92012676D01*
X173175124Y-92012676D02*
X173270362Y-92107914D01*
X173270362Y-92107914D02*
X173365600Y-92155533D01*
X172365600Y-92774580D02*
X172317981Y-92822200D01*
X172317981Y-92822200D02*
X172365600Y-92869819D01*
X172365600Y-92869819D02*
X172413219Y-92822200D01*
X172413219Y-92822200D02*
X172365600Y-92774580D01*
X172365600Y-92774580D02*
X172365600Y-92869819D01*
X171460839Y-91869819D02*
X171651315Y-91869819D01*
X171651315Y-91869819D02*
X171746553Y-91917438D01*
X171746553Y-91917438D02*
X171794172Y-91965057D01*
X171794172Y-91965057D02*
X171889410Y-92107914D01*
X171889410Y-92107914D02*
X171937029Y-92298390D01*
X171937029Y-92298390D02*
X171937029Y-92679342D01*
X171937029Y-92679342D02*
X171889410Y-92774580D01*
X171889410Y-92774580D02*
X171841791Y-92822200D01*
X171841791Y-92822200D02*
X171746553Y-92869819D01*
X171746553Y-92869819D02*
X171556077Y-92869819D01*
X171556077Y-92869819D02*
X171460839Y-92822200D01*
X171460839Y-92822200D02*
X171413220Y-92774580D01*
X171413220Y-92774580D02*
X171365601Y-92679342D01*
X171365601Y-92679342D02*
X171365601Y-92441247D01*
X171365601Y-92441247D02*
X171413220Y-92346009D01*
X171413220Y-92346009D02*
X171460839Y-92298390D01*
X171460839Y-92298390D02*
X171556077Y-92250771D01*
X171556077Y-92250771D02*
X171746553Y-92250771D01*
X171746553Y-92250771D02*
X171841791Y-92298390D01*
X171841791Y-92298390D02*
X171889410Y-92346009D01*
X171889410Y-92346009D02*
X171937029Y-92441247D01*
X154139411Y-84369819D02*
X154710839Y-84369819D01*
X154425125Y-84369819D02*
X154425125Y-83369819D01*
X154425125Y-83369819D02*
X154520363Y-83512676D01*
X154520363Y-83512676D02*
X154615601Y-83607914D01*
X154615601Y-83607914D02*
X154710839Y-83655533D01*
X164086781Y-106492200D02*
X164187971Y-106539819D01*
X164187971Y-106539819D02*
X164378448Y-106539819D01*
X164378448Y-106539819D02*
X164467733Y-106492200D01*
X164467733Y-106492200D02*
X164503448Y-106396961D01*
X164503448Y-106396961D02*
X164455829Y-106016009D01*
X164455829Y-106016009D02*
X164396305Y-105920771D01*
X164396305Y-105920771D02*
X164295114Y-105873152D01*
X164295114Y-105873152D02*
X164104638Y-105873152D01*
X164104638Y-105873152D02*
X164015352Y-105920771D01*
X164015352Y-105920771D02*
X163979638Y-106016009D01*
X163979638Y-106016009D02*
X163991543Y-106111247D01*
X163991543Y-106111247D02*
X164479638Y-106206485D01*
X163568924Y-106158866D02*
X162807019Y-106158866D01*
X161795114Y-106444580D02*
X161848686Y-106492200D01*
X161848686Y-106492200D02*
X161997495Y-106539819D01*
X161997495Y-106539819D02*
X162092733Y-106539819D01*
X162092733Y-106539819D02*
X162229638Y-106492200D01*
X162229638Y-106492200D02*
X162312971Y-106396961D01*
X162312971Y-106396961D02*
X162348686Y-106301723D01*
X162348686Y-106301723D02*
X162372495Y-106111247D01*
X162372495Y-106111247D02*
X162354638Y-105968390D01*
X162354638Y-105968390D02*
X162283210Y-105777914D01*
X162283210Y-105777914D02*
X162223686Y-105682676D01*
X162223686Y-105682676D02*
X162116543Y-105587438D01*
X162116543Y-105587438D02*
X161967733Y-105539819D01*
X161967733Y-105539819D02*
X161872495Y-105539819D01*
X161872495Y-105539819D02*
X161735591Y-105587438D01*
X161735591Y-105587438D02*
X161693924Y-105635057D01*
X161062971Y-105539819D02*
X160872495Y-105539819D01*
X160872495Y-105539819D02*
X160783210Y-105587438D01*
X160783210Y-105587438D02*
X160699876Y-105682676D01*
X160699876Y-105682676D02*
X160676067Y-105873152D01*
X160676067Y-105873152D02*
X160717733Y-106206485D01*
X160717733Y-106206485D02*
X160789162Y-106396961D01*
X160789162Y-106396961D02*
X160896305Y-106492200D01*
X160896305Y-106492200D02*
X160997495Y-106539819D01*
X160997495Y-106539819D02*
X161187971Y-106539819D01*
X161187971Y-106539819D02*
X161277257Y-106492200D01*
X161277257Y-106492200D02*
X161360591Y-106396961D01*
X161360591Y-106396961D02*
X161384400Y-106206485D01*
X161384400Y-106206485D02*
X161342733Y-105873152D01*
X161342733Y-105873152D02*
X161271305Y-105682676D01*
X161271305Y-105682676D02*
X161164162Y-105587438D01*
X161164162Y-105587438D02*
X161062971Y-105539819D01*
X160330829Y-106539819D02*
X160205829Y-105539819D01*
X160205829Y-105539819D02*
X159759400Y-106539819D01*
X159759400Y-106539819D02*
X159634400Y-105539819D01*
X158521305Y-106539819D02*
X158396305Y-105539819D01*
X158455828Y-106016009D02*
X157884400Y-106016009D01*
X157949876Y-106539819D02*
X157824876Y-105539819D01*
X156961781Y-105873152D02*
X157045114Y-106539819D01*
X157390352Y-105873152D02*
X157455829Y-106396961D01*
X157455829Y-106396961D02*
X157420114Y-106492200D01*
X157420114Y-106492200D02*
X157330829Y-106539819D01*
X157330829Y-106539819D02*
X157187971Y-106539819D01*
X157187971Y-106539819D02*
X157086781Y-106492200D01*
X157086781Y-106492200D02*
X157033209Y-106444580D01*
X156568924Y-106539819D02*
X156443924Y-105539819D01*
X156491543Y-105920771D02*
X156390352Y-105873152D01*
X156390352Y-105873152D02*
X156199876Y-105873152D01*
X156199876Y-105873152D02*
X156110590Y-105920771D01*
X156110590Y-105920771D02*
X156068924Y-105968390D01*
X156068924Y-105968390D02*
X156033209Y-106063628D01*
X156033209Y-106063628D02*
X156068924Y-106349342D01*
X156068924Y-106349342D02*
X156128447Y-106444580D01*
X156128447Y-106444580D02*
X156182019Y-106492200D01*
X156182019Y-106492200D02*
X156283209Y-106539819D01*
X156283209Y-106539819D02*
X156473686Y-106539819D01*
X156473686Y-106539819D02*
X156562971Y-106492200D01*
X154503447Y-106016009D02*
X154366542Y-106063628D01*
X154366542Y-106063628D02*
X154324876Y-106111247D01*
X154324876Y-106111247D02*
X154289161Y-106206485D01*
X154289161Y-106206485D02*
X154307019Y-106349342D01*
X154307019Y-106349342D02*
X154366542Y-106444580D01*
X154366542Y-106444580D02*
X154420114Y-106492200D01*
X154420114Y-106492200D02*
X154521304Y-106539819D01*
X154521304Y-106539819D02*
X154902257Y-106539819D01*
X154902257Y-106539819D02*
X154777257Y-105539819D01*
X154777257Y-105539819D02*
X154443923Y-105539819D01*
X154443923Y-105539819D02*
X154354638Y-105587438D01*
X154354638Y-105587438D02*
X154312971Y-105635057D01*
X154312971Y-105635057D02*
X154277257Y-105730295D01*
X154277257Y-105730295D02*
X154289161Y-105825533D01*
X154289161Y-105825533D02*
X154348685Y-105920771D01*
X154348685Y-105920771D02*
X154402257Y-105968390D01*
X154402257Y-105968390D02*
X154503447Y-106016009D01*
X154503447Y-106016009D02*
X154836780Y-106016009D01*
X153759400Y-106539819D02*
X153848685Y-106492200D01*
X153848685Y-106492200D02*
X153890352Y-106444580D01*
X153890352Y-106444580D02*
X153926066Y-106349342D01*
X153926066Y-106349342D02*
X153890352Y-106063628D01*
X153890352Y-106063628D02*
X153830828Y-105968390D01*
X153830828Y-105968390D02*
X153777257Y-105920771D01*
X153777257Y-105920771D02*
X153676066Y-105873152D01*
X153676066Y-105873152D02*
X153533209Y-105873152D01*
X153533209Y-105873152D02*
X153443923Y-105920771D01*
X153443923Y-105920771D02*
X153402257Y-105968390D01*
X153402257Y-105968390D02*
X153366542Y-106063628D01*
X153366542Y-106063628D02*
X153402257Y-106349342D01*
X153402257Y-106349342D02*
X153461780Y-106444580D01*
X153461780Y-106444580D02*
X153515352Y-106492200D01*
X153515352Y-106492200D02*
X153616542Y-106539819D01*
X153616542Y-106539819D02*
X153759400Y-106539819D01*
X152568923Y-106539819D02*
X152503447Y-106016009D01*
X152503447Y-106016009D02*
X152539161Y-105920771D01*
X152539161Y-105920771D02*
X152628447Y-105873152D01*
X152628447Y-105873152D02*
X152818923Y-105873152D01*
X152818923Y-105873152D02*
X152920114Y-105920771D01*
X152562971Y-106492200D02*
X152664161Y-106539819D01*
X152664161Y-106539819D02*
X152902257Y-106539819D01*
X152902257Y-106539819D02*
X152991542Y-106492200D01*
X152991542Y-106492200D02*
X153027257Y-106396961D01*
X153027257Y-106396961D02*
X153015352Y-106301723D01*
X153015352Y-106301723D02*
X152955828Y-106206485D01*
X152955828Y-106206485D02*
X152854638Y-106158866D01*
X152854638Y-106158866D02*
X152616542Y-106158866D01*
X152616542Y-106158866D02*
X152515352Y-106111247D01*
X152092733Y-106539819D02*
X152009399Y-105873152D01*
X152033209Y-106063628D02*
X151973685Y-105968390D01*
X151973685Y-105968390D02*
X151920114Y-105920771D01*
X151920114Y-105920771D02*
X151818923Y-105873152D01*
X151818923Y-105873152D02*
X151723685Y-105873152D01*
X151045113Y-106539819D02*
X150920113Y-105539819D01*
X151039161Y-106492200D02*
X151140351Y-106539819D01*
X151140351Y-106539819D02*
X151330828Y-106539819D01*
X151330828Y-106539819D02*
X151420113Y-106492200D01*
X151420113Y-106492200D02*
X151461780Y-106444580D01*
X151461780Y-106444580D02*
X151497494Y-106349342D01*
X151497494Y-106349342D02*
X151461780Y-106063628D01*
X151461780Y-106063628D02*
X151402256Y-105968390D01*
X151402256Y-105968390D02*
X151348685Y-105920771D01*
X151348685Y-105920771D02*
X151247494Y-105873152D01*
X151247494Y-105873152D02*
X151057018Y-105873152D01*
X151057018Y-105873152D02*
X150967732Y-105920771D01*
X149824875Y-105539819D02*
X149616541Y-106539819D01*
X149616541Y-106539819D02*
X149158208Y-105539819D01*
X148562970Y-106492200D02*
X148664160Y-106539819D01*
X148664160Y-106539819D02*
X148854637Y-106539819D01*
X148854637Y-106539819D02*
X148943922Y-106492200D01*
X148943922Y-106492200D02*
X148979637Y-106396961D01*
X148979637Y-106396961D02*
X148932018Y-106016009D01*
X148932018Y-106016009D02*
X148872494Y-105920771D01*
X148872494Y-105920771D02*
X148771303Y-105873152D01*
X148771303Y-105873152D02*
X148580827Y-105873152D01*
X148580827Y-105873152D02*
X148491541Y-105920771D01*
X148491541Y-105920771D02*
X148455827Y-106016009D01*
X148455827Y-106016009D02*
X148467732Y-106111247D01*
X148467732Y-106111247D02*
X148955827Y-106206485D01*
X148092732Y-106539819D02*
X148009398Y-105873152D01*
X148033208Y-106063628D02*
X147973684Y-105968390D01*
X147973684Y-105968390D02*
X147920113Y-105920771D01*
X147920113Y-105920771D02*
X147818922Y-105873152D01*
X147818922Y-105873152D02*
X147723684Y-105873152D01*
X146949874Y-106539819D02*
X147521303Y-106539819D01*
X147235588Y-106539819D02*
X147110588Y-105539819D01*
X147110588Y-105539819D02*
X147223684Y-105682676D01*
X147223684Y-105682676D02*
X147330827Y-105777914D01*
X147330827Y-105777914D02*
X147432017Y-105825533D01*
X146509398Y-106444580D02*
X146467731Y-106492200D01*
X146467731Y-106492200D02*
X146521303Y-106539819D01*
X146521303Y-106539819D02*
X146562969Y-106492200D01*
X146562969Y-106492200D02*
X146509398Y-106444580D01*
X146509398Y-106444580D02*
X146521303Y-106539819D01*
X145729636Y-105539819D02*
X145634398Y-105539819D01*
X145634398Y-105539819D02*
X145545113Y-105587438D01*
X145545113Y-105587438D02*
X145503446Y-105635057D01*
X145503446Y-105635057D02*
X145467732Y-105730295D01*
X145467732Y-105730295D02*
X145443922Y-105920771D01*
X145443922Y-105920771D02*
X145473684Y-106158866D01*
X145473684Y-106158866D02*
X145545113Y-106349342D01*
X145545113Y-106349342D02*
X145604636Y-106444580D01*
X145604636Y-106444580D02*
X145658208Y-106492200D01*
X145658208Y-106492200D02*
X145759398Y-106539819D01*
X145759398Y-106539819D02*
X145854636Y-106539819D01*
X145854636Y-106539819D02*
X145943922Y-106492200D01*
X145943922Y-106492200D02*
X145985589Y-106444580D01*
X145985589Y-106444580D02*
X146021303Y-106349342D01*
X146021303Y-106349342D02*
X146045113Y-106158866D01*
X146045113Y-106158866D02*
X146015351Y-105920771D01*
X146015351Y-105920771D02*
X145943922Y-105730295D01*
X145943922Y-105730295D02*
X145884398Y-105635057D01*
X145884398Y-105635057D02*
X145830827Y-105587438D01*
X145830827Y-105587438D02*
X145729636Y-105539819D01*
X144265350Y-105635057D02*
X144211779Y-105587438D01*
X144211779Y-105587438D02*
X144110589Y-105539819D01*
X144110589Y-105539819D02*
X143872493Y-105539819D01*
X143872493Y-105539819D02*
X143783208Y-105587438D01*
X143783208Y-105587438D02*
X143741541Y-105635057D01*
X143741541Y-105635057D02*
X143705827Y-105730295D01*
X143705827Y-105730295D02*
X143717731Y-105825533D01*
X143717731Y-105825533D02*
X143783208Y-105968390D01*
X143783208Y-105968390D02*
X144426065Y-106539819D01*
X144426065Y-106539819D02*
X143807017Y-106539819D01*
X143062969Y-105539819D02*
X142967731Y-105539819D01*
X142967731Y-105539819D02*
X142878446Y-105587438D01*
X142878446Y-105587438D02*
X142836779Y-105635057D01*
X142836779Y-105635057D02*
X142801065Y-105730295D01*
X142801065Y-105730295D02*
X142777255Y-105920771D01*
X142777255Y-105920771D02*
X142807017Y-106158866D01*
X142807017Y-106158866D02*
X142878446Y-106349342D01*
X142878446Y-106349342D02*
X142937969Y-106444580D01*
X142937969Y-106444580D02*
X142991541Y-106492200D01*
X142991541Y-106492200D02*
X143092731Y-106539819D01*
X143092731Y-106539819D02*
X143187969Y-106539819D01*
X143187969Y-106539819D02*
X143277255Y-106492200D01*
X143277255Y-106492200D02*
X143318922Y-106444580D01*
X143318922Y-106444580D02*
X143354636Y-106349342D01*
X143354636Y-106349342D02*
X143378446Y-106158866D01*
X143378446Y-106158866D02*
X143348684Y-105920771D01*
X143348684Y-105920771D02*
X143277255Y-105730295D01*
X143277255Y-105730295D02*
X143217731Y-105635057D01*
X143217731Y-105635057D02*
X143164160Y-105587438D01*
X143164160Y-105587438D02*
X143062969Y-105539819D01*
X142360588Y-105635057D02*
X142307017Y-105587438D01*
X142307017Y-105587438D02*
X142205827Y-105539819D01*
X142205827Y-105539819D02*
X141967731Y-105539819D01*
X141967731Y-105539819D02*
X141878446Y-105587438D01*
X141878446Y-105587438D02*
X141836779Y-105635057D01*
X141836779Y-105635057D02*
X141801065Y-105730295D01*
X141801065Y-105730295D02*
X141812969Y-105825533D01*
X141812969Y-105825533D02*
X141878446Y-105968390D01*
X141878446Y-105968390D02*
X142521303Y-106539819D01*
X142521303Y-106539819D02*
X141902255Y-106539819D01*
X140872493Y-105539819D02*
X141348684Y-105539819D01*
X141348684Y-105539819D02*
X141455827Y-106016009D01*
X141455827Y-106016009D02*
X141402255Y-105968390D01*
X141402255Y-105968390D02*
X141301065Y-105920771D01*
X141301065Y-105920771D02*
X141062969Y-105920771D01*
X141062969Y-105920771D02*
X140973684Y-105968390D01*
X140973684Y-105968390D02*
X140932017Y-106016009D01*
X140932017Y-106016009D02*
X140896303Y-106111247D01*
X140896303Y-106111247D02*
X140926065Y-106349342D01*
X140926065Y-106349342D02*
X140985588Y-106444580D01*
X140985588Y-106444580D02*
X141039160Y-106492200D01*
X141039160Y-106492200D02*
X141140350Y-106539819D01*
X141140350Y-106539819D02*
X141378446Y-106539819D01*
X141378446Y-106539819D02*
X141467731Y-106492200D01*
X141467731Y-106492200D02*
X141509398Y-106444580D01*
X139676065Y-105492200D02*
X140693922Y-106777914D01*
X139158207Y-105539819D02*
X139062969Y-105539819D01*
X139062969Y-105539819D02*
X138973684Y-105587438D01*
X138973684Y-105587438D02*
X138932017Y-105635057D01*
X138932017Y-105635057D02*
X138896303Y-105730295D01*
X138896303Y-105730295D02*
X138872493Y-105920771D01*
X138872493Y-105920771D02*
X138902255Y-106158866D01*
X138902255Y-106158866D02*
X138973684Y-106349342D01*
X138973684Y-106349342D02*
X139033207Y-106444580D01*
X139033207Y-106444580D02*
X139086779Y-106492200D01*
X139086779Y-106492200D02*
X139187969Y-106539819D01*
X139187969Y-106539819D02*
X139283207Y-106539819D01*
X139283207Y-106539819D02*
X139372493Y-106492200D01*
X139372493Y-106492200D02*
X139414160Y-106444580D01*
X139414160Y-106444580D02*
X139449874Y-106349342D01*
X139449874Y-106349342D02*
X139473684Y-106158866D01*
X139473684Y-106158866D02*
X139443922Y-105920771D01*
X139443922Y-105920771D02*
X139372493Y-105730295D01*
X139372493Y-105730295D02*
X139312969Y-105635057D01*
X139312969Y-105635057D02*
X139259398Y-105587438D01*
X139259398Y-105587438D02*
X139158207Y-105539819D01*
X137967731Y-105539819D02*
X138158207Y-105539819D01*
X138158207Y-105539819D02*
X138259398Y-105587438D01*
X138259398Y-105587438D02*
X138312969Y-105635057D01*
X138312969Y-105635057D02*
X138426065Y-105777914D01*
X138426065Y-105777914D02*
X138497493Y-105968390D01*
X138497493Y-105968390D02*
X138545112Y-106349342D01*
X138545112Y-106349342D02*
X138509398Y-106444580D01*
X138509398Y-106444580D02*
X138467731Y-106492200D01*
X138467731Y-106492200D02*
X138378446Y-106539819D01*
X138378446Y-106539819D02*
X138187969Y-106539819D01*
X138187969Y-106539819D02*
X138086779Y-106492200D01*
X138086779Y-106492200D02*
X138033207Y-106444580D01*
X138033207Y-106444580D02*
X137973684Y-106349342D01*
X137973684Y-106349342D02*
X137943922Y-106111247D01*
X137943922Y-106111247D02*
X137979636Y-106016009D01*
X137979636Y-106016009D02*
X138021303Y-105968390D01*
X138021303Y-105968390D02*
X138110588Y-105920771D01*
X138110588Y-105920771D02*
X138301065Y-105920771D01*
X138301065Y-105920771D02*
X138402255Y-105968390D01*
X138402255Y-105968390D02*
X138455826Y-106016009D01*
X138455826Y-106016009D02*
X138515350Y-106111247D01*
X136723684Y-105492200D02*
X137741541Y-106777914D01*
X136205826Y-105539819D02*
X136110588Y-105539819D01*
X136110588Y-105539819D02*
X136021303Y-105587438D01*
X136021303Y-105587438D02*
X135979636Y-105635057D01*
X135979636Y-105635057D02*
X135943922Y-105730295D01*
X135943922Y-105730295D02*
X135920112Y-105920771D01*
X135920112Y-105920771D02*
X135949874Y-106158866D01*
X135949874Y-106158866D02*
X136021303Y-106349342D01*
X136021303Y-106349342D02*
X136080826Y-106444580D01*
X136080826Y-106444580D02*
X136134398Y-106492200D01*
X136134398Y-106492200D02*
X136235588Y-106539819D01*
X136235588Y-106539819D02*
X136330826Y-106539819D01*
X136330826Y-106539819D02*
X136420112Y-106492200D01*
X136420112Y-106492200D02*
X136461779Y-106444580D01*
X136461779Y-106444580D02*
X136497493Y-106349342D01*
X136497493Y-106349342D02*
X136521303Y-106158866D01*
X136521303Y-106158866D02*
X136491541Y-105920771D01*
X136491541Y-105920771D02*
X136420112Y-105730295D01*
X136420112Y-105730295D02*
X136360588Y-105635057D01*
X136360588Y-105635057D02*
X136307017Y-105587438D01*
X136307017Y-105587438D02*
X136205826Y-105539819D01*
X135057017Y-105873152D02*
X135140350Y-106539819D01*
X135247493Y-105492200D02*
X135574874Y-106206485D01*
X135574874Y-106206485D02*
X134955826Y-106206485D01*
X135170112Y-100885057D02*
X135122493Y-100837438D01*
X135122493Y-100837438D02*
X135027255Y-100789819D01*
X135027255Y-100789819D02*
X134789160Y-100789819D01*
X134789160Y-100789819D02*
X134693922Y-100837438D01*
X134693922Y-100837438D02*
X134646303Y-100885057D01*
X134646303Y-100885057D02*
X134598684Y-100980295D01*
X134598684Y-100980295D02*
X134598684Y-101075533D01*
X134598684Y-101075533D02*
X134646303Y-101218390D01*
X134646303Y-101218390D02*
X135217731Y-101789819D01*
X135217731Y-101789819D02*
X134598684Y-101789819D01*
X133741541Y-101123152D02*
X133741541Y-101789819D01*
X133979636Y-100742200D02*
X134217731Y-101456485D01*
X134217731Y-101456485D02*
X133598684Y-101456485D01*
X133360588Y-100789819D02*
X133027255Y-101789819D01*
X133027255Y-101789819D02*
X132693922Y-100789819D01*
X175380180Y-84758458D02*
X175380180Y-84139411D01*
X175380180Y-84139411D02*
X174999228Y-84472744D01*
X174999228Y-84472744D02*
X174999228Y-84329887D01*
X174999228Y-84329887D02*
X174951609Y-84234649D01*
X174951609Y-84234649D02*
X174903990Y-84187030D01*
X174903990Y-84187030D02*
X174808752Y-84139411D01*
X174808752Y-84139411D02*
X174570657Y-84139411D01*
X174570657Y-84139411D02*
X174475419Y-84187030D01*
X174475419Y-84187030D02*
X174427800Y-84234649D01*
X174427800Y-84234649D02*
X174380180Y-84329887D01*
X174380180Y-84329887D02*
X174380180Y-84615601D01*
X174380180Y-84615601D02*
X174427800Y-84710839D01*
X174427800Y-84710839D02*
X174475419Y-84758458D01*
X157413220Y-91158866D02*
X156651316Y-91158866D01*
X135634397Y-97742200D02*
X135491540Y-97789819D01*
X135491540Y-97789819D02*
X135253445Y-97789819D01*
X135253445Y-97789819D02*
X135158207Y-97742200D01*
X135158207Y-97742200D02*
X135110588Y-97694580D01*
X135110588Y-97694580D02*
X135062969Y-97599342D01*
X135062969Y-97599342D02*
X135062969Y-97504104D01*
X135062969Y-97504104D02*
X135110588Y-97408866D01*
X135110588Y-97408866D02*
X135158207Y-97361247D01*
X135158207Y-97361247D02*
X135253445Y-97313628D01*
X135253445Y-97313628D02*
X135443921Y-97266009D01*
X135443921Y-97266009D02*
X135539159Y-97218390D01*
X135539159Y-97218390D02*
X135586778Y-97170771D01*
X135586778Y-97170771D02*
X135634397Y-97075533D01*
X135634397Y-97075533D02*
X135634397Y-96980295D01*
X135634397Y-96980295D02*
X135586778Y-96885057D01*
X135586778Y-96885057D02*
X135539159Y-96837438D01*
X135539159Y-96837438D02*
X135443921Y-96789819D01*
X135443921Y-96789819D02*
X135205826Y-96789819D01*
X135205826Y-96789819D02*
X135062969Y-96837438D01*
X134634397Y-97789819D02*
X134634397Y-96789819D01*
X133634398Y-96837438D02*
X133729636Y-96789819D01*
X133729636Y-96789819D02*
X133872493Y-96789819D01*
X133872493Y-96789819D02*
X134015350Y-96837438D01*
X134015350Y-96837438D02*
X134110588Y-96932676D01*
X134110588Y-96932676D02*
X134158207Y-97027914D01*
X134158207Y-97027914D02*
X134205826Y-97218390D01*
X134205826Y-97218390D02*
X134205826Y-97361247D01*
X134205826Y-97361247D02*
X134158207Y-97551723D01*
X134158207Y-97551723D02*
X134110588Y-97646961D01*
X134110588Y-97646961D02*
X134015350Y-97742200D01*
X134015350Y-97742200D02*
X133872493Y-97789819D01*
X133872493Y-97789819D02*
X133777255Y-97789819D01*
X133777255Y-97789819D02*
X133634398Y-97742200D01*
X133634398Y-97742200D02*
X133586779Y-97694580D01*
X133586779Y-97694580D02*
X133586779Y-97361247D01*
X133586779Y-97361247D02*
X133777255Y-97361247D01*
X133158207Y-97789819D02*
X133158207Y-96789819D01*
X133158207Y-96789819D02*
X132586779Y-97789819D01*
X132586779Y-97789819D02*
X132586779Y-96789819D01*
X152258458Y-83369819D02*
X151639411Y-83369819D01*
X151639411Y-83369819D02*
X151972744Y-83750771D01*
X151972744Y-83750771D02*
X151829887Y-83750771D01*
X151829887Y-83750771D02*
X151734649Y-83798390D01*
X151734649Y-83798390D02*
X151687030Y-83846009D01*
X151687030Y-83846009D02*
X151639411Y-83941247D01*
X151639411Y-83941247D02*
X151639411Y-84179342D01*
X151639411Y-84179342D02*
X151687030Y-84274580D01*
X151687030Y-84274580D02*
X151734649Y-84322200D01*
X151734649Y-84322200D02*
X151829887Y-84369819D01*
X151829887Y-84369819D02*
X152115601Y-84369819D01*
X152115601Y-84369819D02*
X152210839Y-84322200D01*
X152210839Y-84322200D02*
X152258458Y-84274580D01*
X144877506Y-88259875D02*
X144877506Y-88974160D01*
X144877506Y-88974160D02*
X144925125Y-89117017D01*
X144925125Y-89117017D02*
X145020363Y-89212256D01*
X145020363Y-89212256D02*
X145163220Y-89259875D01*
X145163220Y-89259875D02*
X145258458Y-89259875D01*
X143877506Y-89259875D02*
X144448934Y-89259875D01*
X144163220Y-89259875D02*
X144163220Y-88259875D01*
X144163220Y-88259875D02*
X144258458Y-88402732D01*
X144258458Y-88402732D02*
X144353696Y-88497970D01*
X144353696Y-88497970D02*
X144448934Y-88545589D01*
X143448934Y-88878922D02*
X142687030Y-88878922D01*
X141782268Y-88259875D02*
X141972744Y-88259875D01*
X141972744Y-88259875D02*
X142067982Y-88307494D01*
X142067982Y-88307494D02*
X142115601Y-88355113D01*
X142115601Y-88355113D02*
X142210839Y-88497970D01*
X142210839Y-88497970D02*
X142258458Y-88688446D01*
X142258458Y-88688446D02*
X142258458Y-89069398D01*
X142258458Y-89069398D02*
X142210839Y-89164636D01*
X142210839Y-89164636D02*
X142163220Y-89212256D01*
X142163220Y-89212256D02*
X142067982Y-89259875D01*
X142067982Y-89259875D02*
X141877506Y-89259875D01*
X141877506Y-89259875D02*
X141782268Y-89212256D01*
X141782268Y-89212256D02*
X141734649Y-89164636D01*
X141734649Y-89164636D02*
X141687030Y-89069398D01*
X141687030Y-89069398D02*
X141687030Y-88831303D01*
X141687030Y-88831303D02*
X141734649Y-88736065D01*
X141734649Y-88736065D02*
X141782268Y-88688446D01*
X141782268Y-88688446D02*
X141877506Y-88640827D01*
X141877506Y-88640827D02*
X142067982Y-88640827D01*
X142067982Y-88640827D02*
X142163220Y-88688446D01*
X142163220Y-88688446D02*
X142210839Y-88736065D01*
X142210839Y-88736065D02*
X142258458Y-88831303D01*
X141258458Y-89164636D02*
X141210839Y-89212256D01*
X141210839Y-89212256D02*
X141258458Y-89259875D01*
X141258458Y-89259875D02*
X141306077Y-89212256D01*
X141306077Y-89212256D02*
X141258458Y-89164636D01*
X141258458Y-89164636D02*
X141258458Y-89259875D01*
X141258458Y-88640827D02*
X141210839Y-88688446D01*
X141210839Y-88688446D02*
X141258458Y-88736065D01*
X141258458Y-88736065D02*
X141306077Y-88688446D01*
X141306077Y-88688446D02*
X141258458Y-88640827D01*
X141258458Y-88640827D02*
X141258458Y-88736065D01*
X140115601Y-88259875D02*
X139448935Y-89259875D01*
X139448935Y-88259875D02*
X140115601Y-89259875D01*
X139067982Y-89259875D02*
X139067982Y-88259875D01*
X139067982Y-88259875D02*
X138496554Y-89259875D01*
X138496554Y-89259875D02*
X138496554Y-88259875D01*
X138067982Y-88355113D02*
X138020363Y-88307494D01*
X138020363Y-88307494D02*
X137925125Y-88259875D01*
X137925125Y-88259875D02*
X137687030Y-88259875D01*
X137687030Y-88259875D02*
X137591792Y-88307494D01*
X137591792Y-88307494D02*
X137544173Y-88355113D01*
X137544173Y-88355113D02*
X137496554Y-88450351D01*
X137496554Y-88450351D02*
X137496554Y-88545589D01*
X137496554Y-88545589D02*
X137544173Y-88688446D01*
X137544173Y-88688446D02*
X138115601Y-89259875D01*
X138115601Y-89259875D02*
X137496554Y-89259875D01*
X137067982Y-89259875D02*
X137067982Y-88259875D01*
X137067982Y-88259875D02*
X136829887Y-88259875D01*
X136829887Y-88259875D02*
X136687030Y-88307494D01*
X136687030Y-88307494D02*
X136591792Y-88402732D01*
X136591792Y-88402732D02*
X136544173Y-88497970D01*
X136544173Y-88497970D02*
X136496554Y-88688446D01*
X136496554Y-88688446D02*
X136496554Y-88831303D01*
X136496554Y-88831303D02*
X136544173Y-89021779D01*
X136544173Y-89021779D02*
X136591792Y-89117017D01*
X136591792Y-89117017D02*
X136687030Y-89212256D01*
X136687030Y-89212256D02*
X136829887Y-89259875D01*
X136829887Y-89259875D02*
X137067982Y-89259875D01*
X136067982Y-88878922D02*
X135306078Y-88878922D01*
X134306078Y-89259875D02*
X134877506Y-89259875D01*
X134591792Y-89259875D02*
X134591792Y-88259875D01*
X134591792Y-88259875D02*
X134687030Y-88402732D01*
X134687030Y-88402732D02*
X134782268Y-88497970D01*
X134782268Y-88497970D02*
X134877506Y-88545589D01*
X133972744Y-88259875D02*
X133353697Y-88259875D01*
X133353697Y-88259875D02*
X133687030Y-88640827D01*
X133687030Y-88640827D02*
X133544173Y-88640827D01*
X133544173Y-88640827D02*
X133448935Y-88688446D01*
X133448935Y-88688446D02*
X133401316Y-88736065D01*
X133401316Y-88736065D02*
X133353697Y-88831303D01*
X133353697Y-88831303D02*
X133353697Y-89069398D01*
X133353697Y-89069398D02*
X133401316Y-89164636D01*
X133401316Y-89164636D02*
X133448935Y-89212256D01*
X133448935Y-89212256D02*
X133544173Y-89259875D01*
X133544173Y-89259875D02*
X133829887Y-89259875D01*
X133829887Y-89259875D02*
X133925125Y-89212256D01*
X133925125Y-89212256D02*
X133972744Y-89164636D01*
X133020363Y-88259875D02*
X132353697Y-88259875D01*
X132353697Y-88259875D02*
X132782268Y-89259875D01*
X131448935Y-89259875D02*
X132020363Y-89259875D01*
X131734649Y-89259875D02*
X131734649Y-88259875D01*
X131734649Y-88259875D02*
X131829887Y-88402732D01*
X131829887Y-88402732D02*
X131925125Y-88497970D01*
X131925125Y-88497970D02*
X132020363Y-88545589D01*
X144877506Y-89869819D02*
X144877506Y-90584104D01*
X144877506Y-90584104D02*
X144925125Y-90726961D01*
X144925125Y-90726961D02*
X145020363Y-90822200D01*
X145020363Y-90822200D02*
X145163220Y-90869819D01*
X145163220Y-90869819D02*
X145258458Y-90869819D01*
X144496553Y-89869819D02*
X143829887Y-89869819D01*
X143829887Y-89869819D02*
X144258458Y-90869819D01*
X141925124Y-90774580D02*
X141877505Y-90822200D01*
X141877505Y-90822200D02*
X141925124Y-90869819D01*
X141925124Y-90869819D02*
X141972743Y-90822200D01*
X141972743Y-90822200D02*
X141925124Y-90774580D01*
X141925124Y-90774580D02*
X141925124Y-90869819D01*
X141925124Y-90250771D02*
X141877505Y-90298390D01*
X141877505Y-90298390D02*
X141925124Y-90346009D01*
X141925124Y-90346009D02*
X141972743Y-90298390D01*
X141972743Y-90298390D02*
X141925124Y-90250771D01*
X141925124Y-90250771D02*
X141925124Y-90346009D01*
X140258458Y-90869819D02*
X140258458Y-90346009D01*
X140258458Y-90346009D02*
X140306077Y-90250771D01*
X140306077Y-90250771D02*
X140401315Y-90203152D01*
X140401315Y-90203152D02*
X140591791Y-90203152D01*
X140591791Y-90203152D02*
X140687029Y-90250771D01*
X140258458Y-90822200D02*
X140353696Y-90869819D01*
X140353696Y-90869819D02*
X140591791Y-90869819D01*
X140591791Y-90869819D02*
X140687029Y-90822200D01*
X140687029Y-90822200D02*
X140734648Y-90726961D01*
X140734648Y-90726961D02*
X140734648Y-90631723D01*
X140734648Y-90631723D02*
X140687029Y-90536485D01*
X140687029Y-90536485D02*
X140591791Y-90488866D01*
X140591791Y-90488866D02*
X140353696Y-90488866D01*
X140353696Y-90488866D02*
X140258458Y-90441247D01*
X139782267Y-90203152D02*
X139782267Y-90869819D01*
X139782267Y-90298390D02*
X139734648Y-90250771D01*
X139734648Y-90250771D02*
X139639410Y-90203152D01*
X139639410Y-90203152D02*
X139496553Y-90203152D01*
X139496553Y-90203152D02*
X139401315Y-90250771D01*
X139401315Y-90250771D02*
X139353696Y-90346009D01*
X139353696Y-90346009D02*
X139353696Y-90869819D01*
X138972743Y-90203152D02*
X138734648Y-90869819D01*
X138496553Y-90203152D02*
X138734648Y-90869819D01*
X138734648Y-90869819D02*
X138829886Y-91107914D01*
X138829886Y-91107914D02*
X138877505Y-91155533D01*
X138877505Y-91155533D02*
X138972743Y-91203152D01*
X157413220Y-83988866D02*
X156651316Y-83988866D01*
X180758458Y-89369819D02*
X180139411Y-89369819D01*
X180139411Y-89369819D02*
X180472744Y-89750771D01*
X180472744Y-89750771D02*
X180329887Y-89750771D01*
X180329887Y-89750771D02*
X180234649Y-89798390D01*
X180234649Y-89798390D02*
X180187030Y-89846009D01*
X180187030Y-89846009D02*
X180139411Y-89941247D01*
X180139411Y-89941247D02*
X180139411Y-90179342D01*
X180139411Y-90179342D02*
X180187030Y-90274580D01*
X180187030Y-90274580D02*
X180234649Y-90322200D01*
X180234649Y-90322200D02*
X180329887Y-90369819D01*
X180329887Y-90369819D02*
X180615601Y-90369819D01*
X180615601Y-90369819D02*
X180710839Y-90322200D01*
X180710839Y-90322200D02*
X180758458Y-90274580D01*
X148937030Y-83369819D02*
X149413220Y-83369819D01*
X149413220Y-83369819D02*
X149460839Y-83846009D01*
X149460839Y-83846009D02*
X149413220Y-83798390D01*
X149413220Y-83798390D02*
X149317982Y-83750771D01*
X149317982Y-83750771D02*
X149079887Y-83750771D01*
X149079887Y-83750771D02*
X148984649Y-83798390D01*
X148984649Y-83798390D02*
X148937030Y-83846009D01*
X148937030Y-83846009D02*
X148889411Y-83941247D01*
X148889411Y-83941247D02*
X148889411Y-84179342D01*
X148889411Y-84179342D02*
X148937030Y-84274580D01*
X148937030Y-84274580D02*
X148984649Y-84322200D01*
X148984649Y-84322200D02*
X149079887Y-84369819D01*
X149079887Y-84369819D02*
X149317982Y-84369819D01*
X149317982Y-84369819D02*
X149413220Y-84322200D01*
X149413220Y-84322200D02*
X149460839Y-84274580D01*
X159913220Y-91158866D02*
X159151316Y-91158866D01*
X159532268Y-91539819D02*
X159532268Y-90777914D01*
X148984649Y-90539819D02*
X149175125Y-90539819D01*
X149175125Y-90539819D02*
X149270363Y-90587438D01*
X149270363Y-90587438D02*
X149317982Y-90635057D01*
X149317982Y-90635057D02*
X149413220Y-90777914D01*
X149413220Y-90777914D02*
X149460839Y-90968390D01*
X149460839Y-90968390D02*
X149460839Y-91349342D01*
X149460839Y-91349342D02*
X149413220Y-91444580D01*
X149413220Y-91444580D02*
X149365601Y-91492200D01*
X149365601Y-91492200D02*
X149270363Y-91539819D01*
X149270363Y-91539819D02*
X149079887Y-91539819D01*
X149079887Y-91539819D02*
X148984649Y-91492200D01*
X148984649Y-91492200D02*
X148937030Y-91444580D01*
X148937030Y-91444580D02*
X148889411Y-91349342D01*
X148889411Y-91349342D02*
X148889411Y-91111247D01*
X148889411Y-91111247D02*
X148937030Y-91016009D01*
X148937030Y-91016009D02*
X148984649Y-90968390D01*
X148984649Y-90968390D02*
X149079887Y-90920771D01*
X149079887Y-90920771D02*
X149270363Y-90920771D01*
X149270363Y-90920771D02*
X149365601Y-90968390D01*
X149365601Y-90968390D02*
X149413220Y-91016009D01*
X149413220Y-91016009D02*
X149460839Y-91111247D01*
X134884398Y-98837438D02*
X134979636Y-98789819D01*
X134979636Y-98789819D02*
X135122493Y-98789819D01*
X135122493Y-98789819D02*
X135265350Y-98837438D01*
X135265350Y-98837438D02*
X135360588Y-98932676D01*
X135360588Y-98932676D02*
X135408207Y-99027914D01*
X135408207Y-99027914D02*
X135455826Y-99218390D01*
X135455826Y-99218390D02*
X135455826Y-99361247D01*
X135455826Y-99361247D02*
X135408207Y-99551723D01*
X135408207Y-99551723D02*
X135360588Y-99646961D01*
X135360588Y-99646961D02*
X135265350Y-99742200D01*
X135265350Y-99742200D02*
X135122493Y-99789819D01*
X135122493Y-99789819D02*
X135027255Y-99789819D01*
X135027255Y-99789819D02*
X134884398Y-99742200D01*
X134884398Y-99742200D02*
X134836779Y-99694580D01*
X134836779Y-99694580D02*
X134836779Y-99361247D01*
X134836779Y-99361247D02*
X135027255Y-99361247D01*
X134408207Y-99789819D02*
X134408207Y-98789819D01*
X134408207Y-98789819D02*
X133836779Y-99789819D01*
X133836779Y-99789819D02*
X133836779Y-98789819D01*
X133360588Y-99789819D02*
X133360588Y-98789819D01*
X133360588Y-98789819D02*
X133122493Y-98789819D01*
X133122493Y-98789819D02*
X132979636Y-98837438D01*
X132979636Y-98837438D02*
X132884398Y-98932676D01*
X132884398Y-98932676D02*
X132836779Y-99027914D01*
X132836779Y-99027914D02*
X132789160Y-99218390D01*
X132789160Y-99218390D02*
X132789160Y-99361247D01*
X132789160Y-99361247D02*
X132836779Y-99551723D01*
X132836779Y-99551723D02*
X132884398Y-99646961D01*
X132884398Y-99646961D02*
X132979636Y-99742200D01*
X132979636Y-99742200D02*
X133122493Y-99789819D01*
X133122493Y-99789819D02*
X133360588Y-99789819D01*
X154710839Y-90635057D02*
X154663220Y-90587438D01*
X154663220Y-90587438D02*
X154567982Y-90539819D01*
X154567982Y-90539819D02*
X154329887Y-90539819D01*
X154329887Y-90539819D02*
X154234649Y-90587438D01*
X154234649Y-90587438D02*
X154187030Y-90635057D01*
X154187030Y-90635057D02*
X154139411Y-90730295D01*
X154139411Y-90730295D02*
X154139411Y-90825533D01*
X154139411Y-90825533D02*
X154187030Y-90968390D01*
X154187030Y-90968390D02*
X154758458Y-91539819D01*
X154758458Y-91539819D02*
X154139411Y-91539819D01*
X175865601Y-87453152D02*
X175913220Y-87500771D01*
X175913220Y-87500771D02*
X175960839Y-87596009D01*
X175960839Y-87596009D02*
X175960839Y-87881723D01*
X175960839Y-87881723D02*
X175913220Y-87976961D01*
X175913220Y-87976961D02*
X175817982Y-88072200D01*
X175817982Y-88072200D02*
X175722744Y-88119819D01*
X175722744Y-88119819D02*
X175532268Y-88119819D01*
X175532268Y-88119819D02*
X175437030Y-88072200D01*
X175437030Y-88072200D02*
X175341792Y-87976961D01*
X175341792Y-87976961D02*
X175294173Y-87881723D01*
X175294173Y-87881723D02*
X175294173Y-87596009D01*
X175294173Y-87596009D02*
X175341792Y-87500771D01*
X175341792Y-87500771D02*
X175437030Y-87453152D01*
X175437030Y-87453152D02*
X175484649Y-87453152D01*
X175484649Y-87453152D02*
X175579887Y-87500771D01*
X175579887Y-87500771D02*
X175627506Y-87596009D01*
X175627506Y-87596009D02*
X175627506Y-88453152D01*
X174960839Y-87119819D02*
X174341792Y-87119819D01*
X174341792Y-87119819D02*
X174675125Y-87500771D01*
X174675125Y-87500771D02*
X174532268Y-87500771D01*
X174532268Y-87500771D02*
X174437030Y-87548390D01*
X174437030Y-87548390D02*
X174389411Y-87596009D01*
X174389411Y-87596009D02*
X174341792Y-87691247D01*
X174341792Y-87691247D02*
X174341792Y-87929342D01*
X174341792Y-87929342D02*
X174389411Y-88024580D01*
X174389411Y-88024580D02*
X174437030Y-88072200D01*
X174437030Y-88072200D02*
X174532268Y-88119819D01*
X174532268Y-88119819D02*
X174817982Y-88119819D01*
X174817982Y-88119819D02*
X174913220Y-88072200D01*
X174913220Y-88072200D02*
X174960839Y-88024580D01*
X173913220Y-88024580D02*
X173865601Y-88072200D01*
X173865601Y-88072200D02*
X173913220Y-88119819D01*
X173913220Y-88119819D02*
X173960839Y-88072200D01*
X173960839Y-88072200D02*
X173913220Y-88024580D01*
X173913220Y-88024580D02*
X173913220Y-88119819D01*
X173484649Y-87215057D02*
X173437030Y-87167438D01*
X173437030Y-87167438D02*
X173341792Y-87119819D01*
X173341792Y-87119819D02*
X173103697Y-87119819D01*
X173103697Y-87119819D02*
X173008459Y-87167438D01*
X173008459Y-87167438D02*
X172960840Y-87215057D01*
X172960840Y-87215057D02*
X172913221Y-87310295D01*
X172913221Y-87310295D02*
X172913221Y-87405533D01*
X172913221Y-87405533D02*
X172960840Y-87548390D01*
X172960840Y-87548390D02*
X173532268Y-88119819D01*
X173532268Y-88119819D02*
X172913221Y-88119819D01*
X159913220Y-83988866D02*
X159151316Y-83988866D01*
X159532268Y-84369819D02*
X159532268Y-83607914D01*
X151734649Y-90873152D02*
X151734649Y-91539819D01*
X151972744Y-90492200D02*
X152210839Y-91206485D01*
X152210839Y-91206485D02*
X151591792Y-91206485D01*
M02*
