M48
; DRILL file {KiCad 8.0.5} date 2025-06-06T16:31:16+0900
; FORMAT={-:-/ absolute / metric / decimal}
; #@! TF.CreationDate,2025-06-06T16:31:16+09:00
; #@! TF.GenerationSoftware,Kicad,Pcbnew,8.0.5
; #@! TF.FileFunction,Plated,1,2,PTH
FMAT,2
METRIC
; #@! TA.AperFunction,Plated,PTH,ViaDrill
T1C0.300
; #@! TA.AperFunction,Plated,PTH,ComponentDrill
T2C1.000
%
G90
G05
T1
X128.2Y-92.0
X128.2Y-95.5
X128.2Y-99.0
X131.25Y-91.75
X131.25Y-98.75
X135.5Y-97.5
X136.0Y-84.0
X136.0Y-107.0
X137.25Y-91.0
X142.75Y-91.5
X145.25Y-84.0
X145.25Y-107.0
X149.25Y-91.5
X154.0Y-92.75
X154.5Y-84.0
X154.5Y-107.0
X155.0Y-95.0
X155.75Y-91.0
X157.0Y-93.0
X159.5Y-94.0
X161.25Y-90.75
X163.25Y-88.0
X163.3Y-92.8
X163.75Y-84.0
X163.75Y-107.0
X173.0Y-84.0
X173.0Y-107.0
X180.9Y-92.0
X180.9Y-95.5
X180.9Y-99.0
T2
X137.5Y-95.3
X137.5Y-97.3
X137.5Y-99.3
X137.5Y-101.3
X137.5Y-103.3
X144.3Y-95.3
X144.3Y-97.3
X144.3Y-99.3
X144.3Y-101.3
X144.3Y-103.3
X149.42Y-86.25
X149.42Y-88.79
X151.1Y-95.3
X151.1Y-97.3
X151.1Y-99.3
X151.1Y-101.3
X151.1Y-103.3
X151.96Y-86.25
X151.96Y-88.79
X154.5Y-86.25
X154.5Y-88.79
X157.04Y-86.25
X157.04Y-88.79
X157.9Y-95.3
X157.9Y-97.3
X157.9Y-99.3
X157.9Y-101.3
X157.9Y-103.3
X159.58Y-86.25
X159.58Y-88.79
X164.7Y-95.3
X164.7Y-97.3
X164.7Y-99.3
X164.7Y-101.3
X164.7Y-103.3
X171.5Y-95.3
X171.5Y-97.3
X171.5Y-99.3
X171.5Y-101.3
X171.5Y-103.3
M30
