%TF.GenerationSoftware,KiCad,Pcbnew,8.0.5*%
%TF.CreationDate,2025-06-06T09:51:35+09:00*%
%TF.ProjectId,e-con_hub,652d636f-6e5f-4687-9562-2e6b69636164,rev?*%
%TF.SameCoordinates,Original*%
%TF.FileFunction,Soldermask,Top*%
%TF.FilePolarity,Negative*%
%FSLAX46Y46*%
G04 Gerber Fmt 4.6, Leading zero omitted, Abs format (unit mm)*
G04 Created by KiCad (PCBNEW 8.0.5) date 2025-06-06 09:51:35*
%MOMM*%
%LPD*%
G01*
G04 APERTURE LIST*
%ADD10C,1.500000*%
%ADD11R,1.700000X1.700000*%
%ADD12O,1.700000X1.700000*%
G04 APERTURE END LIST*
D10*
%TO.C,J3*%
X151100000Y-101300000D03*
X151100000Y-99300000D03*
X151100000Y-95300000D03*
X151100000Y-103300000D03*
X151100000Y-97300000D03*
%TD*%
%TO.C,J5*%
X164700000Y-101300000D03*
X164700000Y-99300000D03*
X164700000Y-95300000D03*
X164700000Y-103300000D03*
X164700000Y-97300000D03*
%TD*%
%TO.C,J4*%
X157900000Y-101300000D03*
X157900000Y-99300000D03*
X157900000Y-95300000D03*
X157900000Y-103300000D03*
X157900000Y-97300000D03*
%TD*%
%TO.C,J6*%
X171500000Y-101300000D03*
X171500000Y-99300000D03*
X171500000Y-95300000D03*
X171500000Y-103300000D03*
X171500000Y-97300000D03*
%TD*%
D11*
%TO.C,J7*%
X159580000Y-86250000D03*
D12*
X159580000Y-88790000D03*
X157040000Y-86250000D03*
X157040000Y-88790000D03*
X154500000Y-86250000D03*
X154500000Y-88790000D03*
X151960000Y-86250000D03*
X151960000Y-88790000D03*
X149420000Y-86250000D03*
X149420000Y-88790000D03*
%TD*%
D10*
%TO.C,J2*%
X144300000Y-101300000D03*
X144300000Y-99300000D03*
X144300000Y-95300000D03*
X144300000Y-103300000D03*
X144300000Y-97300000D03*
%TD*%
%TO.C,J1*%
X137500000Y-101300000D03*
X137500000Y-99300000D03*
X137500000Y-95300000D03*
X137500000Y-103300000D03*
X137500000Y-97300000D03*
%TD*%
M02*
