%TF.GenerationSoftware,KiCad,Pcbnew,8.0.5*%
%TF.CreationDate,2025-06-06T09:51:35+09:00*%
%TF.ProjectId,e-con_hub,652d636f-6e5f-4687-9562-2e6b69636164,rev?*%
%TF.SameCoordinates,Original*%
%TF.FileFunction,Copper,L2,Bot*%
%TF.FilePolarity,Positive*%
%FSLAX46Y46*%
G04 Gerber Fmt 4.6, Leading zero omitted, Abs format (unit mm)*
G04 Created by KiCad (PCBNEW 8.0.5) date 2025-06-06 09:51:35*
%MOMM*%
%LPD*%
G01*
G04 APERTURE LIST*
%TA.AperFunction,ComponentPad*%
%ADD10C,1.500000*%
%TD*%
%TA.AperFunction,ComponentPad*%
%ADD11R,1.700000X1.700000*%
%TD*%
%TA.AperFunction,ComponentPad*%
%ADD12O,1.700000X1.700000*%
%TD*%
%TA.AperFunction,ViaPad*%
%ADD13C,0.600000*%
%TD*%
%TA.AperFunction,Conductor*%
%ADD14C,2.000000*%
%TD*%
%TA.AperFunction,Conductor*%
%ADD15C,0.300000*%
%TD*%
G04 APERTURE END LIST*
D10*
%TO.P,J3,24V,24V*%
%TO.N,+24V*%
X151100000Y-101300000D03*
%TO.P,J3,GND,GND*%
%TO.N,GND*%
X151100000Y-99300000D03*
%TO.P,J3,NC,NC*%
X151100000Y-95300000D03*
X151100000Y-103300000D03*
%TO.P,J3,Sign,Sign*%
%TO.N,Net-(J7-Pin_7)*%
X151100000Y-97300000D03*
%TD*%
%TO.P,J5,24V,24V*%
%TO.N,+24V*%
X164700000Y-101300000D03*
%TO.P,J5,GND,GND*%
%TO.N,GND*%
X164700000Y-99300000D03*
%TO.P,J5,NC,NC*%
X164700000Y-95300000D03*
X164700000Y-103300000D03*
%TO.P,J5,Sign,Sign*%
%TO.N,Net-(J7-Pin_9)*%
X164700000Y-97300000D03*
%TD*%
%TO.P,J4,24V,24V*%
%TO.N,+24V*%
X157900000Y-101300000D03*
%TO.P,J4,GND,GND*%
%TO.N,GND*%
X157900000Y-99300000D03*
%TO.P,J4,NC,NC*%
X157900000Y-95300000D03*
X157900000Y-103300000D03*
%TO.P,J4,Sign,Sign*%
%TO.N,Net-(J7-Pin_8)*%
X157900000Y-97300000D03*
%TD*%
%TO.P,J6,24V,24V*%
%TO.N,+24V*%
X171500000Y-101300000D03*
%TO.P,J6,GND,GND*%
%TO.N,GND*%
X171500000Y-99300000D03*
%TO.P,J6,NC,NC*%
X171500000Y-95300000D03*
X171500000Y-103300000D03*
%TO.P,J6,Sign,Sign*%
%TO.N,Net-(J7-Pin_10)*%
X171500000Y-97300000D03*
%TD*%
D11*
%TO.P,J7,1,Pin_1*%
%TO.N,+24V*%
X159580000Y-86250000D03*
D12*
%TO.P,J7,2,Pin_2*%
X159580000Y-88790000D03*
%TO.P,J7,3,Pin_3*%
%TO.N,GND*%
X157040000Y-86250000D03*
%TO.P,J7,4,Pin_4*%
X157040000Y-88790000D03*
%TO.P,J7,5,Pin_5*%
%TO.N,Net-(J7-Pin_5)*%
X154500000Y-86250000D03*
%TO.P,J7,6,Pin_6*%
%TO.N,Net-(J7-Pin_6)*%
X154500000Y-88790000D03*
%TO.P,J7,7,Pin_7*%
%TO.N,Net-(J7-Pin_7)*%
X151960000Y-86250000D03*
%TO.P,J7,8,Pin_8*%
%TO.N,Net-(J7-Pin_8)*%
X151960000Y-88790000D03*
%TO.P,J7,9,Pin_9*%
%TO.N,Net-(J7-Pin_9)*%
X149420000Y-86250000D03*
%TO.P,J7,10,Pin_10*%
%TO.N,Net-(J7-Pin_10)*%
X149420000Y-88790000D03*
%TD*%
D10*
%TO.P,J2,24V,24V*%
%TO.N,+24V*%
X144300000Y-101300000D03*
%TO.P,J2,GND,GND*%
%TO.N,GND*%
X144300000Y-99300000D03*
%TO.P,J2,NC,NC*%
X144300000Y-95300000D03*
X144300000Y-103300000D03*
%TO.P,J2,Sign,Sign*%
%TO.N,Net-(J7-Pin_6)*%
X144300000Y-97300000D03*
%TD*%
%TO.P,J1,24V,24V*%
%TO.N,+24V*%
X137500000Y-101300000D03*
%TO.P,J1,GND,GND*%
%TO.N,GND*%
X137500000Y-99300000D03*
%TO.P,J1,NC,NC*%
X137500000Y-95300000D03*
X137500000Y-103300000D03*
%TO.P,J1,Sign,Sign*%
%TO.N,Net-(J7-Pin_5)*%
X137500000Y-97300000D03*
%TD*%
D13*
%TO.N,GND*%
X170500000Y-91000000D03*
X155000000Y-91250000D03*
X152000000Y-91250000D03*
X160330000Y-84000000D03*
X177621320Y-99500000D03*
X152100000Y-107000000D03*
X161500000Y-86750000D03*
X180750000Y-101000000D03*
X154750000Y-84000000D03*
X180750000Y-95000000D03*
X128750000Y-89000000D03*
X146580000Y-88500000D03*
X128750000Y-95000000D03*
X172250000Y-86750000D03*
X171750000Y-84000000D03*
X148000000Y-92250000D03*
X177621320Y-92500000D03*
X146000000Y-85750000D03*
X128750000Y-101000000D03*
X141800000Y-84000000D03*
X132750000Y-107000000D03*
X180750000Y-89000000D03*
X162100000Y-107000000D03*
X143500000Y-85750000D03*
X135000000Y-93200000D03*
X132750000Y-84000000D03*
X142100000Y-107000000D03*
X161500000Y-91000000D03*
X172100000Y-107000000D03*
%TD*%
D14*
%TO.N,+24V*%
X171500000Y-101300000D02*
X137500000Y-101300000D01*
X173100000Y-101300000D02*
X171500000Y-101300000D01*
X175450000Y-98950000D02*
X173100000Y-101300000D01*
X175450000Y-92700000D02*
X175450000Y-98950000D01*
X171540000Y-88790000D02*
X175450000Y-92700000D01*
X171500000Y-88790000D02*
X171540000Y-88790000D01*
D15*
%TO.N,Net-(J7-Pin_8)*%
X155800000Y-97300000D02*
X157900000Y-97300000D01*
X153750000Y-90580000D02*
X153750000Y-95250000D01*
X151960000Y-88790000D02*
X153750000Y-90580000D01*
X153750000Y-95250000D02*
X155800000Y-97300000D01*
%TO.N,Net-(J7-Pin_5)*%
X136247567Y-96047567D02*
X137500000Y-97300000D01*
X142999239Y-84500000D02*
X136247567Y-91251672D01*
X136247567Y-91251672D02*
X136247567Y-96047567D01*
X153500000Y-84500000D02*
X142999239Y-84500000D01*
X154500000Y-85500000D02*
X153500000Y-84500000D01*
X154500000Y-86250000D02*
X154500000Y-85500000D01*
%TO.N,GND*%
X172700000Y-99300000D02*
X173400000Y-98600000D01*
X171500000Y-95300000D02*
X157900000Y-95300000D01*
X173400000Y-98600000D02*
X173400000Y-96100000D01*
X171500000Y-99300000D02*
X172700000Y-99300000D01*
X173400000Y-96100000D02*
X172600000Y-95300000D01*
X172600000Y-95300000D02*
X171500000Y-95300000D01*
%TO.N,Net-(J7-Pin_6)*%
X153300000Y-85757106D02*
X152771447Y-85228553D01*
X143047567Y-90452433D02*
X143047567Y-96047567D01*
X148450000Y-85050000D02*
X143047567Y-90452433D01*
X154500000Y-88790000D02*
X153300000Y-87590000D01*
X143047567Y-96047567D02*
X144300000Y-97300000D01*
X152771447Y-85228553D02*
X152592894Y-85050000D01*
X152592894Y-85050000D02*
X148450000Y-85050000D01*
X153300000Y-87590000D02*
X153300000Y-85757106D01*
%TO.N,Net-(J7-Pin_7)*%
X148750000Y-93270000D02*
X150760000Y-91260000D01*
X150760000Y-87450000D02*
X151960000Y-86250000D01*
X150760000Y-91260000D02*
X150760000Y-87450000D01*
X148750000Y-95000000D02*
X148750000Y-93270000D01*
X151100000Y-97300000D02*
X151050000Y-97300000D01*
X151050000Y-97300000D02*
X148750000Y-95000000D01*
D14*
%TO.N,+24V*%
X159580000Y-88790000D02*
X171500000Y-88790000D01*
X159580000Y-86250000D02*
X159580000Y-88790000D01*
%TD*%
%TA.AperFunction,Conductor*%
%TO.N,GND*%
G36*
X157540000Y-87173326D02*
G01*
X157626173Y-87127266D01*
X157786054Y-86996055D01*
X157859646Y-86906384D01*
X157917392Y-86867049D01*
X157987237Y-86865178D01*
X158047005Y-86901365D01*
X158077721Y-86964121D01*
X158079500Y-86985048D01*
X158079500Y-88054951D01*
X158059815Y-88121990D01*
X158007011Y-88167745D01*
X157937853Y-88177689D01*
X157874297Y-88148664D01*
X157859647Y-88133616D01*
X157786055Y-88043944D01*
X157626173Y-87912732D01*
X157626166Y-87912727D01*
X157540000Y-87866671D01*
X157540000Y-88724174D01*
X157505925Y-88597007D01*
X157440099Y-88482993D01*
X157347007Y-88389901D01*
X157232993Y-88324075D01*
X157105826Y-88290000D01*
X156974174Y-88290000D01*
X156847007Y-88324075D01*
X156732993Y-88389901D01*
X156639901Y-88482993D01*
X156574075Y-88597007D01*
X156540000Y-88724174D01*
X156540000Y-87866671D01*
X156539999Y-87866671D01*
X156453833Y-87912727D01*
X156453826Y-87912732D01*
X156293944Y-88043944D01*
X156162732Y-88203826D01*
X156162728Y-88203833D01*
X156065232Y-88386236D01*
X156045113Y-88452559D01*
X156006815Y-88510997D01*
X155943003Y-88539454D01*
X155873936Y-88528893D01*
X155821543Y-88482668D01*
X155806678Y-88448656D01*
X155773905Y-88326344D01*
X155773904Y-88326343D01*
X155773903Y-88326337D01*
X155674035Y-88112171D01*
X155638464Y-88061369D01*
X155538494Y-87918597D01*
X155371402Y-87751506D01*
X155371396Y-87751501D01*
X155185842Y-87621575D01*
X155142217Y-87566998D01*
X155135023Y-87497500D01*
X155166546Y-87435145D01*
X155185842Y-87418425D01*
X155313985Y-87328698D01*
X155371401Y-87288495D01*
X155538495Y-87121401D01*
X155674035Y-86927830D01*
X155773903Y-86713663D01*
X155806678Y-86591342D01*
X155843042Y-86531683D01*
X155905889Y-86501153D01*
X155975265Y-86509447D01*
X156029143Y-86553932D01*
X156045113Y-86587440D01*
X156065232Y-86653763D01*
X156162728Y-86836166D01*
X156162732Y-86836173D01*
X156293944Y-86996055D01*
X156453826Y-87127266D01*
X156540000Y-87173326D01*
X156540000Y-86315826D01*
X156574075Y-86442993D01*
X156639901Y-86557007D01*
X156732993Y-86650099D01*
X156847007Y-86715925D01*
X156974174Y-86750000D01*
X157105826Y-86750000D01*
X157232993Y-86715925D01*
X157347007Y-86650099D01*
X157440099Y-86557007D01*
X157505925Y-86442993D01*
X157540000Y-86315826D01*
X157540000Y-87173326D01*
G37*
%TD.AperFunction*%
%TA.AperFunction,Conductor*%
G36*
X179003736Y-83500726D02*
G01*
X179293796Y-83518271D01*
X179308659Y-83520076D01*
X179590798Y-83571780D01*
X179605335Y-83575363D01*
X179879172Y-83660695D01*
X179893163Y-83666000D01*
X180154743Y-83783727D01*
X180167989Y-83790680D01*
X180413465Y-83939075D01*
X180425776Y-83947573D01*
X180513319Y-84016158D01*
X180651573Y-84124473D01*
X180662781Y-84134403D01*
X180865596Y-84337218D01*
X180875526Y-84348426D01*
X180995481Y-84501538D01*
X181052422Y-84574217D01*
X181060926Y-84586537D01*
X181112168Y-84671302D01*
X181209316Y-84832004D01*
X181216275Y-84845263D01*
X181333997Y-85106831D01*
X181339306Y-85120832D01*
X181424635Y-85394663D01*
X181428219Y-85409201D01*
X181479923Y-85691340D01*
X181481728Y-85706205D01*
X181499274Y-85996263D01*
X181499500Y-86003750D01*
X181499500Y-104996249D01*
X181499274Y-105003736D01*
X181481728Y-105293794D01*
X181479923Y-105308659D01*
X181428219Y-105590798D01*
X181424635Y-105605336D01*
X181339306Y-105879167D01*
X181333997Y-105893168D01*
X181216275Y-106154736D01*
X181209316Y-106167995D01*
X181060928Y-106413459D01*
X181052422Y-106425782D01*
X180875526Y-106651573D01*
X180865596Y-106662781D01*
X180662781Y-106865596D01*
X180651573Y-106875526D01*
X180425782Y-107052422D01*
X180413459Y-107060928D01*
X180167995Y-107209316D01*
X180154736Y-107216275D01*
X179893168Y-107333997D01*
X179879167Y-107339306D01*
X179605336Y-107424635D01*
X179590798Y-107428219D01*
X179308659Y-107479923D01*
X179293794Y-107481728D01*
X179003736Y-107499274D01*
X178996249Y-107499500D01*
X130003751Y-107499500D01*
X129996264Y-107499274D01*
X129706205Y-107481728D01*
X129691340Y-107479923D01*
X129409201Y-107428219D01*
X129394663Y-107424635D01*
X129120832Y-107339306D01*
X129106831Y-107333997D01*
X128845263Y-107216275D01*
X128832004Y-107209316D01*
X128586540Y-107060928D01*
X128574217Y-107052422D01*
X128348426Y-106875526D01*
X128337218Y-106865596D01*
X128134403Y-106662781D01*
X128124473Y-106651573D01*
X127947573Y-106425776D01*
X127939075Y-106413465D01*
X127790680Y-106167989D01*
X127783727Y-106154743D01*
X127666000Y-105893163D01*
X127660693Y-105879167D01*
X127648113Y-105838797D01*
X127575363Y-105605335D01*
X127571780Y-105590798D01*
X127520075Y-105308657D01*
X127518271Y-105293794D01*
X127500726Y-105003736D01*
X127500613Y-105000000D01*
X127894592Y-105000000D01*
X127914201Y-105286680D01*
X127972666Y-105568034D01*
X127972667Y-105568037D01*
X128068894Y-105838793D01*
X128068893Y-105838793D01*
X128201098Y-106093935D01*
X128366812Y-106328700D01*
X128445972Y-106413459D01*
X128562947Y-106538708D01*
X128701677Y-106651573D01*
X128785853Y-106720055D01*
X129031382Y-106869365D01*
X129218237Y-106950526D01*
X129294942Y-106983844D01*
X129571642Y-107061371D01*
X129821920Y-107095771D01*
X129856321Y-107100500D01*
X129856322Y-107100500D01*
X130143679Y-107100500D01*
X130174370Y-107096281D01*
X130428358Y-107061371D01*
X130705058Y-106983844D01*
X130818015Y-106934779D01*
X130968617Y-106869365D01*
X130968620Y-106869363D01*
X130968625Y-106869361D01*
X131214147Y-106720055D01*
X131437053Y-106538708D01*
X131633189Y-106328698D01*
X131798901Y-106093936D01*
X131931104Y-105838797D01*
X132027334Y-105568032D01*
X132085798Y-105286686D01*
X132105408Y-105000000D01*
X176894592Y-105000000D01*
X176914201Y-105286680D01*
X176972666Y-105568034D01*
X176972667Y-105568037D01*
X177068894Y-105838793D01*
X177068893Y-105838793D01*
X177201098Y-106093935D01*
X177366812Y-106328700D01*
X177445972Y-106413459D01*
X177562947Y-106538708D01*
X177701677Y-106651573D01*
X177785853Y-106720055D01*
X178031382Y-106869365D01*
X178218237Y-106950526D01*
X178294942Y-106983844D01*
X178571642Y-107061371D01*
X178821920Y-107095771D01*
X178856321Y-107100500D01*
X178856322Y-107100500D01*
X179143679Y-107100500D01*
X179174370Y-107096281D01*
X179428358Y-107061371D01*
X179705058Y-106983844D01*
X179818015Y-106934779D01*
X179968617Y-106869365D01*
X179968620Y-106869363D01*
X179968625Y-106869361D01*
X180214147Y-106720055D01*
X180437053Y-106538708D01*
X180633189Y-106328698D01*
X180798901Y-106093936D01*
X180931104Y-105838797D01*
X181027334Y-105568032D01*
X181085798Y-105286686D01*
X181105408Y-105000000D01*
X181085798Y-104713314D01*
X181027334Y-104431968D01*
X180931105Y-104161206D01*
X180931106Y-104161206D01*
X180798901Y-103906064D01*
X180633187Y-103671299D01*
X180554554Y-103587105D01*
X180437053Y-103461292D01*
X180214147Y-103279945D01*
X180214146Y-103279944D01*
X179968617Y-103130634D01*
X179705063Y-103016158D01*
X179705061Y-103016157D01*
X179705058Y-103016156D01*
X179575578Y-102979877D01*
X179428364Y-102938630D01*
X179428359Y-102938629D01*
X179428358Y-102938629D01*
X179286018Y-102919064D01*
X179143679Y-102899500D01*
X179143678Y-102899500D01*
X178856322Y-102899500D01*
X178856321Y-102899500D01*
X178571642Y-102938629D01*
X178571635Y-102938630D01*
X178363861Y-102996845D01*
X178294942Y-103016156D01*
X178294939Y-103016156D01*
X178294936Y-103016158D01*
X178294935Y-103016158D01*
X178031382Y-103130634D01*
X177785853Y-103279944D01*
X177562950Y-103461289D01*
X177366812Y-103671299D01*
X177201098Y-103906064D01*
X177068894Y-104161206D01*
X176972667Y-104431962D01*
X176972666Y-104431965D01*
X176914201Y-104713319D01*
X176894592Y-105000000D01*
X132105408Y-105000000D01*
X132085798Y-104713314D01*
X132027334Y-104431968D01*
X131954227Y-104226265D01*
X137280839Y-104226265D01*
X137313767Y-104236255D01*
X137500000Y-104254596D01*
X137686233Y-104236255D01*
X137686234Y-104236254D01*
X137719160Y-104226266D01*
X137719160Y-104226265D01*
X144080839Y-104226265D01*
X144113767Y-104236255D01*
X144300000Y-104254596D01*
X144486233Y-104236255D01*
X144486234Y-104236254D01*
X144519160Y-104226266D01*
X144519160Y-104226265D01*
X150880839Y-104226265D01*
X150913767Y-104236255D01*
X151100000Y-104254596D01*
X151286233Y-104236255D01*
X151286234Y-104236254D01*
X151319160Y-104226266D01*
X151319160Y-104226265D01*
X157680839Y-104226265D01*
X157713767Y-104236255D01*
X157900000Y-104254596D01*
X158086233Y-104236255D01*
X158086234Y-104236254D01*
X158119160Y-104226266D01*
X158119160Y-104226265D01*
X164480839Y-104226265D01*
X164513767Y-104236255D01*
X164700000Y-104254596D01*
X164886233Y-104236255D01*
X164886234Y-104236254D01*
X164919160Y-104226266D01*
X164919160Y-104226265D01*
X171280839Y-104226265D01*
X171313767Y-104236255D01*
X171500000Y-104254596D01*
X171686233Y-104236255D01*
X171686234Y-104236254D01*
X171719160Y-104226266D01*
X171719160Y-104226265D01*
X171500001Y-104007106D01*
X171280839Y-104226265D01*
X164919160Y-104226265D01*
X164700001Y-104007106D01*
X164480839Y-104226265D01*
X158119160Y-104226265D01*
X157900001Y-104007106D01*
X157680839Y-104226265D01*
X151319160Y-104226265D01*
X151100001Y-104007106D01*
X150880839Y-104226265D01*
X144519160Y-104226265D01*
X144300001Y-104007106D01*
X144080839Y-104226265D01*
X137719160Y-104226265D01*
X137500001Y-104007106D01*
X137280839Y-104226265D01*
X131954227Y-104226265D01*
X131931105Y-104161206D01*
X131931106Y-104161206D01*
X131798901Y-103906064D01*
X131633187Y-103671299D01*
X131554554Y-103587105D01*
X131437053Y-103461292D01*
X131214147Y-103279945D01*
X131214146Y-103279944D01*
X130968617Y-103130634D01*
X130705063Y-103016158D01*
X130705061Y-103016157D01*
X130705058Y-103016156D01*
X130575578Y-102979877D01*
X130428364Y-102938630D01*
X130428359Y-102938629D01*
X130428358Y-102938629D01*
X130286018Y-102919064D01*
X130143679Y-102899500D01*
X130143678Y-102899500D01*
X129856322Y-102899500D01*
X129856321Y-102899500D01*
X129571642Y-102938629D01*
X129571635Y-102938630D01*
X129363861Y-102996845D01*
X129294942Y-103016156D01*
X129294939Y-103016156D01*
X129294936Y-103016158D01*
X129294935Y-103016158D01*
X129031382Y-103130634D01*
X128785853Y-103279944D01*
X128562950Y-103461289D01*
X128366812Y-103671299D01*
X128201098Y-103906064D01*
X128068894Y-104161206D01*
X127972667Y-104431962D01*
X127972666Y-104431965D01*
X127914201Y-104713319D01*
X127894592Y-105000000D01*
X127500613Y-105000000D01*
X127500500Y-104996249D01*
X127500500Y-91187600D01*
X135597067Y-91187600D01*
X135597067Y-96111638D01*
X135614730Y-96200432D01*
X135614730Y-96200433D01*
X135622064Y-96237304D01*
X135622065Y-96237309D01*
X135622066Y-96237311D01*
X135671102Y-96355694D01*
X135742290Y-96462236D01*
X135876398Y-96596344D01*
X135904567Y-96639814D01*
X136226260Y-97482791D01*
X136330515Y-97755986D01*
X136332825Y-97761929D01*
X136332908Y-97762140D01*
X136332916Y-97762157D01*
X136358946Y-97817772D01*
X136362191Y-97823191D01*
X136362130Y-97823227D01*
X136371580Y-97839034D01*
X136412897Y-97927638D01*
X136412898Y-97927639D01*
X136538402Y-98106877D01*
X136693123Y-98261598D01*
X136872361Y-98387102D01*
X137070670Y-98479575D01*
X137282023Y-98536207D01*
X137413818Y-98547737D01*
X137478884Y-98573188D01*
X137490689Y-98583582D01*
X137499999Y-98592892D01*
X137509307Y-98583585D01*
X137570629Y-98550098D01*
X137586167Y-98547738D01*
X137717977Y-98536207D01*
X137929330Y-98479575D01*
X138127639Y-98387102D01*
X138306877Y-98261598D01*
X138461598Y-98106877D01*
X138587102Y-97927639D01*
X138679575Y-97729330D01*
X138736207Y-97517977D01*
X138755277Y-97300000D01*
X138736207Y-97082023D01*
X138679575Y-96870670D01*
X138587102Y-96672362D01*
X138587100Y-96672359D01*
X138587099Y-96672357D01*
X138461599Y-96493124D01*
X138430711Y-96462236D01*
X138306877Y-96338402D01*
X138127639Y-96212898D01*
X138127638Y-96212897D01*
X138127636Y-96212896D01*
X137986143Y-96146917D01*
X137978299Y-96142914D01*
X137956021Y-96130529D01*
X137956010Y-96130524D01*
X137442909Y-95934716D01*
X137399439Y-95906546D01*
X136934386Y-95441493D01*
X136900901Y-95380170D01*
X136898067Y-95353812D01*
X136898067Y-95246188D01*
X136901595Y-95234174D01*
X137000000Y-95234174D01*
X137000000Y-95365826D01*
X137034075Y-95492993D01*
X137099901Y-95607007D01*
X137192993Y-95700099D01*
X137307007Y-95765925D01*
X137434174Y-95800000D01*
X137565826Y-95800000D01*
X137692993Y-95765925D01*
X137807007Y-95700099D01*
X137900099Y-95607007D01*
X137965925Y-95492993D01*
X138000000Y-95365826D01*
X138000000Y-95300000D01*
X138207106Y-95300000D01*
X138426265Y-95519160D01*
X138426266Y-95519160D01*
X138436254Y-95486234D01*
X138436255Y-95486233D01*
X138454596Y-95300000D01*
X138436255Y-95113767D01*
X138426265Y-95080839D01*
X138207106Y-95300000D01*
X138000000Y-95300000D01*
X138000000Y-95234174D01*
X137965925Y-95107007D01*
X137900099Y-94992993D01*
X137807007Y-94899901D01*
X137692993Y-94834075D01*
X137565826Y-94800000D01*
X137434174Y-94800000D01*
X137307007Y-94834075D01*
X137192993Y-94899901D01*
X137099901Y-94992993D01*
X137034075Y-95107007D01*
X137000000Y-95234174D01*
X136901595Y-95234174D01*
X136917752Y-95179149D01*
X136934386Y-95158507D01*
X137719159Y-94373733D01*
X137686228Y-94363744D01*
X137686232Y-94363744D01*
X137500000Y-94345403D01*
X137313769Y-94363744D01*
X137134687Y-94418069D01*
X137080519Y-94447022D01*
X137012116Y-94461263D01*
X136946872Y-94436262D01*
X136905503Y-94379957D01*
X136898067Y-94337663D01*
X136898067Y-91572480D01*
X136917752Y-91505441D01*
X136934386Y-91484799D01*
X143232366Y-85186819D01*
X143293689Y-85153334D01*
X143320047Y-85150500D01*
X147130192Y-85150500D01*
X147197231Y-85170185D01*
X147242986Y-85222989D01*
X147252930Y-85292147D01*
X147223905Y-85355703D01*
X147217873Y-85362181D01*
X142542294Y-90037758D01*
X142542288Y-90037765D01*
X142483961Y-90125058D01*
X142483962Y-90125059D01*
X142471101Y-90144307D01*
X142422066Y-90262688D01*
X142422064Y-90262694D01*
X142397067Y-90388361D01*
X142397067Y-96111638D01*
X142414730Y-96200432D01*
X142414730Y-96200433D01*
X142422064Y-96237304D01*
X142422065Y-96237309D01*
X142422066Y-96237311D01*
X142471102Y-96355694D01*
X142542290Y-96462236D01*
X142676398Y-96596344D01*
X142704567Y-96639814D01*
X143026260Y-97482791D01*
X143130515Y-97755986D01*
X143132825Y-97761929D01*
X143132908Y-97762140D01*
X143132916Y-97762157D01*
X143158946Y-97817772D01*
X143162191Y-97823191D01*
X143162130Y-97823227D01*
X143171580Y-97839034D01*
X143212897Y-97927638D01*
X143212898Y-97927639D01*
X143338402Y-98106877D01*
X143493123Y-98261598D01*
X143672361Y-98387102D01*
X143870670Y-98479575D01*
X144082023Y-98536207D01*
X144213818Y-98547737D01*
X144278884Y-98573188D01*
X144290689Y-98583582D01*
X144299999Y-98592892D01*
X144309307Y-98583585D01*
X144370629Y-98550098D01*
X144386167Y-98547738D01*
X144517977Y-98536207D01*
X144729330Y-98479575D01*
X144927639Y-98387102D01*
X145106877Y-98261598D01*
X145261598Y-98106877D01*
X145387102Y-97927639D01*
X145479575Y-97729330D01*
X145536207Y-97517977D01*
X145555277Y-97300000D01*
X145536207Y-97082023D01*
X145479575Y-96870670D01*
X145387102Y-96672362D01*
X145387100Y-96672359D01*
X145387099Y-96672357D01*
X145261599Y-96493124D01*
X145230711Y-96462236D01*
X145106877Y-96338402D01*
X144927639Y-96212898D01*
X144927638Y-96212897D01*
X144927636Y-96212896D01*
X144786143Y-96146917D01*
X144778299Y-96142914D01*
X144756021Y-96130529D01*
X144756010Y-96130524D01*
X144242909Y-95934716D01*
X144199439Y-95906546D01*
X143734386Y-95441493D01*
X143700901Y-95380170D01*
X143698067Y-95353812D01*
X143698067Y-95246188D01*
X143701595Y-95234174D01*
X143800000Y-95234174D01*
X143800000Y-95365826D01*
X143834075Y-95492993D01*
X143899901Y-95607007D01*
X143992993Y-95700099D01*
X144107007Y-95765925D01*
X144234174Y-95800000D01*
X144365826Y-95800000D01*
X144492993Y-95765925D01*
X144607007Y-95700099D01*
X144700099Y-95607007D01*
X144765925Y-95492993D01*
X144800000Y-95365826D01*
X144800000Y-95300000D01*
X145007106Y-95300000D01*
X145226265Y-95519160D01*
X145226266Y-95519160D01*
X145236254Y-95486234D01*
X145236255Y-95486233D01*
X145254596Y-95300000D01*
X145236255Y-95113767D01*
X145226265Y-95080839D01*
X145007106Y-95300000D01*
X144800000Y-95300000D01*
X144800000Y-95234174D01*
X144765925Y-95107007D01*
X144700099Y-94992993D01*
X144607007Y-94899901D01*
X144492993Y-94834075D01*
X144365826Y-94800000D01*
X144234174Y-94800000D01*
X144107007Y-94834075D01*
X143992993Y-94899901D01*
X143899901Y-94992993D01*
X143834075Y-95107007D01*
X143800000Y-95234174D01*
X143701595Y-95234174D01*
X143717752Y-95179149D01*
X143734386Y-95158507D01*
X144519159Y-94373733D01*
X144486228Y-94363744D01*
X144486232Y-94363744D01*
X144300000Y-94345403D01*
X144113769Y-94363744D01*
X143934687Y-94418069D01*
X143880519Y-94447022D01*
X143812116Y-94461263D01*
X143746872Y-94436262D01*
X143705503Y-94379957D01*
X143698067Y-94337663D01*
X143698067Y-90773240D01*
X143717752Y-90706201D01*
X143734381Y-90685564D01*
X147901287Y-86518657D01*
X147962608Y-86485174D01*
X148032300Y-86490158D01*
X148088233Y-86532030D01*
X148108741Y-86574247D01*
X148146094Y-86713655D01*
X148146096Y-86713659D01*
X148146097Y-86713663D01*
X148203221Y-86836166D01*
X148245965Y-86927830D01*
X148245967Y-86927834D01*
X148381501Y-87121395D01*
X148381506Y-87121402D01*
X148548597Y-87288493D01*
X148548603Y-87288498D01*
X148734158Y-87418425D01*
X148777783Y-87473002D01*
X148784977Y-87542500D01*
X148753454Y-87604855D01*
X148734158Y-87621575D01*
X148548597Y-87751505D01*
X148381505Y-87918597D01*
X148245965Y-88112169D01*
X148245964Y-88112171D01*
X148146098Y-88326335D01*
X148146094Y-88326344D01*
X148084938Y-88554586D01*
X148084936Y-88554596D01*
X148064341Y-88789999D01*
X148064341Y-88790000D01*
X148084936Y-89025403D01*
X148084938Y-89025413D01*
X148146094Y-89253655D01*
X148146096Y-89253659D01*
X148146097Y-89253663D01*
X148180098Y-89326578D01*
X148245965Y-89467830D01*
X148245967Y-89467834D01*
X148354281Y-89622521D01*
X148381505Y-89661401D01*
X148548599Y-89828495D01*
X148645384Y-89896265D01*
X148742165Y-89964032D01*
X148742167Y-89964033D01*
X148742170Y-89964035D01*
X148956337Y-90063903D01*
X149184592Y-90125063D01*
X149372918Y-90141539D01*
X149419999Y-90145659D01*
X149420000Y-90145659D01*
X149420001Y-90145659D01*
X149460301Y-90142133D01*
X149655408Y-90125063D01*
X149883663Y-90063903D01*
X149933096Y-90040851D01*
X150002172Y-90030360D01*
X150065956Y-90058879D01*
X150104196Y-90117356D01*
X150109500Y-90153234D01*
X150109500Y-90939191D01*
X150089815Y-91006230D01*
X150073181Y-91026872D01*
X148244727Y-92855325D01*
X148244726Y-92855326D01*
X148173534Y-92961874D01*
X148124499Y-93080255D01*
X148124497Y-93080261D01*
X148099500Y-93205928D01*
X148099500Y-95064070D01*
X148123738Y-95185914D01*
X148123740Y-95185938D01*
X148123742Y-95185938D01*
X148124499Y-95189744D01*
X148124500Y-95189748D01*
X148173533Y-95308124D01*
X148173534Y-95308126D01*
X148173535Y-95308127D01*
X148232963Y-95397069D01*
X148244726Y-95414673D01*
X148244727Y-95414674D01*
X149461084Y-96631029D01*
X149488231Y-96671908D01*
X149934442Y-97766678D01*
X149934504Y-97766830D01*
X149934543Y-97766924D01*
X149936039Y-97770552D01*
X149936059Y-97770600D01*
X149936066Y-97770616D01*
X149936069Y-97770622D01*
X149958700Y-97817873D01*
X149958707Y-97817885D01*
X149959100Y-97818411D01*
X149972116Y-97840183D01*
X150012897Y-97927638D01*
X150012898Y-97927639D01*
X150138402Y-98106877D01*
X150293123Y-98261598D01*
X150472361Y-98387102D01*
X150670670Y-98479575D01*
X150882023Y-98536207D01*
X151013818Y-98547737D01*
X151078884Y-98573188D01*
X151090689Y-98583582D01*
X151099999Y-98592892D01*
X151109307Y-98583585D01*
X151170629Y-98550098D01*
X151186167Y-98547738D01*
X151317977Y-98536207D01*
X151529330Y-98479575D01*
X151727639Y-98387102D01*
X151906877Y-98261598D01*
X152061598Y-98106877D01*
X152187102Y-97927639D01*
X152279575Y-97729330D01*
X152336207Y-97517977D01*
X152355277Y-97300000D01*
X152336207Y-97082023D01*
X152279575Y-96870670D01*
X152187102Y-96672362D01*
X152187100Y-96672359D01*
X152187099Y-96672357D01*
X152061599Y-96493124D01*
X152030711Y-96462236D01*
X151906877Y-96338402D01*
X151727639Y-96212898D01*
X151727638Y-96212897D01*
X151727636Y-96212896D01*
X151558510Y-96134031D01*
X151553539Y-96131576D01*
X151543131Y-96126143D01*
X151542592Y-96125954D01*
X151531375Y-96121378D01*
X151529330Y-96120425D01*
X151529327Y-96120423D01*
X151523605Y-96118890D01*
X151514558Y-96116091D01*
X151069732Y-95959601D01*
X151023202Y-95930309D01*
X150410334Y-95317441D01*
X150410332Y-95317438D01*
X150327068Y-95234174D01*
X150600000Y-95234174D01*
X150600000Y-95365826D01*
X150634075Y-95492993D01*
X150699901Y-95607007D01*
X150792993Y-95700099D01*
X150907007Y-95765925D01*
X151034174Y-95800000D01*
X151165826Y-95800000D01*
X151292993Y-95765925D01*
X151407007Y-95700099D01*
X151500099Y-95607007D01*
X151565925Y-95492993D01*
X151600000Y-95365826D01*
X151600000Y-95296531D01*
X151803636Y-95296531D01*
X152026265Y-95519160D01*
X152026266Y-95519160D01*
X152036254Y-95486234D01*
X152036255Y-95486233D01*
X152054596Y-95300000D01*
X152036255Y-95113767D01*
X152026265Y-95080839D01*
X152026265Y-95080838D01*
X151843424Y-95263681D01*
X151815339Y-95279016D01*
X151803636Y-95296531D01*
X151600000Y-95296531D01*
X151600000Y-95234174D01*
X151565925Y-95107007D01*
X151500099Y-94992993D01*
X151407007Y-94899901D01*
X151292993Y-94834075D01*
X151165826Y-94800000D01*
X151034174Y-94800000D01*
X150907007Y-94834075D01*
X150792993Y-94899901D01*
X150699901Y-94992993D01*
X150634075Y-95107007D01*
X150600000Y-95234174D01*
X150327068Y-95234174D01*
X150173733Y-95080838D01*
X150173732Y-95080839D01*
X150163746Y-95113762D01*
X150163744Y-95113771D01*
X150155368Y-95198813D01*
X150129206Y-95263600D01*
X150072172Y-95303959D01*
X150002372Y-95307075D01*
X149944284Y-95274339D01*
X149868758Y-95198813D01*
X149436819Y-94766873D01*
X149403334Y-94705550D01*
X149400500Y-94679192D01*
X149400500Y-94373733D01*
X150880838Y-94373733D01*
X151099998Y-94592892D01*
X151099999Y-94592893D01*
X151100000Y-94592893D01*
X151100000Y-94592892D01*
X151319159Y-94373733D01*
X151286228Y-94363744D01*
X151286232Y-94363744D01*
X151100000Y-94345403D01*
X150913772Y-94363744D01*
X150913762Y-94363746D01*
X150880839Y-94373732D01*
X150880838Y-94373733D01*
X149400500Y-94373733D01*
X149400500Y-93590808D01*
X149420185Y-93523769D01*
X149436819Y-93503127D01*
X151265271Y-91674675D01*
X151265276Y-91674670D01*
X151336465Y-91568127D01*
X151385501Y-91449744D01*
X151386160Y-91446428D01*
X151387159Y-91441414D01*
X151410499Y-91324073D01*
X151410500Y-91324071D01*
X151410500Y-90209172D01*
X151430185Y-90142133D01*
X151482989Y-90096378D01*
X151552147Y-90086434D01*
X151577308Y-90092796D01*
X152762766Y-90528888D01*
X152807636Y-90557582D01*
X153063181Y-90813127D01*
X153096666Y-90874450D01*
X153099500Y-90900808D01*
X153099500Y-95314071D01*
X153116010Y-95397068D01*
X153116010Y-95397069D01*
X153124497Y-95439736D01*
X153124499Y-95439744D01*
X153173534Y-95558125D01*
X153244726Y-95664673D01*
X155385326Y-97805273D01*
X155385329Y-97805275D01*
X155385331Y-97805277D01*
X155491873Y-97876465D01*
X155610256Y-97925501D01*
X155610260Y-97925501D01*
X155610261Y-97925502D01*
X155735928Y-97950500D01*
X155735931Y-97950500D01*
X156254381Y-97950500D01*
X156305038Y-97961320D01*
X157395464Y-98449374D01*
X157395505Y-98449392D01*
X157401341Y-98451960D01*
X157401630Y-98452085D01*
X157401635Y-98452087D01*
X157441636Y-98466576D01*
X157451802Y-98470776D01*
X157470670Y-98479575D01*
X157682023Y-98536207D01*
X157813818Y-98547737D01*
X157878884Y-98573188D01*
X157890689Y-98583582D01*
X157899999Y-98592892D01*
X157909307Y-98583585D01*
X157970629Y-98550098D01*
X157986167Y-98547738D01*
X158117977Y-98536207D01*
X158329330Y-98479575D01*
X158527639Y-98387102D01*
X158706877Y-98261598D01*
X158861598Y-98106877D01*
X158987102Y-97927639D01*
X159079575Y-97729330D01*
X159136207Y-97517977D01*
X159155277Y-97300000D01*
X159155277Y-97299997D01*
X163444723Y-97299997D01*
X163444723Y-97300002D01*
X163463793Y-97517975D01*
X163463793Y-97517979D01*
X163520422Y-97729322D01*
X163520424Y-97729326D01*
X163520425Y-97729330D01*
X163539647Y-97770552D01*
X163612897Y-97927638D01*
X163612898Y-97927639D01*
X163738402Y-98106877D01*
X163893123Y-98261598D01*
X164072361Y-98387102D01*
X164270670Y-98479575D01*
X164482023Y-98536207D01*
X164613818Y-98547737D01*
X164678884Y-98573188D01*
X164690689Y-98583582D01*
X164699999Y-98592892D01*
X164709307Y-98583585D01*
X164770629Y-98550098D01*
X164786167Y-98547738D01*
X164917977Y-98536207D01*
X165129330Y-98479575D01*
X165327639Y-98387102D01*
X165506877Y-98261598D01*
X165661598Y-98106877D01*
X165787102Y-97927639D01*
X165879575Y-97729330D01*
X165936207Y-97517977D01*
X165955277Y-97300000D01*
X165955277Y-97299997D01*
X170244723Y-97299997D01*
X170244723Y-97300002D01*
X170263793Y-97517975D01*
X170263793Y-97517979D01*
X170320422Y-97729322D01*
X170320424Y-97729326D01*
X170320425Y-97729330D01*
X170339647Y-97770552D01*
X170412897Y-97927638D01*
X170412898Y-97927639D01*
X170538402Y-98106877D01*
X170693123Y-98261598D01*
X170872361Y-98387102D01*
X171070670Y-98479575D01*
X171282023Y-98536207D01*
X171413818Y-98547737D01*
X171478884Y-98573188D01*
X171490689Y-98583582D01*
X171499999Y-98592892D01*
X171509307Y-98583585D01*
X171570629Y-98550098D01*
X171586167Y-98547738D01*
X171717977Y-98536207D01*
X171929330Y-98479575D01*
X172127639Y-98387102D01*
X172306877Y-98261598D01*
X172461598Y-98106877D01*
X172587102Y-97927639D01*
X172679575Y-97729330D01*
X172736207Y-97517977D01*
X172755277Y-97300000D01*
X172736207Y-97082023D01*
X172679575Y-96870670D01*
X172587102Y-96672362D01*
X172587100Y-96672359D01*
X172587099Y-96672357D01*
X172461599Y-96493124D01*
X172430711Y-96462236D01*
X172306877Y-96338402D01*
X172162504Y-96237311D01*
X172127638Y-96212897D01*
X172028484Y-96166661D01*
X171929330Y-96120425D01*
X171929326Y-96120424D01*
X171929322Y-96120422D01*
X171717982Y-96063794D01*
X171717972Y-96063792D01*
X171586182Y-96052262D01*
X171521114Y-96026809D01*
X171509308Y-96016415D01*
X171496530Y-96003637D01*
X171477212Y-96016545D01*
X171442454Y-96030942D01*
X171427511Y-96043891D01*
X171386808Y-96054625D01*
X171282027Y-96063792D01*
X171282017Y-96063794D01*
X171070677Y-96120422D01*
X171070668Y-96120426D01*
X170872361Y-96212898D01*
X170872357Y-96212900D01*
X170693121Y-96338402D01*
X170538402Y-96493121D01*
X170412900Y-96672357D01*
X170412898Y-96672361D01*
X170320426Y-96870668D01*
X170320422Y-96870677D01*
X170263793Y-97082020D01*
X170263793Y-97082024D01*
X170244723Y-97299997D01*
X165955277Y-97299997D01*
X165936207Y-97082023D01*
X165879575Y-96870670D01*
X165787102Y-96672362D01*
X165787100Y-96672359D01*
X165787099Y-96672357D01*
X165661599Y-96493124D01*
X165630711Y-96462236D01*
X165506877Y-96338402D01*
X165362504Y-96237311D01*
X165327638Y-96212897D01*
X165228484Y-96166661D01*
X165129330Y-96120425D01*
X165129326Y-96120424D01*
X165129322Y-96120422D01*
X164917982Y-96063794D01*
X164917972Y-96063792D01*
X164786182Y-96052262D01*
X164721114Y-96026809D01*
X164709308Y-96016415D01*
X164696530Y-96003637D01*
X164677212Y-96016545D01*
X164642454Y-96030942D01*
X164627511Y-96043891D01*
X164586808Y-96054625D01*
X164482027Y-96063792D01*
X164482017Y-96063794D01*
X164270677Y-96120422D01*
X164270668Y-96120426D01*
X164072361Y-96212898D01*
X164072357Y-96212900D01*
X163893121Y-96338402D01*
X163738402Y-96493121D01*
X163612900Y-96672357D01*
X163612898Y-96672361D01*
X163520426Y-96870668D01*
X163520422Y-96870677D01*
X163463793Y-97082020D01*
X163463793Y-97082024D01*
X163444723Y-97299997D01*
X159155277Y-97299997D01*
X159136207Y-97082023D01*
X159079575Y-96870670D01*
X158987102Y-96672362D01*
X158987100Y-96672359D01*
X158987099Y-96672357D01*
X158861599Y-96493124D01*
X158830711Y-96462236D01*
X158706877Y-96338402D01*
X158562504Y-96237311D01*
X158527638Y-96212897D01*
X158428484Y-96166661D01*
X158329330Y-96120425D01*
X158329326Y-96120424D01*
X158329322Y-96120422D01*
X158117982Y-96063794D01*
X158117972Y-96063792D01*
X157986182Y-96052262D01*
X157921114Y-96026809D01*
X157909308Y-96016415D01*
X157896530Y-96003637D01*
X157877212Y-96016545D01*
X157842454Y-96030942D01*
X157827511Y-96043891D01*
X157786808Y-96054625D01*
X157682027Y-96063792D01*
X157682017Y-96063794D01*
X157470677Y-96120422D01*
X157470672Y-96120424D01*
X157470670Y-96120425D01*
X157449011Y-96130525D01*
X157431338Y-96138766D01*
X157412973Y-96145620D01*
X157395498Y-96150608D01*
X156305036Y-96638680D01*
X156254378Y-96649500D01*
X156120808Y-96649500D01*
X156053769Y-96629815D01*
X156033127Y-96613181D01*
X154719946Y-95300000D01*
X156945403Y-95300000D01*
X156963744Y-95486230D01*
X156973733Y-95519159D01*
X157192893Y-95299999D01*
X157192892Y-95299998D01*
X157127068Y-95234174D01*
X157400000Y-95234174D01*
X157400000Y-95365826D01*
X157434075Y-95492993D01*
X157499901Y-95607007D01*
X157592993Y-95700099D01*
X157707007Y-95765925D01*
X157834174Y-95800000D01*
X157965826Y-95800000D01*
X158092993Y-95765925D01*
X158207007Y-95700099D01*
X158300099Y-95607007D01*
X158365925Y-95492993D01*
X158400000Y-95365826D01*
X158400000Y-95296531D01*
X158603636Y-95296531D01*
X158826265Y-95519160D01*
X158826266Y-95519160D01*
X158836254Y-95486234D01*
X158836255Y-95486233D01*
X158854596Y-95300000D01*
X163745403Y-95300000D01*
X163763744Y-95486230D01*
X163773733Y-95519159D01*
X163992893Y-95299999D01*
X163992892Y-95299998D01*
X163927068Y-95234174D01*
X164200000Y-95234174D01*
X164200000Y-95365826D01*
X164234075Y-95492993D01*
X164299901Y-95607007D01*
X164392993Y-95700099D01*
X164507007Y-95765925D01*
X164634174Y-95800000D01*
X164765826Y-95800000D01*
X164892993Y-95765925D01*
X165007007Y-95700099D01*
X165100099Y-95607007D01*
X165165925Y-95492993D01*
X165200000Y-95365826D01*
X165200000Y-95296531D01*
X165403636Y-95296531D01*
X165626265Y-95519160D01*
X165626266Y-95519160D01*
X165636254Y-95486234D01*
X165636255Y-95486233D01*
X165654596Y-95300000D01*
X170545403Y-95300000D01*
X170563744Y-95486230D01*
X170573733Y-95519159D01*
X170792893Y-95299999D01*
X170792892Y-95299998D01*
X170727068Y-95234174D01*
X171000000Y-95234174D01*
X171000000Y-95365826D01*
X171034075Y-95492993D01*
X171099901Y-95607007D01*
X171192993Y-95700099D01*
X171307007Y-95765925D01*
X171434174Y-95800000D01*
X171565826Y-95800000D01*
X171692993Y-95765925D01*
X171807007Y-95700099D01*
X171900099Y-95607007D01*
X171965925Y-95492993D01*
X172000000Y-95365826D01*
X172000000Y-95296531D01*
X172203636Y-95296531D01*
X172426265Y-95519160D01*
X172426266Y-95519160D01*
X172436254Y-95486234D01*
X172436255Y-95486233D01*
X172454596Y-95300000D01*
X172436255Y-95113767D01*
X172426265Y-95080839D01*
X172426265Y-95080838D01*
X172243424Y-95263681D01*
X172215339Y-95279016D01*
X172203636Y-95296531D01*
X172000000Y-95296531D01*
X172000000Y-95234174D01*
X171965925Y-95107007D01*
X171900099Y-94992993D01*
X171807007Y-94899901D01*
X171692993Y-94834075D01*
X171565826Y-94800000D01*
X171434174Y-94800000D01*
X171307007Y-94834075D01*
X171192993Y-94899901D01*
X171099901Y-94992993D01*
X171034075Y-95107007D01*
X171000000Y-95234174D01*
X170727068Y-95234174D01*
X170573733Y-95080838D01*
X170573732Y-95080839D01*
X170563746Y-95113762D01*
X170563744Y-95113772D01*
X170545403Y-95300000D01*
X165654596Y-95300000D01*
X165636255Y-95113767D01*
X165626265Y-95080839D01*
X165626265Y-95080838D01*
X165443424Y-95263681D01*
X165415339Y-95279016D01*
X165403636Y-95296531D01*
X165200000Y-95296531D01*
X165200000Y-95234174D01*
X165165925Y-95107007D01*
X165100099Y-94992993D01*
X165007007Y-94899901D01*
X164892993Y-94834075D01*
X164765826Y-94800000D01*
X164634174Y-94800000D01*
X164507007Y-94834075D01*
X164392993Y-94899901D01*
X164299901Y-94992993D01*
X164234075Y-95107007D01*
X164200000Y-95234174D01*
X163927068Y-95234174D01*
X163773733Y-95080838D01*
X163773732Y-95080839D01*
X163763746Y-95113762D01*
X163763744Y-95113772D01*
X163745403Y-95300000D01*
X158854596Y-95300000D01*
X158836255Y-95113767D01*
X158826265Y-95080839D01*
X158826265Y-95080838D01*
X158643424Y-95263681D01*
X158615339Y-95279016D01*
X158603636Y-95296531D01*
X158400000Y-95296531D01*
X158400000Y-95234174D01*
X158365925Y-95107007D01*
X158300099Y-94992993D01*
X158207007Y-94899901D01*
X158092993Y-94834075D01*
X157965826Y-94800000D01*
X157834174Y-94800000D01*
X157707007Y-94834075D01*
X157592993Y-94899901D01*
X157499901Y-94992993D01*
X157434075Y-95107007D01*
X157400000Y-95234174D01*
X157127068Y-95234174D01*
X156973733Y-95080838D01*
X156973732Y-95080839D01*
X156963746Y-95113762D01*
X156963744Y-95113772D01*
X156945403Y-95300000D01*
X154719946Y-95300000D01*
X154436819Y-95016873D01*
X154403334Y-94955550D01*
X154400500Y-94929192D01*
X154400500Y-94373733D01*
X157680838Y-94373733D01*
X157899998Y-94592892D01*
X157899999Y-94592893D01*
X157900000Y-94592893D01*
X157900000Y-94592892D01*
X158119159Y-94373733D01*
X164480838Y-94373733D01*
X164699998Y-94592892D01*
X164699999Y-94592893D01*
X164700000Y-94592893D01*
X164700000Y-94592892D01*
X164919159Y-94373733D01*
X171280838Y-94373733D01*
X171499998Y-94592892D01*
X171499999Y-94592893D01*
X171500000Y-94592893D01*
X171500000Y-94592892D01*
X171719159Y-94373733D01*
X171686228Y-94363744D01*
X171686232Y-94363744D01*
X171500000Y-94345403D01*
X171313772Y-94363744D01*
X171313762Y-94363746D01*
X171280839Y-94373732D01*
X171280838Y-94373733D01*
X164919159Y-94373733D01*
X164886228Y-94363744D01*
X164886232Y-94363744D01*
X164700000Y-94345403D01*
X164513772Y-94363744D01*
X164513762Y-94363746D01*
X164480839Y-94373732D01*
X164480838Y-94373733D01*
X158119159Y-94373733D01*
X158086228Y-94363744D01*
X158086232Y-94363744D01*
X157900000Y-94345403D01*
X157713772Y-94363744D01*
X157713762Y-94363746D01*
X157680839Y-94373732D01*
X157680838Y-94373733D01*
X154400500Y-94373733D01*
X154400500Y-90515928D01*
X154375502Y-90390261D01*
X154375501Y-90390260D01*
X154375501Y-90390256D01*
X154343894Y-90313950D01*
X154336425Y-90244480D01*
X154367700Y-90182001D01*
X154427789Y-90146349D01*
X154469259Y-90142969D01*
X154500000Y-90145659D01*
X154735408Y-90125063D01*
X154963663Y-90063903D01*
X155177830Y-89964035D01*
X155371401Y-89828495D01*
X155538495Y-89661401D01*
X155674035Y-89467830D01*
X155773903Y-89253663D01*
X155806678Y-89131342D01*
X155843042Y-89071683D01*
X155905889Y-89041153D01*
X155975265Y-89049447D01*
X156029143Y-89093932D01*
X156045113Y-89127440D01*
X156065232Y-89193763D01*
X156162728Y-89376166D01*
X156162732Y-89376173D01*
X156293944Y-89536055D01*
X156453826Y-89667266D01*
X156540000Y-89713326D01*
X156540000Y-88855826D01*
X156574075Y-88982993D01*
X156639901Y-89097007D01*
X156732993Y-89190099D01*
X156847007Y-89255925D01*
X156974174Y-89290000D01*
X157105826Y-89290000D01*
X157232993Y-89255925D01*
X157347007Y-89190099D01*
X157440099Y-89097007D01*
X157505925Y-88982993D01*
X157540000Y-88855826D01*
X157540000Y-89713326D01*
X157626173Y-89667266D01*
X157786055Y-89536055D01*
X157917267Y-89376173D01*
X157917271Y-89376166D01*
X157951302Y-89312498D01*
X158000263Y-89262653D01*
X158068401Y-89247191D01*
X158134081Y-89271021D01*
X158176451Y-89326578D01*
X158178591Y-89332629D01*
X158189431Y-89365992D01*
X158194619Y-89376173D01*
X158296657Y-89576433D01*
X158435483Y-89767510D01*
X158602490Y-89934517D01*
X158793567Y-90073343D01*
X158892991Y-90124002D01*
X159004003Y-90180566D01*
X159004005Y-90180566D01*
X159004008Y-90180568D01*
X159092042Y-90209172D01*
X159228631Y-90253553D01*
X159461903Y-90290500D01*
X159461908Y-90290500D01*
X159698092Y-90290500D01*
X170867111Y-90290500D01*
X170934150Y-90310185D01*
X170954792Y-90326819D01*
X173913181Y-93285208D01*
X173946666Y-93346531D01*
X173949500Y-93372889D01*
X173949500Y-98277111D01*
X173929815Y-98344150D01*
X173913181Y-98364792D01*
X172631507Y-99646465D01*
X172570184Y-99679950D01*
X172500492Y-99674966D01*
X172444559Y-99633094D01*
X172420142Y-99567630D01*
X172425166Y-99522787D01*
X172436255Y-99486233D01*
X172454596Y-99299999D01*
X172436255Y-99113767D01*
X172426265Y-99080839D01*
X172426265Y-99080838D01*
X172170795Y-99336309D01*
X172170787Y-99336320D01*
X171743926Y-99763181D01*
X171682603Y-99796666D01*
X171656245Y-99799500D01*
X171567692Y-99799500D01*
X171692993Y-99765925D01*
X171807007Y-99700099D01*
X171900099Y-99607007D01*
X171965925Y-99492993D01*
X172000000Y-99365826D01*
X172000000Y-99234174D01*
X171965925Y-99107007D01*
X171900099Y-98992993D01*
X171807007Y-98899901D01*
X171692993Y-98834075D01*
X171565826Y-98800000D01*
X171434174Y-98800000D01*
X171307007Y-98834075D01*
X171192993Y-98899901D01*
X171099901Y-98992993D01*
X171034075Y-99107007D01*
X171000000Y-99234174D01*
X171000000Y-99365826D01*
X171034075Y-99492993D01*
X171099901Y-99607007D01*
X171192993Y-99700099D01*
X171307007Y-99765925D01*
X171432308Y-99799500D01*
X171343755Y-99799500D01*
X171276716Y-99779815D01*
X171256074Y-99763181D01*
X170810334Y-99317441D01*
X170810332Y-99317438D01*
X170573733Y-99080838D01*
X170573732Y-99080839D01*
X170563746Y-99113762D01*
X170563744Y-99113772D01*
X170545403Y-99300000D01*
X170563744Y-99486231D01*
X170610240Y-99639505D01*
X170610863Y-99709371D01*
X170573615Y-99768484D01*
X170510321Y-99798075D01*
X170491579Y-99799500D01*
X165708421Y-99799500D01*
X165641382Y-99779815D01*
X165595627Y-99727011D01*
X165585683Y-99657853D01*
X165589760Y-99639505D01*
X165636255Y-99486231D01*
X165654596Y-99299999D01*
X165636255Y-99113767D01*
X165626265Y-99080839D01*
X165626265Y-99080838D01*
X165370795Y-99336309D01*
X165370787Y-99336320D01*
X164943926Y-99763181D01*
X164882603Y-99796666D01*
X164856245Y-99799500D01*
X164767692Y-99799500D01*
X164892993Y-99765925D01*
X165007007Y-99700099D01*
X165100099Y-99607007D01*
X165165925Y-99492993D01*
X165200000Y-99365826D01*
X165200000Y-99234174D01*
X165165925Y-99107007D01*
X165100099Y-98992993D01*
X165007007Y-98899901D01*
X164892993Y-98834075D01*
X164765826Y-98800000D01*
X164634174Y-98800000D01*
X164507007Y-98834075D01*
X164392993Y-98899901D01*
X164299901Y-98992993D01*
X164234075Y-99107007D01*
X164200000Y-99234174D01*
X164200000Y-99365826D01*
X164234075Y-99492993D01*
X164299901Y-99607007D01*
X164392993Y-99700099D01*
X164507007Y-99765925D01*
X164632308Y-99799500D01*
X164543755Y-99799500D01*
X164476716Y-99779815D01*
X164456074Y-99763181D01*
X164010334Y-99317441D01*
X164010332Y-99317438D01*
X163773733Y-99080838D01*
X163773732Y-99080839D01*
X163763746Y-99113762D01*
X163763744Y-99113772D01*
X163745403Y-99300000D01*
X163763744Y-99486231D01*
X163810240Y-99639505D01*
X163810863Y-99709371D01*
X163773615Y-99768484D01*
X163710321Y-99798075D01*
X163691579Y-99799500D01*
X158908421Y-99799500D01*
X158841382Y-99779815D01*
X158795627Y-99727011D01*
X158785683Y-99657853D01*
X158789760Y-99639505D01*
X158836255Y-99486231D01*
X158854596Y-99299999D01*
X158836255Y-99113767D01*
X158826265Y-99080839D01*
X158826265Y-99080838D01*
X158570795Y-99336309D01*
X158570787Y-99336320D01*
X158143926Y-99763181D01*
X158082603Y-99796666D01*
X158056245Y-99799500D01*
X157967692Y-99799500D01*
X158092993Y-99765925D01*
X158207007Y-99700099D01*
X158300099Y-99607007D01*
X158365925Y-99492993D01*
X158400000Y-99365826D01*
X158400000Y-99234174D01*
X158365925Y-99107007D01*
X158300099Y-98992993D01*
X158207007Y-98899901D01*
X158092993Y-98834075D01*
X157965826Y-98800000D01*
X157834174Y-98800000D01*
X157707007Y-98834075D01*
X157592993Y-98899901D01*
X157499901Y-98992993D01*
X157434075Y-99107007D01*
X157400000Y-99234174D01*
X157400000Y-99365826D01*
X157434075Y-99492993D01*
X157499901Y-99607007D01*
X157592993Y-99700099D01*
X157707007Y-99765925D01*
X157832308Y-99799500D01*
X157743755Y-99799500D01*
X157676716Y-99779815D01*
X157656074Y-99763181D01*
X157210334Y-99317441D01*
X157210332Y-99317438D01*
X156973733Y-99080838D01*
X156973732Y-99080839D01*
X156963746Y-99113762D01*
X156963744Y-99113772D01*
X156945403Y-99300000D01*
X156963744Y-99486231D01*
X157010240Y-99639505D01*
X157010863Y-99709371D01*
X156973615Y-99768484D01*
X156910321Y-99798075D01*
X156891579Y-99799500D01*
X152108421Y-99799500D01*
X152041382Y-99779815D01*
X151995627Y-99727011D01*
X151985683Y-99657853D01*
X151989760Y-99639505D01*
X152036255Y-99486231D01*
X152054596Y-99299999D01*
X152036255Y-99113767D01*
X152026265Y-99080839D01*
X152026265Y-99080838D01*
X151770795Y-99336309D01*
X151770787Y-99336320D01*
X151343926Y-99763181D01*
X151282603Y-99796666D01*
X151256245Y-99799500D01*
X151167692Y-99799500D01*
X151292993Y-99765925D01*
X151407007Y-99700099D01*
X151500099Y-99607007D01*
X151565925Y-99492993D01*
X151600000Y-99365826D01*
X151600000Y-99234174D01*
X151565925Y-99107007D01*
X151500099Y-98992993D01*
X151407007Y-98899901D01*
X151292993Y-98834075D01*
X151165826Y-98800000D01*
X151034174Y-98800000D01*
X150907007Y-98834075D01*
X150792993Y-98899901D01*
X150699901Y-98992993D01*
X150634075Y-99107007D01*
X150600000Y-99234174D01*
X150600000Y-99365826D01*
X150634075Y-99492993D01*
X150699901Y-99607007D01*
X150792993Y-99700099D01*
X150907007Y-99765925D01*
X151032308Y-99799500D01*
X150943755Y-99799500D01*
X150876716Y-99779815D01*
X150856074Y-99763181D01*
X150410334Y-99317441D01*
X150410332Y-99317438D01*
X150173733Y-99080838D01*
X150173732Y-99080839D01*
X150163746Y-99113762D01*
X150163744Y-99113772D01*
X150145403Y-99300000D01*
X150163744Y-99486231D01*
X150210240Y-99639505D01*
X150210863Y-99709371D01*
X150173615Y-99768484D01*
X150110321Y-99798075D01*
X150091579Y-99799500D01*
X145308421Y-99799500D01*
X145241382Y-99779815D01*
X145195627Y-99727011D01*
X145185683Y-99657853D01*
X145189760Y-99639505D01*
X145236255Y-99486231D01*
X145254596Y-99299999D01*
X145236255Y-99113767D01*
X145226265Y-99080839D01*
X145226265Y-99080838D01*
X144970795Y-99336309D01*
X144970787Y-99336320D01*
X144543926Y-99763181D01*
X144482603Y-99796666D01*
X144456245Y-99799500D01*
X144367692Y-99799500D01*
X144492993Y-99765925D01*
X144607007Y-99700099D01*
X144700099Y-99607007D01*
X144765925Y-99492993D01*
X144800000Y-99365826D01*
X144800000Y-99234174D01*
X144765925Y-99107007D01*
X144700099Y-98992993D01*
X144607007Y-98899901D01*
X144492993Y-98834075D01*
X144365826Y-98800000D01*
X144234174Y-98800000D01*
X144107007Y-98834075D01*
X143992993Y-98899901D01*
X143899901Y-98992993D01*
X143834075Y-99107007D01*
X143800000Y-99234174D01*
X143800000Y-99365826D01*
X143834075Y-99492993D01*
X143899901Y-99607007D01*
X143992993Y-99700099D01*
X144107007Y-99765925D01*
X144232308Y-99799500D01*
X144143755Y-99799500D01*
X144076716Y-99779815D01*
X144056074Y-99763181D01*
X143610334Y-99317441D01*
X143610332Y-99317438D01*
X143373733Y-99080838D01*
X143373732Y-99080839D01*
X143363746Y-99113762D01*
X143363744Y-99113772D01*
X143345403Y-99300000D01*
X143363744Y-99486231D01*
X143410240Y-99639505D01*
X143410863Y-99709371D01*
X143373615Y-99768484D01*
X143310321Y-99798075D01*
X143291579Y-99799500D01*
X138508421Y-99799500D01*
X138441382Y-99779815D01*
X138395627Y-99727011D01*
X138385683Y-99657853D01*
X138389760Y-99639505D01*
X138436255Y-99486231D01*
X138454596Y-99299999D01*
X138436255Y-99113767D01*
X138426265Y-99080839D01*
X138426265Y-99080838D01*
X138170795Y-99336309D01*
X138170787Y-99336320D01*
X137743926Y-99763181D01*
X137682603Y-99796666D01*
X137656245Y-99799500D01*
X137567692Y-99799500D01*
X137692993Y-99765925D01*
X137807007Y-99700099D01*
X137900099Y-99607007D01*
X137965925Y-99492993D01*
X138000000Y-99365826D01*
X138000000Y-99234174D01*
X137965925Y-99107007D01*
X137900099Y-98992993D01*
X137807007Y-98899901D01*
X137692993Y-98834075D01*
X137565826Y-98800000D01*
X137434174Y-98800000D01*
X137307007Y-98834075D01*
X137192993Y-98899901D01*
X137099901Y-98992993D01*
X137034075Y-99107007D01*
X137000000Y-99234174D01*
X137000000Y-99365826D01*
X137034075Y-99492993D01*
X137099901Y-99607007D01*
X137192993Y-99700099D01*
X137307007Y-99765925D01*
X137432308Y-99799500D01*
X137381901Y-99799500D01*
X137367028Y-99801855D01*
X137297735Y-99792897D01*
X137259955Y-99767062D01*
X136810334Y-99317441D01*
X136810332Y-99317438D01*
X136573733Y-99080838D01*
X136573732Y-99080839D01*
X136563746Y-99113762D01*
X136563744Y-99113772D01*
X136545403Y-99300000D01*
X136563744Y-99486230D01*
X136618068Y-99665311D01*
X136706284Y-99830349D01*
X136721350Y-99848707D01*
X136748662Y-99913017D01*
X136736871Y-99981884D01*
X136698382Y-100027689D01*
X136522488Y-100155484D01*
X136355485Y-100322487D01*
X136355485Y-100322488D01*
X136355483Y-100322490D01*
X136295862Y-100404550D01*
X136216657Y-100513566D01*
X136109433Y-100724003D01*
X136036446Y-100948631D01*
X135999500Y-101181902D01*
X135999500Y-101418097D01*
X136036446Y-101651368D01*
X136109433Y-101875996D01*
X136216657Y-102086433D01*
X136355483Y-102277510D01*
X136522490Y-102444517D01*
X136698382Y-102572310D01*
X136741047Y-102627640D01*
X136747026Y-102697254D01*
X136721351Y-102751290D01*
X136706285Y-102769647D01*
X136706278Y-102769659D01*
X136618069Y-102934686D01*
X136563744Y-103113769D01*
X136545403Y-103300000D01*
X136563744Y-103486230D01*
X136573733Y-103519159D01*
X136792893Y-103300000D01*
X137259955Y-102832936D01*
X137321278Y-102799451D01*
X137367033Y-102798144D01*
X137381908Y-102800500D01*
X137381909Y-102800500D01*
X137432308Y-102800500D01*
X137307007Y-102834075D01*
X137192993Y-102899901D01*
X137099901Y-102992993D01*
X137034075Y-103107007D01*
X137000000Y-103234174D01*
X137000000Y-103365826D01*
X137034075Y-103492993D01*
X137099901Y-103607007D01*
X137192993Y-103700099D01*
X137307007Y-103765925D01*
X137434174Y-103800000D01*
X137565826Y-103800000D01*
X137692993Y-103765925D01*
X137807007Y-103700099D01*
X137900099Y-103607007D01*
X137965925Y-103492993D01*
X138000000Y-103365826D01*
X138000000Y-103234174D01*
X137965925Y-103107007D01*
X137900099Y-102992993D01*
X137807007Y-102899901D01*
X137692993Y-102834075D01*
X137567692Y-102800500D01*
X137656245Y-102800500D01*
X137723284Y-102820185D01*
X137743926Y-102836819D01*
X138148519Y-103241412D01*
X138148521Y-103241416D01*
X138426265Y-103519160D01*
X138426266Y-103519160D01*
X138436254Y-103486234D01*
X138436255Y-103486233D01*
X138454596Y-103300000D01*
X138436255Y-103113768D01*
X138389760Y-102960495D01*
X138389137Y-102890629D01*
X138426385Y-102831516D01*
X138489679Y-102801925D01*
X138508421Y-102800500D01*
X143291579Y-102800500D01*
X143358618Y-102820185D01*
X143404373Y-102872989D01*
X143414317Y-102942147D01*
X143410240Y-102960495D01*
X143363744Y-103113768D01*
X143345403Y-103300000D01*
X143363744Y-103486230D01*
X143373733Y-103519159D01*
X144056074Y-102836819D01*
X144117397Y-102803334D01*
X144143755Y-102800500D01*
X144232308Y-102800500D01*
X144107007Y-102834075D01*
X143992993Y-102899901D01*
X143899901Y-102992993D01*
X143834075Y-103107007D01*
X143800000Y-103234174D01*
X143800000Y-103365826D01*
X143834075Y-103492993D01*
X143899901Y-103607007D01*
X143992993Y-103700099D01*
X144107007Y-103765925D01*
X144234174Y-103800000D01*
X144365826Y-103800000D01*
X144492993Y-103765925D01*
X144607007Y-103700099D01*
X144700099Y-103607007D01*
X144765925Y-103492993D01*
X144800000Y-103365826D01*
X144800000Y-103234174D01*
X144765925Y-103107007D01*
X144700099Y-102992993D01*
X144607007Y-102899901D01*
X144492993Y-102834075D01*
X144367692Y-102800500D01*
X144456245Y-102800500D01*
X144523284Y-102820185D01*
X144543926Y-102836819D01*
X144948519Y-103241412D01*
X144948521Y-103241416D01*
X145226265Y-103519160D01*
X145226266Y-103519160D01*
X145236254Y-103486234D01*
X145236255Y-103486233D01*
X145254596Y-103300000D01*
X145236255Y-103113768D01*
X145189760Y-102960495D01*
X145189137Y-102890629D01*
X145226385Y-102831516D01*
X145289679Y-102801925D01*
X145308421Y-102800500D01*
X150091579Y-102800500D01*
X150158618Y-102820185D01*
X150204373Y-102872989D01*
X150214317Y-102942147D01*
X150210240Y-102960495D01*
X150163744Y-103113768D01*
X150145403Y-103300000D01*
X150163744Y-103486230D01*
X150173733Y-103519159D01*
X150856074Y-102836819D01*
X150917397Y-102803334D01*
X150943755Y-102800500D01*
X151032308Y-102800500D01*
X150907007Y-102834075D01*
X150792993Y-102899901D01*
X150699901Y-102992993D01*
X150634075Y-103107007D01*
X150600000Y-103234174D01*
X150600000Y-103365826D01*
X150634075Y-103492993D01*
X150699901Y-103607007D01*
X150792993Y-103700099D01*
X150907007Y-103765925D01*
X151034174Y-103800000D01*
X151165826Y-103800000D01*
X151292993Y-103765925D01*
X151407007Y-103700099D01*
X151500099Y-103607007D01*
X151565925Y-103492993D01*
X151600000Y-103365826D01*
X151600000Y-103234174D01*
X151565925Y-103107007D01*
X151500099Y-102992993D01*
X151407007Y-102899901D01*
X151292993Y-102834075D01*
X151167692Y-102800500D01*
X151256245Y-102800500D01*
X151323284Y-102820185D01*
X151343926Y-102836819D01*
X151748519Y-103241412D01*
X151748521Y-103241416D01*
X152026265Y-103519160D01*
X152026266Y-103519160D01*
X152036254Y-103486234D01*
X152036255Y-103486233D01*
X152054596Y-103300000D01*
X152036255Y-103113768D01*
X151989760Y-102960495D01*
X151989137Y-102890629D01*
X152026385Y-102831516D01*
X152089679Y-102801925D01*
X152108421Y-102800500D01*
X156891579Y-102800500D01*
X156958618Y-102820185D01*
X157004373Y-102872989D01*
X157014317Y-102942147D01*
X157010240Y-102960495D01*
X156963744Y-103113768D01*
X156945403Y-103300000D01*
X156963744Y-103486230D01*
X156973733Y-103519159D01*
X157656074Y-102836819D01*
X157717397Y-102803334D01*
X157743755Y-102800500D01*
X157832308Y-102800500D01*
X157707007Y-102834075D01*
X157592993Y-102899901D01*
X157499901Y-102992993D01*
X157434075Y-103107007D01*
X157400000Y-103234174D01*
X157400000Y-103365826D01*
X157434075Y-103492993D01*
X157499901Y-103607007D01*
X157592993Y-103700099D01*
X157707007Y-103765925D01*
X157834174Y-103800000D01*
X157965826Y-103800000D01*
X158092993Y-103765925D01*
X158207007Y-103700099D01*
X158300099Y-103607007D01*
X158365925Y-103492993D01*
X158400000Y-103365826D01*
X158400000Y-103234174D01*
X158365925Y-103107007D01*
X158300099Y-102992993D01*
X158207007Y-102899901D01*
X158092993Y-102834075D01*
X157967692Y-102800500D01*
X158056245Y-102800500D01*
X158123284Y-102820185D01*
X158143926Y-102836819D01*
X158548519Y-103241412D01*
X158548521Y-103241416D01*
X158826266Y-103519160D01*
X158836254Y-103486234D01*
X158836255Y-103486233D01*
X158854596Y-103300000D01*
X158836255Y-103113768D01*
X158789760Y-102960495D01*
X158789137Y-102890629D01*
X158826385Y-102831516D01*
X158889679Y-102801925D01*
X158908421Y-102800500D01*
X163691579Y-102800500D01*
X163758618Y-102820185D01*
X163804373Y-102872989D01*
X163814317Y-102942147D01*
X163810240Y-102960495D01*
X163763744Y-103113768D01*
X163745403Y-103300000D01*
X163763744Y-103486230D01*
X163773733Y-103519159D01*
X164456074Y-102836819D01*
X164517397Y-102803334D01*
X164543755Y-102800500D01*
X164632308Y-102800500D01*
X164507007Y-102834075D01*
X164392993Y-102899901D01*
X164299901Y-102992993D01*
X164234075Y-103107007D01*
X164200000Y-103234174D01*
X164200000Y-103365826D01*
X164234075Y-103492993D01*
X164299901Y-103607007D01*
X164392993Y-103700099D01*
X164507007Y-103765925D01*
X164634174Y-103800000D01*
X164765826Y-103800000D01*
X164892993Y-103765925D01*
X165007007Y-103700099D01*
X165100099Y-103607007D01*
X165165925Y-103492993D01*
X165200000Y-103365826D01*
X165200000Y-103234174D01*
X165165925Y-103107007D01*
X165100099Y-102992993D01*
X165007007Y-102899901D01*
X164892993Y-102834075D01*
X164767692Y-102800500D01*
X164856245Y-102800500D01*
X164923284Y-102820185D01*
X164943926Y-102836819D01*
X165348519Y-103241412D01*
X165348521Y-103241416D01*
X165626266Y-103519160D01*
X165636254Y-103486234D01*
X165636255Y-103486233D01*
X165654596Y-103300000D01*
X165636255Y-103113768D01*
X165589760Y-102960495D01*
X165589137Y-102890629D01*
X165626385Y-102831516D01*
X165689679Y-102801925D01*
X165708421Y-102800500D01*
X170491579Y-102800500D01*
X170558618Y-102820185D01*
X170604373Y-102872989D01*
X170614317Y-102942147D01*
X170610240Y-102960495D01*
X170563744Y-103113768D01*
X170545403Y-103300000D01*
X170563744Y-103486230D01*
X170573733Y-103519159D01*
X171256074Y-102836819D01*
X171317397Y-102803334D01*
X171343755Y-102800500D01*
X171432308Y-102800500D01*
X171307007Y-102834075D01*
X171192993Y-102899901D01*
X171099901Y-102992993D01*
X171034075Y-103107007D01*
X171000000Y-103234174D01*
X171000000Y-103365826D01*
X171034075Y-103492993D01*
X171099901Y-103607007D01*
X171192993Y-103700099D01*
X171307007Y-103765925D01*
X171434174Y-103800000D01*
X171565826Y-103800000D01*
X171692993Y-103765925D01*
X171807007Y-103700099D01*
X171900099Y-103607007D01*
X171965925Y-103492993D01*
X172000000Y-103365826D01*
X172000000Y-103234174D01*
X171965925Y-103107007D01*
X171900099Y-102992993D01*
X171807007Y-102899901D01*
X171692993Y-102834075D01*
X171567692Y-102800500D01*
X171656245Y-102800500D01*
X171723284Y-102820185D01*
X171743926Y-102836819D01*
X172148519Y-103241412D01*
X172148521Y-103241416D01*
X172426265Y-103519160D01*
X172426266Y-103519160D01*
X172436254Y-103486234D01*
X172436255Y-103486233D01*
X172454596Y-103300000D01*
X172436255Y-103113768D01*
X172389760Y-102960495D01*
X172389137Y-102890629D01*
X172426385Y-102831516D01*
X172489679Y-102801925D01*
X172508421Y-102800500D01*
X173218097Y-102800500D01*
X173451368Y-102763553D01*
X173675992Y-102690568D01*
X173886434Y-102583343D01*
X174077510Y-102444517D01*
X176594517Y-99927510D01*
X176733343Y-99736433D01*
X176840568Y-99525992D01*
X176913553Y-99301368D01*
X176913770Y-99299999D01*
X176950500Y-99068097D01*
X176950500Y-92581902D01*
X176913553Y-92348631D01*
X176840566Y-92124003D01*
X176733342Y-91913565D01*
X176594517Y-91722490D01*
X172517510Y-87645483D01*
X172326434Y-87506657D01*
X172270413Y-87478113D01*
X172115996Y-87399433D01*
X171891368Y-87326446D01*
X171658097Y-87289500D01*
X171658092Y-87289500D01*
X171618092Y-87289500D01*
X161204500Y-87289500D01*
X161137461Y-87269815D01*
X161091706Y-87217011D01*
X161080500Y-87165500D01*
X161080500Y-86131902D01*
X161059608Y-86000000D01*
X176894592Y-86000000D01*
X176914201Y-86286680D01*
X176914201Y-86286684D01*
X176914202Y-86286686D01*
X176926758Y-86347108D01*
X176972666Y-86568034D01*
X176972667Y-86568037D01*
X177068894Y-86838793D01*
X177068893Y-86838793D01*
X177201098Y-87093935D01*
X177366812Y-87328700D01*
X177432872Y-87399432D01*
X177562947Y-87538708D01*
X177785853Y-87720055D01*
X177837563Y-87751501D01*
X178031382Y-87869365D01*
X178218237Y-87950526D01*
X178294942Y-87983844D01*
X178571642Y-88061371D01*
X178821920Y-88095771D01*
X178856321Y-88100500D01*
X178856322Y-88100500D01*
X179143679Y-88100500D01*
X179174370Y-88096281D01*
X179428358Y-88061371D01*
X179705058Y-87983844D01*
X179818015Y-87934779D01*
X179968617Y-87869365D01*
X179968620Y-87869363D01*
X179968625Y-87869361D01*
X180214147Y-87720055D01*
X180437053Y-87538708D01*
X180633189Y-87328698D01*
X180798901Y-87093936D01*
X180931104Y-86838797D01*
X181027334Y-86568032D01*
X181085798Y-86286686D01*
X181105408Y-86000000D01*
X181085798Y-85713314D01*
X181027334Y-85431968D01*
X181006281Y-85372732D01*
X180931105Y-85161206D01*
X180931106Y-85161206D01*
X180798901Y-84906064D01*
X180633187Y-84671299D01*
X180542518Y-84574217D01*
X180437053Y-84461292D01*
X180214147Y-84279945D01*
X180214146Y-84279944D01*
X179968617Y-84130634D01*
X179705063Y-84016158D01*
X179705061Y-84016157D01*
X179705058Y-84016156D01*
X179575578Y-83979877D01*
X179428364Y-83938630D01*
X179428359Y-83938629D01*
X179428358Y-83938629D01*
X179236367Y-83912240D01*
X179143679Y-83899500D01*
X179143678Y-83899500D01*
X178856322Y-83899500D01*
X178856321Y-83899500D01*
X178571642Y-83938629D01*
X178571635Y-83938630D01*
X178371438Y-83994723D01*
X178294942Y-84016156D01*
X178294939Y-84016156D01*
X178294936Y-84016158D01*
X178294935Y-84016158D01*
X178031382Y-84130634D01*
X177785853Y-84279944D01*
X177562950Y-84461289D01*
X177366812Y-84671299D01*
X177201098Y-84906064D01*
X177068894Y-85161206D01*
X176972667Y-85431962D01*
X176972666Y-85431965D01*
X176914201Y-85713319D01*
X176894592Y-86000000D01*
X161059608Y-86000000D01*
X161043553Y-85898631D01*
X160981029Y-85706205D01*
X160970568Y-85674008D01*
X160970566Y-85674005D01*
X160970565Y-85674000D01*
X160944014Y-85621891D01*
X160930499Y-85565597D01*
X160930499Y-85352129D01*
X160930498Y-85352123D01*
X160930497Y-85352116D01*
X160924091Y-85292517D01*
X160911691Y-85259272D01*
X160873797Y-85157671D01*
X160873793Y-85157664D01*
X160787547Y-85042455D01*
X160787544Y-85042452D01*
X160672335Y-84956206D01*
X160672328Y-84956202D01*
X160537482Y-84905908D01*
X160537483Y-84905908D01*
X160477883Y-84899501D01*
X160477881Y-84899500D01*
X160477873Y-84899500D01*
X160477865Y-84899500D01*
X160264400Y-84899500D01*
X160208105Y-84885985D01*
X160155996Y-84859433D01*
X159931368Y-84786446D01*
X159698097Y-84749500D01*
X159698092Y-84749500D01*
X159461908Y-84749500D01*
X159461903Y-84749500D01*
X159228630Y-84786447D01*
X159228627Y-84786447D01*
X159004009Y-84859431D01*
X159004008Y-84859431D01*
X158951893Y-84885985D01*
X158895600Y-84899500D01*
X158682130Y-84899500D01*
X158682123Y-84899501D01*
X158622516Y-84905908D01*
X158487671Y-84956202D01*
X158487664Y-84956206D01*
X158372455Y-85042452D01*
X158372452Y-85042455D01*
X158286206Y-85157664D01*
X158286202Y-85157671D01*
X158235908Y-85292517D01*
X158229501Y-85352116D01*
X158229501Y-85352123D01*
X158229500Y-85352135D01*
X158229500Y-85565599D01*
X158215985Y-85621893D01*
X158189431Y-85674008D01*
X158178592Y-85707368D01*
X158139154Y-85765043D01*
X158074795Y-85792241D01*
X158005949Y-85780326D01*
X157954473Y-85733081D01*
X157951303Y-85727502D01*
X157917271Y-85663833D01*
X157917267Y-85663826D01*
X157786055Y-85503944D01*
X157626173Y-85372732D01*
X157626166Y-85372727D01*
X157540000Y-85326671D01*
X157540000Y-86184174D01*
X157505925Y-86057007D01*
X157440099Y-85942993D01*
X157347007Y-85849901D01*
X157232993Y-85784075D01*
X157105826Y-85750000D01*
X156974174Y-85750000D01*
X156847007Y-85784075D01*
X156732993Y-85849901D01*
X156639901Y-85942993D01*
X156574075Y-86057007D01*
X156540000Y-86184174D01*
X156540000Y-85326671D01*
X156539999Y-85326671D01*
X156453833Y-85372727D01*
X156453826Y-85372732D01*
X156293944Y-85503944D01*
X156162732Y-85663826D01*
X156162728Y-85663833D01*
X156065232Y-85846236D01*
X156045113Y-85912559D01*
X156006815Y-85970997D01*
X155943003Y-85999454D01*
X155873936Y-85988893D01*
X155821543Y-85942668D01*
X155806678Y-85908656D01*
X155773905Y-85786344D01*
X155773904Y-85786343D01*
X155773903Y-85786337D01*
X155674035Y-85572171D01*
X155669433Y-85565599D01*
X155538496Y-85378600D01*
X155486567Y-85326671D01*
X155414290Y-85254394D01*
X155411729Y-85251754D01*
X155405766Y-85245421D01*
X155402504Y-85242419D01*
X155402618Y-85242294D01*
X155398605Y-85238709D01*
X155371401Y-85211505D01*
X155336146Y-85186819D01*
X155306629Y-85166151D01*
X155300513Y-85161580D01*
X154508577Y-84530762D01*
X154508578Y-84530762D01*
X154421365Y-84461292D01*
X154244759Y-84320615D01*
X154244750Y-84320608D01*
X154244741Y-84320601D01*
X154234408Y-84312791D01*
X154221495Y-84301549D01*
X153914674Y-83994727D01*
X153914673Y-83994726D01*
X153914669Y-83994723D01*
X153808127Y-83923535D01*
X153689744Y-83874499D01*
X153689738Y-83874497D01*
X153564071Y-83849500D01*
X153564069Y-83849500D01*
X142935170Y-83849500D01*
X142935168Y-83849500D01*
X142809500Y-83874497D01*
X142809494Y-83874499D01*
X142691113Y-83923534D01*
X142584565Y-83994726D01*
X142584564Y-83994727D01*
X135742290Y-90837002D01*
X135733976Y-90849446D01*
X135708131Y-90888127D01*
X135671105Y-90943539D01*
X135671100Y-90943547D01*
X135622066Y-91061927D01*
X135622064Y-91061933D01*
X135597067Y-91187600D01*
X127500500Y-91187600D01*
X127500500Y-86003750D01*
X127500613Y-86000000D01*
X127894592Y-86000000D01*
X127914201Y-86286680D01*
X127914201Y-86286684D01*
X127914202Y-86286686D01*
X127926758Y-86347108D01*
X127972666Y-86568034D01*
X127972667Y-86568037D01*
X128068894Y-86838793D01*
X128068893Y-86838793D01*
X128201098Y-87093935D01*
X128366812Y-87328700D01*
X128432872Y-87399432D01*
X128562947Y-87538708D01*
X128785853Y-87720055D01*
X128837563Y-87751501D01*
X129031382Y-87869365D01*
X129218237Y-87950526D01*
X129294942Y-87983844D01*
X129571642Y-88061371D01*
X129821920Y-88095771D01*
X129856321Y-88100500D01*
X129856322Y-88100500D01*
X130143679Y-88100500D01*
X130174370Y-88096281D01*
X130428358Y-88061371D01*
X130705058Y-87983844D01*
X130818015Y-87934779D01*
X130968617Y-87869365D01*
X130968620Y-87869363D01*
X130968625Y-87869361D01*
X131214147Y-87720055D01*
X131437053Y-87538708D01*
X131633189Y-87328698D01*
X131798901Y-87093936D01*
X131931104Y-86838797D01*
X132027334Y-86568032D01*
X132085798Y-86286686D01*
X132105408Y-86000000D01*
X132085798Y-85713314D01*
X132027334Y-85431968D01*
X132006281Y-85372732D01*
X131931105Y-85161206D01*
X131931106Y-85161206D01*
X131798901Y-84906064D01*
X131633187Y-84671299D01*
X131542518Y-84574217D01*
X131437053Y-84461292D01*
X131214147Y-84279945D01*
X131214146Y-84279944D01*
X130968617Y-84130634D01*
X130705063Y-84016158D01*
X130705061Y-84016157D01*
X130705058Y-84016156D01*
X130575578Y-83979877D01*
X130428364Y-83938630D01*
X130428359Y-83938629D01*
X130428358Y-83938629D01*
X130236367Y-83912240D01*
X130143679Y-83899500D01*
X130143678Y-83899500D01*
X129856322Y-83899500D01*
X129856321Y-83899500D01*
X129571642Y-83938629D01*
X129571635Y-83938630D01*
X129371438Y-83994723D01*
X129294942Y-84016156D01*
X129294939Y-84016156D01*
X129294936Y-84016158D01*
X129294935Y-84016158D01*
X129031382Y-84130634D01*
X128785853Y-84279944D01*
X128562950Y-84461289D01*
X128366812Y-84671299D01*
X128201098Y-84906064D01*
X128068894Y-85161206D01*
X127972667Y-85431962D01*
X127972666Y-85431965D01*
X127914201Y-85713319D01*
X127894592Y-86000000D01*
X127500613Y-86000000D01*
X127500726Y-85996263D01*
X127506025Y-85908656D01*
X127518271Y-85706201D01*
X127520076Y-85691340D01*
X127537664Y-85595369D01*
X127571780Y-85409197D01*
X127575364Y-85394663D01*
X127660696Y-85120822D01*
X127665998Y-85106841D01*
X127783731Y-84845249D01*
X127790676Y-84832016D01*
X127939080Y-84586526D01*
X127947567Y-84574230D01*
X128124480Y-84348417D01*
X128134395Y-84337226D01*
X128337226Y-84134395D01*
X128348417Y-84124480D01*
X128574230Y-83947567D01*
X128586526Y-83939080D01*
X128832016Y-83790676D01*
X128845249Y-83783731D01*
X129106841Y-83665998D01*
X129120822Y-83660696D01*
X129394668Y-83575362D01*
X129409197Y-83571780D01*
X129691344Y-83520075D01*
X129706201Y-83518271D01*
X129996264Y-83500726D01*
X130003751Y-83500500D01*
X130065892Y-83500500D01*
X178934108Y-83500500D01*
X178996249Y-83500500D01*
X179003736Y-83500726D01*
G37*
%TD.AperFunction*%
%TD*%
%TA.AperFunction,Conductor*%
%TO.N,Net-(J7-Pin_8)*%
G36*
X157617475Y-96617899D02*
G01*
X157617600Y-96618188D01*
X157899133Y-97295509D01*
X157899144Y-97304464D01*
X157899133Y-97304491D01*
X157617600Y-97981811D01*
X157611260Y-97988135D01*
X157602305Y-97988124D01*
X157602016Y-97987999D01*
X156406920Y-97453097D01*
X156400769Y-97446589D01*
X156400000Y-97442418D01*
X156400000Y-97157581D01*
X156403427Y-97149308D01*
X156406916Y-97146904D01*
X157602016Y-96611999D01*
X157610967Y-96611748D01*
X157617475Y-96617899D01*
G37*
%TD.AperFunction*%
%TD*%
%TA.AperFunction,Conductor*%
%TO.N,Net-(J7-Pin_8)*%
G36*
X152743006Y-88469372D02*
G01*
X152749331Y-88475711D01*
X152749498Y-88476138D01*
X153265564Y-89878993D01*
X153265204Y-89887940D01*
X153262856Y-89891305D01*
X153061305Y-90092856D01*
X153053032Y-90096283D01*
X153048993Y-90095564D01*
X151646138Y-89579498D01*
X151639556Y-89573425D01*
X151639196Y-89564478D01*
X151639363Y-89564051D01*
X151957438Y-88793783D01*
X151963759Y-88787448D01*
X152734051Y-88469363D01*
X152743006Y-88469372D01*
G37*
%TD.AperFunction*%
%TD*%
%TA.AperFunction,Conductor*%
%TO.N,Net-(J7-Pin_5)*%
G36*
X136552484Y-96135975D02*
G01*
X137775783Y-96602804D01*
X137782291Y-96608955D01*
X137782543Y-96617906D01*
X137782427Y-96618199D01*
X137502562Y-97296211D01*
X137496238Y-97302551D01*
X137496211Y-97302562D01*
X136818199Y-97582427D01*
X136809244Y-97582416D01*
X136802920Y-97576076D01*
X136802804Y-97575783D01*
X136698539Y-97302562D01*
X136335976Y-96352486D01*
X136336228Y-96343538D01*
X136338631Y-96340048D01*
X136540046Y-96138633D01*
X136548318Y-96135207D01*
X136552484Y-96135975D01*
G37*
%TD.AperFunction*%
%TD*%
%TA.AperFunction,Conductor*%
%TO.N,Net-(J7-Pin_5)*%
G36*
X153929789Y-84715994D02*
G01*
X154193626Y-84926155D01*
X155090806Y-85640806D01*
X155095142Y-85648641D01*
X155092668Y-85657248D01*
X155091799Y-85658221D01*
X154504139Y-86247265D01*
X154495870Y-86250702D01*
X154495846Y-86250702D01*
X153662224Y-86250009D01*
X153653954Y-86246575D01*
X153650534Y-86238299D01*
X153650544Y-86237830D01*
X153709281Y-84926153D01*
X153712695Y-84918406D01*
X153914228Y-84716873D01*
X153922500Y-84713447D01*
X153929789Y-84715994D01*
G37*
%TD.AperFunction*%
%TD*%
%TA.AperFunction,Conductor*%
%TO.N,Net-(J7-Pin_6)*%
G36*
X153451662Y-87587559D02*
G01*
X154812939Y-88000954D01*
X154819858Y-88006636D01*
X154820733Y-88015548D01*
X154820349Y-88016621D01*
X154501856Y-88786512D01*
X154495527Y-88792846D01*
X154495511Y-88792853D01*
X153725931Y-89110643D01*
X153716976Y-89110634D01*
X153710651Y-89104295D01*
X153710501Y-89103912D01*
X153308731Y-88016621D01*
X153155822Y-87602810D01*
X153156169Y-87593862D01*
X153162742Y-87587780D01*
X153166797Y-87587055D01*
X153448263Y-87587055D01*
X153451662Y-87587559D01*
G37*
%TD.AperFunction*%
%TD*%
%TA.AperFunction,Conductor*%
%TO.N,Net-(J7-Pin_6)*%
G36*
X143352484Y-96135975D02*
G01*
X144575783Y-96602804D01*
X144582291Y-96608955D01*
X144582543Y-96617906D01*
X144582427Y-96618199D01*
X144302562Y-97296211D01*
X144296238Y-97302551D01*
X144296211Y-97302562D01*
X143618199Y-97582427D01*
X143609244Y-97582416D01*
X143602920Y-97576076D01*
X143602804Y-97575783D01*
X143498539Y-97302562D01*
X143135976Y-96352486D01*
X143136228Y-96343538D01*
X143138631Y-96340048D01*
X143340046Y-96138633D01*
X143348318Y-96135207D01*
X143352484Y-96135975D01*
G37*
%TD.AperFunction*%
%TD*%
%TA.AperFunction,Conductor*%
%TO.N,Net-(J7-Pin_7)*%
G36*
X151185931Y-85929356D02*
G01*
X151202299Y-85936115D01*
X151955511Y-86247146D01*
X151961850Y-86253471D01*
X151961856Y-86253487D01*
X152280349Y-87023378D01*
X152280345Y-87032333D01*
X152274011Y-87038662D01*
X152272938Y-87039046D01*
X150911663Y-87452440D01*
X150908263Y-87452945D01*
X150626797Y-87452945D01*
X150618524Y-87449518D01*
X150615097Y-87441245D01*
X150615822Y-87437190D01*
X151055560Y-86247146D01*
X151170491Y-85936113D01*
X151176572Y-85929542D01*
X151185520Y-85929195D01*
X151185931Y-85929356D01*
G37*
%TD.AperFunction*%
%TD*%
%TA.AperFunction,Conductor*%
%TO.N,Net-(J7-Pin_7)*%
G36*
X150132326Y-96165691D02*
G01*
X151375372Y-96602995D01*
X151382039Y-96608973D01*
X151382526Y-96617915D01*
X151382304Y-96618496D01*
X151102562Y-97296211D01*
X151096238Y-97302551D01*
X151096211Y-97302562D01*
X150417953Y-97582528D01*
X150408998Y-97582517D01*
X150402674Y-97576177D01*
X150402654Y-97576129D01*
X149916179Y-96382573D01*
X149916230Y-96373618D01*
X149918738Y-96369887D01*
X150120171Y-96168454D01*
X150128443Y-96165028D01*
X150132326Y-96165691D01*
G37*
%TD.AperFunction*%
%TD*%
M02*
